<svg version="1.1" xmlns="http://www.w3.org/2000/svg" viewBox="0 0 1383.8326647301428 750.3270061974272" width="1383.8326647301428" height="750.3270061974272" class="excalidraw-svg">
  <!-- svg-source:excalidraw -->
  
  <defs>
    <style class="style-fonts">
      
    </style>
    
  </defs>
  <rect x="0" y="0" width="1383.8326647301428" height="750.3270061974272" fill="#ffffff"></rect><g stroke-linecap="round" transform="translate(10 615.0796819871639) rotate(0 629.258888292123 62.62366210513164)"><path d="M31.31 0 C342.65 -4.81, 653.34 -4.74, 1227.21 0 C1244.8 1.97, 1257.92 9.76, 1258.52 31.31 C1260.86 40.71, 1260.15 53.63, 1258.52 93.94 C1259.41 115.46, 1244.83 124.76, 1227.21 125.25 C811.47 121.84, 397.4 121.89, 31.31 125.25 C7.92 126.89, -0.28 115.37, 0 93.94 C0.23 78.28, -2.66 66.03, 0 31.31 C-3.41 10.29, 13.23 3.55, 31.31 0" stroke="none" stroke-width="0" fill="#ffc9c9"></path><path d="M31.31 0 C424.83 0.03, 817.87 -0.42, 1227.21 0 M31.31 0 C383.72 0.4, 736.55 0.16, 1227.21 0 M1227.21 0 C1246.32 -1.77, 1259.23 11.59, 1258.52 31.31 M1227.21 0 C1246.98 -1.51, 1258.51 11.66, 1258.52 31.31 M1258.52 31.31 C1257.79 49.21, 1257.38 66.39, 1258.52 93.94 M1258.52 31.31 C1257.86 48.75, 1257.15 66.14, 1258.52 93.94 M1258.52 93.94 C1259.72 113.52, 1248.03 124.73, 1227.21 125.25 M1258.52 93.94 C1257.16 112.93, 1246.03 125.37, 1227.21 125.25 M1227.21 125.25 C947.36 127.47, 666.05 126.8, 31.31 125.25 M1227.21 125.25 C826.52 124.48, 425.12 124.32, 31.31 125.25 M31.31 125.25 C9.03 126.37, 1.26 116.43, 0 93.94 M31.31 125.25 C9.32 126.45, -1.33 114.59, 0 93.94 M0 93.94 C0.1 80.8, 0.02 65.73, 0 31.31 M0 93.94 C0.14 74.71, 0.36 55.66, 0 31.31 M0 31.31 C0.59 11.66, 11.33 -0.1, 31.31 0 M0 31.31 C-0.44 10.5, 9.44 -1.31, 31.31 0" stroke="#1e1e1e" stroke-width="2" fill="none"></path></g><g transform="translate(552.7184677598964 660.8062120436821) rotate(0 86.54042053222656 16.897132048613457)"><text x="86.54042053222656" y="24.83201148380652" font-family="Helvetica, Segoe UI Emoji" font-size="29.386316606284385px" fill="#1e1e1e" text-anchor="middle" style="white-space: pre;" direction="ltr" dominant-baseline="alphabetic">40 GB HBM2</text></g><g stroke-linecap="round" transform="translate(16.133993315117095 429.03814953382107) rotate(0 516.6328375639903 29.99385300726135)"><path d="M15 0 C364.85 -2.33, 715.25 -2.07, 1018.27 0 C1025.33 1.96, 1034.06 3.91, 1033.27 15 C1032.26 21.02, 1035.06 28.8, 1033.27 44.99 C1032.15 52.97, 1027.66 61.85, 1018.27 59.99 C676.11 54.04, 336.16 56.15, 15 59.99 C8.42 56.42, -1.48 54.87, 0 44.99 C3.93 35.81, -2.5 22.3, 0 15 C0.49 3.06, 5.04 0.08, 15 0" stroke="none" stroke-width="0" fill="#ffc9c9"></path><path d="M15 0 C411.03 0.81, 809.25 0.69, 1018.27 0 M15 0 C296.74 -1.79, 577.94 -1.12, 1018.27 0 M1018.27 0 C1028.18 0.89, 1034.76 5.97, 1033.27 15 M1018.27 0 C1028.91 1.49, 1032.91 5.72, 1033.27 15 M1033.27 15 C1031.82 24.13, 1033.59 31.82, 1033.27 44.99 M1033.27 15 C1033.01 23.02, 1032.68 32.41, 1033.27 44.99 M1033.27 44.99 C1032.66 54.91, 1028.51 59.11, 1018.27 59.99 M1033.27 44.99 C1035.31 54.1, 1030.55 59.75, 1018.27 59.99 M1018.27 59.99 C704.84 61.83, 390.27 62.06, 15 59.99 M1018.27 59.99 C736.47 59.04, 454.21 58.7, 15 59.99 M15 59.99 C5.9 58.87, 1.31 54.77, 0 44.99 M15 59.99 C4.5 60.4, 2.26 52.73, 0 44.99 M0 44.99 C-0.41 38.01, 1.48 30.87, 0 15 M0 44.99 C-0.09 33.84, -0.06 23.75, 0 15 M0 15 C0.49 3.76, 3.56 0.81, 15 0 M0 15 C-0.85 4.71, 2.74 0.06, 15 0" stroke="#1e1e1e" stroke-width="2" fill="none"></path></g><g transform="translate(469.8896336134824 442.13487049246896) rotate(0 62.877197265625 16.897132048613457)"><text x="62.877197265625" y="24.83201148380652" font-family="Helvetica, Segoe UI Emoji" font-size="29.386316606284385px" fill="#1e1e1e" text-anchor="middle" style="white-space: pre;" direction="ltr" dominant-baseline="alphabetic">40 MB L2</text></g><g stroke-linecap="round"><g transform="translate(519.0662211806832 600.0679459804164) rotate(0 0 -51.110957196865)"><path d="M0.08 0.69 C-0.14 -16.53, -0.41 -85.58, -0.61 -102.84 M-1.33 0.01 C-1.22 -17.1, 1.36 -84.64, 1.79 -101.63" stroke="#1e1e1e" stroke-width="2" fill="none"></path></g><g transform="translate(519.0662211806832 600.0679459804164) rotate(0 0 -51.110957196865)"><path d="M9.58 -77.88 C7.82 -87.5, 2.8 -96.93, 1.79 -101.63 M9.58 -77.88 C7.44 -83.05, 4.71 -88.47, 1.79 -101.63" stroke="#1e1e1e" stroke-width="2" fill="none"></path></g><g transform="translate(519.0662211806832 600.0679459804164) rotate(0 0 -51.110957196865)"><path d="M-7.51 -78.43 C-3.08 -87.86, -1.9 -97.1, 1.79 -101.63 M-7.51 -78.43 C-5.47 -83.55, -4.03 -88.85, 1.79 -101.63" stroke="#1e1e1e" stroke-width="2" fill="none"></path></g></g><mask></mask><g transform="translate(574.286854191626 532.3059621648022) rotate(0 73.107421875 20.700000000000045)"><text x="73.107421875" y="30.420703125" font-family="Helvetica, Segoe UI Emoji" font-size="36px" fill="#1e1e1e" text-anchor="middle" style="white-space: pre;" direction="ltr" dominant-baseline="alphabetic">1.55TB/s</text></g><g transform="translate(1154.8092272301428 438.79074962887444) rotate(0 109.51171874999994 20.700000000000045)"><text x="109.51171875" y="30.420703125" font-family="Helvetica, Segoe UI Emoji" font-size="36px" fill="#1e1e1e" text-anchor="middle" style="white-space: pre;" direction="ltr" dominant-baseline="alphabetic">PCIe, NVLink</text></g><g stroke-linecap="round"><g transform="translate(1141.7263892711064 451.87990560361686) rotate(0 -39.8628692051646 0)"><path d="M0.15 0.31 C-13.09 0.15, -65.77 -0.9, -79.24 -0.81 M-1.23 -0.58 C-14.6 -0.61, -67.09 0.38, -79.94 0.3" stroke="#1e1e1e" stroke-width="2" fill="none"></path></g><g transform="translate(1141.7263892711064 451.87990560361686) rotate(0 -39.8628692051646 0)"><path d="M-56.51 -8.44 C-63.42 -4.83, -72.71 -4.46, -79.94 0.3 M-56.51 -8.44 C-65.09 -6.15, -73.06 -2.02, -79.94 0.3" stroke="#1e1e1e" stroke-width="2" fill="none"></path></g><g transform="translate(1141.7263892711064 451.87990560361686) rotate(0 -39.8628692051646 0)"><path d="M-56.38 8.66 C-63.34 6.85, -72.68 1.79, -79.94 0.3 M-56.38 8.66 C-64.92 4.61, -72.94 2.4, -79.94 0.3" stroke="#1e1e1e" stroke-width="2" fill="none"></path></g></g><mask></mask><g stroke-linecap="round"><g transform="translate(1059.3188283472496 477.1927864729414) rotate(0 43.43870173629318 -0.00012510609985838528)"><path d="M1.19 -0.64 C15.93 -0.98, 73.26 -1.24, 87.37 -1.01 M0.35 1.63 C15.07 1.33, 72.04 0.48, 86.69 0" stroke="#1e1e1e" stroke-width="2" fill="none"></path></g><g transform="translate(1059.3188283472496 477.1927864729414) rotate(0 43.43870173629318 -0.00012510609985838528)"><path d="M63.39 9.08 C67.2 7.75, 71.55 3.3, 86.69 0 M63.39 9.08 C71.03 5.41, 79.54 2.03, 86.69 0" stroke="#1e1e1e" stroke-width="2" fill="none"></path></g><g transform="translate(1059.3188283472496 477.1927864729414) rotate(0 43.43870173629318 -0.00012510609985838528)"><path d="M63.01 -8.02 C67.04 -5.72, 71.47 -6.53, 86.69 0 M63.01 -8.02 C70.66 -5.5, 79.31 -2.7, 86.69 0" stroke="#1e1e1e" stroke-width="2" fill="none"></path></g></g><mask></mask><g stroke-linecap="round"><g transform="translate(539.362711779153 504.11722930693077) rotate(0 0 48.76936342019826)"><path d="M-1.1 -0.67 C-0.9 15.8, 0.42 81.72, 0.58 98.2 M0.52 1.6 C0.66 17.77, 0.19 80.65, -0.06 96.43" stroke="#1e1e1e" stroke-width="2" fill="none"></path></g><g transform="translate(539.362711779153 504.11722930693077) rotate(0 0 48.76936342019826)"><path d="M-8.36 72.85 C-7.52 79.77, -3.23 84.45, -0.06 96.43 M-8.36 72.85 C-5.18 81.9, -2.5 89.85, -0.06 96.43" stroke="#1e1e1e" stroke-width="2" fill="none"></path></g><g transform="translate(539.362711779153 504.11722930693077) rotate(0 0 48.76936342019826)"><path d="M8.74 73.03 C5.31 79.76, 5.34 84.39, -0.06 96.43 M8.74 73.03 C5.77 82.19, 2.31 90.07, -0.06 96.43" stroke="#1e1e1e" stroke-width="2" fill="none"></path></g></g><mask></mask><g stroke-linecap="round" transform="translate(598.4501155418748 10) rotate(0 332.29403137007273 148.87115916285234)"><path d="M32 0 C209.48 -2.97, 387.58 -2.53, 632.59 0 C654.54 1.61, 661.51 11.26, 664.59 32 C667.84 85.3, 665.88 133, 664.59 265.74 C663.73 289.86, 651.17 294.5, 632.59 297.74 C494.95 300.49, 356.28 301.74, 32 297.74 C9.15 300.99, 3.56 285.56, 0 265.74 C2.14 212.82, 4.31 161.95, 0 32 C-0.45 12.49, 8.88 2.61, 32 0" stroke="none" stroke-width="0" fill="#a5d8ff"></path><path d="M32 0 C219.32 2.2, 407.58 2.56, 632.59 0 M32 0 C228.65 2.66, 425.11 2.39, 632.59 0 M632.59 0 C652 0.17, 665.93 9.73, 664.59 32 M632.59 0 C652.16 -0.91, 664.96 8.83, 664.59 32 M664.59 32 C663.11 88.97, 663.16 148.47, 664.59 265.74 M664.59 32 C665.45 104.9, 666.58 179.72, 664.59 265.74 M664.59 265.74 C666.55 286.58, 654.93 298.27, 632.59 297.74 M664.59 265.74 C663.5 287.07, 654.51 298.12, 632.59 297.74 M632.59 297.74 C405.57 300.58, 178.86 300.79, 32 297.74 M632.59 297.74 C453.54 297.29, 273.49 297.75, 32 297.74 M32 297.74 C9.27 296.85, -0.11 286.61, 0 265.74 M32 297.74 C9.1 298.06, 1.95 288.86, 0 265.74 M0 265.74 C1.56 215.8, -1.35 164.46, 0 32 M0 265.74 C0.13 205.87, -1.21 147.37, 0 32 M0 32 C1.3 12.37, 8.86 0.5, 32 0 M0 32 C-2.3 9.07, 9.36 -1.02, 32 0" stroke="#1e1e1e" stroke-width="2" fill="none"></path></g><g transform="translate(603.4501155418748 15) rotate(0 28.0986328125 41.40000000000009)"><text x="0" y="30.420703125" font-family="Helvetica, Segoe UI Emoji" font-size="36px" fill="#1e1e1e" text-anchor="start" style="white-space: pre;" direction="ltr" dominant-baseline="alphabetic">SM</text><text x="0" y="71.820703125" font-family="Helvetica, Segoe UI Emoji" font-size="36px" fill="#1e1e1e" text-anchor="start" style="white-space: pre;" direction="ltr" dominant-baseline="alphabetic">  1</text></g><g stroke-linecap="round" transform="translate(607.2058796631749 195.290357311545) rotate(0 124.26163323164297 50.50917929278785)"><path d="M25.25 0 C105.02 3.05, 181.81 5.77, 223.27 0 C241.69 1.01, 247.68 7.09, 248.52 25.25 C247.48 40.41, 251.77 62.88, 248.52 75.76 C252.12 91.66, 237.76 98.15, 223.27 101.02 C158.16 104.58, 88.04 103.28, 25.25 101.02 C7.93 99.83, 3.24 90.47, 0 75.76 C4.21 62.39, 1.17 52.16, 0 25.25 C1.39 9.32, 11.97 -0.2, 25.25 0" stroke="none" stroke-width="0" fill="#b2f2bb"></path><path d="M25.25 0 C103.43 1.54, 180.87 1.14, 223.27 0 M25.25 0 C103.68 1.57, 182.01 0.54, 223.27 0 M223.27 0 C241.37 -1.75, 247.64 9.99, 248.52 25.25 M223.27 0 C238.27 -0.18, 248.33 10.47, 248.52 25.25 M248.52 25.25 C246.79 40.62, 249.96 57.06, 248.52 75.76 M248.52 25.25 C248.23 42, 247.89 59.95, 248.52 75.76 M248.52 75.76 C247.67 94.2, 239.19 100.55, 223.27 101.02 M248.52 75.76 C249.6 92.2, 240.45 101.72, 223.27 101.02 M223.27 101.02 C160.35 104.48, 97.04 100.93, 25.25 101.02 M223.27 101.02 C149.04 100.86, 72.54 102.19, 25.25 101.02 M25.25 101.02 C10.12 99.83, 1.07 94.26, 0 75.76 M25.25 101.02 C8.77 100.34, -1.13 94.33, 0 75.76 M0 75.76 C1.61 62.18, -0.28 46.99, 0 25.25 M0 75.76 C0.24 55.33, -0.49 34.93, 0 25.25 M0 25.25 C1.99 9.04, 8.56 -0.99, 25.25 0 M0 25.25 C2.23 8.56, 8.58 1.22, 25.25 0" stroke="#1e1e1e" stroke-width="2" fill="none"></path></g><g transform="translate(647.4001300823179 225.09953660433303) rotate(0 84.0673828125 20.700000000000045)"><text x="84.0673828125" y="30.420703125" font-family="Helvetica, Segoe UI Emoji" font-size="36px" fill="#1e1e1e" text-anchor="middle" style="white-space: pre;" direction="ltr" dominant-baseline="alphabetic">192 KB L1</text></g><g stroke-linecap="round" transform="translate(854.8352052886183 196.18436732914597) rotate(0 192.203195005488 50.50917929278785)"><path d="M25.25 0 C151.24 0.44, 272.06 -2.18, 359.15 0 C372.47 1.35, 385.19 9.58, 384.41 25.25 C386.17 33, 384.32 42.61, 384.41 75.76 C387.32 90.57, 378.57 97.99, 359.15 101.02 C233.5 96.43, 105.8 96.18, 25.25 101.02 C8.3 101.54, 2.2 93.09, 0 75.76 C-1.57 58.83, 3.43 49.68, 0 25.25 C-2.94 7.61, 7.42 -0.96, 25.25 0" stroke="none" stroke-width="0" fill="#b2f2bb"></path><path d="M25.25 0 C125.44 2.18, 224.11 1.11, 359.15 0 M25.25 0 C144.61 1.52, 265.2 1.28, 359.15 0 M359.15 0 C377.08 1.91, 385.71 8.78, 384.41 25.25 M359.15 0 C377.42 2.1, 384.66 7.62, 384.41 25.25 M384.41 25.25 C386.41 45.58, 383.43 63.96, 384.41 75.76 M384.41 25.25 C384 39.76, 385.22 56.39, 384.41 75.76 M384.41 75.76 C382.86 92.04, 375.62 99.24, 359.15 101.02 M384.41 75.76 C386.11 94.07, 374.94 101.01, 359.15 101.02 M359.15 101.02 C290.58 97.84, 223.96 100.34, 25.25 101.02 M359.15 101.02 C258.59 98.69, 158.27 98.72, 25.25 101.02 M25.25 101.02 C6.47 99.09, 0.24 92.08, 0 75.76 M25.25 101.02 C6.26 99.13, -0.61 94.46, 0 75.76 M0 75.76 C-2.13 59.67, 0.76 39.01, 0 25.25 M0 75.76 C0.07 61.91, -1.05 47.42, 0 25.25 M0 25.25 C0.04 6.94, 6.88 -1.69, 25.25 0 M0 25.25 C-0.75 9.7, 8.4 -1.72, 25.25 0" stroke="#1e1e1e" stroke-width="2" fill="none"></path></g><g transform="translate(862.0022674816064 225.993546621934) rotate(0 185.0361328125 20.700000000000045)"><text x="185.0361328125" y="30.420703125" font-family="Helvetica, Segoe UI Emoji" font-size="36px" fill="#1e1e1e" text-anchor="middle" style="white-space: pre;" direction="ltr" dominant-baseline="alphabetic">Shared Memory (SHM)</text></g><g stroke-linecap="round" transform="translate(694.8148835519582 30.081274641323944) rotate(0 192.203195005488 50.50917929278785)"><path d="M25.25 0 C136.77 0.73, 253.06 2.2, 359.15 0 C375.29 3.24, 387.95 6.47, 384.41 25.25 C383.54 47.64, 383.57 63.93, 384.41 75.76 C386.75 91.99, 375.88 101.9, 359.15 101.02 C259.32 100.36, 155.54 103.06, 25.25 101.02 C11.97 100.71, 2.55 89.1, 0 75.76 C0.85 61.37, -0.09 46.6, 0 25.25 C1.99 8.27, 9.97 2.54, 25.25 0" stroke="none" stroke-width="0" fill="#ffffff"></path><path d="M25.25 0 C156.15 0.34, 283.53 0.49, 359.15 0 M25.25 0 C93.01 1.18, 160.61 -0.04, 359.15 0 M359.15 0 C374.51 -1.88, 384.03 10.03, 384.41 25.25 M359.15 0 C377.71 1.32, 384.18 8.3, 384.41 25.25 M384.41 25.25 C386.84 46.99, 385.08 65.09, 384.41 75.76 M384.41 25.25 C384.75 39.76, 384.62 53.32, 384.41 75.76 M384.41 75.76 C383.96 93.28, 377.13 99.46, 359.15 101.02 M384.41 75.76 C386.39 90.72, 375.29 102.66, 359.15 101.02 M359.15 101.02 C282.08 98, 204.22 98.4, 25.25 101.02 M359.15 101.02 C274.2 102.72, 188.81 102.34, 25.25 101.02 M25.25 101.02 C10.14 100.54, -1.57 93.88, 0 75.76 M25.25 101.02 C7.65 101.52, 2.08 93.57, 0 75.76 M0 75.76 C0.26 58.82, -2.26 43.85, 0 25.25 M0 75.76 C0.6 58.26, -1 39.91, 0 25.25 M0 25.25 C1.86 7.75, 9.56 0.69, 25.25 0 M0 25.25 C-1.82 8.58, 7.54 1.8, 25.25 0" stroke="#1e1e1e" stroke-width="2" fill="none"></path></g><g transform="translate(776.6010863699462 39.1904539341117) rotate(0 110.41699218749997 41.40000000000009)"><text x="110.4169921875" y="30.420703125" font-family="Helvetica, Segoe UI Emoji" font-size="36px" fill="#1e1e1e" text-anchor="middle" style="white-space: pre;" direction="ltr" dominant-baseline="alphabetic">Compute Unit</text><text x="110.4169921875" y="71.820703125" font-family="Helvetica, Segoe UI Emoji" font-size="36px" fill="#1e1e1e" text-anchor="middle" style="white-space: pre;" direction="ltr" dominant-baseline="alphabetic">Registers</text></g><g stroke-linecap="round"><g transform="translate(748.6276730266322 188.348030198159) rotate(0 -2.842170943040401e-14 -22.708741115821567)"><path d="M0.27 -0.52 C0.38 -8.15, 0.31 -37.82, 0.2 -45.28 M-0.25 0.41 C-0.16 -7.16, -0.3 -38.67, -0.13 -46.18" stroke="#1e1e1e" stroke-width="2" fill="none"></path></g><g transform="translate(748.6276730266322 188.348030198159) rotate(0 -2.842170943040401e-14 -22.708741115821567)"><path d="M7.49 -24.79 C4.81 -29.01, 4.35 -34.63, -0.13 -46.18 M7.49 -24.79 C4.81 -32.03, 2.76 -38.12, -0.13 -46.18" stroke="#1e1e1e" stroke-width="2" fill="none"></path></g><g transform="translate(748.6276730266322 188.348030198159) rotate(0 -2.842170943040401e-14 -22.708741115821567)"><path d="M-8.04 -24.9 C-7.38 -29.13, -4.49 -34.74, -0.13 -46.18 M-8.04 -24.9 C-5.79 -32.17, -2.91 -38.22, -0.13 -46.18" stroke="#1e1e1e" stroke-width="2" fill="none"></path></g></g><mask></mask><g stroke-linecap="round"><g transform="translate(771.8708266081221 141.14266629083068) rotate(0 2.842170943040401e-14 20.473785251577738)"><path d="M0.44 0.41 C0.43 7.3, 0.5 34.12, 0.36 40.83 M0 0.15 C-0.09 7.17, 0 34.64, 0.11 41.47" stroke="#1e1e1e" stroke-width="2" fill="none"></path></g><g transform="translate(771.8708266081221 141.14266629083068) rotate(0 2.842170943040401e-14 20.473785251577738)"><path d="M-7.05 22.29 C-3.67 30.2, -1.91 36.03, 0.11 41.47 M-7.05 22.29 C-5.37 27.52, -3.99 31.85, 0.11 41.47" stroke="#1e1e1e" stroke-width="2" fill="none"></path></g><g transform="translate(771.8708266081221 141.14266629083068) rotate(0 2.842170943040401e-14 20.473785251577738)"><path d="M6.95 22.17 C5.01 30.18, 1.44 36.06, 0.11 41.47 M6.95 22.17 C5.17 27.44, 3.08 31.8, 0.11 41.47" stroke="#1e1e1e" stroke-width="2" fill="none"></path></g></g><mask></mask><g stroke-linecap="round"><g transform="translate(952.452410232986 186.56007934271565) rotate(0 0 -18.685868986013475)"><path d="M0.05 0.4 C0.02 -5.73, -0.51 -30.58, -0.48 -36.83 M-0.58 0.13 C-0.43 -6.13, 0.41 -31.16, 0.51 -37.52" stroke="#1e1e1e" stroke-width="2" fill="none"></path></g><g transform="translate(952.452410232986 186.56007934271565) rotate(0 0 -18.685868986013475)"><path d="M6.45 -19.81 C5.64 -25.08, 4.38 -28.33, 0.51 -37.52 M6.45 -19.81 C4.57 -25.78, 2.72 -31.97, 0.51 -37.52" stroke="#1e1e1e" stroke-width="2" fill="none"></path></g><g transform="translate(952.452410232986 186.56007934271565) rotate(0 0 -18.685868986013475)"><path d="M-6.33 -20.13 C-3.92 -25.33, -1.97 -28.5, 0.51 -37.52 M-6.33 -20.13 C-3.78 -25.93, -1.2 -32, 0.51 -37.52" stroke="#1e1e1e" stroke-width="2" fill="none"></path></g></g><mask></mask><g stroke-linecap="round"><g transform="translate(979.2714655253628 143.82455798411684) rotate(0 0 21.36776067929941)"><path d="M-0.29 0.36 C-0.18 7.48, 0.02 35.6, 0.13 42.62 M0.56 0.08 C0.66 7.28, -0.17 36.11, -0.23 43.26" stroke="#1e1e1e" stroke-width="2" fill="none"></path></g><g transform="translate(979.2714655253628 143.82455798411684) rotate(0 0 21.36776067929941)"><path d="M-7.15 23.04 C-5.11 27.37, -4.6 31.88, -0.23 43.26 M-7.15 23.04 C-5.13 28.49, -4 33.59, -0.23 43.26" stroke="#1e1e1e" stroke-width="2" fill="none"></path></g><g transform="translate(979.2714655253628 143.82455798411684) rotate(0 0 21.36776067929941)"><path d="M7.46 23.32 C6.57 27.55, 4.14 32.01, -0.23 43.26 M7.46 23.32 C5.8 28.73, 3.24 33.76, -0.23 43.26" stroke="#1e1e1e" stroke-width="2" fill="none"></path></g></g><mask></mask><g transform="translate(306.37801501246986 74.99922817057404) rotate(0 47.15087127685547 65.05674701358203)"><text x="0" y="95.60734237576862" font-family="Helvetica, Segoe UI Emoji" font-size="113.14216871927317px" fill="#1e1e1e" text-anchor="start" style="white-space: pre;" direction="ltr" dominant-baseline="alphabetic">...</text></g><g stroke-linecap="round" transform="translate(510.78876735745786 10) rotate(0 39.622207468770426 148.44822639411814)"><path d="M19.81 0 C26.81 2.4, 39.66 -3.69, 59.43 0 C73.76 -2.77, 79.95 4.75, 79.24 19.81 C74.56 103.82, 77.68 188.46, 79.24 277.09 C81.59 290.72, 69.44 297.3, 59.43 296.9 C54.17 294.43, 45.4 300.89, 19.81 296.9 C4.85 296.75, -2.1 291.16, 0 277.09 C-0.06 222.31, -3.19 171.48, 0 19.81 C-0.89 5.23, 3.89 -1.75, 19.81 0" stroke="none" stroke-width="0" fill="#a5d8ff"></path><path d="M19.81 0 C30.87 -1.49, 44.58 0.12, 59.43 0 M19.81 0 C32.05 0.6, 46.23 -0.9, 59.43 0 M59.43 0 C71.91 -0.75, 80.97 6.79, 79.24 19.81 M59.43 0 C70.38 1.66, 80.87 7.29, 79.24 19.81 M79.24 19.81 C77.8 96.45, 79.34 172.27, 79.24 277.09 M79.24 19.81 C80.07 120.01, 80.26 219.22, 79.24 277.09 M79.24 277.09 C78.13 289.63, 74.2 297.4, 59.43 296.9 M79.24 277.09 C80.39 291.17, 71.72 295.86, 59.43 296.9 M59.43 296.9 C47.61 296.84, 36.13 298.21, 19.81 296.9 M59.43 296.9 C45.98 297.52, 32.63 296.16, 19.81 296.9 M19.81 296.9 C8.38 295.42, 1.36 290.34, 0 277.09 M19.81 296.9 C8.58 297.36, -1.72 291.54, 0 277.09 M0 277.09 C1.86 207.16, 3.25 136.09, 0 19.81 M0 277.09 C1.7 209.47, 0.64 142.76, 0 19.81 M0 19.81 C0.31 7.43, 8.31 -0.7, 19.81 0 M0 19.81 C-1.62 8.55, 7.95 1.32, 19.81 0" stroke="#1e1e1e" stroke-width="2" fill="none"></path></g><g transform="translate(523.4109748262283 15) rotate(0 27 41.40000000000009)"><text x="27" y="30.420703125" font-family="Helvetica, Segoe UI Emoji" font-size="36px" fill="#1e1e1e" text-anchor="middle" style="white-space: pre;" direction="ltr" dominant-baseline="alphabetic">SM</text><text x="27" y="71.820703125" font-family="Helvetica, Segoe UI Emoji" font-size="36px" fill="#1e1e1e" text-anchor="middle" style="white-space: pre;" direction="ltr" dominant-baseline="alphabetic">2</text></g><g stroke-linecap="round" transform="translate(422.80238409354746 10) rotate(0 39.622207468770426 148.44822639411814)"><path d="M19.81 0 C36.2 -2.17, 51.05 -1.25, 59.43 0 C73.55 -2.32, 78.18 3.76, 79.24 19.81 C82.21 100.18, 77.74 180.19, 79.24 277.09 C76.23 290.21, 76.02 300.21, 59.43 296.9 C49.25 297.4, 40.47 298.42, 19.81 296.9 C3.08 297.25, -0.92 290.67, 0 277.09 C2.92 223.64, 1.45 171, 0 19.81 C1.67 4.1, 7.69 1.87, 19.81 0" stroke="none" stroke-width="0" fill="#a5d8ff"></path><path d="M19.81 0 C28.87 0.94, 37.69 -1.67, 59.43 0 M19.81 0 C34.48 -0.09, 50.73 0.38, 59.43 0 M59.43 0 C70.68 1.44, 80.66 7.2, 79.24 19.81 M59.43 0 C72.57 -1.22, 79.74 6.1, 79.24 19.81 M79.24 19.81 C82.19 102.14, 82.13 183.39, 79.24 277.09 M79.24 19.81 C79.44 107.44, 80.51 195.8, 79.24 277.09 M79.24 277.09 C80.24 291.06, 71.84 296, 59.43 296.9 M79.24 277.09 C78.85 292.09, 71.77 296.19, 59.43 296.9 M59.43 296.9 C48.07 296.8, 35 296.86, 19.81 296.9 M59.43 296.9 C45.76 295.89, 30.99 296.65, 19.81 296.9 M19.81 296.9 C8.32 297.3, -1.49 291.38, 0 277.09 M19.81 296.9 C6.04 294.67, 0.61 290.08, 0 277.09 M0 277.09 C-2.21 183.21, -1.74 92.28, 0 19.81 M0 277.09 C1.06 209.52, 1.62 141, 0 19.81 M0 19.81 C-1.41 8.3, 7.78 1.15, 19.81 0 M0 19.81 C-1.83 7.32, 8.78 -1.11, 19.81 0" stroke="#1e1e1e" stroke-width="2" fill="none"></path></g><g transform="translate(435.4245915623179 15) rotate(0 27 41.40000000000009)"><text x="27" y="30.420703125" font-family="Helvetica, Segoe UI Emoji" font-size="36px" fill="#1e1e1e" text-anchor="middle" style="white-space: pre;" direction="ltr" dominant-baseline="alphabetic">SM</text><text x="27" y="71.820703125" font-family="Helvetica, Segoe UI Emoji" font-size="36px" fill="#1e1e1e" text-anchor="middle" style="white-space: pre;" direction="ltr" dominant-baseline="alphabetic">3</text></g><g stroke-linecap="round" transform="translate(99.62184421667848 10) rotate(0 39.622207468770426 148.44822639411814)"><path d="M19.81 0 C27.68 -1.35, 42.42 0.86, 59.43 0 C73.66 -0.63, 81.26 4.54, 79.24 19.81 C77.68 76.03, 81.97 133.95, 79.24 277.09 C82.3 289.96, 71.05 298.62, 59.43 296.9 C49.67 297.09, 39.5 300.45, 19.81 296.9 C7.39 297.41, 0.56 288.88, 0 277.09 C-1.21 176.59, -2.09 83.57, 0 19.81 C-2.97 4.46, 5.41 -2.45, 19.81 0" stroke="none" stroke-width="0" fill="#a5d8ff"></path><path d="M19.81 0 C33.6 1.49, 44.62 2.12, 59.43 0 M19.81 0 C34.16 -1.27, 47 0.43, 59.43 0 M59.43 0 C73.75 -1.66, 80.93 7.45, 79.24 19.81 M59.43 0 C72.13 1.19, 77.21 7.6, 79.24 19.81 M79.24 19.81 C78.91 120.24, 77.07 217.62, 79.24 277.09 M79.24 19.81 C78.61 77.57, 79.23 135.2, 79.24 277.09 M79.24 277.09 C79.23 289.06, 71.01 295.34, 59.43 296.9 M79.24 277.09 C79.1 289.38, 71.14 297.5, 59.43 296.9 M59.43 296.9 C45.27 296.21, 33.88 298.94, 19.81 296.9 M59.43 296.9 C44.36 296.69, 29.24 296.09, 19.81 296.9 M19.81 296.9 C5.2 296.35, -1.06 288.43, 0 277.09 M19.81 296.9 C8.88 296.47, 1.67 288.07, 0 277.09 M0 277.09 C0.41 190.13, 0.98 101.87, 0 19.81 M0 277.09 C-1.14 218.19, -1.69 158.96, 0 19.81 M0 19.81 C1.96 5.4, 6.11 1.91, 19.81 0 M0 19.81 C-1.52 6.94, 8.46 -0.18, 19.81 0" stroke="#1e1e1e" stroke-width="2" fill="none"></path></g><g transform="translate(108.08682512294891 15) rotate(0 31.1572265625 41.40000000000009)"><text x="31.1572265625" y="30.420703125" font-family="Helvetica, Segoe UI Emoji" font-size="36px" fill="#1e1e1e" text-anchor="middle" style="white-space: pre;" direction="ltr" dominant-baseline="alphabetic">SM</text><text x="31.1572265625" y="71.820703125" font-family="Helvetica, Segoe UI Emoji" font-size="36px" fill="#1e1e1e" text-anchor="middle" style="white-space: pre;" direction="ltr" dominant-baseline="alphabetic">127</text></g><g stroke-linecap="round" transform="translate(11.635460952768085 10) rotate(0 39.622207468770426 148.44822639411814)"><path d="M19.81 0 C33.66 3.56, 45.75 -2.56, 59.43 0 C74.93 -0.63, 79.93 4.14, 79.24 19.81 C83.07 118.76, 80.4 219.61, 79.24 277.09 C81.09 288.98, 75.13 297.23, 59.43 296.9 C40.48 299.05, 25.25 297.34, 19.81 296.9 C3.64 297.55, 2.93 290.01, 0 277.09 C4.51 214.72, 5.6 151.7, 0 19.81 C1.5 9.24, 6.43 0.38, 19.81 0" stroke="none" stroke-width="0" fill="#a5d8ff"></path><path d="M19.81 0 C34.47 -1.02, 45.15 -1.7, 59.43 0 M19.81 0 C30.82 -0.15, 42.16 0.23, 59.43 0 M59.43 0 C74.55 -1.02, 78.93 6.42, 79.24 19.81 M59.43 0 C70.38 1.13, 79.34 7.59, 79.24 19.81 M79.24 19.81 C78.14 84.59, 77.19 147.11, 79.24 277.09 M79.24 19.81 C77.03 77.41, 78 135.58, 79.24 277.09 M79.24 277.09 C79.18 292.29, 74.08 297.04, 59.43 296.9 M79.24 277.09 C78.24 290.38, 70.68 295.59, 59.43 296.9 M59.43 296.9 C45.26 294.73, 30.71 294.83, 19.81 296.9 M59.43 296.9 C50.74 297.99, 40.97 297.85, 19.81 296.9 M19.81 296.9 C4.64 295.64, 2 288.53, 0 277.09 M19.81 296.9 C5.44 295.42, 1.81 291.2, 0 277.09 M0 277.09 C1.86 212.42, 1.4 148.26, 0 19.81 M0 277.09 C-1.04 199.65, -1.55 123.74, 0 19.81 M0 19.81 C-1.25 7.47, 5.74 0.84, 19.81 0 M0 19.81 C-1.16 6.98, 5.76 0.44, 19.81 0" stroke="#1e1e1e" stroke-width="2" fill="none"></path></g><g transform="translate(20.285012171538483 15) rotate(0 30.97265625 41.40000000000009)"><text x="30.97265625" y="30.420703125" font-family="Helvetica, Segoe UI Emoji" font-size="36px" fill="#1e1e1e" text-anchor="middle" style="white-space: pre;" direction="ltr" dominant-baseline="alphabetic">SM</text><text x="30.97265625" y="71.820703125" font-family="Helvetica, Segoe UI Emoji" font-size="36px" fill="#1e1e1e" text-anchor="middle" style="white-space: pre;" direction="ltr" dominant-baseline="alphabetic">128</text></g><g stroke-linecap="round" transform="translate(189.3002859028697 10) rotate(0 39.62220746877042 148.44822639411814)"><path d="M19.81 0 C33.12 -1.63, 47.86 -3.02, 59.43 0 C73.43 3.14, 81.08 8.15, 79.24 19.81 C77.93 87.57, 76.26 155.82, 79.24 277.09 C82.29 290.75, 76.17 296.36, 59.43 296.9 C53.12 300.01, 42.05 297.86, 19.81 296.9 C4.82 298.08, 3.31 289.66, 0 277.09 C1.57 188.83, -2.99 100.6, 0 19.81 C-3.37 8.89, 7.06 1.76, 19.81 0" stroke="none" stroke-width="0" fill="#a5d8ff"></path><path d="M19.81 0 C33.77 -0.64, 45.69 0.62, 59.43 0 M19.81 0 C30.78 0.44, 42.41 0.61, 59.43 0 M59.43 0 C74.08 -1.24, 77.77 8.36, 79.24 19.81 M59.43 0 C73.21 0.73, 80.18 8.11, 79.24 19.81 M79.24 19.81 C77.76 92.2, 79.52 166.59, 79.24 277.09 M79.24 19.81 C77.72 96.58, 78.13 172.13, 79.24 277.09 M79.24 277.09 C80.55 288.59, 73.93 297.36, 59.43 296.9 M79.24 277.09 C80.38 292.08, 74.11 297.19, 59.43 296.9 M59.43 296.9 C47.98 295.58, 33.33 296.63, 19.81 296.9 M59.43 296.9 C49.24 297.58, 40.42 297.58, 19.81 296.9 M19.81 296.9 C5.17 297.85, 1.62 289.28, 0 277.09 M19.81 296.9 C7.96 298.16, -1.82 290.11, 0 277.09 M0 277.09 C-1.62 218.48, -1.39 161.99, 0 19.81 M0 277.09 C-0.18 190.12, 0.69 104, 0 19.81 M0 19.81 C-0.08 5.68, 6.63 -1.44, 19.81 0 M0 19.81 C1.19 8.58, 8.08 0.16, 19.81 0" stroke="#1e1e1e" stroke-width="2" fill="none"></path></g><g transform="translate(197.87073555914012 15) rotate(0 31.0517578125 41.40000000000009)"><text x="31.0517578125" y="30.420703125" font-family="Helvetica, Segoe UI Emoji" font-size="36px" fill="#1e1e1e" text-anchor="middle" style="white-space: pre;" direction="ltr" dominant-baseline="alphabetic">SM</text><text x="31.0517578125" y="71.820703125" font-family="Helvetica, Segoe UI Emoji" font-size="36px" fill="#1e1e1e" text-anchor="middle" style="white-space: pre;" direction="ltr" dominant-baseline="alphabetic">126</text></g><g stroke-linecap="round"><g transform="translate(53.45040494785002 314.82783652030685) rotate(0 0 52.89018025261953)"><path d="M0.05 0.74 C0.04 18.45, -1 88.38, -1.17 105.72 M-1.38 0.08 C-0.95 18.04, 0.46 89.65, 0.93 107.23" stroke="#1e1e1e" stroke-width="2" fill="none"></path></g><g transform="translate(53.45040494785002 314.82783652030685) rotate(0 0 52.89018025261953)"><path d="M8.34 24.33 C7.94 17.42, 4.87 12.77, 0.05 0.74 M8.34 24.33 C7.32 20.01, 4.24 14.96, 0.05 0.74" stroke="#1e1e1e" stroke-width="2" fill="none"></path></g><g transform="translate(53.45040494785002 314.82783652030685) rotate(0 0 52.89018025261953)"><path d="M-8.76 24.13 C-5.57 17.26, -5.05 12.65, 0.05 0.74 M-8.76 24.13 C-6.1 19.88, -5.51 14.88, 0.05 0.74" stroke="#1e1e1e" stroke-width="2" fill="none"></path></g><g transform="translate(53.45040494785002 314.82783652030685) rotate(0 0 52.89018025261953)"><path d="M-8.15 83.93 C-5.12 86.87, -4.55 92.07, 0.93 107.23 M-8.15 83.93 C-5.48 89.72, -4.83 94.75, 0.93 107.23" stroke="#1e1e1e" stroke-width="2" fill="none"></path></g><g transform="translate(53.45040494785002 314.82783652030685) rotate(0 0 52.89018025261953)"><path d="M8.94 83.55 C8.38 86.57, 5.37 91.85, 0.93 107.23 M8.94 83.55 C7.94 89.39, 4.91 94.5, 0.93 107.23" stroke="#1e1e1e" stroke-width="2" fill="none"></path></g></g><mask></mask><g stroke-linecap="round"><g transform="translate(141.24100254933717 314.82783652030685) rotate(0 0 52.89018025261953)"><path d="M0.38 0.41 C0.28 18.14, -0.32 87.79, -0.54 105.51 M-0.87 -0.42 C-1.19 17.57, -2.16 89.35, -1.77 106.9" stroke="#1e1e1e" stroke-width="2" fill="none"></path></g><g transform="translate(141.24100254933717 314.82783652030685) rotate(0 0 52.89018025261953)"><path d="M8.74 23.97 C7.02 15.82, 3.29 7.86, 0.38 0.41 M8.74 23.97 C5.81 14.34, 3.25 7.23, 0.38 0.41" stroke="#1e1e1e" stroke-width="2" fill="none"></path></g><g transform="translate(141.24100254933717 314.82783652030685) rotate(0 0 52.89018025261953)"><path d="M-8.36 23.83 C-4.8 15.67, -3.25 7.75, 0.38 0.41 M-8.36 23.83 C-4.82 14.09, -0.93 7.04, 0.38 0.41" stroke="#1e1e1e" stroke-width="2" fill="none"></path></g><g transform="translate(141.24100254933717 314.82783652030685) rotate(0 0 52.89018025261953)"><path d="M-10.35 83.42 C-7.18 89.75, -5.68 96.32, -1.77 106.9 M-10.35 83.42 C-7.04 91.4, -3.21 102.07, -1.77 106.9" stroke="#1e1e1e" stroke-width="2" fill="none"></path></g><g transform="translate(141.24100254933717 314.82783652030685) rotate(0 0 52.89018025261953)"><path d="M6.75 83.39 C4.63 89.79, 0.86 96.36, -1.77 106.9 M6.75 83.39 C3.6 91.54, 0.97 102.22, -1.77 106.9" stroke="#1e1e1e" stroke-width="2" fill="none"></path></g></g><mask></mask><g stroke-linecap="round"><g transform="translate(228.31197176828874 314.82783652030685) rotate(0 0 52.89018025261953)"><path d="M-0.54 -0.28 C-0.76 17.44, -0.97 88.85, -0.95 106.71 M1.38 -1.47 C1.49 15.89, 1.73 87.32, 1.26 105.08" stroke="#1e1e1e" stroke-width="2" fill="none"></path></g><g transform="translate(228.31197176828874 314.82783652030685) rotate(0 0 52.89018025261953)"><path d="M7.9 23.26 C4.56 13.82, 3.77 6.91, -0.54 -0.28 M7.9 23.26 C5.29 14.93, 1.47 3.99, -0.54 -0.28" stroke="#1e1e1e" stroke-width="2" fill="none"></path></g><g transform="translate(228.31197176828874 314.82783652030685) rotate(0 0 52.89018025261953)"><path d="M-9.2 23.18 C-6.86 13.85, -1.97 6.96, -0.54 -0.28 M-9.2 23.18 C-5.09 15.02, -2.19 4.11, -0.54 -0.28" stroke="#1e1e1e" stroke-width="2" fill="none"></path></g><g transform="translate(228.31197176828874 314.82783652030685) rotate(0 0 52.89018025261953)"><path d="M-7.07 81.51 C-4.68 87.8, 0.1 96.53, 1.26 105.08 M-7.07 81.51 C-3.02 91.83, -0.25 99.39, 1.26 105.08" stroke="#1e1e1e" stroke-width="2" fill="none"></path></g><g transform="translate(228.31197176828874 314.82783652030685) rotate(0 0 52.89018025261953)"><path d="M10.03 81.67 C6.74 87.82, 5.85 96.5, 1.26 105.08 M10.03 81.67 C7.36 91.78, 3.41 99.29, 1.26 105.08" stroke="#1e1e1e" stroke-width="2" fill="none"></path></g></g><mask></mask><g stroke-linecap="round"><g transform="translate(464.33911112534037 315.5474092169811) rotate(0 0 52.89018025261953)"><path d="M0.95 0.17 C1.1 17.59, 0.82 87.03, 0.76 104.72 M-0.01 -0.79 C0.07 16.73, 0.19 88.19, 0.21 105.69" stroke="#1e1e1e" stroke-width="2" fill="none"></path></g><g transform="translate(464.33911112534037 315.5474092169811) rotate(0 0 52.89018025261953)"><path d="M9.47 23.67 C7.27 18.26, 2.78 11.2, 0.95 0.17 M9.47 23.67 C7.06 16.3, 3.72 6.81, 0.95 0.17" stroke="#1e1e1e" stroke-width="2" fill="none"></path></g><g transform="translate(464.33911112534037 315.5474092169811) rotate(0 0 52.89018025261953)"><path d="M-7.63 23.65 C-4.92 18.11, -4.52 11.06, 0.95 0.17 M-7.63 23.65 C-4.17 16.27, -1.63 6.78, 0.95 0.17" stroke="#1e1e1e" stroke-width="2" fill="none"></path></g><g transform="translate(464.33911112534037 315.5474092169811) rotate(0 0 52.89018025261953)"><path d="M-8.38 82.21 C-5.61 90.14, -5.2 96.54, 0.21 105.69 M-8.38 82.21 C-4.92 90.97, -2.39 97.61, 0.21 105.69" stroke="#1e1e1e" stroke-width="2" fill="none"></path></g><g transform="translate(464.33911112534037 315.5474092169811) rotate(0 0 52.89018025261953)"><path d="M8.72 82.19 C6.59 90.26, 2.1 96.67, 0.21 105.69 M8.72 82.19 C6.3 90.97, 2.97 97.62, 0.21 105.69" stroke="#1e1e1e" stroke-width="2" fill="none"></path></g></g><mask></mask><g stroke-linecap="round"><g transform="translate(551.4100803442919 315.5474092169811) rotate(0 0 51.091220668002734)"><path d="M1.05 -0.99 C1.37 16, 1.16 85.39, 1 102.5 M0.14 1.1 C0.47 17.67, 0.7 83.61, 0.58 100.54" stroke="#1e1e1e" stroke-width="2" fill="none"></path></g><g transform="translate(551.4100803442919 315.5474092169811) rotate(0 0 51.091220668002734)"><path d="M9.63 22.49 C5.96 18.99, 6.23 12.24, 1.05 -0.99 M9.63 22.49 C7.71 16.43, 5.78 10.01, 1.05 -0.99" stroke="#1e1e1e" stroke-width="2" fill="none"></path></g><g transform="translate(551.4100803442919 315.5474092169811) rotate(0 0 51.091220668002734)"><path d="M-7.47 22.51 C-7.33 18.85, -3.24 12.1, 1.05 -0.99 M-7.47 22.51 C-4.99 16.33, -2.53 9.9, 1.05 -0.99" stroke="#1e1e1e" stroke-width="2" fill="none"></path></g><g transform="translate(551.4100803442919 315.5474092169811) rotate(0 0 51.091220668002734)"><path d="M-7.95 77.04 C-7.6 83.89, -3.51 87.63, 0.58 100.54 M-7.95 77.04 C-5.87 82.95, -3.4 88.6, 0.58 100.54" stroke="#1e1e1e" stroke-width="2" fill="none"></path></g><g transform="translate(551.4100803442919 315.5474092169811) rotate(0 0 51.091220668002734)"><path d="M9.15 77.06 C5.68 84.05, 5.95 87.79, 0.58 100.54 M9.15 77.06 C6.84 83.08, 4.91 88.73, 0.58 100.54" stroke="#1e1e1e" stroke-width="2" fill="none"></path></g></g><mask></mask><g stroke-linecap="round"><g transform="translate(853.6397454288172 422.0473981047562) rotate(0 0 -47.85306000417563)"><path d="M-0.74 0.43 C-0.73 -15.54, -0.72 -80.86, -0.48 -96.78 M1.07 -0.39 C0.93 -16.17, -1.56 -79.69, -1.68 -95.8" stroke="#1e1e1e" stroke-width="2" fill="none"></path></g><g transform="translate(853.6397454288172 422.0473981047562) rotate(0 0 -47.85306000417563)"><path d="M7.46 -72.53 C6.04 -79.29, 1.22 -83.22, -1.68 -95.8 M7.46 -72.53 C4.88 -80.01, 0.58 -88.45, -1.68 -95.8" stroke="#1e1e1e" stroke-width="2" fill="none"></path></g><g transform="translate(853.6397454288172 422.0473981047562) rotate(0 0 -47.85306000417563)"><path d="M-9.64 -72.1 C-6.72 -78.86, -7.2 -82.9, -1.68 -95.8 M-9.64 -72.1 C-6.18 -79.78, -4.45 -88.38, -1.68 -95.8" stroke="#1e1e1e" stroke-width="2" fill="none"></path></g></g><mask></mask><g stroke-linecap="round"><g transform="translate(886.0215191246712 325.6217053997302) rotate(0 0 46.77367311623334)"><path d="M0.21 0.36 C0.3 16.22, 0.29 79.12, 0.21 94.69 M-1.13 -0.49 C-1.15 15.09, -0.62 77.22, -0.63 93.17" stroke="#1e1e1e" stroke-width="2" fill="none"></path></g><g transform="translate(886.0215191246712 325.6217053997302) rotate(0 0 46.77367311623334)"><path d="M-9.28 69.72 C-6.4 76.44, -2.74 82.01, -0.63 93.17 M-9.28 69.72 C-5.92 76.83, -3.37 83.71, -0.63 93.17" stroke="#1e1e1e" stroke-width="2" fill="none"></path></g><g transform="translate(886.0215191246712 325.6217053997302) rotate(0 0 46.77367311623334)"><path d="M7.82 69.64 C6.05 76.42, 5.05 82.01, -0.63 93.17 M7.82 69.64 C5.69 76.95, 2.76 83.86, -0.63 93.17" stroke="#1e1e1e" stroke-width="2" fill="none"></path></g></g><mask></mask><g transform="translate(955.9613281634395 354.0563048133563) rotate(0 101.0390625 20.700000000000045)"><text x="101.0390625" y="30.420703125" font-family="Helvetica, Segoe UI Emoji" font-size="36px" fill="#1e1e1e" text-anchor="middle" style="white-space: pre;" direction="ltr" dominant-baseline="alphabetic">4-8 TB (agg)</text></g><g transform="translate(1011.6088698332417 144.8687131959182) rotate(0 109.0458984375 20.700000000000045)"><text x="109.0458984375" y="30.420703125" font-family="Helvetica, Segoe UI Emoji" font-size="36px" fill="#1e1e1e" text-anchor="middle" style="white-space: pre;" direction="ltr" dominant-baseline="alphabetic">20 TB/s (agg)</text></g></svg>