<svg version="1.1" xmlns="http://www.w3.org/2000/svg" viewBox="0 0 1383.8326647301428 750.3270061974272" width="1383.8326647301428" height="750.3270061974272" class="excalidraw-svg">
  <!-- svg-source:excalidraw -->
  
  <defs>
    <style class="style-fonts">
      
    </style>
    
  </defs>
  <rect x="0" y="0" width="1383.8326647301428" height="750.3270061974272" fill="#ffffff"></rect><g stroke-linecap="round" transform="translate(10 615.0796819871639) rotate(0 629.258888292123 62.62366210513164)"><path d="M0 0 L1258.52 0 L1258.52 125.25 L0 125.25" stroke="none" stroke-width="0" fill="#ffc9c9"></path><path d="M0 0 C433.66 0, 867.31 0, 1258.52 0 M0 0 C468.76 0, 937.52 0, 1258.52 0 M1258.52 0 C1258.52 49.12, 1258.52 98.24, 1258.52 125.25 M1258.52 0 C1258.52 47.31, 1258.52 94.61, 1258.52 125.25 M1258.52 125.25 C903.35 125.25, 548.18 125.25, 0 125.25 M1258.52 125.25 C776.18 125.25, 293.85 125.25, 0 125.25 M0 125.25 C0 75.42, 0 25.59, 0 0 M0 125.25 C0 83.69, 0 42.14, 0 0" stroke="#1e1e1e" stroke-width="2" fill="none"></path></g><g transform="translate(552.7184677598964 660.8062120436821) rotate(0 86.54042053222656 16.897132048613457)"><text x="86.54042053222656" y="24.83201148380652" font-family="Helvetica, Segoe UI Emoji" font-size="29.386316606284385px" fill="#1e1e1e" text-anchor="middle" style="white-space: pre;" direction="ltr" dominant-baseline="alphabetic">40 GB HBM2</text></g><g stroke-linecap="round" transform="translate(18.21022015341032 435.2669907225004) rotate(0 516.6328375639903 29.99385300726135)"><path d="M0 0 L1033.27 0 L1033.27 59.99 L0 59.99" stroke="none" stroke-width="0" fill="#ffec99"></path><path d="M0 0 C242.89 0, 485.78 0, 1033.27 0 M0 0 C212.9 0, 425.81 0, 1033.27 0 M1033.27 0 C1033.27 22.95, 1033.27 45.89, 1033.27 59.99 M1033.27 0 C1033.27 15.69, 1033.27 31.38, 1033.27 59.99 M1033.27 59.99 C698.35 59.99, 363.44 59.99, 0 59.99 M1033.27 59.99 C653.94 59.99, 274.62 59.99, 0 59.99 M0 59.99 C0 39.49, 0 18.98, 0 0 M0 59.99 C0 39.68, 0 19.37, 0 0" stroke="#1e1e1e" stroke-width="2" fill="none"></path></g><g transform="translate(471.9658604517756 448.3637116811483) rotate(0 62.877197265625 16.897132048613457)"><text x="62.877197265625" y="24.83201148380652" font-family="Helvetica, Segoe UI Emoji" font-size="29.386316606284385px" fill="#1e1e1e" text-anchor="middle" style="white-space: pre;" direction="ltr" dominant-baseline="alphabetic">40 MB L2</text></g><g stroke-linecap="round"><g transform="translate(519.0662211806832 600.0679459804164) rotate(0 0.7348809177435953 -47.99653660252534)"><path d="M0 0 C0.3 -19.76, 0.61 -39.52, 1.47 -95.99 M0 0 C0.4 -26.34, 0.81 -52.68, 1.47 -95.99" stroke="#1e1e1e" stroke-width="2" fill="none"></path></g><g transform="translate(519.0662211806832 600.0679459804164) rotate(0 0.7348809177435953 -47.99653660252534)"><path d="M9.66 -72.37 C7.97 -77.24, 6.29 -82.1, 1.47 -95.99 M9.66 -72.37 C7.41 -78.85, 5.17 -85.33, 1.47 -95.99" stroke="#1e1e1e" stroke-width="2" fill="none"></path></g><g transform="translate(519.0662211806832 600.0679459804164) rotate(0 0.7348809177435953 -47.99653660252534)"><path d="M-7.44 -72.63 C-5.61 -77.44, -3.77 -82.25, 1.47 -95.99 M-7.44 -72.63 C-4.99 -79.04, -2.55 -85.45, 1.47 -95.99" stroke="#1e1e1e" stroke-width="2" fill="none"></path></g></g><mask></mask><g transform="translate(574.286854191626 532.3059621648022) rotate(0 73.107421875 20.700000000000045)"><text x="73.107421875" y="30.420703125" font-family="Helvetica, Segoe UI Emoji" font-size="36px" fill="#1e1e1e" text-anchor="middle" style="white-space: pre;" direction="ltr" dominant-baseline="alphabetic">1.55TB/s</text></g><g transform="translate(1154.8092272301428 438.79074962887444) rotate(0 109.51171874999994 20.700000000000045)"><text x="109.51171875" y="30.420703125" font-family="Helvetica, Segoe UI Emoji" font-size="36px" fill="#1e1e1e" text-anchor="middle" style="white-space: pre;" direction="ltr" dominant-baseline="alphabetic">PCIe, NVLink</text></g><g stroke-linecap="round"><g transform="translate(1141.7263892711064 451.87990560361686) rotate(0 -38.82475578601799 0.33124414418625747)"><path d="M0 0 C-17.03 0.15, -34.05 0.29, -77.65 0.66 M0 0 C-20.05 0.17, -40.1 0.34, -77.65 0.66" stroke="#1e1e1e" stroke-width="2" fill="none"></path></g><g transform="translate(1141.7263892711064 451.87990560361686) rotate(0 -38.82475578601799 0.33124414418625747)"><path d="M-54.23 -8.09 C-59.37 -6.17, -64.5 -4.25, -77.65 0.66 M-54.23 -8.09 C-60.28 -5.83, -66.33 -3.57, -77.65 0.66" stroke="#1e1e1e" stroke-width="2" fill="none"></path></g><g transform="translate(1141.7263892711064 451.87990560361686) rotate(0 -38.82475578601799 0.33124414418625747)"><path d="M-54.09 9.01 C-59.25 7.18, -64.42 5.35, -77.65 0.66 M-54.09 9.01 C-60.17 6.86, -66.25 4.7, -77.65 0.66" stroke="#1e1e1e" stroke-width="2" fill="none"></path></g></g><mask></mask><g stroke-linecap="round"><g transform="translate(1061.3950551855428 478.9626859466821) rotate(0 42.40058831714657 -0.8847095991438891)"><path d="M0 0 C22.91 -0.48, 45.81 -0.96, 84.8 -1.77 M0 0 C26.45 -0.55, 52.9 -1.1, 84.8 -1.77" stroke="#1e1e1e" stroke-width="2" fill="none"></path></g><g transform="translate(1061.3950551855428 478.9626859466821) rotate(0 42.40058831714657 -0.8847095991438891)"><path d="M61.49 7.27 C67.79 4.83, 74.08 2.39, 84.8 -1.77 M61.49 7.27 C68.76 4.45, 76.03 1.63, 84.8 -1.77" stroke="#1e1e1e" stroke-width="2" fill="none"></path></g><g transform="translate(1061.3950551855428 478.9626859466821) rotate(0 42.40058831714657 -0.8847095991438891)"><path d="M61.14 -9.83 C67.53 -7.65, 73.92 -5.47, 84.8 -1.77 M61.14 -9.83 C68.52 -7.31, 75.9 -4.8, 84.8 -1.77" stroke="#1e1e1e" stroke-width="2" fill="none"></path></g></g><mask></mask><g stroke-linecap="round"><g transform="translate(540.7565578032853 510.3460704956101) rotate(0 -0.6969230120661791 45.6549428258586)"><path d="M0 0 C-0.55 35.81, -1.09 71.62, -1.39 91.31 M0 0 C-0.53 34.49, -1.05 68.97, -1.39 91.31" stroke="#1e1e1e" stroke-width="2" fill="none"></path></g><g transform="translate(540.7565578032853 510.3460704956101) rotate(0 -0.6969230120661791 45.6549428258586)"><path d="M-9.58 67.69 C-6.37 76.95, -3.16 86.22, -1.39 91.31 M-9.58 67.69 C-6.49 76.61, -3.4 85.53, -1.39 91.31" stroke="#1e1e1e" stroke-width="2" fill="none"></path></g><g transform="translate(540.7565578032853 510.3460704956101) rotate(0 -0.6969230120661791 45.6549428258586)"><path d="M7.51 67.95 C4.02 77.11, 0.53 86.27, -1.39 91.31 M7.51 67.95 C4.15 76.77, 0.79 85.6, -1.39 91.31" stroke="#1e1e1e" stroke-width="2" fill="none"></path></g></g><mask></mask><g stroke-linecap="round" transform="translate(598.4501155418748 10) rotate(0 332.29403137007273 148.87115916285234)"><path d="M0 0 L664.59 0 L664.59 297.74 L0 297.74" stroke="none" stroke-width="0" fill="#a5d8ff"></path><path d="M0 0 C254.22 0, 508.44 0, 664.59 0 M0 0 C173.83 0, 347.66 0, 664.59 0 M664.59 0 C664.59 96.51, 664.59 193.02, 664.59 297.74 M664.59 0 C664.59 109.3, 664.59 218.61, 664.59 297.74 M664.59 297.74 C437.45 297.74, 210.31 297.74, 0 297.74 M664.59 297.74 C439.57 297.74, 214.56 297.74, 0 297.74 M0 297.74 C0 228.44, 0 159.14, 0 0 M0 297.74 C0 214.51, 0 131.29, 0 0" stroke="#1e1e1e" stroke-width="2" fill="none"></path></g><g transform="translate(603.4501155418748 15) rotate(0 28.0986328125 41.40000000000009)"><text x="0" y="30.420703125" font-family="Helvetica, Segoe UI Emoji" font-size="36px" fill="#1e1e1e" text-anchor="start" style="white-space: pre;" direction="ltr" dominant-baseline="alphabetic">SM</text><text x="0" y="71.820703125" font-family="Helvetica, Segoe UI Emoji" font-size="36px" fill="#1e1e1e" text-anchor="start" style="white-space: pre;" direction="ltr" dominant-baseline="alphabetic">  1</text></g><g stroke-linecap="round" transform="translate(607.2058796631749 195.290357311545) rotate(0 124.26163323164297 50.50917929278785)"><path d="M0 0 L248.52 0 L248.52 101.02 L0 101.02" stroke="none" stroke-width="0" fill="#b2f2bb"></path><path d="M0 0 C57.89 0, 115.77 0, 248.52 0 M0 0 C61.2 0, 122.41 0, 248.52 0 M248.52 0 C248.52 33.96, 248.52 67.91, 248.52 101.02 M248.52 0 C248.52 20.91, 248.52 41.81, 248.52 101.02 M248.52 101.02 C149.89 101.02, 51.26 101.02, 0 101.02 M248.52 101.02 C159.52 101.02, 70.51 101.02, 0 101.02 M0 101.02 C0 65.32, 0 29.62, 0 0 M0 101.02 C0 70.09, 0 39.17, 0 0" stroke="#1e1e1e" stroke-width="2" fill="none"></path></g><g transform="translate(647.4001300823179 225.09953660433303) rotate(0 84.06738281250003 20.700000000000045)"><text x="84.0673828125" y="30.420703125" font-family="Helvetica, Segoe UI Emoji" font-size="36px" fill="#1e1e1e" text-anchor="middle" style="white-space: pre;" direction="ltr" dominant-baseline="alphabetic">192 KB L1</text></g><g stroke-linecap="round" transform="translate(854.8352052886183 196.18436732914597) rotate(0 192.203195005488 50.50917929278785)"><path d="M0 0 L384.41 0 L384.41 101.02 L0 101.02" stroke="none" stroke-width="0" fill="#b2f2bb"></path><path d="M0 0 C151.16 0, 302.31 0, 384.41 0 M0 0 C146.41 0, 292.81 0, 384.41 0 M384.41 0 C384.41 24.39, 384.41 48.78, 384.41 101.02 M384.41 0 C384.41 21.27, 384.41 42.54, 384.41 101.02 M384.41 101.02 C277.61 101.02, 170.82 101.02, 0 101.02 M384.41 101.02 C300.36 101.02, 216.32 101.02, 0 101.02 M0 101.02 C0 64.98, 0 28.95, 0 0 M0 101.02 C0 66.76, 0 32.5, 0 0" stroke="#1e1e1e" stroke-width="2" fill="none"></path></g><g transform="translate(918.3577362316064 205.29354662193373) rotate(0 128.6806640625 41.40000000000009)"><text x="128.6806640625" y="30.420703125" font-family="Helvetica, Segoe UI Emoji" font-size="36px" fill="#1e1e1e" text-anchor="middle" style="white-space: pre;" direction="ltr" dominant-baseline="alphabetic">Shared Memory</text><text x="128.6806640625" y="71.820703125" font-family="Helvetica, Segoe UI Emoji" font-size="36px" fill="#1e1e1e" text-anchor="middle" style="white-space: pre;" direction="ltr" dominant-baseline="alphabetic">(SMEM)</text></g><g stroke-linecap="round" transform="translate(694.8148835519582 30.081274641323944) rotate(0 192.203195005488 50.50917929278785)"><path d="M0 0 L384.41 0 L384.41 101.02 L0 101.02" stroke="none" stroke-width="0" fill="#ffffff"></path><path d="M0 0 C108.48 0, 216.97 0, 384.41 0 M0 0 C147.33 0, 294.65 0, 384.41 0 M384.41 0 C384.41 40.19, 384.41 80.38, 384.41 101.02 M384.41 0 C384.41 33.52, 384.41 67.03, 384.41 101.02 M384.41 101.02 C256.95 101.02, 129.49 101.02, 0 101.02 M384.41 101.02 C284.51 101.02, 184.61 101.02, 0 101.02 M0 101.02 C0 77.92, 0 54.81, 0 0 M0 101.02 C0 75.33, 0 49.64, 0 0" stroke="#1e1e1e" stroke-width="2" fill="none"></path></g><g transform="translate(776.6010863699462 39.1904539341117) rotate(0 110.4169921875 41.40000000000009)"><text x="110.4169921875" y="30.420703125" font-family="Helvetica, Segoe UI Emoji" font-size="36px" fill="#1e1e1e" text-anchor="middle" style="white-space: pre;" direction="ltr" dominant-baseline="alphabetic">Compute Unit</text><text x="110.4169921875" y="71.820703125" font-family="Helvetica, Segoe UI Emoji" font-size="36px" fill="#1e1e1e" text-anchor="middle" style="white-space: pre;" direction="ltr" dominant-baseline="alphabetic">Registers</text></g><g stroke-linecap="round"><g transform="translate(748.6276730266322 188.348030198159) rotate(0 0 -22.708741115821567)"><path d="M0 0 C0 -16.6, 0 -33.21, 0 -45.42 M0 0 C0 -17.01, 0 -34.02, 0 -45.42" stroke="#1e1e1e" stroke-width="2" fill="none"></path></g><g transform="translate(748.6276730266322 188.348030198159) rotate(0 0 -22.708741115821567)"><path d="M7.77 -24.08 C4.93 -31.88, 2.09 -39.68, 0 -45.42 M7.77 -24.08 C4.86 -32.07, 1.95 -40.06, 0 -45.42" stroke="#1e1e1e" stroke-width="2" fill="none"></path></g><g transform="translate(748.6276730266322 188.348030198159) rotate(0 0 -22.708741115821567)"><path d="M-7.77 -24.08 C-4.93 -31.88, -2.09 -39.68, 0 -45.42 M-7.77 -24.08 C-4.86 -32.07, -1.95 -40.06, 0 -45.42" stroke="#1e1e1e" stroke-width="2" fill="none"></path></g></g><mask></mask><g stroke-linecap="round"><g transform="translate(771.8708266081221 141.14266629083068) rotate(0 5.684341886080802e-14 20.473785251577738)"><path d="M0 0 C0 13.76, 0 27.53, 0 40.95 M0 0 C0 8.47, 0 16.95, 0 40.95" stroke="#1e1e1e" stroke-width="2" fill="none"></path></g><g transform="translate(771.8708266081221 141.14266629083068) rotate(0 5.684341886080802e-14 20.473785251577738)"><path d="M-7 21.71 C-4.65 28.18, -2.29 34.64, 0 40.95 M-7 21.71 C-5.55 25.69, -4.1 29.67, 0 40.95" stroke="#1e1e1e" stroke-width="2" fill="none"></path></g><g transform="translate(771.8708266081221 141.14266629083068) rotate(0 5.684341886080802e-14 20.473785251577738)"><path d="M7 21.71 C4.65 28.18, 2.29 34.64, 0 40.95 M7 21.71 C5.55 25.69, 4.1 29.67, 0 40.95" stroke="#1e1e1e" stroke-width="2" fill="none"></path></g></g><mask></mask><g stroke-linecap="round"><g transform="translate(952.452410232986 186.56007934271565) rotate(0 0 -18.685868986013475)"><path d="M0 0 C0 -13.3, 0 -26.6, 0 -37.37 M0 0 C0 -10.42, 0 -20.83, 0 -37.37" stroke="#1e1e1e" stroke-width="2" fill="none"></path></g><g transform="translate(952.452410232986 186.56007934271565) rotate(0 0 -18.685868986013475)"><path d="M6.39 -19.81 C4.12 -26.06, 1.84 -32.31, 0 -37.37 M6.39 -19.81 C4.61 -24.71, 2.83 -29.6, 0 -37.37" stroke="#1e1e1e" stroke-width="2" fill="none"></path></g><g transform="translate(952.452410232986 186.56007934271565) rotate(0 0 -18.685868986013475)"><path d="M-6.39 -19.81 C-4.12 -26.06, -1.84 -32.31, 0 -37.37 M-6.39 -19.81 C-4.61 -24.71, -2.83 -29.6, 0 -37.37" stroke="#1e1e1e" stroke-width="2" fill="none"></path></g></g><mask></mask><g stroke-linecap="round"><g transform="translate(979.2714655253628 143.82455798411684) rotate(0 0 21.36776067929941)"><path d="M0 0 C0 10.32, 0 20.64, 0 42.74 M0 0 C0 9, 0 18, 0 42.74" stroke="#1e1e1e" stroke-width="2" fill="none"></path></g><g transform="translate(979.2714655253628 143.82455798411684) rotate(0 0 21.36776067929941)"><path d="M-7.31 22.66 C-5.54 27.5, -3.78 32.35, 0 42.74 M-7.31 22.66 C-5.77 26.88, -4.23 31.11, 0 42.74" stroke="#1e1e1e" stroke-width="2" fill="none"></path></g><g transform="translate(979.2714655253628 143.82455798411684) rotate(0 0 21.36776067929941)"><path d="M7.31 22.66 C5.54 27.5, 3.78 32.35, 0 42.74 M7.31 22.66 C5.77 26.88, 4.23 31.11, 0 42.74" stroke="#1e1e1e" stroke-width="2" fill="none"></path></g></g><mask></mask><g transform="translate(299.4619960535373 74.99922817057404) rotate(0 47.15087127685547 65.05674701358203)"><text x="0" y="95.60734237576862" font-family="Helvetica, Segoe UI Emoji" font-size="113.14216871927317px" fill="#1e1e1e" text-anchor="start" style="white-space: pre;" direction="ltr" dominant-baseline="alphabetic">...</text></g><g stroke-linecap="round" transform="translate(510.78876735745786 10) rotate(0 39.622207468770426 148.44822639411814)"><path d="M0 0 L79.24 0 L79.24 296.9 L0 296.9" stroke="none" stroke-width="0" fill="#a5d8ff"></path><path d="M0 0 C31.53 0, 63.06 0, 79.24 0 M0 0 C26.29 0, 52.58 0, 79.24 0 M79.24 0 C79.24 98.44, 79.24 196.88, 79.24 296.9 M79.24 0 C79.24 77.16, 79.24 154.31, 79.24 296.9 M79.24 296.9 C61.12 296.9, 43 296.9, 0 296.9 M79.24 296.9 C59.09 296.9, 38.94 296.9, 0 296.9 M0 296.9 C0 198.55, 0 100.2, 0 0 M0 296.9 C0 235.07, 0 173.25, 0 0" stroke="#1e1e1e" stroke-width="2" fill="none"></path></g><g transform="translate(523.4109748262283 15) rotate(0 27 41.40000000000009)"><text x="27" y="30.420703125" font-family="Helvetica, Segoe UI Emoji" font-size="36px" fill="#1e1e1e" text-anchor="middle" style="white-space: pre;" direction="ltr" dominant-baseline="alphabetic">SM</text><text x="27" y="71.820703125" font-family="Helvetica, Segoe UI Emoji" font-size="36px" fill="#1e1e1e" text-anchor="middle" style="white-space: pre;" direction="ltr" dominant-baseline="alphabetic">2</text></g><g stroke-linecap="round" transform="translate(422.80238409354746 10) rotate(0 39.622207468770426 148.44822639411814)"><path d="M0 0 L79.24 0 L79.24 296.9 L0 296.9" stroke="none" stroke-width="0" fill="#a5d8ff"></path><path d="M0 0 C27.08 0, 54.17 0, 79.24 0 M0 0 C26.83 0, 53.66 0, 79.24 0 M79.24 0 C79.24 69.1, 79.24 138.2, 79.24 296.9 M79.24 0 C79.24 82.99, 79.24 165.98, 79.24 296.9 M79.24 296.9 C59.15 296.9, 39.06 296.9, 0 296.9 M79.24 296.9 C52.5 296.9, 25.76 296.9, 0 296.9 M0 296.9 C0 218.63, 0 140.37, 0 0 M0 296.9 C0 219.66, 0 142.42, 0 0" stroke="#1e1e1e" stroke-width="2" fill="none"></path></g><g transform="translate(435.42459156231786 15) rotate(0 27 41.40000000000009)"><text x="27" y="30.420703125" font-family="Helvetica, Segoe UI Emoji" font-size="36px" fill="#1e1e1e" text-anchor="middle" style="white-space: pre;" direction="ltr" dominant-baseline="alphabetic">SM</text><text x="27" y="71.820703125" font-family="Helvetica, Segoe UI Emoji" font-size="36px" fill="#1e1e1e" text-anchor="middle" style="white-space: pre;" direction="ltr" dominant-baseline="alphabetic">3</text></g><g stroke-linecap="round" transform="translate(99.62184421667848 10) rotate(0 39.62220746877042 148.44822639411814)"><path d="M0 0 L79.24 0 L79.24 296.9 L0 296.9" stroke="none" stroke-width="0" fill="#a5d8ff"></path><path d="M0 0 C24.58 0, 49.16 0, 79.24 0 M0 0 C18.04 0, 36.08 0, 79.24 0 M79.24 0 C79.24 104.48, 79.24 208.96, 79.24 296.9 M79.24 0 C79.24 66.73, 79.24 133.47, 79.24 296.9 M79.24 296.9 C55.3 296.9, 31.35 296.9, 0 296.9 M79.24 296.9 C60.99 296.9, 42.73 296.9, 0 296.9 M0 296.9 C0 213.29, 0 129.69, 0 0 M0 296.9 C0 206.94, 0 116.98, 0 0" stroke="#1e1e1e" stroke-width="2" fill="none"></path></g><g transform="translate(108.08682512294891 15) rotate(0 31.1572265625 41.40000000000009)"><text x="31.1572265625" y="30.420703125" font-family="Helvetica, Segoe UI Emoji" font-size="36px" fill="#1e1e1e" text-anchor="middle" style="white-space: pre;" direction="ltr" dominant-baseline="alphabetic">SM</text><text x="31.1572265625" y="71.820703125" font-family="Helvetica, Segoe UI Emoji" font-size="36px" fill="#1e1e1e" text-anchor="middle" style="white-space: pre;" direction="ltr" dominant-baseline="alphabetic">127</text></g><g stroke-linecap="round" transform="translate(11.635460952768085 10) rotate(0 39.62220746877042 148.44822639411814)"><path d="M0 0 L79.24 0 L79.24 296.9 L0 296.9" stroke="none" stroke-width="0" fill="#a5d8ff"></path><path d="M0 0 C31.45 0, 62.9 0, 79.24 0 M0 0 C28.38 0, 56.76 0, 79.24 0 M79.24 0 C79.24 104.92, 79.24 209.84, 79.24 296.9 M79.24 0 C79.24 90.89, 79.24 181.78, 79.24 296.9 M79.24 296.9 C62.15 296.9, 45.05 296.9, 0 296.9 M79.24 296.9 C56.37 296.9, 33.49 296.9, 0 296.9 M0 296.9 C0 234.75, 0 172.6, 0 0 M0 296.9 C0 198.54, 0 100.18, 0 0" stroke="#1e1e1e" stroke-width="2" fill="none"></path></g><g transform="translate(20.28501217153851 15) rotate(0 30.97265625 41.40000000000009)"><text x="30.97265625" y="30.420703125" font-family="Helvetica, Segoe UI Emoji" font-size="36px" fill="#1e1e1e" text-anchor="middle" style="white-space: pre;" direction="ltr" dominant-baseline="alphabetic">SM</text><text x="30.97265625" y="71.820703125" font-family="Helvetica, Segoe UI Emoji" font-size="36px" fill="#1e1e1e" text-anchor="middle" style="white-space: pre;" direction="ltr" dominant-baseline="alphabetic">128</text></g><g stroke-linecap="round" transform="translate(189.3002859028697 10) rotate(0 39.62220746877042 148.44822639411814)"><path d="M0 0 L79.24 0 L79.24 296.9 L0 296.9" stroke="none" stroke-width="0" fill="#a5d8ff"></path><path d="M0 0 C18.22 0, 36.44 0, 79.24 0 M0 0 C20.46 0, 40.92 0, 79.24 0 M79.24 0 C79.24 112.67, 79.24 225.34, 79.24 296.9 M79.24 0 C79.24 77.01, 79.24 154.01, 79.24 296.9 M79.24 296.9 C58.88 296.9, 38.52 296.9, 0 296.9 M79.24 296.9 C51.55 296.9, 23.85 296.9, 0 296.9 M0 296.9 C0 226.71, 0 156.53, 0 0 M0 296.9 C0 184.89, 0 72.88, 0 0" stroke="#1e1e1e" stroke-width="2" fill="none"></path></g><g transform="translate(197.87073555914012 15) rotate(0 31.051757812500004 41.40000000000009)"><text x="31.0517578125" y="30.420703125" font-family="Helvetica, Segoe UI Emoji" font-size="36px" fill="#1e1e1e" text-anchor="middle" style="white-space: pre;" direction="ltr" dominant-baseline="alphabetic">SM</text><text x="31.0517578125" y="71.820703125" font-family="Helvetica, Segoe UI Emoji" font-size="36px" fill="#1e1e1e" text-anchor="middle" style="white-space: pre;" direction="ltr" dominant-baseline="alphabetic">126</text></g><g stroke-linecap="round"><g transform="translate(53.45040494785002 314.82783652030685) rotate(0 0.6522943593878452 56.00460084695919)"><path d="M0 0 C0.36 31.12, 0.72 62.24, 1.3 112.01 M0 0 C0.29 24.49, 0.57 48.98, 1.3 112.01" stroke="#1e1e1e" stroke-width="2" fill="none"></path></g><g transform="translate(53.45040494785002 314.82783652030685) rotate(0 0.6522943593878452 56.00460084695919)"><path d="M8.82 23.39 C6.37 16.89, 3.92 10.39, 0 0 M8.82 23.39 C6.89 18.28, 4.97 13.16, 0 0" stroke="#1e1e1e" stroke-width="2" fill="none"></path></g><g transform="translate(53.45040494785002 314.82783652030685) rotate(0 0.6522943593878452 56.00460084695919)"><path d="M-8.28 23.59 C-5.98 17.04, -3.68 10.48, 0 0 M-8.28 23.59 C-6.47 18.43, -4.66 13.27, 0 0" stroke="#1e1e1e" stroke-width="2" fill="none"></path></g><g transform="translate(53.45040494785002 314.82783652030685) rotate(0 0.6522943593878452 56.00460084695919)"><path d="M-7.52 88.62 C-5.07 95.12, -2.62 101.62, 1.3 112.01 M-7.52 88.62 C-5.59 93.73, -3.66 98.85, 1.3 112.01" stroke="#1e1e1e" stroke-width="2" fill="none"></path></g><g transform="translate(53.45040494785002 314.82783652030685) rotate(0 0.6522943593878452 56.00460084695919)"><path d="M9.58 88.42 C7.28 94.97, 4.98 101.53, 1.3 112.01 M9.58 88.42 C7.77 93.58, 5.96 98.73, 1.3 112.01" stroke="#1e1e1e" stroke-width="2" fill="none"></path></g></g><mask></mask><g stroke-linecap="round"><g transform="translate(141.24100254933717 314.82783652030685) rotate(0 0.6714936546016448 56.00460084695919)"><path d="M0 0 C0.48 39.84, 0.96 79.68, 1.34 112.01 M0 0 C0.39 32.11, 0.77 64.23, 1.34 112.01" stroke="#1e1e1e" stroke-width="2" fill="none"></path></g><g transform="translate(141.24100254933717 314.82783652030685) rotate(0 0.6714936546016448 56.00460084695919)"><path d="M8.83 23.39 C5.69 15.07, 2.55 6.75, 0 0 M8.83 23.39 C6.3 16.68, 3.77 9.98, 0 0" stroke="#1e1e1e" stroke-width="2" fill="none"></path></g><g transform="translate(141.24100254933717 314.82783652030685) rotate(0 0.6714936546016448 56.00460084695919)"><path d="M-8.27 23.59 C-5.33 15.2, -2.39 6.81, 0 0 M-8.27 23.59 C-5.9 16.83, -3.53 10.06, 0 0" stroke="#1e1e1e" stroke-width="2" fill="none"></path></g><g transform="translate(141.24100254933717 314.82783652030685) rotate(0 0.6714936546016448 56.00460084695919)"><path d="M-7.49 88.62 C-4.35 96.94, -1.21 105.26, 1.34 112.01 M-7.49 88.62 C-4.96 95.33, -2.42 102.03, 1.34 112.01" stroke="#1e1e1e" stroke-width="2" fill="none"></path></g><g transform="translate(141.24100254933717 314.82783652030685) rotate(0 0.6714936546016448 56.00460084695919)"><path d="M9.61 88.42 C6.67 96.81, 3.73 105.2, 1.34 112.01 M9.61 88.42 C7.24 95.18, 4.87 101.94, 1.34 112.01" stroke="#1e1e1e" stroke-width="2" fill="none"></path></g></g><mask></mask><g stroke-linecap="round"><g transform="translate(228.31197176828874 314.82783652030685) rotate(0 0.6916854854453405 56.00460084695919)"><path d="M0 0 C0.46 37.14, 0.92 74.28, 1.38 112.01 M0 0 C0.36 29.11, 0.72 58.22, 1.38 112.01" stroke="#1e1e1e" stroke-width="2" fill="none"></path></g><g transform="translate(228.31197176828874 314.82783652030685) rotate(0 0.6916854854453405 56.00460084695919)"><path d="M8.84 23.38 C5.91 15.63, 2.98 7.88, 0 0 M8.84 23.38 C6.54 17.31, 4.25 11.23, 0 0" stroke="#1e1e1e" stroke-width="2" fill="none"></path></g><g transform="translate(228.31197176828874 314.82783652030685) rotate(0 0.6916854854453405 56.00460084695919)"><path d="M-8.26 23.6 C-5.52 15.77, -2.78 7.95, 0 0 M-8.26 23.6 C-6.11 17.46, -3.97 11.33, 0 0" stroke="#1e1e1e" stroke-width="2" fill="none"></path></g><g transform="translate(228.31197176828874 314.82783652030685) rotate(0 0.6916854854453405 56.00460084695919)"><path d="M-7.46 88.62 C-4.53 96.38, -1.59 104.13, 1.38 112.01 M-7.46 88.62 C-5.16 94.7, -2.86 100.78, 1.38 112.01" stroke="#1e1e1e" stroke-width="2" fill="none"></path></g><g transform="translate(228.31197176828874 314.82783652030685) rotate(0 0.6916854854453405 56.00460084695919)"><path d="M9.64 88.41 C6.9 96.24, 4.17 104.06, 1.38 112.01 M9.64 88.41 C7.5 94.55, 5.35 100.68, 1.38 112.01" stroke="#1e1e1e" stroke-width="2" fill="none"></path></g></g><mask></mask><g stroke-linecap="round"><g transform="translate(464.33911112534037 315.5474092169811) rotate(0 0.7565957696478449 56.00460084695919)"><path d="M0 0 C0.35 26.07, 0.7 52.14, 1.51 112.01 M0 0 C0.42 31.31, 0.85 62.62, 1.51 112.01" stroke="#1e1e1e" stroke-width="2" fill="none"></path></g><g transform="translate(464.33911112534037 315.5474092169811) rotate(0 0.7565957696478449 56.00460084695919)"><path d="M8.87 23.37 C6.8 17.93, 4.74 12.49, 0 0 M8.87 23.37 C6.39 16.84, 3.91 10.31, 0 0" stroke="#1e1e1e" stroke-width="2" fill="none"></path></g><g transform="translate(464.33911112534037 315.5474092169811) rotate(0 0.7565957696478449 56.00460084695919)"><path d="M-8.23 23.61 C-6.32 18.11, -4.4 12.62, 0 0 M-8.23 23.61 C-5.93 17.01, -3.63 10.41, 0 0" stroke="#1e1e1e" stroke-width="2" fill="none"></path></g><g transform="translate(464.33911112534037 315.5474092169811) rotate(0 0.7565957696478449 56.00460084695919)"><path d="M-7.35 88.63 C-5.29 94.07, -3.23 99.52, 1.51 112.01 M-7.35 88.63 C-4.88 95.17, -2.4 101.7, 1.51 112.01" stroke="#1e1e1e" stroke-width="2" fill="none"></path></g><g transform="translate(464.33911112534037 315.5474092169811) rotate(0 0.7565957696478449 56.00460084695919)"><path d="M9.75 88.4 C7.83 93.9, 5.91 99.39, 1.51 112.01 M9.75 88.4 C7.44 95, 5.14 101.6, 1.51 112.01" stroke="#1e1e1e" stroke-width="2" fill="none"></path></g></g><mask></mask><g stroke-linecap="round"><g transform="translate(551.4100803442919 315.5474092169811) rotate(0 0.7571983704480658 54.2056412623424)"><path d="M0 0 C0.53 38.15, 1.07 76.3, 1.51 108.41 M0 0 C0.34 24.37, 0.68 48.74, 1.51 108.41" stroke="#1e1e1e" stroke-width="2" fill="none"></path></g><g transform="translate(551.4100803442919 315.5474092169811) rotate(0 0.7571983704480658 54.2056412623424)"><path d="M8.88 23.37 C5.75 15.15, 2.63 6.92, 0 0 M8.88 23.37 C6.88 18.12, 4.89 12.86, 0 0" stroke="#1e1e1e" stroke-width="2" fill="none"></path></g><g transform="translate(551.4100803442919 315.5474092169811) rotate(0 0.7571983704480658 54.2056412623424)"><path d="M-8.22 23.61 C-5.33 15.3, -2.44 6.99, 0 0 M-8.22 23.61 C-6.37 18.3, -4.53 13, 0 0" stroke="#1e1e1e" stroke-width="2" fill="none"></path></g><g transform="translate(551.4100803442919 315.5474092169811) rotate(0 0.7571983704480658 54.2056412623424)"><path d="M-7.36 85.04 C-4.24 93.26, -1.12 101.49, 1.51 108.41 M-7.36 85.04 C-5.37 90.29, -3.37 95.55, 1.51 108.41" stroke="#1e1e1e" stroke-width="2" fill="none"></path></g><g transform="translate(551.4100803442919 315.5474092169811) rotate(0 0.7571983704480658 54.2056412623424)"><path d="M9.74 84.8 C6.84 93.11, 3.95 101.42, 1.51 108.41 M9.74 84.8 C7.89 90.11, 6.04 95.42, 1.51 108.41" stroke="#1e1e1e" stroke-width="2" fill="none"></path></g></g><mask></mask><g stroke-linecap="round"><g transform="translate(855.4345639633377 428.27623929343554) rotate(0 -0.8034825008662665 -58.536756689356935)"><path d="M0 0 C-0.57 -41.37, -1.14 -82.75, -1.61 -117.07 M0 0 C-0.49 -35.84, -0.98 -71.68, -1.61 -117.07" stroke="#1e1e1e" stroke-width="2" fill="none"></path></g><g transform="translate(855.4345639633377 428.27623929343554) rotate(0 -0.8034825008662665 -58.536756689356935)"><path d="M7.27 -93.7 C4.13 -101.96, 0.99 -110.22, -1.61 -117.07 M7.27 -93.7 C4.55 -100.86, 1.83 -108.01, -1.61 -117.07" stroke="#1e1e1e" stroke-width="2" fill="none"></path></g><g transform="translate(855.4345639633377 428.27623929343554) rotate(0 -0.8034825008662665 -58.536756689356935)"><path d="M-9.83 -93.47 C-6.93 -101.81, -4.02 -110.15, -1.61 -117.07 M-9.83 -93.47 C-7.32 -100.69, -4.8 -107.92, -1.61 -117.07" stroke="#1e1e1e" stroke-width="2" fill="none"></path></g></g><mask></mask><g stroke-linecap="round"><g transform="translate(886.3104276035012 311.20272591472167) rotate(0 0.7432137068057614 57.09758345307728)"><path d="M0 0 C0.56 43.34, 1.13 86.67, 1.49 114.2 M0 0 C0.39 29.62, 0.77 59.24, 1.49 114.2" stroke="#1e1e1e" stroke-width="2" fill="none"></path></g><g transform="translate(886.3104276035012 311.20272591472167) rotate(0 0.7432137068057614 57.09758345307728)"><path d="M-7.37 90.82 C-4.01 99.69, -0.65 108.56, 1.49 114.2 M-7.37 90.82 C-5.07 96.88, -2.78 102.94, 1.49 114.2" stroke="#1e1e1e" stroke-width="2" fill="none"></path></g><g transform="translate(886.3104276035012 311.20272591472167) rotate(0 0.7432137068057614 57.09758345307728)"><path d="M9.73 90.59 C6.6 99.55, 3.47 108.51, 1.49 114.2 M9.73 90.59 C7.59 96.72, 5.45 102.84, 1.49 114.2" stroke="#1e1e1e" stroke-width="2" fill="none"></path></g></g><mask></mask><g transform="translate(941.9603516009395 354.0563048133563) rotate(0 115.0400390625 20.700000000000045)"><text x="115.0400390625" y="30.420703125" font-family="Helvetica, Segoe UI Emoji" font-size="36px" fill="#1e1e1e" text-anchor="middle" style="white-space: pre;" direction="ltr" dominant-baseline="alphabetic">4-8 TB/s (agg)</text></g><g transform="translate(1011.6088698332417 144.8687131959182) rotate(0 109.0458984375 20.700000000000045)"><text x="109.0458984375" y="30.420703125" font-family="Helvetica, Segoe UI Emoji" font-size="36px" fill="#1e1e1e" text-anchor="middle" style="white-space: pre;" direction="ltr" dominant-baseline="alphabetic">20 TB/s (agg)</text></g></svg>