<svg version="1.1" xmlns="http://www.w3.org/2000/svg" viewBox="0 0 1383.8326647301428 750.3270061974272" width="1383.8326647301428" height="750.3270061974272" class="excalidraw-svg">
  <!-- svg-source:excalidraw -->
  
  <defs>
    <style class="style-fonts">
      
    </style>
    
  </defs>
  <rect x="0" y="0" width="1383.8326647301428" height="750.3270061974272" fill="#ffffff"></rect><g stroke-linecap="round" transform="translate(10 615.0796819871639) rotate(0 629.258888292123 62.62366210513164)"><path d="M0 0 L1258.52 0 L1258.52 125.25 L0 125.25" stroke="none" stroke-width="0" fill="#ffc9c9"></path><path d="M0 0 C433.66 0, 867.31 0, 1258.52 0 M0 0 C468.76 0, 937.52 0, 1258.52 0 M1258.52 0 C1258.52 49.12, 1258.52 98.24, 1258.52 125.25 M1258.52 0 C1258.52 47.31, 1258.52 94.61, 1258.52 125.25 M1258.52 125.25 C903.35 125.25, 548.18 125.25, 0 125.25 M1258.52 125.25 C776.18 125.25, 293.85 125.25, 0 125.25 M0 125.25 C0 75.42, 0 25.59, 0 0 M0 125.25 C0 83.69, 0 42.14, 0 0" stroke="#1e1e1e" stroke-width="2" fill="none"></path></g><g transform="translate(552.7184677598964 660.8062120436821) rotate(0 86.54042053222656 16.897132048613457)"><text x="86.54042053222656" y="24.83201148380652" font-family="Helvetica, Segoe UI Emoji" font-size="29.386316606284385px" fill="#1e1e1e" text-anchor="middle" style="white-space: pre;" direction="ltr" dominant-baseline="alphabetic">40 GB HBM2</text></g><g stroke-linecap="round" transform="translate(16.133993315117095 429.03814953382107) rotate(0 516.6328375639903 29.99385300726135)"><path d="M0 0 L1033.27 0 L1033.27 59.99 L0 59.99" stroke="none" stroke-width="0" fill="#ffec99"></path><path d="M0 0 C242.89 0, 485.78 0, 1033.27 0 M0 0 C212.9 0, 425.81 0, 1033.27 0 M1033.27 0 C1033.27 22.95, 1033.27 45.89, 1033.27 59.99 M1033.27 0 C1033.27 15.69, 1033.27 31.38, 1033.27 59.99 M1033.27 59.99 C698.35 59.99, 363.44 59.99, 0 59.99 M1033.27 59.99 C653.94 59.99, 274.62 59.99, 0 59.99 M0 59.99 C0 39.49, 0 18.98, 0 0 M0 59.99 C0 39.68, 0 19.37, 0 0" stroke="#1e1e1e" stroke-width="2" fill="none"></path></g><g transform="translate(469.8896336134824 442.13487049246896) rotate(0 62.877197265625 16.897132048613457)"><text x="62.877197265625" y="24.83201148380652" font-family="Helvetica, Segoe UI Emoji" font-size="29.386316606284385px" fill="#1e1e1e" text-anchor="middle" style="white-space: pre;" direction="ltr" dominant-baseline="alphabetic">40 MB L2</text></g><g stroke-linecap="round"><g transform="translate(519.0662211806832 600.0679459804164) rotate(0 0 -51.110957196865)"><path d="M0 0 C0 -21.04, 0 -42.09, 0 -102.22 M0 0 C0 -28.05, 0 -56.09, 0 -102.22" stroke="#1e1e1e" stroke-width="2" fill="none"></path></g><g transform="translate(519.0662211806832 600.0679459804164) rotate(0 0 -51.110957196865)"><path d="M8.55 -78.73 C6.79 -83.57, 5.03 -88.4, 0 -102.22 M8.55 -78.73 C6.2 -85.18, 3.86 -91.62, 0 -102.22" stroke="#1e1e1e" stroke-width="2" fill="none"></path></g><g transform="translate(519.0662211806832 600.0679459804164) rotate(0 0 -51.110957196865)"><path d="M-8.55 -78.73 C-6.79 -83.57, -5.03 -88.4, 0 -102.22 M-8.55 -78.73 C-6.2 -85.18, -3.86 -91.62, 0 -102.22" stroke="#1e1e1e" stroke-width="2" fill="none"></path></g></g><mask></mask><g transform="translate(574.286854191626 532.3059621648022) rotate(0 73.107421875 20.700000000000045)"><text x="73.107421875" y="30.420703125" font-family="Helvetica, Segoe UI Emoji" font-size="36px" fill="#1e1e1e" text-anchor="middle" style="white-space: pre;" direction="ltr" dominant-baseline="alphabetic">1.55TB/s</text></g><g transform="translate(1154.8092272301428 438.79074962887444) rotate(0 109.51171874999994 20.700000000000045)"><text x="109.51171875" y="30.420703125" font-family="Helvetica, Segoe UI Emoji" font-size="36px" fill="#1e1e1e" text-anchor="middle" style="white-space: pre;" direction="ltr" dominant-baseline="alphabetic">PCIe, NVLink</text></g><g stroke-linecap="round"><g transform="translate(1141.7263892711064 451.87990560361686) rotate(0 -39.8628692051646 0)"><path d="M0 0 C-17.48 0, -34.96 0, -79.73 0 M0 0 C-20.59 0, -41.17 0, -79.73 0" stroke="#1e1e1e" stroke-width="2" fill="none"></path></g><g transform="translate(1141.7263892711064 451.87990560361686) rotate(0 -39.8628692051646 0)"><path d="M-56.23 -8.55 C-61.38 -6.68, -66.54 -4.8, -79.73 0 M-56.23 -8.55 C-62.3 -6.34, -68.37 -4.13, -79.73 0" stroke="#1e1e1e" stroke-width="2" fill="none"></path></g><g transform="translate(1141.7263892711064 451.87990560361686) rotate(0 -39.8628692051646 0)"><path d="M-56.23 8.55 C-61.38 6.68, -66.54 4.8, -79.73 0 M-56.23 8.55 C-62.3 6.34, -68.37 4.13, -79.73 0" stroke="#1e1e1e" stroke-width="2" fill="none"></path></g></g><mask></mask><g stroke-linecap="round"><g transform="translate(1059.3188283472496 477.19330584423506) rotate(0 43.43870173629318 -0.000019547920373952365)"><path d="M0 0 C23.47 0, 46.93 0, 86.88 0 M0 0 C27.1 0, 54.2 0, 86.88 0" stroke="#1e1e1e" stroke-width="2" fill="none"></path></g><g transform="translate(1059.3188283472496 477.19330584423506) rotate(0 43.43870173629318 -0.000019547920373952365)"><path d="M63.39 8.55 C69.73 6.24, 76.08 3.93, 86.88 0 M63.39 8.55 C70.71 5.88, 78.04 3.22, 86.88 0" stroke="#1e1e1e" stroke-width="2" fill="none"></path></g><g transform="translate(1059.3188283472496 477.19330584423506) rotate(0 43.43870173629318 -0.000019547920373952365)"><path d="M63.39 -8.55 C69.73 -6.24, 76.08 -3.93, 86.88 0 M63.39 -8.55 C70.71 -5.88, 78.04 -3.22, 86.88 0" stroke="#1e1e1e" stroke-width="2" fill="none"></path></g></g><mask></mask><g stroke-linecap="round"><g transform="translate(539.362711779153 504.11722930693077) rotate(0 0 48.76936342019826)"><path d="M0 0 C0 38.25, 0 76.51, 0 97.54 M0 0 C0 36.84, 0 73.68, 0 97.54" stroke="#1e1e1e" stroke-width="2" fill="none"></path></g><g transform="translate(539.362711779153 504.11722930693077) rotate(0 0 48.76936342019826)"><path d="M-8.55 74.05 C-5.2 83.26, -1.84 92.47, 0 97.54 M-8.55 74.05 C-5.32 82.92, -2.09 91.79, 0 97.54" stroke="#1e1e1e" stroke-width="2" fill="none"></path></g><g transform="translate(539.362711779153 504.11722930693077) rotate(0 0 48.76936342019826)"><path d="M8.55 74.05 C5.2 83.26, 1.84 92.47, 0 97.54 M8.55 74.05 C5.32 82.92, 2.09 91.79, 0 97.54" stroke="#1e1e1e" stroke-width="2" fill="none"></path></g></g><mask></mask><g stroke-linecap="round" transform="translate(598.4501155418748 10) rotate(0 332.29403137007273 148.87115916285234)"><path d="M0 0 L664.59 0 L664.59 297.74 L0 297.74" stroke="none" stroke-width="0" fill="#a5d8ff"></path><path d="M0 0 C254.22 0, 508.44 0, 664.59 0 M0 0 C173.83 0, 347.66 0, 664.59 0 M664.59 0 C664.59 96.51, 664.59 193.02, 664.59 297.74 M664.59 0 C664.59 109.3, 664.59 218.61, 664.59 297.74 M664.59 297.74 C437.45 297.74, 210.31 297.74, 0 297.74 M664.59 297.74 C439.57 297.74, 214.56 297.74, 0 297.74 M0 297.74 C0 228.44, 0 159.14, 0 0 M0 297.74 C0 214.51, 0 131.29, 0 0" stroke="#1e1e1e" stroke-width="2" fill="none"></path></g><g transform="translate(603.4501155418748 15) rotate(0 28.0986328125 41.40000000000009)"><text x="0" y="30.420703125" font-family="Helvetica, Segoe UI Emoji" font-size="36px" fill="#1e1e1e" text-anchor="start" style="white-space: pre;" direction="ltr" dominant-baseline="alphabetic">SM</text><text x="0" y="71.820703125" font-family="Helvetica, Segoe UI Emoji" font-size="36px" fill="#1e1e1e" text-anchor="start" style="white-space: pre;" direction="ltr" dominant-baseline="alphabetic">  1</text></g><g stroke-linecap="round" transform="translate(607.2058796631749 195.290357311545) rotate(0 124.26163323164297 50.50917929278785)"><path d="M0 0 L248.52 0 L248.52 101.02 L0 101.02" stroke="none" stroke-width="0" fill="#b2f2bb"></path><path d="M0 0 C57.89 0, 115.77 0, 248.52 0 M0 0 C61.2 0, 122.41 0, 248.52 0 M248.52 0 C248.52 33.96, 248.52 67.91, 248.52 101.02 M248.52 0 C248.52 20.91, 248.52 41.81, 248.52 101.02 M248.52 101.02 C149.89 101.02, 51.26 101.02, 0 101.02 M248.52 101.02 C159.52 101.02, 70.51 101.02, 0 101.02 M0 101.02 C0 65.32, 0 29.62, 0 0 M0 101.02 C0 70.09, 0 39.17, 0 0" stroke="#1e1e1e" stroke-width="2" fill="none"></path></g><g transform="translate(647.4001300823179 225.09953660433303) rotate(0 84.06738281250003 20.700000000000045)"><text x="84.0673828125" y="30.420703125" font-family="Helvetica, Segoe UI Emoji" font-size="36px" fill="#1e1e1e" text-anchor="middle" style="white-space: pre;" direction="ltr" dominant-baseline="alphabetic">192 KB L1</text></g><g stroke-linecap="round" transform="translate(854.8352052886183 196.18436732914597) rotate(0 192.203195005488 50.50917929278785)"><path d="M0 0 L384.41 0 L384.41 101.02 L0 101.02" stroke="none" stroke-width="0" fill="#b2f2bb"></path><path d="M0 0 C151.16 0, 302.31 0, 384.41 0 M0 0 C146.41 0, 292.81 0, 384.41 0 M384.41 0 C384.41 24.39, 384.41 48.78, 384.41 101.02 M384.41 0 C384.41 21.27, 384.41 42.54, 384.41 101.02 M384.41 101.02 C277.61 101.02, 170.82 101.02, 0 101.02 M384.41 101.02 C300.36 101.02, 216.32 101.02, 0 101.02 M0 101.02 C0 64.98, 0 28.95, 0 0 M0 101.02 C0 66.76, 0 32.5, 0 0" stroke="#1e1e1e" stroke-width="2" fill="none"></path></g><g transform="translate(862.0022674816064 225.993546621934) rotate(0 185.0361328125 20.700000000000045)"><text x="185.0361328125" y="30.420703125" font-family="Helvetica, Segoe UI Emoji" font-size="36px" fill="#1e1e1e" text-anchor="middle" style="white-space: pre;" direction="ltr" dominant-baseline="alphabetic">Shared Memory (SHM)</text></g><g stroke-linecap="round" transform="translate(694.8148835519582 30.081274641323944) rotate(0 192.203195005488 50.50917929278785)"><path d="M0 0 L384.41 0 L384.41 101.02 L0 101.02" stroke="none" stroke-width="0" fill="#ffffff"></path><path d="M0 0 C108.48 0, 216.97 0, 384.41 0 M0 0 C147.33 0, 294.65 0, 384.41 0 M384.41 0 C384.41 40.19, 384.41 80.38, 384.41 101.02 M384.41 0 C384.41 33.52, 384.41 67.03, 384.41 101.02 M384.41 101.02 C256.95 101.02, 129.49 101.02, 0 101.02 M384.41 101.02 C284.51 101.02, 184.61 101.02, 0 101.02 M0 101.02 C0 77.92, 0 54.81, 0 0 M0 101.02 C0 75.33, 0 49.64, 0 0" stroke="#1e1e1e" stroke-width="2" fill="none"></path></g><g transform="translate(776.6010863699462 39.1904539341117) rotate(0 110.4169921875 41.40000000000009)"><text x="110.4169921875" y="30.420703125" font-family="Helvetica, Segoe UI Emoji" font-size="36px" fill="#1e1e1e" text-anchor="middle" style="white-space: pre;" direction="ltr" dominant-baseline="alphabetic">Compute Unit</text><text x="110.4169921875" y="71.820703125" font-family="Helvetica, Segoe UI Emoji" font-size="36px" fill="#1e1e1e" text-anchor="middle" style="white-space: pre;" direction="ltr" dominant-baseline="alphabetic">Registers</text></g><g stroke-linecap="round"><g transform="translate(748.6276730266322 188.348030198159) rotate(0 0 -22.708741115821567)"><path d="M0 0 C0 -16.6, 0 -33.21, 0 -45.42 M0 0 C0 -17.01, 0 -34.02, 0 -45.42" stroke="#1e1e1e" stroke-width="2" fill="none"></path></g><g transform="translate(748.6276730266322 188.348030198159) rotate(0 0 -22.708741115821567)"><path d="M7.77 -24.08 C4.93 -31.88, 2.09 -39.68, 0 -45.42 M7.77 -24.08 C4.86 -32.07, 1.95 -40.06, 0 -45.42" stroke="#1e1e1e" stroke-width="2" fill="none"></path></g><g transform="translate(748.6276730266322 188.348030198159) rotate(0 0 -22.708741115821567)"><path d="M-7.77 -24.08 C-4.93 -31.88, -2.09 -39.68, 0 -45.42 M-7.77 -24.08 C-4.86 -32.07, -1.95 -40.06, 0 -45.42" stroke="#1e1e1e" stroke-width="2" fill="none"></path></g></g><mask></mask><g stroke-linecap="round"><g transform="translate(771.8708266081221 141.14266629083068) rotate(0 5.684341886080802e-14 20.473785251577738)"><path d="M0 0 C0 13.76, 0 27.53, 0 40.95 M0 0 C0 8.47, 0 16.95, 0 40.95" stroke="#1e1e1e" stroke-width="2" fill="none"></path></g><g transform="translate(771.8708266081221 141.14266629083068) rotate(0 5.684341886080802e-14 20.473785251577738)"><path d="M-7 21.71 C-4.65 28.18, -2.29 34.64, 0 40.95 M-7 21.71 C-5.55 25.69, -4.1 29.67, 0 40.95" stroke="#1e1e1e" stroke-width="2" fill="none"></path></g><g transform="translate(771.8708266081221 141.14266629083068) rotate(0 5.684341886080802e-14 20.473785251577738)"><path d="M7 21.71 C4.65 28.18, 2.29 34.64, 0 40.95 M7 21.71 C5.55 25.69, 4.1 29.67, 0 40.95" stroke="#1e1e1e" stroke-width="2" fill="none"></path></g></g><mask></mask><g stroke-linecap="round"><g transform="translate(952.452410232986 186.56007934271565) rotate(0 0 -18.685868986013475)"><path d="M0 0 C0 -13.3, 0 -26.6, 0 -37.37 M0 0 C0 -10.42, 0 -20.83, 0 -37.37" stroke="#1e1e1e" stroke-width="2" fill="none"></path></g><g transform="translate(952.452410232986 186.56007934271565) rotate(0 0 -18.685868986013475)"><path d="M6.39 -19.81 C4.12 -26.06, 1.84 -32.31, 0 -37.37 M6.39 -19.81 C4.61 -24.71, 2.83 -29.6, 0 -37.37" stroke="#1e1e1e" stroke-width="2" fill="none"></path></g><g transform="translate(952.452410232986 186.56007934271565) rotate(0 0 -18.685868986013475)"><path d="M-6.39 -19.81 C-4.12 -26.06, -1.84 -32.31, 0 -37.37 M-6.39 -19.81 C-4.61 -24.71, -2.83 -29.6, 0 -37.37" stroke="#1e1e1e" stroke-width="2" fill="none"></path></g></g><mask></mask><g stroke-linecap="round"><g transform="translate(979.2714655253628 143.82455798411684) rotate(0 0 21.36776067929941)"><path d="M0 0 C0 10.32, 0 20.64, 0 42.74 M0 0 C0 9, 0 18, 0 42.74" stroke="#1e1e1e" stroke-width="2" fill="none"></path></g><g transform="translate(979.2714655253628 143.82455798411684) rotate(0 0 21.36776067929941)"><path d="M-7.31 22.66 C-5.54 27.5, -3.78 32.35, 0 42.74 M-7.31 22.66 C-5.77 26.88, -4.23 31.11, 0 42.74" stroke="#1e1e1e" stroke-width="2" fill="none"></path></g><g transform="translate(979.2714655253628 143.82455798411684) rotate(0 0 21.36776067929941)"><path d="M7.31 22.66 C5.54 27.5, 3.78 32.35, 0 42.74 M7.31 22.66 C5.77 26.88, 4.23 31.11, 0 42.74" stroke="#1e1e1e" stroke-width="2" fill="none"></path></g></g><mask></mask><g transform="translate(299.4619960535373 74.99922817057404) rotate(0 47.15087127685547 65.05674701358203)"><text x="0" y="95.60734237576862" font-family="Helvetica, Segoe UI Emoji" font-size="113.14216871927317px" fill="#1e1e1e" text-anchor="start" style="white-space: pre;" direction="ltr" dominant-baseline="alphabetic">...</text></g><g stroke-linecap="round" transform="translate(510.78876735745786 10) rotate(0 39.622207468770426 148.44822639411814)"><path d="M0 0 L79.24 0 L79.24 296.9 L0 296.9" stroke="none" stroke-width="0" fill="#a5d8ff"></path><path d="M0 0 C31.53 0, 63.06 0, 79.24 0 M0 0 C26.29 0, 52.58 0, 79.24 0 M79.24 0 C79.24 98.44, 79.24 196.88, 79.24 296.9 M79.24 0 C79.24 77.16, 79.24 154.31, 79.24 296.9 M79.24 296.9 C61.12 296.9, 43 296.9, 0 296.9 M79.24 296.9 C59.09 296.9, 38.94 296.9, 0 296.9 M0 296.9 C0 198.55, 0 100.2, 0 0 M0 296.9 C0 235.07, 0 173.25, 0 0" stroke="#1e1e1e" stroke-width="2" fill="none"></path></g><g transform="translate(523.4109748262283 15) rotate(0 27 41.40000000000009)"><text x="27" y="30.420703125" font-family="Helvetica, Segoe UI Emoji" font-size="36px" fill="#1e1e1e" text-anchor="middle" style="white-space: pre;" direction="ltr" dominant-baseline="alphabetic">SM</text><text x="27" y="71.820703125" font-family="Helvetica, Segoe UI Emoji" font-size="36px" fill="#1e1e1e" text-anchor="middle" style="white-space: pre;" direction="ltr" dominant-baseline="alphabetic">2</text></g><g stroke-linecap="round" transform="translate(422.80238409354746 10) rotate(0 39.622207468770426 148.44822639411814)"><path d="M0 0 L79.24 0 L79.24 296.9 L0 296.9" stroke="none" stroke-width="0" fill="#a5d8ff"></path><path d="M0 0 C27.08 0, 54.17 0, 79.24 0 M0 0 C26.83 0, 53.66 0, 79.24 0 M79.24 0 C79.24 69.1, 79.24 138.2, 79.24 296.9 M79.24 0 C79.24 82.99, 79.24 165.98, 79.24 296.9 M79.24 296.9 C59.15 296.9, 39.06 296.9, 0 296.9 M79.24 296.9 C52.5 296.9, 25.76 296.9, 0 296.9 M0 296.9 C0 218.63, 0 140.37, 0 0 M0 296.9 C0 219.66, 0 142.42, 0 0" stroke="#1e1e1e" stroke-width="2" fill="none"></path></g><g transform="translate(435.42459156231786 15) rotate(0 27 41.40000000000009)"><text x="27" y="30.420703125" font-family="Helvetica, Segoe UI Emoji" font-size="36px" fill="#1e1e1e" text-anchor="middle" style="white-space: pre;" direction="ltr" dominant-baseline="alphabetic">SM</text><text x="27" y="71.820703125" font-family="Helvetica, Segoe UI Emoji" font-size="36px" fill="#1e1e1e" text-anchor="middle" style="white-space: pre;" direction="ltr" dominant-baseline="alphabetic">3</text></g><g stroke-linecap="round" transform="translate(99.62184421667848 10) rotate(0 39.62220746877042 148.44822639411814)"><path d="M0 0 L79.24 0 L79.24 296.9 L0 296.9" stroke="none" stroke-width="0" fill="#a5d8ff"></path><path d="M0 0 C24.58 0, 49.16 0, 79.24 0 M0 0 C18.04 0, 36.08 0, 79.24 0 M79.24 0 C79.24 104.48, 79.24 208.96, 79.24 296.9 M79.24 0 C79.24 66.73, 79.24 133.47, 79.24 296.9 M79.24 296.9 C55.3 296.9, 31.35 296.9, 0 296.9 M79.24 296.9 C60.99 296.9, 42.73 296.9, 0 296.9 M0 296.9 C0 213.29, 0 129.69, 0 0 M0 296.9 C0 206.94, 0 116.98, 0 0" stroke="#1e1e1e" stroke-width="2" fill="none"></path></g><g transform="translate(108.08682512294891 15) rotate(0 31.1572265625 41.40000000000009)"><text x="31.1572265625" y="30.420703125" font-family="Helvetica, Segoe UI Emoji" font-size="36px" fill="#1e1e1e" text-anchor="middle" style="white-space: pre;" direction="ltr" dominant-baseline="alphabetic">SM</text><text x="31.1572265625" y="71.820703125" font-family="Helvetica, Segoe UI Emoji" font-size="36px" fill="#1e1e1e" text-anchor="middle" style="white-space: pre;" direction="ltr" dominant-baseline="alphabetic">127</text></g><g stroke-linecap="round" transform="translate(11.635460952768085 10) rotate(0 39.62220746877042 148.44822639411814)"><path d="M0 0 L79.24 0 L79.24 296.9 L0 296.9" stroke="none" stroke-width="0" fill="#a5d8ff"></path><path d="M0 0 C31.45 0, 62.9 0, 79.24 0 M0 0 C28.38 0, 56.76 0, 79.24 0 M79.24 0 C79.24 104.92, 79.24 209.84, 79.24 296.9 M79.24 0 C79.24 90.89, 79.24 181.78, 79.24 296.9 M79.24 296.9 C62.15 296.9, 45.05 296.9, 0 296.9 M79.24 296.9 C56.37 296.9, 33.49 296.9, 0 296.9 M0 296.9 C0 234.75, 0 172.6, 0 0 M0 296.9 C0 198.54, 0 100.18, 0 0" stroke="#1e1e1e" stroke-width="2" fill="none"></path></g><g transform="translate(20.28501217153851 15) rotate(0 30.97265625 41.40000000000009)"><text x="30.97265625" y="30.420703125" font-family="Helvetica, Segoe UI Emoji" font-size="36px" fill="#1e1e1e" text-anchor="middle" style="white-space: pre;" direction="ltr" dominant-baseline="alphabetic">SM</text><text x="30.97265625" y="71.820703125" font-family="Helvetica, Segoe UI Emoji" font-size="36px" fill="#1e1e1e" text-anchor="middle" style="white-space: pre;" direction="ltr" dominant-baseline="alphabetic">128</text></g><g stroke-linecap="round" transform="translate(189.3002859028697 10) rotate(0 39.62220746877042 148.44822639411814)"><path d="M0 0 L79.24 0 L79.24 296.9 L0 296.9" stroke="none" stroke-width="0" fill="#a5d8ff"></path><path d="M0 0 C18.22 0, 36.44 0, 79.24 0 M0 0 C20.46 0, 40.92 0, 79.24 0 M79.24 0 C79.24 112.67, 79.24 225.34, 79.24 296.9 M79.24 0 C79.24 77.01, 79.24 154.01, 79.24 296.9 M79.24 296.9 C58.88 296.9, 38.52 296.9, 0 296.9 M79.24 296.9 C51.55 296.9, 23.85 296.9, 0 296.9 M0 296.9 C0 226.71, 0 156.53, 0 0 M0 296.9 C0 184.89, 0 72.88, 0 0" stroke="#1e1e1e" stroke-width="2" fill="none"></path></g><g transform="translate(197.87073555914012 15) rotate(0 31.051757812500004 41.40000000000009)"><text x="31.0517578125" y="30.420703125" font-family="Helvetica, Segoe UI Emoji" font-size="36px" fill="#1e1e1e" text-anchor="middle" style="white-space: pre;" direction="ltr" dominant-baseline="alphabetic">SM</text><text x="31.0517578125" y="71.820703125" font-family="Helvetica, Segoe UI Emoji" font-size="36px" fill="#1e1e1e" text-anchor="middle" style="white-space: pre;" direction="ltr" dominant-baseline="alphabetic">126</text></g><g stroke-linecap="round"><g transform="translate(53.45040494785002 314.82783652030685) rotate(0 0 52.89018025261953)"><path d="M0 0 C0 29.39, 0 58.78, 0 105.78 M0 0 C0 23.13, 0 46.25, 0 105.78" stroke="#1e1e1e" stroke-width="2" fill="none"></path></g><g transform="translate(53.45040494785002 314.82783652030685) rotate(0 0 52.89018025261953)"><path d="M8.55 23.49 C6.18 16.97, 3.8 10.44, 0 0 M8.55 23.49 C6.68 18.36, 4.81 13.22, 0 0" stroke="#1e1e1e" stroke-width="2" fill="none"></path></g><g transform="translate(53.45040494785002 314.82783652030685) rotate(0 0 52.89018025261953)"><path d="M-8.55 23.49 C-6.18 16.97, -3.8 10.44, 0 0 M-8.55 23.49 C-6.68 18.36, -4.81 13.22, 0 0" stroke="#1e1e1e" stroke-width="2" fill="none"></path></g><g transform="translate(53.45040494785002 314.82783652030685) rotate(0 0 52.89018025261953)"><path d="M-8.55 82.29 C-6.18 88.81, -3.8 95.34, 0 105.78 M-8.55 82.29 C-6.68 87.42, -4.81 92.56, 0 105.78" stroke="#1e1e1e" stroke-width="2" fill="none"></path></g><g transform="translate(53.45040494785002 314.82783652030685) rotate(0 0 52.89018025261953)"><path d="M8.55 82.29 C6.18 88.81, 3.8 95.34, 0 105.78 M8.55 82.29 C6.68 87.42, 4.81 92.56, 0 105.78" stroke="#1e1e1e" stroke-width="2" fill="none"></path></g></g><mask></mask><g stroke-linecap="round"><g transform="translate(141.24100254933717 314.82783652030685) rotate(0 0 52.89018025261953)"><path d="M0 0 C0 37.62, 0 75.25, 0 105.78 M0 0 C0 30.33, 0 60.66, 0 105.78" stroke="#1e1e1e" stroke-width="2" fill="none"></path></g><g transform="translate(141.24100254933717 314.82783652030685) rotate(0 0 52.89018025261953)"><path d="M8.55 23.49 C5.51 15.14, 2.47 6.78, 0 0 M8.55 23.49 C6.1 16.76, 3.65 10.02, 0 0" stroke="#1e1e1e" stroke-width="2" fill="none"></path></g><g transform="translate(141.24100254933717 314.82783652030685) rotate(0 0 52.89018025261953)"><path d="M-8.55 23.49 C-5.51 15.14, -2.47 6.78, 0 0 M-8.55 23.49 C-6.1 16.76, -3.65 10.02, 0 0" stroke="#1e1e1e" stroke-width="2" fill="none"></path></g><g transform="translate(141.24100254933717 314.82783652030685) rotate(0 0 52.89018025261953)"><path d="M-8.55 82.29 C-5.51 90.64, -2.47 99, 0 105.78 M-8.55 82.29 C-6.1 89.02, -3.65 95.76, 0 105.78" stroke="#1e1e1e" stroke-width="2" fill="none"></path></g><g transform="translate(141.24100254933717 314.82783652030685) rotate(0 0 52.89018025261953)"><path d="M8.55 82.29 C5.51 90.64, 2.47 99, 0 105.78 M8.55 82.29 C6.1 89.02, 3.65 95.76, 0 105.78" stroke="#1e1e1e" stroke-width="2" fill="none"></path></g></g><mask></mask><g stroke-linecap="round"><g transform="translate(228.31197176828874 314.82783652030685) rotate(0 0 52.89018025261953)"><path d="M0 0 C0 35.07, 0 70.15, 0 105.78 M0 0 C0 27.49, 0 54.98, 0 105.78" stroke="#1e1e1e" stroke-width="2" fill="none"></path></g><g transform="translate(228.31197176828874 314.82783652030685) rotate(0 0 52.89018025261953)"><path d="M8.55 23.49 C5.72 15.7, 2.88 7.91, 0 0 M8.55 23.49 C6.33 17.39, 4.11 11.28, 0 0" stroke="#1e1e1e" stroke-width="2" fill="none"></path></g><g transform="translate(228.31197176828874 314.82783652030685) rotate(0 0 52.89018025261953)"><path d="M-8.55 23.49 C-5.72 15.7, -2.88 7.91, 0 0 M-8.55 23.49 C-6.33 17.39, -4.11 11.28, 0 0" stroke="#1e1e1e" stroke-width="2" fill="none"></path></g><g transform="translate(228.31197176828874 314.82783652030685) rotate(0 0 52.89018025261953)"><path d="M-8.55 82.29 C-5.72 90.08, -2.88 97.87, 0 105.78 M-8.55 82.29 C-6.33 88.39, -4.11 94.5, 0 105.78" stroke="#1e1e1e" stroke-width="2" fill="none"></path></g><g transform="translate(228.31197176828874 314.82783652030685) rotate(0 0 52.89018025261953)"><path d="M8.55 82.29 C5.72 90.08, 2.88 97.87, 0 105.78 M8.55 82.29 C6.33 88.39, 4.11 94.5, 0 105.78" stroke="#1e1e1e" stroke-width="2" fill="none"></path></g></g><mask></mask><g stroke-linecap="round"><g transform="translate(464.33911112534037 315.5474092169811) rotate(0 0 52.89018025261953)"><path d="M0 0 C0 24.62, 0 49.24, 0 105.78 M0 0 C0 29.57, 0 59.14, 0 105.78" stroke="#1e1e1e" stroke-width="2" fill="none"></path></g><g transform="translate(464.33911112534037 315.5474092169811) rotate(0 0 52.89018025261953)"><path d="M8.55 23.49 C6.56 18.02, 4.57 12.56, 0 0 M8.55 23.49 C6.16 16.93, 3.77 10.36, 0 0" stroke="#1e1e1e" stroke-width="2" fill="none"></path></g><g transform="translate(464.33911112534037 315.5474092169811) rotate(0 0 52.89018025261953)"><path d="M-8.55 23.49 C-6.56 18.02, -4.57 12.56, 0 0 M-8.55 23.49 C-6.16 16.93, -3.77 10.36, 0 0" stroke="#1e1e1e" stroke-width="2" fill="none"></path></g><g transform="translate(464.33911112534037 315.5474092169811) rotate(0 0 52.89018025261953)"><path d="M-8.55 82.29 C-6.56 87.76, -4.57 93.22, 0 105.78 M-8.55 82.29 C-6.16 88.85, -3.77 95.42, 0 105.78" stroke="#1e1e1e" stroke-width="2" fill="none"></path></g><g transform="translate(464.33911112534037 315.5474092169811) rotate(0 0 52.89018025261953)"><path d="M8.55 82.29 C6.56 87.76, 4.57 93.22, 0 105.78 M8.55 82.29 C6.16 88.85, 3.77 95.42, 0 105.78" stroke="#1e1e1e" stroke-width="2" fill="none"></path></g></g><mask></mask><g stroke-linecap="round"><g transform="translate(551.4100803442919 315.5474092169811) rotate(0 0 51.091220668002734)"><path d="M0 0 C0 35.96, 0 71.92, 0 102.18 M0 0 C0 22.97, 0 45.94, 0 102.18" stroke="#1e1e1e" stroke-width="2" fill="none"></path></g><g transform="translate(551.4100803442919 315.5474092169811) rotate(0 0 51.091220668002734)"><path d="M8.55 23.49 C5.54 15.23, 2.53 6.96, 0 0 M8.55 23.49 C6.63 18.21, 4.71 12.93, 0 0" stroke="#1e1e1e" stroke-width="2" fill="none"></path></g><g transform="translate(551.4100803442919 315.5474092169811) rotate(0 0 51.091220668002734)"><path d="M-8.55 23.49 C-5.54 15.23, -2.53 6.96, 0 0 M-8.55 23.49 C-6.63 18.21, -4.71 12.93, 0 0" stroke="#1e1e1e" stroke-width="2" fill="none"></path></g><g transform="translate(551.4100803442919 315.5474092169811) rotate(0 0 51.091220668002734)"><path d="M-8.55 78.69 C-5.54 86.96, -2.53 95.22, 0 102.18 M-8.55 78.69 C-6.63 83.97, -4.71 89.25, 0 102.18" stroke="#1e1e1e" stroke-width="2" fill="none"></path></g><g transform="translate(551.4100803442919 315.5474092169811) rotate(0 0 51.091220668002734)"><path d="M8.55 78.69 C5.54 86.96, 2.53 95.22, 0 102.18 M8.55 78.69 C6.63 83.97, 4.71 89.25, 0 102.18" stroke="#1e1e1e" stroke-width="2" fill="none"></path></g></g><mask></mask><g stroke-linecap="round"><g transform="translate(853.6397454288172 422.0473981047562) rotate(0 0 -55.42233609501727)"><path d="M0 0 C0 -39.17, 0 -78.34, 0 -110.84 M0 0 C0 -33.93, 0 -67.87, 0 -110.84" stroke="#1e1e1e" stroke-width="2" fill="none"></path></g><g transform="translate(853.6397454288172 422.0473981047562) rotate(0 0 -55.42233609501727)"><path d="M8.55 -87.35 C5.53 -95.65, 2.51 -103.96, 0 -110.84 M8.55 -87.35 C5.93 -94.54, 3.32 -101.74, 0 -110.84" stroke="#1e1e1e" stroke-width="2" fill="none"></path></g><g transform="translate(853.6397454288172 422.0473981047562) rotate(0 0 -55.42233609501727)"><path d="M-8.55 -87.35 C-5.53 -95.65, -2.51 -103.96, 0 -110.84 M-8.55 -87.35 C-5.93 -94.54, -3.32 -101.74, 0 -110.84" stroke="#1e1e1e" stroke-width="2" fill="none"></path></g></g><mask></mask><g stroke-linecap="round"><g transform="translate(886.0215191246712 311.20272591472167) rotate(0 -5.684341886080802e-14 53.983162858737614)"><path d="M0 0 C0 40.97, 0 81.95, 0 107.97 M0 0 C0 28, 0 56.01, 0 107.97" stroke="#1e1e1e" stroke-width="2" fill="none"></path></g><g transform="translate(886.0215191246712 311.20272591472167) rotate(0 -5.684341886080802e-14 53.983162858737614)"><path d="M-8.55 84.47 C-5.31 93.39, -2.06 102.3, 0 107.97 M-8.55 84.47 C-6.33 90.57, -4.12 96.66, 0 107.97" stroke="#1e1e1e" stroke-width="2" fill="none"></path></g><g transform="translate(886.0215191246712 311.20272591472167) rotate(0 -5.684341886080802e-14 53.983162858737614)"><path d="M8.55 84.47 C5.31 93.39, 2.06 102.3, 0 107.97 M8.55 84.47 C6.33 90.57, 4.12 96.66, 0 107.97" stroke="#1e1e1e" stroke-width="2" fill="none"></path></g></g><mask></mask><g transform="translate(955.9613281634395 354.0563048133563) rotate(0 101.0390625 20.700000000000045)"><text x="101.0390625" y="30.420703125" font-family="Helvetica, Segoe UI Emoji" font-size="36px" fill="#1e1e1e" text-anchor="middle" style="white-space: pre;" direction="ltr" dominant-baseline="alphabetic">4-8 TB (agg)</text></g><g transform="translate(1011.6088698332417 144.8687131959182) rotate(0 109.0458984375 20.700000000000045)"><text x="109.0458984375" y="30.420703125" font-family="Helvetica, Segoe UI Emoji" font-size="36px" fill="#1e1e1e" text-anchor="middle" style="white-space: pre;" direction="ltr" dominant-baseline="alphabetic">20 TB/s (agg)</text></g></svg>