<svg version="1.1" xmlns="http://www.w3.org/2000/svg" viewBox="0 0 1567.4378951940682 472.2804985894095" width="1567.4378951940682" height="472.2804985894095" class="excalidraw-svg">
  <!-- svg-source:excalidraw -->
  
  <defs>
    <style class="style-fonts">
      
    </style>
    
  </defs>
  <rect x="0" y="0" width="1567.4378951940682" height="472.2804985894095" fill="#ffffff"></rect><g stroke-linecap="round" transform="translate(10 353.1816259700438) rotate(0 666.906909942627 29.99385300726135)"><path d="M0 0 L1333.81 0 L1333.81 59.99 L0 59.99" stroke="none" stroke-width="0" fill="#ffc9c9"></path><path d="M0 0 C399.48 0, 798.95 0, 1333.81 0 M0 0 C376.94 0, 753.89 0, 1333.81 0 M1333.81 0 C1333.81 17.48, 1333.81 34.96, 1333.81 59.99 M1333.81 0 C1333.81 17.89, 1333.81 35.77, 1333.81 59.99 M1333.81 59.99 C973.54 59.99, 613.26 59.99, 0 59.99 M1333.81 59.99 C827.64 59.99, 321.46 59.99, 0 59.99 M0 59.99 C0 42.61, 0 25.23, 0 0 M0 59.99 C0 37.95, 0 15.92, 0 0" stroke="#1e1e1e" stroke-width="2" fill="none"></path></g><g transform="translate(613.5419582128525 366.2783469286917) rotate(0 63.364951729774475 16.89713204861357)"><text x="63.364951729774475" y="24.83201148380652" font-family="Helvetica, Segoe UI Emoji" font-size="29.386316606284385px" fill="#1e1e1e" text-anchor="middle" style="white-space: pre;" direction="ltr" dominant-baseline="alphabetic">L3 Cache</text></g><g stroke-linecap="round" transform="translate(761.8040763007268 11.637730134531012) rotate(0 288.37596893310547 129.89642794934684)"><path d="M0 0 L576.75 0 L576.75 259.79 L0 259.79" stroke="none" stroke-width="0" fill="#a5d8ff"></path><path d="M0 0 C129.78 0, 259.56 0, 576.75 0 M0 0 C172.85 0, 345.7 0, 576.75 0 M576.75 0 C576.75 102.36, 576.75 204.72, 576.75 259.79 M576.75 0 C576.75 66.21, 576.75 132.41, 576.75 259.79 M576.75 259.79 C430.95 259.79, 285.15 259.79, 0 259.79 M576.75 259.79 C429.35 259.79, 281.95 259.79, 0 259.79 M0 259.79 C0 184.06, 0 108.34, 0 0 M0 259.79 C0 187.49, 0 115.18, 0 0" stroke="#1e1e1e" stroke-width="2" fill="none"></path></g><g transform="translate(766.8040763007268 16.63773013453101) rotate(0 38.130859375 16.100000000000023)"><text x="0" y="23.660546874999998" font-family="Helvetica, Segoe UI Emoji" font-size="28px" fill="#1e1e1e" text-anchor="start" style="white-space: pre;" direction="ltr" dominant-baseline="alphabetic">Core1</text></g><g stroke-linecap="round" transform="translate(778.6737569173174 196.44475301106786) rotate(0 274.5733451843262 31.548843383789062)"><path d="M0 0 L549.15 0 L549.15 63.1 L0 63.1" stroke="none" stroke-width="0" fill="#ffec99"></path><path d="M0 0 C142.1 0, 284.2 0, 549.15 0 M0 0 C136.16 0, 272.33 0, 549.15 0 M549.15 0 C549.15 24.25, 549.15 48.5, 549.15 63.1 M549.15 0 C549.15 15.17, 549.15 30.34, 549.15 63.1 M549.15 63.1 C361.05 63.1, 172.95 63.1, 0 63.1 M549.15 63.1 C406.13 63.1, 263.11 63.1, 0 63.1 M0 63.1 C0 48.78, 0 34.46, 0 0 M0 63.1 C0 42.61, 0 22.12, 0 0" stroke="#1e1e1e" stroke-width="2" fill="none"></path></g><g transform="translate(992.8584302266436 211.893596394857) rotate(0 60.388671875 16.100000000000023)"><text x="60.388671875" y="23.660546874999998" font-family="Helvetica, Segoe UI Emoji" font-size="28px" fill="#1e1e1e" text-anchor="middle" style="white-space: pre;" direction="ltr" dominant-baseline="alphabetic">L2 Cache</text></g><g stroke-linecap="round" transform="translate(882.409650812297 92.92531331380223) rotate(0 85.60013946633 49.78797912597656)"><path d="M0 0 L171.2 0 L171.2 99.58 L0 99.58" stroke="none" stroke-width="0" fill="#b2f2bb"></path><path d="M0 0 C40.15 0, 80.29 0, 171.2 0 M0 0 C61.05 0, 122.09 0, 171.2 0 M171.2 0 C171.2 23.27, 171.2 46.53, 171.2 99.58 M171.2 0 C171.2 32.77, 171.2 65.54, 171.2 99.58 M171.2 99.58 C131.41 99.58, 91.62 99.58, 0 99.58 M171.2 99.58 C119.92 99.58, 68.64 99.58, 0 99.58 M0 99.58 C0 69.42, 0 39.26, 0 0 M0 99.58 C0 64.75, 0 29.92, 0 0" stroke="#1e1e1e" stroke-width="2" fill="none"></path></g><g transform="translate(922.311548091127 110.51329243977875) rotate(0 45.6982421875 32.200000000000045)"><text x="45.6982421875" y="23.660546874999998" font-family="Helvetica, Segoe UI Emoji" font-size="28px" fill="#1e1e1e" text-anchor="middle" style="white-space: pre;" direction="ltr" dominant-baseline="alphabetic">L1</text><text x="45.6982421875" y="55.860546875" font-family="Helvetica, Segoe UI Emoji" font-size="28px" fill="#1e1e1e" text-anchor="middle" style="white-space: pre;" direction="ltr" dominant-baseline="alphabetic">instruct</text></g><g stroke-linecap="round" transform="translate(966.5588305617961 20.954488118489735) rotate(0 89.58993835688494 34.999542236328125)"><path d="M0 0 L179.18 0 L179.18 70 L0 70" stroke="none" stroke-width="0" fill="#ffffff"></path><path d="M0 0 C52.21 0, 104.41 0, 179.18 0 M0 0 C53.42 0, 106.84 0, 179.18 0 M179.18 0 C179.18 18.91, 179.18 37.81, 179.18 70 M179.18 0 C179.18 26.56, 179.18 53.13, 179.18 70 M179.18 70 C127.27 70, 75.37 70, 0 70 M179.18 70 C113.36 70, 47.54 70, 0 70 M0 70 C0 43.7, 0 17.4, 0 0 M0 70 C0 53.64, 0 37.27, 0 0" stroke="#1e1e1e" stroke-width="2" fill="none"></path></g><g transform="translate(996.293300168681 39.85403035481795) rotate(0 59.85546875 16.100000000000023)"><text x="59.85546875" y="23.660546874999998" font-family="Helvetica, Segoe UI Emoji" font-size="28px" fill="#1e1e1e" text-anchor="middle" style="white-space: pre;" direction="ltr" dominant-baseline="alphabetic">Registers</text></g><g stroke-linecap="round" transform="translate(1055.0607631534758 94.89705403645848) rotate(0 85.60013946633 49.78797912597656)"><path d="M0 0 L171.2 0 L171.2 99.58 L0 99.58" stroke="none" stroke-width="0" fill="#b2f2bb"></path><path d="M0 0 C53.98 0, 107.97 0, 171.2 0 M0 0 C42.53 0, 85.06 0, 171.2 0 M171.2 0 C171.2 26.76, 171.2 53.52, 171.2 99.58 M171.2 0 C171.2 25.22, 171.2 50.44, 171.2 99.58 M171.2 99.58 C132.09 99.58, 92.97 99.58, 0 99.58 M171.2 99.58 C109.32 99.58, 47.44 99.58, 0 99.58 M0 99.58 C0 64.86, 0 30.15, 0 0 M0 99.58 C0 73.65, 0 47.73, 0 0" stroke="#1e1e1e" stroke-width="2" fill="none"></path></g><g transform="translate(1113.3308244948057 112.485033162435) rotate(0 27.330078125 32.200000000000045)"><text x="27.330078125" y="23.660546874999998" font-family="Helvetica, Segoe UI Emoji" font-size="28px" fill="#1e1e1e" text-anchor="middle" style="white-space: pre;" direction="ltr" dominant-baseline="alphabetic">L1</text><text x="27.330078125" y="55.860546875" font-family="Helvetica, Segoe UI Emoji" font-size="28px" fill="#1e1e1e" text-anchor="middle" style="white-space: pre;" direction="ltr" dominant-baseline="alphabetic">data</text></g><g transform="translate(1382.6205877308475 15.124618840704215) rotate(0 54.8583984375 32.200000000000045)"><text x="0" y="23.660546874999998" font-family="Helvetica, Segoe UI Emoji" font-size="28px" fill="#1e1e1e" text-anchor="start" style="white-space: pre;" direction="ltr" dominant-baseline="alphabetic">2-4 KB,</text><text x="0" y="55.860546875" font-family="Helvetica, Segoe UI Emoji" font-size="28px" fill="#1e1e1e" text-anchor="start" style="white-space: pre;" direction="ltr" dominant-baseline="alphabetic">~1 Cycle</text></g><g transform="translate(1353.5492233190682 106.57566040352458) rotate(0 101.9443359375 32.200000000000045)"><text x="101.9443359375" y="23.660546874999998" font-family="Helvetica, Segoe UI Emoji" font-size="28px" fill="#1e1e1e" text-anchor="middle" style="white-space: pre;" direction="ltr" dominant-baseline="alphabetic">32-64KB (each),</text><text x="101.9443359375" y="55.860546875" font-family="Helvetica, Segoe UI Emoji" font-size="28px" fill="#1e1e1e" text-anchor="middle" style="white-space: pre;" direction="ltr" dominant-baseline="alphabetic">~3-5 cycls</text></g><g transform="translate(1353.407997829568 196.0175731798049) rotate(0 89.87890625 32.200000000000045)"><text x="89.87890625" y="23.660546874999998" font-family="Helvetica, Segoe UI Emoji" font-size="28px" fill="#1e1e1e" text-anchor="middle" style="white-space: pre;" direction="ltr" dominant-baseline="alphabetic">512KB - 2MB,</text><text x="89.87890625" y="55.860546875" font-family="Helvetica, Segoe UI Emoji" font-size="28px" fill="#1e1e1e" text-anchor="middle" style="white-space: pre;" direction="ltr" dominant-baseline="alphabetic">~10-18 Cycles</text></g><g transform="translate(446.2886130338245 430.08049858940944) rotate(0 238.505859375 16.100000000000023)"><text x="238.505859375" y="23.660546874999998" font-family="Helvetica, Segoe UI Emoji" font-size="28px" fill="#1e1e1e" text-anchor="middle" style="white-space: pre;" direction="ltr" dominant-baseline="alphabetic">64MB - 256MB, ~35-60 cycles, shared</text></g><g stroke-linecap="round" transform="translate(655.7649781968857 10) rotate(0 48.692588806152344 129.89642794934684)"><path d="M0 0 L97.39 0 L97.39 259.79 L0 259.79" stroke="none" stroke-width="0" fill="#a5d8ff"></path><path d="M0 0 C24.62 0, 49.24 0, 97.39 0 M0 0 C24.89 0, 49.78 0, 97.39 0 M97.39 0 C97.39 75.73, 97.39 151.46, 97.39 259.79 M97.39 0 C97.39 72.3, 97.39 144.61, 97.39 259.79 M97.39 259.79 C70.3 259.79, 43.22 259.79, 0 259.79 M97.39 259.79 C75.5 259.79, 53.62 259.79, 0 259.79 M0 259.79 C0 207.23, 0 154.67, 0 0 M0 259.79 C0 187.64, 0 115.49, 0 0" stroke="#1e1e1e" stroke-width="2" fill="none"></path></g><g transform="translate(660.7649781968857 15) rotate(0 38.1650390625 16.100000000000023)"><text x="0" y="23.660546874999998" font-family="Helvetica, Segoe UI Emoji" font-size="28px" fill="#1e1e1e" text-anchor="start" style="white-space: pre;" direction="ltr" dominant-baseline="alphabetic">Core2</text></g><g stroke-linecap="round" transform="translate(548.8495593600801 10.818865067265278) rotate(0 48.692588806152344 129.89642794934684)"><path d="M0 0 L97.39 0 L97.39 259.79 L0 259.79" stroke="none" stroke-width="0" fill="#a5d8ff"></path><path d="M0 0 C26.17 0, 52.35 0, 97.39 0 M0 0 C24.66 0, 49.33 0, 97.39 0 M97.39 0 C97.39 59.36, 97.39 118.71, 97.39 259.79 M97.39 0 C97.39 93.9, 97.39 187.8, 97.39 259.79 M97.39 259.79 C63.44 259.79, 29.49 259.79, 0 259.79 M97.39 259.79 C72.03 259.79, 46.68 259.79, 0 259.79 M0 259.79 C0 178.94, 0 98.08, 0 0 M0 259.79 C0 178.61, 0 97.42, 0 0" stroke="#1e1e1e" stroke-width="2" fill="none"></path></g><g transform="translate(553.8495593600801 15.818865067265278) rotate(0 38.1376953125 16.100000000000023)"><text x="0" y="23.660546874999998" font-family="Helvetica, Segoe UI Emoji" font-size="28px" fill="#1e1e1e" text-anchor="start" style="white-space: pre;" direction="ltr" dominant-baseline="alphabetic">Core3</text></g><g stroke-linecap="round" transform="translate(441.05774349636476 11.637793504370393) rotate(0 48.692588806152344 129.89642794934684)"><path d="M0 0 L97.39 0 L97.39 259.79 L0 259.79" stroke="none" stroke-width="0" fill="#a5d8ff"></path><path d="M0 0 C33.36 0, 66.71 0, 97.39 0 M0 0 C25.36 0, 50.73 0, 97.39 0 M97.39 0 C97.39 58.95, 97.39 117.9, 97.39 259.79 M97.39 0 C97.39 84.36, 97.39 168.73, 97.39 259.79 M97.39 259.79 C75.81 259.79, 54.24 259.79, 0 259.79 M97.39 259.79 C62.07 259.79, 26.75 259.79, 0 259.79 M0 259.79 C0 170.27, 0 80.76, 0 0 M0 259.79 C0 163.03, 0 66.26, 0 0" stroke="#1e1e1e" stroke-width="2" fill="none"></path></g><g transform="translate(446.05774349636476 16.637793504370393) rotate(0 38.28125 16.100000000000023)"><text x="0" y="23.660546874999998" font-family="Helvetica, Segoe UI Emoji" font-size="28px" fill="#1e1e1e" text-anchor="start" style="white-space: pre;" direction="ltr" dominant-baseline="alphabetic">Core4</text></g><g stroke-linecap="round" transform="translate(334.1423246595591 10.818865067265278) rotate(0 48.692588806152344 129.89642794934684)"><path d="M0 0 L97.39 0 L97.39 259.79 L0 259.79" stroke="none" stroke-width="0" fill="#a5d8ff"></path><path d="M0 0 C24.5 0, 48.99 0, 97.39 0 M0 0 C20.96 0, 41.91 0, 97.39 0 M97.39 0 C97.39 80.47, 97.39 160.94, 97.39 259.79 M97.39 0 C97.39 73.42, 97.39 146.85, 97.39 259.79 M97.39 259.79 C61.2 259.79, 25.01 259.79, 0 259.79 M97.39 259.79 C66.6 259.79, 35.81 259.79, 0 259.79 M0 259.79 C0 198.72, 0 137.65, 0 0 M0 259.79 C0 206.26, 0 152.73, 0 0" stroke="#1e1e1e" stroke-width="2" fill="none"></path></g><g transform="translate(339.1423246595591 15.818865067265278) rotate(0 38.1513671875 16.100000000000023)"><text x="0" y="23.660546874999998" font-family="Helvetica, Segoe UI Emoji" font-size="28px" fill="#1e1e1e" text-anchor="start" style="white-space: pre;" direction="ltr" dominant-baseline="alphabetic">Core5</text></g><g stroke-linecap="round" transform="translate(225.47417958577444 11.637730134531012) rotate(0 48.692588806152344 129.89642794934684)"><path d="M0 0 L97.39 0 L97.39 259.79 L0 259.79" stroke="none" stroke-width="0" fill="#a5d8ff"></path><path d="M0 0 C22.63 0, 45.27 0, 97.39 0 M0 0 C29.17 0, 58.34 0, 97.39 0 M97.39 0 C97.39 78.69, 97.39 157.38, 97.39 259.79 M97.39 0 C97.39 90.86, 97.39 181.72, 97.39 259.79 M97.39 259.79 C75.95 259.79, 54.51 259.79, 0 259.79 M97.39 259.79 C71.88 259.79, 46.38 259.79, 0 259.79 M0 259.79 C0 206.31, 0 152.83, 0 0 M0 259.79 C0 188.51, 0 117.23, 0 0" stroke="#1e1e1e" stroke-width="2" fill="none"></path></g><g transform="translate(230.47417958577444 16.63773013453101) rotate(0 38.19921875 16.100000000000023)"><text x="0" y="23.660546874999998" font-family="Helvetica, Segoe UI Emoji" font-size="28px" fill="#1e1e1e" text-anchor="start" style="white-space: pre;" direction="ltr" dominant-baseline="alphabetic">Core6</text></g><g stroke-linecap="round" transform="translate(117.68236372205911 11.637730134531012) rotate(0 48.692588806152344 129.89642794934684)"><path d="M0 0 L97.39 0 L97.39 259.79 L0 259.79" stroke="none" stroke-width="0" fill="#a5d8ff"></path><path d="M0 0 C27.97 0, 55.94 0, 97.39 0 M0 0 C32.45 0, 64.89 0, 97.39 0 M97.39 0 C97.39 88.69, 97.39 177.38, 97.39 259.79 M97.39 0 C97.39 60.97, 97.39 121.95, 97.39 259.79 M97.39 259.79 C73.86 259.79, 50.34 259.79, 0 259.79 M97.39 259.79 C69.05 259.79, 40.71 259.79, 0 259.79 M0 259.79 C0 187.88, 0 115.98, 0 0 M0 259.79 C0 170.16, 0 80.53, 0 0" stroke="#1e1e1e" stroke-width="2" fill="none"></path></g><g transform="translate(122.68236372205911 16.63773013453101) rotate(0 38.28125 16.100000000000023)"><text x="0" y="23.660546874999998" font-family="Helvetica, Segoe UI Emoji" font-size="28px" fill="#1e1e1e" text-anchor="start" style="white-space: pre;" direction="ltr" dominant-baseline="alphabetic">Core7</text></g><g stroke-linecap="round" transform="translate(10.766944885253452 12.456721941475735) rotate(0 48.692588806152344 129.89642794934684)"><path d="M0 0 L97.39 0 L97.39 259.79 L0 259.79" stroke="none" stroke-width="0" fill="#a5d8ff"></path><path d="M0 0 C28.21 0, 56.42 0, 97.39 0 M0 0 C35.77 0, 71.54 0, 97.39 0 M97.39 0 C97.39 97.61, 97.39 195.22, 97.39 259.79 M97.39 0 C97.39 60.73, 97.39 121.46, 97.39 259.79 M97.39 259.79 C71.16 259.79, 44.94 259.79, 0 259.79 M97.39 259.79 C74.14 259.79, 50.9 259.79, 0 259.79 M0 259.79 C0 163.51, 0 67.23, 0 0 M0 259.79 C0 185.57, 0 111.34, 0 0" stroke="#1e1e1e" stroke-width="2" fill="none"></path></g><g transform="translate(15.766944885253452 17.456721941475735) rotate(0 38.1376953125 16.100000000000023)"><text x="0" y="23.660546874999998" font-family="Helvetica, Segoe UI Emoji" font-size="28px" fill="#1e1e1e" text-anchor="start" style="white-space: pre;" direction="ltr" dominant-baseline="alphabetic">Core8</text></g><g stroke-linecap="round"><g transform="translate(72.66048032532811 344.1622835047108) rotate(0 0.15468704603149774 -31.110636393229242)"><path d="M0 0 C0.09 -18.14, 0.18 -36.27, 0.31 -62.22 M0 0 C0.09 -17.32, 0.17 -34.63, 0.31 -62.22" stroke="#1e1e1e" stroke-width="2" fill="none"></path></g><g transform="translate(72.66048032532811 344.1622835047108) rotate(0 0.15468704603149774 -31.110636393229242)"><path d="M8.74 -38.69 C6.28 -45.55, 3.83 -52.41, 0.31 -62.22 M8.74 -38.69 C6.4 -45.24, 4.05 -51.79, 0.31 -62.22" stroke="#1e1e1e" stroke-width="2" fill="none"></path></g><g transform="translate(72.66048032532811 344.1622835047108) rotate(0 0.15468704603149774 -31.110636393229242)"><path d="M-8.36 -38.77 C-5.83 -45.61, -3.3 -52.44, 0.31 -62.22 M-8.36 -38.77 C-5.95 -45.3, -3.53 -51.82, 0.31 -62.22" stroke="#1e1e1e" stroke-width="2" fill="none"></path></g></g><mask></mask><g stroke-linecap="round"><g transform="translate(250.00881152805277 279.33834928352326) rotate(0 0 36.78058569688153)"><path d="M0 0 C0 16.81, 0 33.61, 0 73.56 M0 0 C0 26.59, 0 53.18, 0 73.56" stroke="#1e1e1e" stroke-width="2" fill="none"></path></g><g transform="translate(250.00881152805277 279.33834928352326) rotate(0 0 36.78058569688153)"><path d="M-8.55 50.07 C-6.6 55.44, -4.64 60.8, 0 73.56 M-8.55 50.07 C-5.46 58.56, -2.37 67.05, 0 73.56" stroke="#1e1e1e" stroke-width="2" fill="none"></path></g><g transform="translate(250.00881152805277 279.33834928352326) rotate(0 0 36.78058569688153)"><path d="M8.55 50.07 C6.6 55.44, 4.64 60.8, 0 73.56 M8.55 50.07 C5.46 58.56, 2.37 67.05, 0 73.56" stroke="#1e1e1e" stroke-width="2" fill="none"></path></g></g><mask></mask><g stroke-linecap="round"><g transform="translate(288.56848356581304 348.8801782119533) rotate(0 8.526512829121202e-14 -32.425198025173586)"><path d="M0 0 C0 -14.72, 0 -29.43, 0 -64.85 M0 0 C0 -21.06, 0 -42.12, 0 -64.85" stroke="#1e1e1e" stroke-width="2" fill="none"></path></g><g transform="translate(288.56848356581304 348.8801782119533) rotate(0 8.526512829121202e-14 -32.425198025173586)"><path d="M8.55 -41.36 C6.61 -46.69, 4.67 -52.02, 0 -64.85 M8.55 -41.36 C5.77 -48.99, 3 -56.62, 0 -64.85" stroke="#1e1e1e" stroke-width="2" fill="none"></path></g><g transform="translate(288.56848356581304 348.8801782119533) rotate(0 8.526512829121202e-14 -32.425198025173586)"><path d="M-8.55 -41.36 C-6.61 -46.69, -4.67 -52.02, 0 -64.85 M-8.55 -41.36 C-5.77 -48.99, -3 -56.62, 0 -64.85" stroke="#1e1e1e" stroke-width="2" fill="none"></path></g></g><mask></mask><g stroke-linecap="round"><g transform="translate(140.8122468170709 279.33834928352326) rotate(0 0 36.78058569688153)"><path d="M0 0 C0 22.79, 0 45.57, 0 73.56 M0 0 C0 20.79, 0 41.58, 0 73.56" stroke="#1e1e1e" stroke-width="2" fill="none"></path></g><g transform="translate(140.8122468170709 279.33834928352326) rotate(0 0 36.78058569688153)"><path d="M-8.55 50.07 C-5.9 57.35, -3.25 64.62, 0 73.56 M-8.55 50.07 C-6.13 56.71, -3.72 63.35, 0 73.56" stroke="#1e1e1e" stroke-width="2" fill="none"></path></g><g transform="translate(140.8122468170709 279.33834928352326) rotate(0 0 36.78058569688153)"><path d="M8.55 50.07 C5.9 57.35, 3.25 64.62, 0 73.56 M8.55 50.07 C6.13 56.71, 3.72 63.35, 0 73.56" stroke="#1e1e1e" stroke-width="2" fill="none"></path></g></g><mask></mask><g stroke-linecap="round"><g transform="translate(179.37191885483116 348.8801782119533) rotate(0 8.526512829121202e-14 -32.425198025173586)"><path d="M0 0 C0 -19.64, 0 -39.28, 0 -64.85 M0 0 C0 -22.68, 0 -45.36, 0 -64.85" stroke="#1e1e1e" stroke-width="2" fill="none"></path></g><g transform="translate(179.37191885483116 348.8801782119533) rotate(0 8.526512829121202e-14 -32.425198025173586)"><path d="M8.55 -41.36 C5.96 -48.47, 3.37 -55.59, 0 -64.85 M8.55 -41.36 C5.56 -49.57, 2.57 -57.79, 0 -64.85" stroke="#1e1e1e" stroke-width="2" fill="none"></path></g><g transform="translate(179.37191885483116 348.8801782119533) rotate(0 8.526512829121202e-14 -32.425198025173586)"><path d="M-8.55 -41.36 C-5.96 -48.47, -3.37 -55.59, 0 -64.85 M-8.55 -41.36 C-5.56 -49.57, -2.57 -57.79, 0 -64.85" stroke="#1e1e1e" stroke-width="2" fill="none"></path></g></g><mask></mask><g stroke-linecap="round"><g transform="translate(359.0250018083907 278.46188443977326) rotate(0 0 36.78058569688153)"><path d="M0 0 C0 25.11, 0 50.23, 0 73.56 M0 0 C0 17.27, 0 34.53, 0 73.56" stroke="#1e1e1e" stroke-width="2" fill="none"></path></g><g transform="translate(359.0250018083907 278.46188443977326) rotate(0 0 36.78058569688153)"><path d="M-8.55 50.07 C-5.63 58.09, -2.71 66.11, 0 73.56 M-8.55 50.07 C-6.54 55.58, -4.54 61.1, 0 73.56" stroke="#1e1e1e" stroke-width="2" fill="none"></path></g><g transform="translate(359.0250018083907 278.46188443977326) rotate(0 0 36.78058569688153)"><path d="M8.55 50.07 C5.63 58.09, 2.71 66.11, 0 73.56 M8.55 50.07 C6.54 55.58, 4.54 61.1, 0 73.56" stroke="#1e1e1e" stroke-width="2" fill="none"></path></g></g><mask></mask><g stroke-linecap="round"><g transform="translate(397.58467384615096 348.0037133682033) rotate(0 8.526512829121202e-14 -32.425198025173586)"><path d="M0 0 C0 -24.37, 0 -48.73, 0 -64.85 M0 0 C0 -15.16, 0 -30.32, 0 -64.85" stroke="#1e1e1e" stroke-width="2" fill="none"></path></g><g transform="translate(397.58467384615096 348.0037133682033) rotate(0 8.526512829121202e-14 -32.425198025173586)"><path d="M8.55 -41.36 C5.34 -50.18, 2.13 -59.01, 0 -64.85 M8.55 -41.36 C6.55 -46.85, 4.55 -52.34, 0 -64.85" stroke="#1e1e1e" stroke-width="2" fill="none"></path></g><g transform="translate(397.58467384615096 348.0037133682033) rotate(0 8.526512829121202e-14 -32.425198025173586)"><path d="M-8.55 -41.36 C-5.34 -50.18, -2.13 -59.01, 0 -64.85 M-8.55 -41.36 C-6.55 -46.85, -4.55 -52.34, 0 -64.85" stroke="#1e1e1e" stroke-width="2" fill="none"></path></g></g><mask></mask><g stroke-linecap="round"><g transform="translate(468.3419233131626 275.2267435097631) rotate(0 0 36.78058569688153)"><path d="M0 0 C0 20.46, 0 40.92, 0 73.56 M0 0 C0 16.53, 0 33.06, 0 73.56" stroke="#1e1e1e" stroke-width="2" fill="none"></path></g><g transform="translate(468.3419233131626 275.2267435097631) rotate(0 0 36.78058569688153)"><path d="M-8.55 50.07 C-6.17 56.6, -3.79 63.14, 0 73.56 M-8.55 50.07 C-6.63 55.35, -4.71 60.63, 0 73.56" stroke="#1e1e1e" stroke-width="2" fill="none"></path></g><g transform="translate(468.3419233131626 275.2267435097631) rotate(0 0 36.78058569688153)"><path d="M8.55 50.07 C6.17 56.6, 3.79 63.14, 0 73.56 M8.55 50.07 C6.63 55.35, 4.71 60.63, 0 73.56" stroke="#1e1e1e" stroke-width="2" fill="none"></path></g></g><mask></mask><g stroke-linecap="round"><g transform="translate(506.9015953509229 344.7685724381929) rotate(0 8.526512829121202e-14 -32.425198025173586)"><path d="M0 0 C0 -22.61, 0 -45.21, 0 -64.85 M0 0 C0 -16.88, 0 -33.77, 0 -64.85" stroke="#1e1e1e" stroke-width="2" fill="none"></path></g><g transform="translate(506.9015953509229 344.7685724381929) rotate(0 8.526512829121202e-14 -32.425198025173586)"><path d="M8.55 -41.36 C5.57 -49.55, 2.59 -57.74, 0 -64.85 M8.55 -41.36 C6.32 -47.47, 4.1 -53.59, 0 -64.85" stroke="#1e1e1e" stroke-width="2" fill="none"></path></g><g transform="translate(506.9015953509229 344.7685724381929) rotate(0 8.526512829121202e-14 -32.425198025173586)"><path d="M-8.55 -41.36 C-5.57 -49.55, -2.59 -57.74, 0 -64.85 M-8.55 -41.36 C-6.32 -47.47, -4.1 -53.59, 0 -64.85" stroke="#1e1e1e" stroke-width="2" fill="none"></path></g></g><mask></mask><g stroke-linecap="round"><g transform="translate(684.3087711268154 279.94463821700606) rotate(0 0 36.78058569688153)"><path d="M0 0 C0 16.3, 0 32.59, 0 73.56 M0 0 C0 26.68, 0 53.35, 0 73.56" stroke="#1e1e1e" stroke-width="2" fill="none"></path></g><g transform="translate(684.3087711268154 279.94463821700606) rotate(0 0 36.78058569688153)"><path d="M-8.55 50.07 C-6.66 55.27, -4.76 60.48, 0 73.56 M-8.55 50.07 C-5.45 58.59, -2.35 67.11, 0 73.56" stroke="#1e1e1e" stroke-width="2" fill="none"></path></g><g transform="translate(684.3087711268154 279.94463821700606) rotate(0 0 36.78058569688153)"><path d="M8.55 50.07 C6.66 55.27, 4.76 60.48, 0 73.56 M8.55 50.07 C5.45 58.59, 2.35 67.11, 0 73.56" stroke="#1e1e1e" stroke-width="2" fill="none"></path></g></g><mask></mask><g stroke-linecap="round"><g transform="translate(722.8684431645756 349.4864671454359) rotate(0 8.526512829121202e-14 -32.425198025173586)"><path d="M0 0 C0 -24.1, 0 -48.19, 0 -64.85 M0 0 C0 -20.5, 0 -41, 0 -64.85" stroke="#1e1e1e" stroke-width="2" fill="none"></path></g><g transform="translate(722.8684431645756 349.4864671454359) rotate(0 8.526512829121202e-14 -32.425198025173586)"><path d="M8.55 -41.36 C5.37 -50.09, 2.2 -58.82, 0 -64.85 M8.55 -41.36 C5.85 -48.79, 3.14 -56.21, 0 -64.85" stroke="#1e1e1e" stroke-width="2" fill="none"></path></g><g transform="translate(722.8684431645756 349.4864671454359) rotate(0 8.526512829121202e-14 -32.425198025173586)"><path d="M-8.55 -41.36 C-5.37 -50.09, -2.2 -58.82, 0 -64.85 M-8.55 -41.36 C-5.85 -48.79, -3.14 -56.21, 0 -64.85" stroke="#1e1e1e" stroke-width="2" fill="none"></path></g></g><mask></mask><g stroke-linecap="round"><g transform="translate(575.1122064158335 279.94463821700606) rotate(0 0 36.78058569688153)"><path d="M0 0 C0 16.19, 0 32.39, 0 73.56 M0 0 C0 19.26, 0 38.52, 0 73.56" stroke="#1e1e1e" stroke-width="2" fill="none"></path></g><g transform="translate(575.1122064158335 279.94463821700606) rotate(0 0 36.78058569688153)"><path d="M-8.55 50.07 C-6.67 55.24, -4.79 60.41, 0 73.56 M-8.55 50.07 C-6.31 56.22, -4.07 62.37, 0 73.56" stroke="#1e1e1e" stroke-width="2" fill="none"></path></g><g transform="translate(575.1122064158335 279.94463821700606) rotate(0 0 36.78058569688153)"><path d="M8.55 50.07 C6.67 55.24, 4.79 60.41, 0 73.56 M8.55 50.07 C6.31 56.22, 4.07 62.37, 0 73.56" stroke="#1e1e1e" stroke-width="2" fill="none"></path></g></g><mask></mask><g stroke-linecap="round"><g transform="translate(613.6718784535938 349.4864671454359) rotate(0 8.526512829121202e-14 -32.425198025173586)"><path d="M0 0 C0 -15.66, 0 -31.33, 0 -64.85 M0 0 C0 -18.87, 0 -37.74, 0 -64.85" stroke="#1e1e1e" stroke-width="2" fill="none"></path></g><g transform="translate(613.6718784535938 349.4864671454359) rotate(0 8.526512829121202e-14 -32.425198025173586)"><path d="M8.55 -41.36 C6.49 -47.03, 4.42 -52.71, 0 -64.85 M8.55 -41.36 C6.06 -48.19, 3.57 -55.03, 0 -64.85" stroke="#1e1e1e" stroke-width="2" fill="none"></path></g><g transform="translate(613.6718784535938 349.4864671454359) rotate(0 8.526512829121202e-14 -32.425198025173586)"><path d="M-8.55 -41.36 C-6.49 -47.03, -4.42 -52.71, 0 -64.85 M-8.55 -41.36 C-6.06 -48.19, -3.57 -55.03, 0 -64.85" stroke="#1e1e1e" stroke-width="2" fill="none"></path></g></g><mask></mask><g stroke-linecap="round"><g transform="translate(1038.7046000790283 279.06817337325606) rotate(0 5.684341886080802e-14 36.78058569688153)"><path d="M0 0 C0 9.9, 0 19.81, 0 36.78 M0 0 C0 8.78, 0 17.56, 0 36.78 M0 36.78 C0 36.78, 0 36.78, 0 36.78 M0 36.78 C0 36.78, 0 36.78, 0 36.78 M0 36.78 C0 36.78, 0 36.78, 0 36.78 M0 36.78 C0 36.78, 0 36.78, 0 36.78 M0 36.78 C0 36.78, 0 36.78, 0 36.78 M0 36.78 C0 36.78, 0 36.78, 0 36.78 M0 36.78 C0 45.66, 0 54.54, 0 73.56 M0 36.78 C0 44.52, 0 52.27, 0 73.56" stroke="#1e1e1e" stroke-width="2" fill="none"></path></g><g transform="translate(1038.7046000790283 279.06817337325606) rotate(0 5.684341886080802e-14 36.78058569688153)"><path d="M-6.29 56.28 C-4.6 60.93, -2.9 65.59, 0 73.56 M-6.29 56.28 C-4.79 60.4, -3.29 64.53, 0 73.56" stroke="#1e1e1e" stroke-width="2" fill="none"></path></g><g transform="translate(1038.7046000790283 279.06817337325606) rotate(0 5.684341886080802e-14 36.78058569688153)"><path d="M6.29 56.28 C4.6 60.93, 2.9 65.59, 0 73.56 M6.29 56.28 C4.79 60.4, 3.29 64.53, 0 73.56" stroke="#1e1e1e" stroke-width="2" fill="none"></path></g></g><mask></mask><g stroke-linecap="round"><g transform="translate(1077.2642721167886 348.6100023016859) rotate(0 5.684341886080802e-14 -32.425198025173586)"><path d="M0 0 C0 -13.12, 0 -26.24, 0 -64.85 M0 0 C0 -18.01, 0 -36.02, 0 -64.85" stroke="#1e1e1e" stroke-width="2" fill="none"></path></g><g transform="translate(1077.2642721167886 348.6100023016859) rotate(0 5.684341886080802e-14 -32.425198025173586)"><path d="M8.55 -41.36 C6.82 -46.11, 5.09 -50.86, 0 -64.85 M8.55 -41.36 C6.18 -47.88, 3.8 -54.41, 0 -64.85" stroke="#1e1e1e" stroke-width="2" fill="none"></path></g><g transform="translate(1077.2642721167886 348.6100023016859) rotate(0 5.684341886080802e-14 -32.425198025173586)"><path d="M-8.55 -41.36 C-6.82 -46.11, -5.09 -50.86, 0 -64.85 M-8.55 -41.36 C-6.18 -47.88, -3.8 -54.41, 0 -64.85" stroke="#1e1e1e" stroke-width="2" fill="none"></path></g></g><mask></mask><g stroke-linecap="round"><g transform="translate(42.645925951223944 279.39918098925295) rotate(0 0 36.78058569688153)"><path d="M0 0 C0 22.89, 0 45.79, 0 73.56 M0 0 C0 22.99, 0 45.98, 0 73.56" stroke="#1e1e1e" stroke-width="2" fill="none"></path></g><g transform="translate(42.645925951223944 279.39918098925295) rotate(0 0 36.78058569688153)"><path d="M-8.55 50.07 C-5.89 57.38, -3.23 64.69, 0 73.56 M-8.55 50.07 C-5.88 57.41, -3.21 64.75, 0 73.56" stroke="#1e1e1e" stroke-width="2" fill="none"></path></g><g transform="translate(42.645925951223944 279.39918098925295) rotate(0 0 36.78058569688153)"><path d="M8.55 50.07 C5.89 57.38, 3.23 64.69, 0 73.56 M8.55 50.07 C5.88 57.41, 3.21 64.75, 0 73.56" stroke="#1e1e1e" stroke-width="2" fill="none"></path></g></g><mask></mask></svg>