<svg version="1.1" xmlns="http://www.w3.org/2000/svg" viewBox="0 0 2076.6631552123813 639.6539423375248" width="2076.6631552123813" height="639.6539423375248" class="excalidraw-svg">
  <!-- svg-source:excalidraw -->
  
  <defs>
    <style class="style-fonts">
      
    </style>
    
  </defs>
  <rect x="0" y="0" width="2076.6631552123813" height="639.6539423375248" fill="#ffffff"></rect><g stroke-linecap="round"><g transform="translate(1068.4601506215627 564.1279360783678) rotate(0 0 -269.6205745739728)"><path d="M0 0 C0 -144.09, 0 -288.17, 0 -539.24 M0 0 C0 -179.25, 0 -358.5, 0 -539.24" stroke="#e03131" stroke-width="4" fill="none"></path></g></g><mask></mask><g stroke-linecap="round" transform="translate(243.07033128189408 36.727532076097305) rotate(0 33.77876722192241 33.77876722192241)"><path d="M0 0 L67.56 0 L67.56 67.56 L0 67.56" stroke="none" stroke-width="0" fill="#ffec99"></path><path d="M0 0 C19.96 0, 39.92 0, 67.56 0 M0 0 C21.05 0, 42.09 0, 67.56 0 M67.56 0 C67.56 16.74, 67.56 33.47, 67.56 67.56 M67.56 0 C67.56 16.34, 67.56 32.69, 67.56 67.56 M67.56 67.56 C42.08 67.56, 16.61 67.56, 0 67.56 M67.56 67.56 C41.21 67.56, 14.87 67.56, 0 67.56 M0 67.56 C0 51.91, 0 36.27, 0 0 M0 67.56 C0 47.57, 0 27.57, 0 0" stroke="#1e1e1e" stroke-width="2" fill="none"></path></g><g transform="translate(267.8490985038165 49.806299298019894) rotate(0 9 20.700000000000045)"><text x="9" y="30.420703125" font-family="Helvetica, Segoe UI Emoji" font-size="36px" fill="#1e1e1e" text-anchor="middle" style="white-space: pre;" direction="ltr" dominant-baseline="alphabetic">s</text></g><g transform="translate(1014.3189295682187 588.2539423375247) rotate(0 45.333984375 20.700000000000045)"><text x="45.333984375" y="30.420703125" font-family="Helvetica, Segoe UI Emoji" font-size="36px" fill="#e03131" text-anchor="middle" style="white-space: pre;" direction="ltr" dominant-baseline="alphabetic">16 bit</text></g><g stroke-linecap="round"><g transform="translate(1775.1419509282678 564.1279360783678) rotate(0 0 -269.6205745739728)"><path d="M0 0 C0 -142.12, 0 -284.23, 0 -539.24 M0 0 C0 -135.45, 0 -270.9, 0 -539.24" stroke="#e03131" stroke-width="4" fill="none"></path></g></g><mask></mask><g transform="translate(1717.2086392924725 588.2539423375247) rotate(0 44.0419921875 20.700000000000045)"><text x="44.0419921875" y="30.420703125" font-family="Helvetica, Segoe UI Emoji" font-size="36px" fill="#e03131" text-anchor="middle" style="white-space: pre;" direction="ltr" dominant-baseline="alphabetic">32 bit</text></g><g transform="translate(1843.833726574399 14.04566644459328) rotate(0 33.81909942626953 46.666180912776554)"><text x="33.81909942626953" y="68.58058142633428" font-family="Helvetica, Segoe UI Emoji" font-size="81.1585755004811px" fill="#1e1e1e" text-anchor="middle" style="white-space: pre;" direction="ltr" dominant-baseline="alphabetic">...</text></g><g transform="translate(1978.0869833373813 588.2539423375247) rotate(0 44.2880859375 20.700000000000045)"><text x="44.2880859375" y="30.420703125" font-family="Helvetica, Segoe UI Emoji" font-size="36px" fill="#e03131" text-anchor="middle" style="white-space: pre;" direction="ltr" dominant-baseline="alphabetic">64 bit</text></g><g transform="translate(138.96933289254486 53.159042361719) rotate(0 43.962890625 20.700000000000045)"><text x="87.92578125" y="30.420703125" font-family="Helvetica, Segoe UI Emoji" font-size="36px" fill="#1e1e1e" text-anchor="end" style="white-space: pre;" direction="ltr" dominant-baseline="alphabetic">FP64</text></g><g transform="translate(136.87163897493883 155.65761072104306) rotate(0 43.8134765625 20.700000000000045)"><text x="87.626953125" y="30.420703125" font-family="Helvetica, Segoe UI Emoji" font-size="36px" fill="#1e1e1e" text-anchor="end" style="white-space: pre;" direction="ltr" dominant-baseline="alphabetic">FP32</text></g><g transform="translate(120.79480942932952 262.5040556756985) rotate(0 49.0166015625 20.700000000000045)"><text x="98.033203125" y="30.420703125" font-family="Helvetica, Segoe UI Emoji" font-size="36px" fill="#1e1e1e" text-anchor="end" style="white-space: pre;" direction="ltr" dominant-baseline="alphabetic">TF32*</text></g><g transform="translate(10 367.3629547305127) rotate(0 106.2685546875 20.700000000000045)"><text x="212.537109375" y="30.420703125" font-family="Helvetica, Segoe UI Emoji" font-size="36px" fill="#1e1e1e" text-anchor="end" style="white-space: pre;" direction="ltr" dominant-baseline="alphabetic">BLFLOAT16*</text></g><g transform="translate(131.33477807209442 473.42942070870777) rotate(0 43.857421875 20.700000000000045)"><text x="87.71484375" y="30.420703125" font-family="Helvetica, Segoe UI Emoji" font-size="36px" fill="#1e1e1e" text-anchor="end" style="white-space: pre;" direction="ltr" dominant-baseline="alphabetic">FP16</text></g><g stroke-linecap="round" transform="translate(312.6379371677757 36.727532076097305) rotate(0 269.06339034076126 33.77876722192241)"><path d="M0 0 L538.13 0 L538.13 67.56 L0 67.56" stroke="none" stroke-width="0" fill="#ffc9c9"></path><path d="M0 0 C114.01 0, 228.01 0, 538.13 0 M0 0 C132.15 0, 264.3 0, 538.13 0 M538.13 0 C538.13 20.89, 538.13 41.77, 538.13 67.56 M538.13 0 C538.13 25.86, 538.13 51.72, 538.13 67.56 M538.13 67.56 C356.53 67.56, 174.94 67.56, 0 67.56 M538.13 67.56 C344.42 67.56, 150.72 67.56, 0 67.56 M0 67.56 C0 50.88, 0 34.19, 0 0 M0 67.56 C0 45.2, 0 22.85, 0 0" stroke="#1e1e1e" stroke-width="2" fill="none"></path></g><g transform="translate(457.63492125853696 49.806299298019894) rotate(0 124.06640625 20.700000000000045)"><text x="124.06640625" y="30.420703125" font-family="Helvetica, Segoe UI Emoji" font-size="36px" fill="#1e1e1e" text-anchor="middle" style="white-space: pre;" direction="ltr" dominant-baseline="alphabetic">11-bit exponent</text></g><g stroke-linecap="round" transform="translate(850.7693171071724 36.727532076097305) rotate(0 591.6167556936318 33.77876722192241)"><path d="M0 0 L1183.23 0 L1183.23 67.56 L0 67.56" stroke="none" stroke-width="0" fill="#a5d8ff"></path><path d="M0 0 C427.95 0, 855.9 0, 1183.23 0 M0 0 C387.04 0, 774.07 0, 1183.23 0 M1183.23 0 C1183.23 21.7, 1183.23 43.4, 1183.23 67.56 M1183.23 0 C1183.23 14.77, 1183.23 29.54, 1183.23 67.56 M1183.23 67.56 C773.03 67.56, 362.83 67.56, 0 67.56 M1183.23 67.56 C869.71 67.56, 556.18 67.56, 0 67.56 M0 67.56 C0 44.46, 0 21.37, 0 0 M0 67.56 C0 46.6, 0 25.65, 0 0" stroke="#1e1e1e" stroke-width="2" fill="none"></path></g><g transform="translate(1320.1390024883042 49.806299298019894) rotate(0 122.24707031249994 20.700000000000045)"><text x="122.2470703125" y="30.420703125" font-family="Helvetica, Segoe UI Emoji" font-size="36px" fill="#1e1e1e" text-anchor="middle" style="white-space: pre;" direction="ltr" dominant-baseline="alphabetic">52-bit mantissa</text></g><g stroke-linecap="round"><g transform="translate(2036.2663887231765 564.1279360783678) rotate(0 0 -269.6205745739728)"><path d="M0 0 C0 -138.93, 0 -277.85, 0 -539.24 M0 0 C0 -171.63, 0 -343.27, 0 -539.24" stroke="#e03131" stroke-width="4" fill="none"></path></g></g><mask></mask><g transform="translate(1843.833726574399 10) rotate(0 33.81909942626953 46.666180912776554)"><text x="33.81909942626953" y="68.58058142633428" font-family="Helvetica, Segoe UI Emoji" font-size="81.1585755004811px" fill="#1e1e1e" text-anchor="middle" style="white-space: pre;" direction="ltr" dominant-baseline="alphabetic">...</text></g><g stroke-linecap="round" transform="translate(243.07033128189408 141.7804801023717) rotate(0 33.77876722192241 33.77876722192241)"><path d="M0 0 L67.56 0 L67.56 67.56 L0 67.56" stroke="none" stroke-width="0" fill="#ffec99"></path><path d="M0 0 C26.41 0, 52.82 0, 67.56 0 M0 0 C26.73 0, 53.47 0, 67.56 0 M67.56 0 C67.56 21.26, 67.56 42.53, 67.56 67.56 M67.56 0 C67.56 17.45, 67.56 34.9, 67.56 67.56 M67.56 67.56 C48.61 67.56, 29.65 67.56, 0 67.56 M67.56 67.56 C49.13 67.56, 30.7 67.56, 0 67.56 M0 67.56 C0 50.64, 0 33.73, 0 0 M0 67.56 C0 44.55, 0 21.55, 0 0" stroke="#1e1e1e" stroke-width="2" fill="none"></path></g><g transform="translate(267.8490985038165 154.8592473242943) rotate(0 9 20.700000000000045)"><text x="9" y="30.420703125" font-family="Helvetica, Segoe UI Emoji" font-size="36px" fill="#1e1e1e" text-anchor="middle" style="white-space: pre;" direction="ltr" dominant-baseline="alphabetic">s</text></g><g stroke-linecap="round" transform="translate(311.56681629628565 141.7804801023717) rotate(0 204.49444336403712 33.77876722192241)"><path d="M0 0 L408.99 0 L408.99 67.56 L0 67.56" stroke="none" stroke-width="0" fill="#ffc9c9"></path><path d="M0 0 C84.62 0, 169.25 0, 408.99 0 M0 0 C118.62 0, 237.24 0, 408.99 0 M408.99 0 C408.99 17.22, 408.99 34.44, 408.99 67.56 M408.99 0 C408.99 20.36, 408.99 40.72, 408.99 67.56 M408.99 67.56 C278.5 67.56, 148.01 67.56, 0 67.56 M408.99 67.56 C269.26 67.56, 129.53 67.56, 0 67.56 M0 67.56 C0 53.12, 0 38.69, 0 0 M0 67.56 C0 48.93, 0 30.31, 0 0" stroke="#1e1e1e" stroke-width="2" fill="none"></path></g><g transform="translate(401.8210252853228 154.8592473242943) rotate(0 114.240234375 20.700000000000045)"><text x="114.240234375" y="30.420703125" font-family="Helvetica, Segoe UI Emoji" font-size="36px" fill="#1e1e1e" text-anchor="middle" style="white-space: pre;" direction="ltr" dominant-baseline="alphabetic">8-bit exponent</text></g><g stroke-linecap="round" transform="translate(718.9410286760917 141.7804801023717) rotate(0 525.030038883006 33.77876722192241)"><path d="M0 0 L1050.06 0 L1050.06 67.56 L0 67.56" stroke="none" stroke-width="0" fill="#a5d8ff"></path><path d="M0 0 C353.21 0, 706.41 0, 1050.06 0 M0 0 C357.45 0, 714.9 0, 1050.06 0 M1050.06 0 C1050.06 14.28, 1050.06 28.55, 1050.06 67.56 M1050.06 0 C1050.06 15.56, 1050.06 31.12, 1050.06 67.56 M1050.06 67.56 C804.04 67.56, 558.03 67.56, 0 67.56 M1050.06 67.56 C716.91 67.56, 383.75 67.56, 0 67.56 M0 67.56 C0 49.11, 0 30.66, 0 0 M0 67.56 C0 50.26, 0 32.96, 0 0" stroke="#1e1e1e" stroke-width="2" fill="none"></path></g><g transform="translate(1121.7415753715977 154.8592473242943) rotate(0 122.2294921875 20.700000000000045)"><text x="122.2294921875" y="30.420703125" font-family="Helvetica, Segoe UI Emoji" font-size="36px" fill="#1e1e1e" text-anchor="middle" style="white-space: pre;" direction="ltr" dominant-baseline="alphabetic">23-bit mantissa</text></g><g stroke-linecap="round" transform="translate(243.07033128189408 247.0856230300319) rotate(0 33.77876722192241 33.77876722192241)"><path d="M0 0 L67.56 0 L67.56 67.56 L0 67.56" stroke="none" stroke-width="0" fill="#ffec99"></path><path d="M0 0 C21.26 0, 42.53 0, 67.56 0 M0 0 C17.45 0, 34.9 0, 67.56 0 M67.56 0 C67.56 18.95, 67.56 37.9, 67.56 67.56 M67.56 0 C67.56 18.43, 67.56 36.86, 67.56 67.56 M67.56 67.56 C50.64 67.56, 33.73 67.56, 0 67.56 M67.56 67.56 C44.55 67.56, 21.55 67.56, 0 67.56 M0 67.56 C0 45.9, 0 24.24, 0 0 M0 67.56 C0 45.16, 0 22.75, 0 0" stroke="#1e1e1e" stroke-width="2" fill="none"></path></g><g transform="translate(267.8490985038165 260.1643902519545) rotate(0 9 20.700000000000045)"><text x="9" y="30.420703125" font-family="Helvetica, Segoe UI Emoji" font-size="36px" fill="#1e1e1e" text-anchor="middle" style="white-space: pre;" direction="ltr" dominant-baseline="alphabetic">s</text></g><g stroke-linecap="round" transform="translate(311.56681629628565 247.0856230300319) rotate(0 204.49444336403712 33.77876722192241)"><path d="M0 0 L408.99 0 L408.99 67.56 L0 67.56" stroke="none" stroke-width="0" fill="#ffc9c9"></path><path d="M0 0 C114.74 0, 229.47 0, 408.99 0 M0 0 C161.87 0, 323.74 0, 408.99 0 M408.99 0 C408.99 16.82, 408.99 33.64, 408.99 67.56 M408.99 0 C408.99 20.56, 408.99 41.13, 408.99 67.56 M408.99 67.56 C272.17 67.56, 135.35 67.56, 0 67.56 M408.99 67.56 C312.12 67.56, 215.25 67.56, 0 67.56 M0 67.56 C0 48.25, 0 28.94, 0 0 M0 67.56 C0 45.09, 0 22.61, 0 0" stroke="#1e1e1e" stroke-width="2" fill="none"></path></g><g transform="translate(401.8210252853228 260.1643902519545) rotate(0 114.240234375 20.700000000000045)"><text x="114.240234375" y="30.420703125" font-family="Helvetica, Segoe UI Emoji" font-size="36px" fill="#1e1e1e" text-anchor="middle" style="white-space: pre;" direction="ltr" dominant-baseline="alphabetic">8-bit exponent</text></g><g stroke-linecap="round" transform="translate(718.9410286760917 247.0856230300319) rotate(0 238.9040100264918 33.77876722192241)"><path d="M0 0 L477.81 0 L477.81 67.56 L0 67.56" stroke="none" stroke-width="0" fill="#a5d8ff"></path><path d="M0 0 C161.09 0, 322.17 0, 477.81 0 M0 0 C141.22 0, 282.45 0, 477.81 0 M477.81 0 C477.81 16.82, 477.81 33.64, 477.81 67.56 M477.81 0 C477.81 20.68, 477.81 41.37, 477.81 67.56 M477.81 67.56 C311.81 67.56, 145.81 67.56, 0 67.56 M477.81 67.56 C324.09 67.56, 170.37 67.56, 0 67.56 M0 67.56 C0 51.56, 0 35.56, 0 0 M0 67.56 C0 45.52, 0 23.48, 0 0" stroke="#1e1e1e" stroke-width="2" fill="none"></path></g><g transform="translate(834.4553902650835 260.1643902519545) rotate(0 123.3896484375 20.700000000000045)"><text x="123.3896484375" y="30.420703125" font-family="Helvetica, Segoe UI Emoji" font-size="36px" fill="#1e1e1e" text-anchor="middle" style="white-space: pre;" direction="ltr" dominant-baseline="alphabetic">10-bit mantissa</text></g><g stroke-linecap="round" transform="translate(243.07033128189408 351.6932752191756) rotate(0 33.77876722192241 33.77876722192241)"><path d="M0 0 L67.56 0 L67.56 67.56 L0 67.56" stroke="none" stroke-width="0" fill="#ffec99"></path><path d="M0 0 C13.7 0, 27.4 0, 67.56 0 M0 0 C17.53 0, 35.06 0, 67.56 0 M67.56 0 C67.56 23.61, 67.56 47.22, 67.56 67.56 M67.56 0 C67.56 14.15, 67.56 28.3, 67.56 67.56 M67.56 67.56 C43.19 67.56, 18.83 67.56, 0 67.56 M67.56 67.56 C47.85 67.56, 28.13 67.56, 0 67.56 M0 67.56 C0 43.73, 0 19.9, 0 0 M0 67.56 C0 51.08, 0 34.61, 0 0" stroke="#1e1e1e" stroke-width="2" fill="none"></path></g><g transform="translate(267.8490985038165 364.77204244109816) rotate(0 9 20.700000000000045)"><text x="9" y="30.420703125" font-family="Helvetica, Segoe UI Emoji" font-size="36px" fill="#1e1e1e" text-anchor="middle" style="white-space: pre;" direction="ltr" dominant-baseline="alphabetic">s</text></g><g stroke-linecap="round" transform="translate(718.9410286760917 351.6932752191756) rotate(0 173.26374553509538 33.77876722192241)"><path d="M0 0 L346.53 0 L346.53 67.56 L0 67.56" stroke="none" stroke-width="0" fill="#a5d8ff"></path><path d="M0 0 C81.17 0, 162.34 0, 346.53 0 M0 0 C127.22 0, 254.44 0, 346.53 0 M346.53 0 C346.53 26.96, 346.53 53.92, 346.53 67.56 M346.53 0 C346.53 13.7, 346.53 27.4, 346.53 67.56 M346.53 67.56 C216.45 67.56, 86.37 67.56, 0 67.56 M346.53 67.56 C225.43 67.56, 104.33 67.56, 0 67.56 M0 67.56 C0 40.82, 0 14.09, 0 0 M0 67.56 C0 52.77, 0 37.99, 0 0" stroke="#1e1e1e" stroke-width="2" fill="none"></path></g><g transform="translate(779.8893445236871 364.77204244109816) rotate(0 112.3154296875 20.700000000000045)"><text x="112.3154296875" y="30.420703125" font-family="Helvetica, Segoe UI Emoji" font-size="36px" fill="#1e1e1e" text-anchor="middle" style="white-space: pre;" direction="ltr" dominant-baseline="alphabetic">7-bit mantissa</text></g><g stroke-linecap="round" transform="translate(243.07033128189408 456.9984181468358) rotate(0 33.77876722192241 33.77876722192241)"><path d="M0 0 L67.56 0 L67.56 67.56 L0 67.56" stroke="none" stroke-width="0" fill="#ffec99"></path><path d="M0 0 C25.66 0, 51.32 0, 67.56 0 M0 0 C15.44 0, 30.88 0, 67.56 0 M67.56 0 C67.56 26.88, 67.56 53.76, 67.56 67.56 M67.56 0 C67.56 23.72, 67.56 47.44, 67.56 67.56 M67.56 67.56 C46.44 67.56, 25.32 67.56, 0 67.56 M67.56 67.56 C53.49 67.56, 39.41 67.56, 0 67.56 M0 67.56 C0 52.58, 0 37.59, 0 0 M0 67.56 C0 50.25, 0 32.95, 0 0" stroke="#1e1e1e" stroke-width="2" fill="none"></path></g><g transform="translate(267.8490985038165 470.07718536875836) rotate(0 9 20.700000000000045)"><text x="9" y="30.420703125" font-family="Helvetica, Segoe UI Emoji" font-size="36px" fill="#1e1e1e" text-anchor="middle" style="white-space: pre;" direction="ltr" dominant-baseline="alphabetic">s</text></g><g stroke-linecap="round" transform="translate(311.56681629628565 456.9984181468358) rotate(0 131.6559860386756 33.77876722192241)"><path d="M0 0 L263.31 0 L263.31 67.56 L0 67.56" stroke="none" stroke-width="0" fill="#ffc9c9"></path><path d="M0 0 C61.52 0, 123.05 0, 263.31 0 M0 0 C65.36 0, 130.73 0, 263.31 0 M263.31 0 C263.31 22.38, 263.31 44.76, 263.31 67.56 M263.31 0 C263.31 19.49, 263.31 38.98, 263.31 67.56 M263.31 67.56 C158.68 67.56, 54.05 67.56, 0 67.56 M263.31 67.56 C197.55 67.56, 131.78 67.56, 0 67.56 M0 67.56 C0 41.76, 0 15.95, 0 0 M0 67.56 C0 47.41, 0 27.25, 0 0" stroke="#1e1e1e" stroke-width="2" fill="none"></path></g><g transform="translate(328.9825679599612 470.07718536875836) rotate(0 114.240234375 20.700000000000045)"><text x="114.240234375" y="30.420703125" font-family="Helvetica, Segoe UI Emoji" font-size="36px" fill="#1e1e1e" text-anchor="middle" style="white-space: pre;" direction="ltr" dominant-baseline="alphabetic">5-bit exponent</text></g><g stroke-linecap="round" transform="translate(575.8363113382247 456.9984181468358) rotate(0 244.81620830131956 33.77876722192241)"><path d="M0 0 L489.63 0 L489.63 67.56 L0 67.56" stroke="none" stroke-width="0" fill="#a5d8ff"></path><path d="M0 0 C124.15 0, 248.3 0, 489.63 0 M0 0 C165.24 0, 330.48 0, 489.63 0 M489.63 0 C489.63 17.81, 489.63 35.62, 489.63 67.56 M489.63 0 C489.63 17.57, 489.63 35.15, 489.63 67.56 M489.63 67.56 C357.92 67.56, 226.21 67.56, 0 67.56 M489.63 67.56 C317.44 67.56, 145.24 67.56, 0 67.56 M0 67.56 C0 42.81, 0 18.07, 0 0 M0 67.56 C0 52.09, 0 36.62, 0 0" stroke="#1e1e1e" stroke-width="2" fill="none"></path></g><g transform="translate(697.2628712020443 470.07718536875836) rotate(0 123.38964843750001 20.700000000000045)"><text x="123.3896484375" y="30.420703125" font-family="Helvetica, Segoe UI Emoji" font-size="36px" fill="#1e1e1e" text-anchor="middle" style="white-space: pre;" direction="ltr" dominant-baseline="alphabetic">10-bit mantissa</text></g><g stroke-linecap="round" transform="translate(311.56681629628565 351.64238837901894) rotate(0 204.49444336403712 33.77876722192241)"><path d="M0 0 L408.99 0 L408.99 67.56 L0 67.56" stroke="none" stroke-width="0" fill="#ffc9c9"></path><path d="M0 0 C104.25 0, 208.51 0, 408.99 0 M0 0 C123.24 0, 246.49 0, 408.99 0 M408.99 0 C408.99 21.55, 408.99 43.11, 408.99 67.56 M408.99 0 C408.99 23.08, 408.99 46.16, 408.99 67.56 M408.99 67.56 C321.6 67.56, 234.21 67.56, 0 67.56 M408.99 67.56 C296.24 67.56, 183.5 67.56, 0 67.56 M0 67.56 C0 53.64, 0 39.73, 0 0 M0 67.56 C0 46.05, 0 24.55, 0 0" stroke="#1e1e1e" stroke-width="2" fill="none"></path></g><g transform="translate(401.8210252853228 364.72115560094153) rotate(0 114.240234375 20.700000000000045)"><text x="114.240234375" y="30.420703125" font-family="Helvetica, Segoe UI Emoji" font-size="36px" fill="#1e1e1e" text-anchor="middle" style="white-space: pre;" direction="ltr" dominant-baseline="alphabetic">8-bit exponent</text></g><g stroke-opacity="0.4" fill-opacity="0.4" stroke-linecap="round" transform="translate(1198.181507074703 247.0856230300319) rotate(0 287.4366298419336 33.77876722192241)"><path d="M0 0 C0 0, 0 0, 0 0 M0 0 C0 0, 0 0, 0 0 M0.13 12.04 C2.3 9.55, 4.47 7.05, 10.63 -0.03 M0.13 12.04 C3.66 7.98, 7.19 3.92, 10.63 -0.03 M0.27 24.08 C5.55 18, 10.83 11.93, 21.26 -0.07 M0.27 24.08 C7.19 16.12, 14.11 8.16, 21.26 -0.07 M-0.26 36.88 C9.65 25.48, 19.55 14.09, 31.89 -0.1 M-0.26 36.88 C7.46 28, 15.18 19.11, 31.89 -0.1 M-0.12 48.92 C16.62 29.66, 33.35 10.41, 42.52 -0.14 M-0.12 48.92 C12.35 34.57, 24.82 20.22, 42.52 -0.14 M0.01 60.96 C13.27 45.7, 26.53 30.45, 53.15 -0.17 M0.01 60.96 C20.56 37.31, 41.12 13.67, 53.15 -0.17 M4.74 67.72 C22.18 47.65, 39.62 27.59, 63.78 -0.21 M4.74 67.72 C19.76 50.43, 34.79 33.14, 63.78 -0.21 M15.37 67.68 C36.72 43.11, 58.08 18.54, 74.41 -0.24 M15.37 67.68 C28.05 53.09, 40.74 38.49, 74.41 -0.24 M26 67.65 C40.14 51.38, 54.27 35.12, 85.04 -0.28 M26 67.65 C45.54 45.16, 65.08 22.68, 85.04 -0.28 M35.97 68.37 C49.24 53.1, 62.52 37.83, 95.67 -0.31 M35.97 68.37 C57.83 43.22, 79.7 18.06, 95.67 -0.31 M46.6 68.33 C61.58 51.1, 76.56 33.87, 106.3 -0.34 M46.6 68.33 C66.92 44.96, 87.24 21.58, 106.3 -0.34 M57.23 68.3 C72.34 50.91, 87.45 33.53, 116.27 0.38 M57.23 68.3 C74.11 48.88, 90.98 29.47, 116.27 0.38 M67.86 68.26 C85.73 47.71, 103.6 27.15, 126.91 0.34 M67.86 68.26 C79.91 54.4, 91.96 40.54, 126.91 0.34 M78.49 68.23 C98.21 45.55, 117.92 22.87, 137.54 0.31 M78.49 68.23 C91.59 53.17, 104.68 38.1, 137.54 0.31 M89.12 68.2 C107.69 46.83, 126.27 25.46, 148.17 0.27 M89.12 68.2 C109.6 44.63, 130.09 21.07, 148.17 0.27 M99.75 68.16 C121.87 42.71, 143.99 17.27, 158.8 0.24 M99.75 68.16 C113.05 52.86, 126.36 37.55, 158.8 0.24 M110.38 68.13 C131.25 44.12, 152.12 20.11, 169.43 0.2 M110.38 68.13 C127.89 47.98, 145.41 27.83, 169.43 0.2 M121.01 68.09 C141.28 44.78, 161.55 21.46, 180.06 0.17 M121.01 68.09 C141.72 44.27, 162.43 20.45, 180.06 0.17 M131.64 68.06 C145.39 52.24, 159.15 36.41, 190.69 0.13 M131.64 68.06 C148.41 48.77, 165.18 29.47, 190.69 0.13 M142.27 68.02 C157.14 50.92, 172.01 33.81, 201.32 0.1 M142.27 68.02 C157.36 50.67, 172.45 33.31, 201.32 0.1 M152.9 67.99 C171.41 46.69, 189.92 25.4, 211.95 0.06 M152.9 67.99 C167.26 51.47, 181.63 34.94, 211.95 0.06 M163.53 67.95 C184.75 43.55, 205.96 19.14, 222.58 0.03 M163.53 67.95 C175.36 54.35, 187.19 40.74, 222.58 0.03 M174.16 67.92 C192.02 47.37, 209.88 26.83, 233.21 0 M174.16 67.92 C186.64 53.56, 199.13 39.2, 233.21 0 M184.79 67.89 C206.73 42.65, 228.66 17.41, 243.84 -0.04 M184.79 67.89 C199.48 50.98, 214.17 34.08, 243.84 -0.04 M195.42 67.85 C210.43 50.59, 225.44 33.32, 254.47 -0.07 M195.42 67.85 C214.84 45.52, 234.25 23.18, 254.47 -0.07 M206.05 67.82 C220.29 51.44, 234.52 35.06, 265.1 -0.11 M206.05 67.82 C221.87 49.62, 237.68 31.43, 265.1 -0.11 M216.68 67.78 C238.51 42.67, 260.34 17.56, 275.73 -0.14 M216.68 67.78 C230.78 51.56, 244.89 35.33, 275.73 -0.14 M227.31 67.75 C249.02 42.77, 270.73 17.8, 286.36 -0.18 M227.31 67.75 C246.64 45.51, 265.97 23.27, 286.36 -0.18 M237.94 67.71 C261.38 40.75, 284.82 13.78, 296.99 -0.21 M237.94 67.71 C254.95 48.15, 271.96 28.58, 296.99 -0.21 M248.57 67.68 C272.05 40.67, 295.52 13.66, 307.62 -0.25 M248.57 67.68 C266.32 47.26, 284.07 26.85, 307.62 -0.25 M259.2 67.64 C272.84 51.95, 286.48 36.26, 318.25 -0.28 M259.2 67.64 C278.46 45.49, 297.71 23.34, 318.25 -0.28 M269.18 68.36 C282.56 52.96, 295.95 37.56, 328.88 -0.31 M269.18 68.36 C284.91 50.26, 300.65 32.16, 328.88 -0.31 M279.81 68.33 C298.52 46.8, 317.23 25.27, 339.51 -0.35 M279.81 68.33 C298.06 47.33, 316.31 26.33, 339.51 -0.35 M290.44 68.29 C313.33 41.96, 336.23 15.62, 349.48 0.37 M290.44 68.29 C307.9 48.21, 325.36 28.12, 349.48 0.37 M301.07 68.26 C314.82 52.44, 328.58 36.61, 360.11 0.34 M301.07 68.26 C317.77 49.04, 334.48 29.82, 360.11 0.34 M311.7 68.23 C327.95 49.53, 344.2 30.83, 370.74 0.3 M311.7 68.23 C328.2 49.24, 344.71 30.25, 370.74 0.3 M322.33 68.19 C341.52 46.11, 360.71 24.04, 381.37 0.27 M322.33 68.19 C335.12 53.47, 347.91 38.76, 381.37 0.27 M332.96 68.16 C351.89 46.38, 370.82 24.6, 392 0.23 M332.96 68.16 C350.71 47.74, 368.46 27.32, 392 0.23 M343.59 68.12 C359.65 49.65, 375.71 31.17, 402.63 0.2 M343.59 68.12 C365.38 43.05, 387.18 17.98, 402.63 0.2 M354.22 68.09 C366.3 54.18, 378.39 40.28, 413.26 0.16 M354.22 68.09 C368.84 51.27, 383.46 34.45, 413.26 0.16 M364.85 68.05 C382.75 47.46, 400.65 26.86, 423.89 0.13 M364.85 68.05 C382.89 47.3, 400.93 26.54, 423.89 0.13 M375.48 68.02 C390.54 50.69, 405.6 33.36, 434.52 0.1 M375.48 68.02 C388.02 53.59, 400.57 39.15, 434.52 0.1 M386.11 67.98 C409.41 41.18, 432.71 14.37, 445.15 0.06 M386.11 67.98 C403.49 47.99, 420.88 27.99, 445.15 0.06 M396.74 67.95 C411.29 51.21, 425.85 34.46, 455.78 0.03 M396.74 67.95 C413.87 48.24, 431 28.54, 455.78 0.03 M407.37 67.92 C423.28 49.61, 439.19 31.31, 466.41 -0.01 M407.37 67.92 C425.51 47.05, 443.65 26.18, 466.41 -0.01 M418 67.88 C429.82 54.28, 441.65 40.67, 477.04 -0.04 M418 67.88 C440.35 42.16, 462.71 16.45, 477.04 -0.04 M428.63 67.85 C452.09 40.85, 475.56 13.86, 487.67 -0.08 M428.63 67.85 C441.53 53, 454.44 38.15, 487.67 -0.08 M439.26 67.81 C461.97 41.68, 484.69 15.55, 498.3 -0.11 M439.26 67.81 C461.65 42.05, 484.04 16.3, 498.3 -0.11 M449.89 67.78 C473.23 40.93, 496.57 14.08, 508.93 -0.15 M449.89 67.78 C462.07 53.76, 474.26 39.74, 508.93 -0.15 M460.52 67.74 C479.12 46.34, 497.72 24.94, 519.56 -0.18 M460.52 67.74 C483.91 40.83, 507.31 13.91, 519.56 -0.18 M471.15 67.71 C484.53 52.31, 497.92 36.91, 530.19 -0.22 M471.15 67.71 C491.9 43.84, 512.65 19.97, 530.19 -0.22 M481.78 67.67 C502.64 43.68, 523.5 19.68, 540.82 -0.25 M481.78 67.67 C501.69 44.77, 521.6 21.86, 540.82 -0.25 M492.41 67.64 C504.34 53.91, 516.28 40.18, 551.45 -0.28 M492.41 67.64 C506.45 51.49, 520.49 35.33, 551.45 -0.28 M502.38 68.36 C520.8 47.18, 539.21 25.99, 562.08 -0.32 M502.38 68.36 C521.05 46.89, 539.72 25.41, 562.08 -0.32 M513.01 68.33 C535.64 42.29, 558.27 16.26, 572.71 -0.35 M513.01 68.33 C534.07 44.1, 555.12 19.88, 572.71 -0.35 M523.64 68.29 C535.73 54.38, 547.82 40.48, 574.81 9.42 M523.64 68.29 C535.74 54.38, 547.83 40.46, 574.81 9.42 M534.27 68.26 C548.98 51.34, 563.69 34.42, 574.95 21.46 M534.27 68.26 C545.92 54.86, 557.56 41.46, 574.95 21.46 M544.9 68.22 C552.13 59.91, 559.35 51.6, 575.08 33.51 M544.9 68.22 C551.7 60.41, 558.49 52.59, 575.08 33.51 M555.53 68.19 C561.45 61.37, 567.38 54.56, 575.21 45.55 M555.53 68.19 C562.07 60.67, 568.6 53.15, 575.21 45.55 M566.16 68.15 C568.44 65.53, 570.72 62.9, 574.69 58.34 M566.16 68.15 C569.56 64.24, 572.97 60.32, 574.69 58.34" stroke="#1e1e1e" stroke-width="1" fill="none"></path><path d="M0 0 C121.48 0, 242.97 0, 574.87 0 M0 0 C132.43 0, 264.85 0, 574.87 0 M574.87 0 C574.87 15.83, 574.87 31.66, 574.87 67.56 M574.87 0 C574.87 21.43, 574.87 42.87, 574.87 67.56 M574.87 67.56 C417.89 67.56, 260.9 67.56, 0 67.56 M574.87 67.56 C427.66 67.56, 280.44 67.56, 0 67.56 M0 67.56 C0 49.93, 0 32.3, 0 0 M0 67.56 C0 51.38, 0 35.21, 0 0" stroke="#1e1e1e" stroke-width="2" fill="none"></path></g><g stroke-opacity="0.4" fill-opacity="0.4" transform="translate(1294.0605197291366 260.1643902519545) rotate(0 191.5576171875 20.700000000000045)"><text x="191.5576171875" y="30.420703125" font-family="Helvetica, Segoe UI Emoji" font-size="36px" fill="#1e1e1e" text-anchor="middle" style="white-space: pre;" direction="ltr" dominant-baseline="alphabetic">14-bit padding (ignored)</text></g></svg>