<svg version="1.1" xmlns="http://www.w3.org/2000/svg" viewBox="0 0 2318.4048390583744 1301.8765328352265" width="2318.4048390583744" height="1301.8765328352265" class="excalidraw-svg">
  <!-- svg-source:excalidraw -->
  
  <defs>
    <style class="style-fonts">
      
    </style>
    
  </defs>
  <rect x="0" y="0" width="2318.4048390583744" height="1301.8765328352265" fill="#ffffff"></rect><g stroke-linecap="round" transform="translate(225.41740638927888 595.6574429356251) rotate(0 450.2759520537011 49.45497089572382)"><path d="M0 0 L900.55 0 L900.55 98.91 L0 98.91" stroke="none" stroke-width="0" fill="#a5d8ff"></path><path d="M0 0 C276.52 0, 553.05 0, 900.55 0 M0 0 C255.49 0, 510.97 0, 900.55 0 M900.55 0 C900.55 21.49, 900.55 42.98, 900.55 98.91 M900.55 0 C900.55 20.75, 900.55 41.5, 900.55 98.91 M900.55 98.91 C679.37 98.91, 458.2 98.91, 0 98.91 M900.55 98.91 C593.07 98.91, 285.58 98.91, 0 98.91 M0 98.91 C0 63.97, 0 29.03, 0 0 M0 98.91 C0 63.03, 0 27.15, 0 0" stroke="#1e1e1e" stroke-width="2" fill="none"></path></g><g transform="translate(598.05078031798 624.4124138313491) rotate(0 77.642578125 20.699999999999818)"><text x="77.642578125" y="30.420703125" font-family="Helvetica, Segoe UI Emoji" font-size="36px" fill="#1e1e1e" text-anchor="middle" style="white-space: pre;" direction="ltr" dominant-baseline="alphabetic">L2 Cache</text></g><g stroke-linecap="round" transform="translate(1190.5310428438393 595.6574429356251) rotate(0 450.2759520537011 49.45497089572382)"><path d="M0 0 L900.55 0 L900.55 98.91 L0 98.91" stroke="none" stroke-width="0" fill="#a5d8ff"></path><path d="M0 0 C269.92 0, 539.85 0, 900.55 0 M0 0 C335.12 0, 670.25 0, 900.55 0 M900.55 0 C900.55 22.83, 900.55 45.66, 900.55 98.91 M900.55 0 C900.55 35.62, 900.55 71.25, 900.55 98.91 M900.55 98.91 C639.03 98.91, 377.51 98.91, 0 98.91 M900.55 98.91 C574.21 98.91, 247.86 98.91, 0 98.91 M0 98.91 C0 67.06, 0 35.21, 0 0 M0 98.91 C0 77.64, 0 56.37, 0 0" stroke="#1e1e1e" stroke-width="2" fill="none"></path></g><g transform="translate(1563.1644167725403 624.4124138313491) rotate(0 77.642578125 20.699999999999818)"><text x="77.642578125" y="30.420703125" font-family="Helvetica, Segoe UI Emoji" font-size="36px" fill="#1e1e1e" text-anchor="middle" style="white-space: pre;" direction="ltr" dominant-baseline="alphabetic">L2 Cache</text></g><g stroke-linecap="round"><g transform="translate(1131.6328808906615 671.8351667565776) rotate(0 26.295701634064983 0)"><path d="M0 0 C8.77 0, 43.83 0, 52.59 0 M0 0 C8.77 0, 43.83 0, 52.59 0" stroke="#1e1e1e" stroke-width="2" fill="none"></path></g><g transform="translate(1131.6328808906615 671.8351667565776) rotate(0 26.295701634064983 0)"><path d="M29.1 8.55 C38.27 5.21, 47.43 1.88, 52.59 0 M29.1 8.55 C37.48 5.5, 45.87 2.45, 52.59 0" stroke="#1e1e1e" stroke-width="2" fill="none"></path></g><g transform="translate(1131.6328808906615 671.8351667565776) rotate(0 26.295701634064983 0)"><path d="M29.1 -8.55 C38.27 -5.21, 47.43 -1.88, 52.59 0 M29.1 -8.55 C37.48 -5.5, 45.87 -2.45, 52.59 0" stroke="#1e1e1e" stroke-width="2" fill="none"></path></g></g><mask></mask><g stroke-linecap="round"><g transform="translate(1180.7039707561007 620.570507057234) rotate(0 -24.645551534131698 0)"><path d="M0 0 C-8.22 0, -41.08 0, -49.29 0 M0 0 C-8.22 0, -41.08 0, -49.29 0" stroke="#1e1e1e" stroke-width="2" fill="none"></path></g><g transform="translate(1180.7039707561007 620.570507057234) rotate(0 -24.645551534131698 0)"><path d="M-26.13 -8.43 C-33.21 -5.85, -40.28 -3.28, -49.29 0 M-26.13 -8.43 C-31.86 -6.34, -37.6 -4.26, -49.29 0" stroke="#1e1e1e" stroke-width="2" fill="none"></path></g><g transform="translate(1180.7039707561007 620.570507057234) rotate(0 -24.645551534131698 0)"><path d="M-26.13 8.43 C-33.21 5.85, -40.28 3.28, -49.29 0 M-26.13 8.43 C-31.86 6.34, -37.6 4.26, -49.29 0" stroke="#1e1e1e" stroke-width="2" fill="none"></path></g></g><mask></mask><g stroke-linecap="round" transform="translate(224.0731059669994 153.8140725383446) rotate(0 220.30487263225763 220.30487263225768)"><path d="M0 0 L440.61 0 L440.61 440.61 L0 440.61" stroke="none" stroke-width="0" fill="#ffec99"></path><path d="M0 0 C118 0, 236.01 0, 440.61 0 M0 0 C131.59 0, 263.18 0, 440.61 0 M440.61 0 C440.61 111.15, 440.61 222.29, 440.61 440.61 M440.61 0 C440.61 161.66, 440.61 323.32, 440.61 440.61 M440.61 440.61 C281.75 440.61, 122.9 440.61, 0 440.61 M440.61 440.61 C295.63 440.61, 150.66 440.61, 0 440.61 M0 440.61 C0 314.54, 0 188.48, 0 0 M0 440.61 C0 277.02, 0 113.43, 0 0" stroke="#1e1e1e" stroke-width="2" fill="none"></path></g><g transform="translate(390.25493172425706 158.8140725383446) rotate(0 54.123046875 20.699999999999818)"><text x="54.123046875" y="30.420703125" font-family="Helvetica, Segoe UI Emoji" font-size="36px" fill="#1e1e1e" text-anchor="middle" style="white-space: pre;" direction="ltr" dominant-baseline="alphabetic">GPC 0</text></g><g stroke-linecap="round" transform="translate(684.5288758617986 153.60266819394838) rotate(0 220.30487263225763 220.30487263225768)"><path d="M0 0 L440.61 0 L440.61 440.61 L0 440.61" stroke="none" stroke-width="0" fill="#ffec99"></path><path d="M0 0 C129.36 0, 258.72 0, 440.61 0 M0 0 C96.33 0, 192.66 0, 440.61 0 M440.61 0 C440.61 150.46, 440.61 300.91, 440.61 440.61 M440.61 0 C440.61 150.02, 440.61 300.04, 440.61 440.61 M440.61 440.61 C311.09 440.61, 181.58 440.61, 0 440.61 M440.61 440.61 C304.78 440.61, 168.95 440.61, 0 440.61 M0 440.61 C0 328.75, 0 216.9, 0 0 M0 440.61 C0 286.9, 0 133.19, 0 0" stroke="#1e1e1e" stroke-width="2" fill="none"></path></g><g transform="translate(850.8161703690562 158.60266819394838) rotate(0 54.017578125 20.699999999999818)"><text x="54.017578125" y="30.420703125" font-family="Helvetica, Segoe UI Emoji" font-size="36px" fill="#1e1e1e" text-anchor="middle" style="white-space: pre;" direction="ltr" dominant-baseline="alphabetic">GPC 1</text></g><g stroke-linecap="round" transform="translate(223.0154705013463 697.1129119224634) rotate(0 220.30487263225763 220.30487263225768)"><path d="M0 0 L440.61 0 L440.61 440.61 L0 440.61" stroke="none" stroke-width="0" fill="#ffec99"></path><path d="M0 0 C170.44 0, 340.88 0, 440.61 0 M0 0 C122.81 0, 245.63 0, 440.61 0 M440.61 0 C440.61 164.97, 440.61 329.93, 440.61 440.61 M440.61 0 C440.61 146.55, 440.61 293.1, 440.61 440.61 M440.61 440.61 C324.74 440.61, 208.87 440.61, 0 440.61 M440.61 440.61 C300.12 440.61, 159.63 440.61, 0 440.61 M0 440.61 C0 323.96, 0 207.31, 0 0 M0 440.61 C0 350.32, 0 260.03, 0 0" stroke="#1e1e1e" stroke-width="2" fill="none"></path></g><g transform="translate(389.17971813360396 702.1129119224634) rotate(0 54.140625 20.699999999999818)"><text x="54.140625" y="30.420703125" font-family="Helvetica, Segoe UI Emoji" font-size="36px" fill="#1e1e1e" text-anchor="middle" style="white-space: pre;" direction="ltr" dominant-baseline="alphabetic">GPC 2</text></g><g stroke-linecap="round" transform="translate(684.5288758617986 697.1129119224624) rotate(0 220.30487263225763 220.30487263225768)"><path d="M0 0 L440.61 0 L440.61 440.61 L0 440.61" stroke="none" stroke-width="0" fill="#ffec99"></path><path d="M0 0 C102.64 0, 205.28 0, 440.61 0 M0 0 C110.73 0, 221.47 0, 440.61 0 M440.61 0 C440.61 174.43, 440.61 348.85, 440.61 440.61 M440.61 0 C440.61 90.88, 440.61 181.76, 440.61 440.61 M440.61 440.61 C276.79 440.61, 112.96 440.61, 0 440.61 M440.61 440.61 C346.16 440.61, 251.71 440.61, 0 440.61 M0 440.61 C0 272.15, 0 103.69, 0 0 M0 440.61 C0 315.59, 0 190.58, 0 0" stroke="#1e1e1e" stroke-width="2" fill="none"></path></g><g transform="translate(850.7282797440562 702.1129119224624) rotate(0 54.10546875 20.699999999999818)"><text x="54.10546875" y="30.420703125" font-family="Helvetica, Segoe UI Emoji" font-size="36px" fill="#1e1e1e" text-anchor="middle" style="white-space: pre;" direction="ltr" dominant-baseline="alphabetic">GPC 3</text></g><g stroke-linecap="round" transform="translate(1189.4942287458887 154.7461080424573) rotate(0 220.30487263225763 220.30487263225768)"><path d="M0 0 L440.61 0 L440.61 440.61 L0 440.61" stroke="none" stroke-width="0" fill="#ffec99"></path><path d="M0 0 C158.6 0, 317.21 0, 440.61 0 M0 0 C164.95 0, 329.91 0, 440.61 0 M440.61 0 C440.61 109.15, 440.61 218.3, 440.61 440.61 M440.61 0 C440.61 104.07, 440.61 208.13, 440.61 440.61 M440.61 440.61 C301.57 440.61, 162.52 440.61, 0 440.61 M440.61 440.61 C336.79 440.61, 232.97 440.61, 0 440.61 M0 440.61 C0 327.39, 0 214.16, 0 0 M0 440.61 C0 282.46, 0 124.32, 0 0" stroke="#1e1e1e" stroke-width="2" fill="none"></path></g><g transform="translate(1355.5090623156461 159.7461080424573) rotate(0 54.2900390625 20.699999999999818)"><text x="54.2900390625" y="30.420703125" font-family="Helvetica, Segoe UI Emoji" font-size="36px" fill="#1e1e1e" text-anchor="middle" style="white-space: pre;" direction="ltr" dominant-baseline="alphabetic">GPC 4</text></g><g stroke-linecap="round" transform="translate(1649.63502905439 155.6425392922556) rotate(0 220.30487263225768 220.30487263225768)"><path d="M0 0 L440.61 0 L440.61 440.61 L0 440.61" stroke="none" stroke-width="0" fill="#ffec99"></path><path d="M0 0 C121 0, 241.99 0, 440.61 0 M0 0 C102.93 0, 205.87 0, 440.61 0 M440.61 0 C440.61 140.8, 440.61 281.6, 440.61 440.61 M440.61 0 C440.61 156.54, 440.61 313.08, 440.61 440.61 M440.61 440.61 C297.26 440.61, 153.9 440.61, 0 440.61 M440.61 440.61 C279.07 440.61, 117.54 440.61, 0 440.61 M0 440.61 C0 266.64, 0 92.67, 0 0 M0 440.61 C0 310.85, 0 181.09, 0 0" stroke="#1e1e1e" stroke-width="2" fill="none"></path></g><g transform="translate(1815.8168548116478 160.6425392922556) rotate(0 54.123046875 20.699999999999818)"><text x="54.123046875" y="30.420703125" font-family="Helvetica, Segoe UI Emoji" font-size="36px" fill="#1e1e1e" text-anchor="middle" style="white-space: pre;" direction="ltr" dominant-baseline="alphabetic">GPC 5</text></g><g stroke-linecap="round" transform="translate(1187.4543576475812 695.7702622861243) rotate(0 220.30487263225763 220.30487263225768)"><path d="M0 0 L440.61 0 L440.61 440.61 L0 440.61" stroke="none" stroke-width="0" fill="#ffec99"></path><path d="M0 0 C166.24 0, 332.48 0, 440.61 0 M0 0 C111.21 0, 222.43 0, 440.61 0 M440.61 0 C440.61 170.1, 440.61 340.19, 440.61 440.61 M440.61 0 C440.61 168.44, 440.61 336.87, 440.61 440.61 M440.61 440.61 C276.8 440.61, 113 440.61, 0 440.61 M440.61 440.61 C307.14 440.61, 173.68 440.61, 0 440.61 M0 440.61 C0 296.13, 0 151.64, 0 0 M0 440.61 C0 308.19, 0 175.78, 0 0" stroke="#1e1e1e" stroke-width="2" fill="none"></path></g><g transform="translate(1353.574659967339 700.7702622861243) rotate(0 54.1845703125 20.699999999999818)"><text x="54.1845703125" y="30.420703125" font-family="Helvetica, Segoe UI Emoji" font-size="36px" fill="#1e1e1e" text-anchor="middle" style="white-space: pre;" direction="ltr" dominant-baseline="alphabetic">GPC 6</text></g><g stroke-linecap="round" transform="translate(1650.948213410108 696.1163000956631) rotate(0 220.30487263225757 220.30487263225768)"><path d="M0 0 L440.61 0 L440.61 440.61 L0 440.61" stroke="none" stroke-width="0" fill="#ffec99"></path><path d="M0 0 C164.86 0, 329.72 0, 440.61 0 M0 0 C103.6 0, 207.2 0, 440.61 0 M440.61 0 C440.61 89.23, 440.61 178.45, 440.61 440.61 M440.61 0 C440.61 99.1, 440.61 198.2, 440.61 440.61 M440.61 440.61 C297.01 440.61, 153.41 440.61, 0 440.61 M440.61 440.61 C303.1 440.61, 165.6 440.61, 0 440.61 M0 440.61 C0 322.49, 0 204.36, 0 0 M0 440.61 C0 344.47, 0 248.32, 0 0" stroke="#1e1e1e" stroke-width="2" fill="none"></path></g><g transform="translate(1816.9630469798658 701.1163000956631) rotate(0 54.2900390625 20.699999999999818)"><text x="54.2900390625" y="30.420703125" font-family="Helvetica, Segoe UI Emoji" font-size="36px" fill="#1e1e1e" text-anchor="middle" style="white-space: pre;" direction="ltr" dominant-baseline="alphabetic">GPC 7</text></g><g stroke-linecap="round" transform="translate(260.82997436497965 204.75273048518375) rotate(0 176.46807635526045 176.46807635526056)"><path d="M0 0 L352.94 0 L352.94 352.94 L0 352.94" stroke="none" stroke-width="0" fill="#b2f2bb"></path><path d="M0 0 C78.59 0, 157.18 0, 352.94 0 M0 0 C105.42 0, 210.84 0, 352.94 0 M352.94 0 C352.94 103.88, 352.94 207.75, 352.94 352.94 M352.94 0 C352.94 90.19, 352.94 180.38, 352.94 352.94 M352.94 352.94 C273.63 352.94, 194.33 352.94, 0 352.94 M352.94 352.94 C272.7 352.94, 192.46 352.94, 0 352.94 M0 352.94 C0 255.87, 0 158.81, 0 0 M0 352.94 C0 212.41, 0 71.88, 0 0" stroke="#1e1e1e" stroke-width="2" fill="none"></path></g><g transform="translate(370.8439491577401 360.5208068404445) rotate(0 66.4541015625 20.699999999999818)"><text x="66.4541015625" y="30.420703125" font-family="Helvetica, Segoe UI Emoji" font-size="36px" fill="#1e1e1e" text-anchor="middle" style="white-space: pre;" direction="ltr" dominant-baseline="alphabetic">16 x SM</text></g><g stroke-linecap="round" transform="translate(727.0846942438252 207.48217196656515) rotate(0 176.46807635526042 176.46807635526056)"><path d="M0 0 L352.94 0 L352.94 352.94 L0 352.94" stroke="none" stroke-width="0" fill="#b2f2bb"></path><path d="M0 0 C95.5 0, 191 0, 352.94 0 M0 0 C125.42 0, 250.85 0, 352.94 0 M352.94 0 C352.94 100.82, 352.94 201.64, 352.94 352.94 M352.94 0 C352.94 74.01, 352.94 148.01, 352.94 352.94 M352.94 352.94 C265.42 352.94, 177.91 352.94, 0 352.94 M352.94 352.94 C238.28 352.94, 123.62 352.94, 0 352.94 M0 352.94 C0 211.79, 0 70.64, 0 0 M0 352.94 C0 281.03, 0 209.13, 0 0" stroke="#1e1e1e" stroke-width="2" fill="none"></path></g><g transform="translate(837.0986690365855 363.2502483218259) rotate(0 66.45410156250003 20.699999999999818)"><text x="66.4541015625" y="30.420703125" font-family="Helvetica, Segoe UI Emoji" font-size="36px" fill="#1e1e1e" text-anchor="middle" style="white-space: pre;" direction="ltr" dominant-baseline="alphabetic">16 x SM</text></g><g stroke-linecap="round" transform="translate(264.2164174004529 754.6036113126993) rotate(0 176.46807635526045 176.46807635526056)"><path d="M0 0 L352.94 0 L352.94 352.94 L0 352.94" stroke="none" stroke-width="0" fill="#b2f2bb"></path><path d="M0 0 C127.82 0, 255.65 0, 352.94 0 M0 0 C96.16 0, 192.32 0, 352.94 0 M352.94 0 C352.94 140.07, 352.94 280.14, 352.94 352.94 M352.94 0 C352.94 80.94, 352.94 161.88, 352.94 352.94 M352.94 352.94 C280.67 352.94, 208.41 352.94, 0 352.94 M352.94 352.94 C227.48 352.94, 102.03 352.94, 0 352.94 M0 352.94 C0 278.99, 0 205.04, 0 0 M0 352.94 C0 256.79, 0 160.64, 0 0" stroke="#1e1e1e" stroke-width="2" fill="none"></path></g><g transform="translate(374.23039219321333 910.37168766796) rotate(0 66.4541015625 20.699999999999818)"><text x="66.4541015625" y="30.420703125" font-family="Helvetica, Segoe UI Emoji" font-size="36px" fill="#1e1e1e" text-anchor="middle" style="white-space: pre;" direction="ltr" dominant-baseline="alphabetic">16 x SM</text></g><g stroke-linecap="round" transform="translate(727.0846942438252 754.6036113126993) rotate(0 176.46807635526042 176.46807635526056)"><path d="M0 0 L352.94 0 L352.94 352.94 L0 352.94" stroke="none" stroke-width="0" fill="#b2f2bb"></path><path d="M0 0 C101.95 0, 203.9 0, 352.94 0 M0 0 C139.78 0, 279.56 0, 352.94 0 M352.94 0 C352.94 121.53, 352.94 243.06, 352.94 352.94 M352.94 0 C352.94 118.43, 352.94 236.86, 352.94 352.94 M352.94 352.94 C234.18 352.94, 115.43 352.94, 0 352.94 M352.94 352.94 C276.98 352.94, 201.02 352.94, 0 352.94 M0 352.94 C0 257.56, 0 162.18, 0 0 M0 352.94 C0 220.46, 0 87.97, 0 0" stroke="#1e1e1e" stroke-width="2" fill="none"></path></g><g transform="translate(837.0986690365855 910.37168766796) rotate(0 66.45410156250003 20.699999999999818)"><text x="66.4541015625" y="30.420703125" font-family="Helvetica, Segoe UI Emoji" font-size="36px" fill="#1e1e1e" text-anchor="middle" style="white-space: pre;" direction="ltr" dominant-baseline="alphabetic">16 x SM</text></g><g stroke-linecap="round" transform="translate(1238.3438758877237 205.78433847630822) rotate(0 176.46807635526045 176.46807635526056)"><path d="M0 0 L352.94 0 L352.94 352.94 L0 352.94" stroke="none" stroke-width="0" fill="#b2f2bb"></path><path d="M0 0 C124.98 0, 249.97 0, 352.94 0 M0 0 C113.6 0, 227.2 0, 352.94 0 M352.94 0 C352.94 83.27, 352.94 166.54, 352.94 352.94 M352.94 0 C352.94 114.86, 352.94 229.71, 352.94 352.94 M352.94 352.94 C268.21 352.94, 183.49 352.94, 0 352.94 M352.94 352.94 C251.23 352.94, 149.51 352.94, 0 352.94 M0 352.94 C0 251.62, 0 150.3, 0 0 M0 352.94 C0 217.11, 0 81.29, 0 0" stroke="#1e1e1e" stroke-width="2" fill="none"></path></g><g transform="translate(1348.3578506804843 361.55241483156897) rotate(0 66.45410156249994 20.699999999999818)"><text x="66.4541015625" y="30.420703125" font-family="Helvetica, Segoe UI Emoji" font-size="36px" fill="#1e1e1e" text-anchor="middle" style="white-space: pre;" direction="ltr" dominant-baseline="alphabetic">16 x SM</text></g><g stroke-linecap="round" transform="translate(1704.5985957665694 205.78433847630822) rotate(0 176.46807635526045 176.46807635526056)"><path d="M0 0 L352.94 0 L352.94 352.94 L0 352.94" stroke="none" stroke-width="0" fill="#b2f2bb"></path><path d="M0 0 C74.45 0, 148.9 0, 352.94 0 M0 0 C88.37 0, 176.74 0, 352.94 0 M352.94 0 C352.94 73.23, 352.94 146.46, 352.94 352.94 M352.94 0 C352.94 137.47, 352.94 274.94, 352.94 352.94 M352.94 352.94 C266.09 352.94, 179.25 352.94, 0 352.94 M352.94 352.94 C281.47 352.94, 210.01 352.94, 0 352.94 M0 352.94 C0 272.29, 0 191.64, 0 0 M0 352.94 C0 217.85, 0 82.77, 0 0" stroke="#1e1e1e" stroke-width="2" fill="none"></path></g><g transform="translate(1814.61257055933 361.55241483156897) rotate(0 66.4541015625 20.699999999999818)"><text x="66.4541015625" y="30.420703125" font-family="Helvetica, Segoe UI Emoji" font-size="36px" fill="#1e1e1e" text-anchor="middle" style="white-space: pre;" direction="ltr" dominant-baseline="alphabetic">16 x SM</text></g><g stroke-linecap="round" transform="translate(1240.6986710153415 755.6352193038238) rotate(0 176.46807635526045 176.46807635526056)"><path d="M0 0 L352.94 0 L352.94 352.94 L0 352.94" stroke="none" stroke-width="0" fill="#b2f2bb"></path><path d="M0 0 C123.16 0, 246.33 0, 352.94 0 M0 0 C107.39 0, 214.78 0, 352.94 0 M352.94 0 C352.94 73.79, 352.94 147.59, 352.94 352.94 M352.94 0 C352.94 74.43, 352.94 148.87, 352.94 352.94 M352.94 352.94 C232.96 352.94, 112.99 352.94, 0 352.94 M352.94 352.94 C241.92 352.94, 130.91 352.94, 0 352.94 M0 352.94 C0 234.72, 0 116.51, 0 0 M0 352.94 C0 246.56, 0 140.18, 0 0" stroke="#1e1e1e" stroke-width="2" fill="none"></path></g><g transform="translate(1350.712645808102 911.4032956590845) rotate(0 66.45410156249994 20.699999999999818)"><text x="66.4541015625" y="30.420703125" font-family="Helvetica, Segoe UI Emoji" font-size="36px" fill="#1e1e1e" text-anchor="middle" style="white-space: pre;" direction="ltr" dominant-baseline="alphabetic">16 x SM</text></g><g stroke-linecap="round" transform="translate(1704.5985957665694 755.6352193038238) rotate(0 176.46807635526045 176.46807635526056)"><path d="M0 0 L352.94 0 L352.94 352.94 L0 352.94" stroke="none" stroke-width="0" fill="#b2f2bb"></path><path d="M0 0 C76.7 0, 153.4 0, 352.94 0 M0 0 C131.74 0, 263.47 0, 352.94 0 M352.94 0 C352.94 71.76, 352.94 143.52, 352.94 352.94 M352.94 0 C352.94 97.11, 352.94 194.23, 352.94 352.94 M352.94 352.94 C241.07 352.94, 129.2 352.94, 0 352.94 M352.94 352.94 C236.05 352.94, 119.16 352.94, 0 352.94 M0 352.94 C0 247.55, 0 142.16, 0 0 M0 352.94 C0 236.21, 0 119.49, 0 0" stroke="#1e1e1e" stroke-width="2" fill="none"></path></g><g transform="translate(1814.61257055933 911.4032956590845) rotate(0 66.4541015625 20.699999999999818)"><text x="66.4541015625" y="30.420703125" font-family="Helvetica, Segoe UI Emoji" font-size="36px" fill="#1e1e1e" text-anchor="middle" style="white-space: pre;" direction="ltr" dominant-baseline="alphabetic">16 x SM</text></g><g stroke-linecap="round" transform="translate(14.668202346812336 75.93557637382946) rotate(0 1142.13953877291 25.699999999999818)"><path d="M0 0 L2284.28 0 L2284.28 51.4 L0 51.4" stroke="none" stroke-width="0" fill="#ffffff"></path><path d="M0 0 C648.15 0, 1296.3 0, 2284.28 0 M0 0 C490.21 0, 980.42 0, 2284.28 0 M2284.28 0 C2284.28 15.38, 2284.28 30.77, 2284.28 51.4 M2284.28 0 C2284.28 15.31, 2284.28 30.63, 2284.28 51.4 M2284.28 51.4 C1497.24 51.4, 710.21 51.4, 0 51.4 M2284.28 51.4 C1794.89 51.4, 1305.51 51.4, 0 51.4 M0 51.4 C0 37.13, 0 22.86, 0 0 M0 51.4 C0 41.08, 0 30.76, 0 0" stroke="#1e1e1e" stroke-width="2" fill="none"></path></g><g transform="translate(1000.6173114322224 80.93557637382946) rotate(0 156.1904296875 20.699999999999818)"><text x="156.1904296875" y="30.420703125" font-family="Helvetica, Segoe UI Emoji" font-size="36px" fill="#1e1e1e" text-anchor="middle" style="white-space: pre;" direction="ltr" dominant-baseline="alphabetic">GigaThread Engine</text></g><g stroke-linecap="round" transform="translate(14.668202346812336 10) rotate(0 1142.13953877291 25.699999999999818)"><path d="M0 0 L2284.28 0 L2284.28 51.4 L0 51.4" stroke="none" stroke-width="0" fill="#ffffff"></path><path d="M0 0 C604.62 0, 1209.24 0, 2284.28 0 M0 0 C585.03 0, 1170.06 0, 2284.28 0 M2284.28 0 C2284.28 19.35, 2284.28 38.7, 2284.28 51.4 M2284.28 0 C2284.28 20.38, 2284.28 40.76, 2284.28 51.4 M2284.28 51.4 C1663.95 51.4, 1043.63 51.4, 0 51.4 M2284.28 51.4 C1522.69 51.4, 761.1 51.4, 0 51.4 M0 51.4 C0 36.05, 0 20.69, 0 0 M0 51.4 C0 32.71, 0 14.03, 0 0" stroke="#1e1e1e" stroke-width="2" fill="none"></path></g><g transform="translate(908.9473895572224 15) rotate(0 247.8603515625 20.699999999999818)"><text x="247.8603515625" y="30.420703125" font-family="Helvetica, Segoe UI Emoji" font-size="36px" fill="#1e1e1e" text-anchor="middle" style="white-space: pre;" direction="ltr" dominant-baseline="alphabetic">PCI Express 4.0 Host Interface</text></g><g stroke-linecap="round" transform="translate(15.80759383566226 1163.8074231513037) rotate(0 1142.13953877291 25.699999999999818)"><path d="M0 0 L2284.28 0 L2284.28 51.4 L0 51.4" stroke="none" stroke-width="0" fill="#ffffff"></path><path d="M0 0 C481.03 0, 962.06 0, 2284.28 0 M0 0 C524.77 0, 1049.53 0, 2284.28 0 M2284.28 0 C2284.28 13.97, 2284.28 27.95, 2284.28 51.4 M2284.28 0 C2284.28 11.03, 2284.28 22.06, 2284.28 51.4 M2284.28 51.4 C1716.24 51.4, 1148.2 51.4, 0 51.4 M2284.28 51.4 C1602.94 51.4, 921.61 51.4, 0 51.4 M0 51.4 C0 37.47, 0 23.54, 0 0 M0 51.4 C0 36.19, 0 20.97, 0 0" stroke="#1e1e1e" stroke-width="2" fill="none"></path></g><g transform="translate(1024.1336560460722 1168.8074231513037) rotate(0 133.8134765625 20.699999999999818)"><text x="133.8134765625" y="30.420703125" font-family="Helvetica, Segoe UI Emoji" font-size="36px" fill="#1e1e1e" text-anchor="middle" style="white-space: pre;" direction="ltr" dominant-baseline="alphabetic">High-Speed Hub</text></g><g stroke-linecap="round" transform="translate(14.668202346812336 1240.4765328352269) rotate(0 1142.13953877291 25.699999999999818)"><path d="M0 0 L2284.28 0 L2284.28 51.4 L0 51.4" stroke="none" stroke-width="0" fill="#ffffff"></path><path d="M0 0 C743.11 0, 1486.21 0, 2284.28 0 M0 0 C629.4 0, 1258.81 0, 2284.28 0 M2284.28 0 C2284.28 12.36, 2284.28 24.72, 2284.28 51.4 M2284.28 0 C2284.28 16.89, 2284.28 33.77, 2284.28 51.4 M2284.28 51.4 C1625.58 51.4, 966.88 51.4, 0 51.4 M2284.28 51.4 C1486.24 51.4, 688.19 51.4, 0 51.4 M0 51.4 C0 37.43, 0 23.46, 0 0 M0 51.4 C0 37.79, 0 24.17, 0 0" stroke="#1e1e1e" stroke-width="2" fill="none"></path></g><g transform="translate(1063.1075458072223 1245.4765328352269) rotate(0 93.7001953125 20.699999999999818)"><text x="93.7001953125" y="30.420703125" font-family="Helvetica, Segoe UI Emoji" font-size="36px" fill="#1e1e1e" text-anchor="middle" style="white-space: pre;" direction="ltr" dominant-baseline="alphabetic">12x NVLink</text></g><g stroke-linecap="round" transform="translate(2091.548706335604 495.05228726911537) rotate(0 34.708266578863004 151.29191893028792)"><path d="M0 0 L69.42 0 L69.42 302.58 L0 302.58" stroke="none" stroke-width="0" fill="#ffffff"></path><path d="M0 0 C14.51 0, 29.02 0, 69.42 0 M0 0 C15.87 0, 31.73 0, 69.42 0 M69.42 0 C69.42 60.8, 69.42 121.61, 69.42 302.58 M69.42 0 C69.42 87.12, 69.42 174.25, 69.42 302.58 M69.42 302.58 C51.74 302.58, 34.06 302.58, 0 302.58 M69.42 302.58 C50.65 302.58, 31.88 302.58, 0 302.58 M0 302.58 C0 225.63, 0 148.68, 0 0 M0 302.58 C0 205.29, 0 108.01, 0 0" stroke="#1e1e1e" stroke-width="2" fill="none"></path></g><g transform="translate(1995.4558147631224 624.8783680595961) rotate(89.99999999999994 134.2646484375 16.09999999999991)"><text x="134.2646484375" y="23.660546874999998" font-family="Helvetica, Segoe UI Emoji" font-size="28px" fill="#1e1e1e" text-anchor="middle" style="white-space: pre;" direction="ltr" dominant-baseline="alphabetic">Memory Controller x2</text></g><g stroke-linecap="round" transform="translate(2091.548706335604 159.32123105965456) rotate(0 34.708266578863004 151.29191893028792)"><path d="M0 0 L69.42 0 L69.42 302.58 L0 302.58" stroke="none" stroke-width="0" fill="#ffffff"></path><path d="M0 0 C18.24 0, 36.48 0, 69.42 0 M0 0 C15.25 0, 30.5 0, 69.42 0 M69.42 0 C69.42 63.06, 69.42 126.13, 69.42 302.58 M69.42 0 C69.42 107.34, 69.42 214.68, 69.42 302.58 M69.42 302.58 C51.24 302.58, 33.07 302.58, 0 302.58 M69.42 302.58 C49.8 302.58, 30.18 302.58, 0 302.58 M0 302.58 C0 234.29, 0 166, 0 0 M0 302.58 C0 202.7, 0 102.82, 0 0" stroke="#1e1e1e" stroke-width="2" fill="none"></path></g><g transform="translate(1995.4558147631224 289.14731185013534) rotate(89.99999999999994 134.2646484375 16.09999999999991)"><text x="134.2646484375" y="23.660546874999998" font-family="Helvetica, Segoe UI Emoji" font-size="28px" fill="#1e1e1e" text-anchor="middle" style="white-space: pre;" direction="ltr" dominant-baseline="alphabetic">Memory Controller x2</text></g><g stroke-linecap="round" transform="translate(2091.548706335604 830.1954366613618) rotate(0 34.708266578863004 151.29191893028792)"><path d="M0 0 L69.42 0 L69.42 302.58 L0 302.58" stroke="none" stroke-width="0" fill="#ffffff"></path><path d="M0 0 C25.3 0, 50.6 0, 69.42 0 M0 0 C23.82 0, 47.65 0, 69.42 0 M69.42 0 C69.42 81.36, 69.42 162.72, 69.42 302.58 M69.42 0 C69.42 111.23, 69.42 222.45, 69.42 302.58 M69.42 302.58 C42.38 302.58, 15.35 302.58, 0 302.58 M69.42 302.58 C42.21 302.58, 14.99 302.58, 0 302.58 M0 302.58 C0 227.63, 0 152.67, 0 0 M0 302.58 C0 204.38, 0 106.18, 0 0" stroke="#1e1e1e" stroke-width="2" fill="none"></path></g><g transform="translate(1995.4558147631224 960.0215174518426) rotate(89.99999999999994 134.2646484375 16.09999999999991)"><text x="134.2646484375" y="23.660546874999998" font-family="Helvetica, Segoe UI Emoji" font-size="28px" fill="#1e1e1e" text-anchor="middle" style="white-space: pre;" direction="ltr" dominant-baseline="alphabetic">Memory Controller x2</text></g><g stroke-linecap="round" transform="translate(2238.9883059006484 210.92170819264993) rotate(0 34.708266578863004 98.0805962096806)"><path d="M0 0 L69.42 0 L69.42 196.16 L0 196.16" stroke="none" stroke-width="0" fill="#ffc9c9"></path><path d="M0 0 C18.06 0, 36.11 0, 69.42 0 M0 0 C21.9 0, 43.8 0, 69.42 0 M69.42 0 C69.42 39.9, 69.42 79.81, 69.42 196.16 M69.42 0 C69.42 72.16, 69.42 144.33, 69.42 196.16 M69.42 196.16 C46.25 196.16, 23.08 196.16, 0 196.16 M69.42 196.16 C44.08 196.16, 18.74 196.16, 0 196.16 M0 196.16 C0 138.98, 0 81.81, 0 0 M0 196.16 C0 118.43, 0 40.69, 0 0" stroke="#1e1e1e" stroke-width="2" fill="none"></path></g><g transform="translate(2218.9159951572856 285.9881206873797) rotate(89.99999999999994 57.12438976764679 16.393998908708)"><text x="57.12438976764679" y="24.09260743156439" font-family="Helvetica, Segoe UI Emoji" font-size="28.51130244992712px" fill="#1e1e1e" text-anchor="middle" style="white-space: pre;" direction="ltr" dominant-baseline="alphabetic">HBM2(e)</text></g><g stroke-linecap="round" transform="translate(2238.9883059006484 548.4167123542566) rotate(0 34.708266578863004 98.0805962096806)"><path d="M0 0 L69.42 0 L69.42 196.16 L0 196.16" stroke="none" stroke-width="0" fill="#ffc9c9"></path><path d="M0 0 C24.01 0, 48.02 0, 69.42 0 M0 0 C14.09 0, 28.17 0, 69.42 0 M69.42 0 C69.42 55.54, 69.42 111.08, 69.42 196.16 M69.42 0 C69.42 68.07, 69.42 136.14, 69.42 196.16 M69.42 196.16 C52.7 196.16, 35.98 196.16, 0 196.16 M69.42 196.16 C47.34 196.16, 25.26 196.16, 0 196.16 M0 196.16 C0 122, 0 47.83, 0 0 M0 196.16 C0 120.3, 0 44.45, 0 0" stroke="#1e1e1e" stroke-width="2" fill="none"></path></g><g transform="translate(2218.9159951572856 623.4831248489863) rotate(89.99999999999994 57.12438976764679 16.393998908708)"><text x="57.12438976764679" y="24.09260743156439" font-family="Helvetica, Segoe UI Emoji" font-size="28.51130244992712px" fill="#1e1e1e" text-anchor="middle" style="white-space: pre;" direction="ltr" dominant-baseline="alphabetic">HBM2(e)</text></g><g stroke-linecap="round" transform="translate(2238.9883059006484 873.7051821454706) rotate(0 34.708266578863004 98.0805962096806)"><path d="M0 0 L69.42 0 L69.42 196.16 L0 196.16" stroke="none" stroke-width="0" fill="#ffc9c9"></path><path d="M0 0 C18.59 0, 37.18 0, 69.42 0 M0 0 C15.41 0, 30.82 0, 69.42 0 M69.42 0 C69.42 44.95, 69.42 89.9, 69.42 196.16 M69.42 0 C69.42 48.33, 69.42 96.66, 69.42 196.16 M69.42 196.16 C48.12 196.16, 26.82 196.16, 0 196.16 M69.42 196.16 C47.38 196.16, 25.33 196.16, 0 196.16 M0 196.16 C0 121.9, 0 47.63, 0 0 M0 196.16 C0 139.82, 0 83.48, 0 0" stroke="#1e1e1e" stroke-width="2" fill="none"></path></g><g transform="translate(2218.9159951572856 948.7715946402004) rotate(89.99999999999994 57.12438976764679 16.393998908708)"><text x="57.12438976764679" y="24.09260743156439" font-family="Helvetica, Segoe UI Emoji" font-size="28.51130244992712px" fill="#1e1e1e" text-anchor="middle" style="white-space: pre;" direction="ltr" dominant-baseline="alphabetic">HBM2(e)</text></g><g stroke-linecap="round"><g transform="translate(2170.3725582521724 282.74435177464784) rotate(0 29.309851056272464 0.7349240433459272)"><path d="M0 0 C9.77 0.24, 48.85 1.22, 58.62 1.47 M0 0 C9.77 0.24, 48.85 1.22, 58.62 1.47" stroke="#1e1e1e" stroke-width="2" fill="none"></path></g><g transform="translate(2170.3725582521724 282.74435177464784) rotate(0 29.309851056272464 0.7349240433459272)"><path d="M34.92 9.43 C42.55 6.87, 50.19 4.3, 58.62 1.47 M34.92 9.43 C42.95 6.73, 50.99 4.03, 58.62 1.47" stroke="#1e1e1e" stroke-width="2" fill="none"></path></g><g transform="translate(2170.3725582521724 282.74435177464784) rotate(0 29.309851056272464 0.7349240433459272)"><path d="M35.35 -7.67 C42.84 -4.72, 50.34 -1.78, 58.62 1.47 M35.35 -7.67 C43.24 -4.57, 51.13 -1.47, 58.62 1.47" stroke="#1e1e1e" stroke-width="2" fill="none"></path></g></g><mask></mask><g stroke-linecap="round"><g transform="translate(2228.7928907777014 314.5727965199976) rotate(0 -30.007606042077214 0.9828947611699732)"><path d="M0 0 C-10 0.33, -50.01 1.64, -60.02 1.97 M0 0 C-10 0.33, -50.01 1.64, -60.02 1.97" stroke="#1e1e1e" stroke-width="2" fill="none"></path></g><g transform="translate(2228.7928907777014 314.5727965199976) rotate(0 -30.007606042077214 0.9828947611699732)"><path d="M-36.82 -7.35 C-41.53 -5.45, -46.25 -3.56, -60.02 1.97 M-36.82 -7.35 C-45.35 -3.92, -53.88 -0.5, -60.02 1.97" stroke="#1e1e1e" stroke-width="2" fill="none"></path></g><g transform="translate(2228.7928907777014 314.5727965199976) rotate(0 -30.007606042077214 0.9828947611699732)"><path d="M-36.26 9.74 C-41.09 8.16, -45.92 6.58, -60.02 1.97 M-36.26 9.74 C-45 6.88, -53.74 4.02, -60.02 1.97" stroke="#1e1e1e" stroke-width="2" fill="none"></path></g></g><mask></mask><g stroke-linecap="round"><g transform="translate(2170.3725582521724 620.801038379027) rotate(0 27.910438558446003 0)"><path d="M0 0 C9.3 0, 46.52 0, 55.82 0 M0 0 C9.3 0, 46.52 0, 55.82 0" stroke="#1e1e1e" stroke-width="2" fill="none"></path></g><g transform="translate(2170.3725582521724 620.801038379027) rotate(0 27.910438558446003 0)"><path d="M32.33 8.55 C38.31 6.37, 44.29 4.2, 55.82 0 M32.33 8.55 C38.68 6.24, 45.03 3.93, 55.82 0" stroke="#1e1e1e" stroke-width="2" fill="none"></path></g><g transform="translate(2170.3725582521724 620.801038379027) rotate(0 27.910438558446003 0)"><path d="M32.33 -8.55 C38.31 -6.37, 44.29 -4.2, 55.82 0 M32.33 -8.55 C38.68 -6.24, 45.03 -3.93, 55.82 0" stroke="#1e1e1e" stroke-width="2" fill="none"></path></g></g><mask></mask><g stroke-linecap="round"><g transform="translate(2225.9940657820484 651.1240222489532) rotate(0 -28.608193544250753 1.7356251988817348)"><path d="M0 0 C-9.54 0.58, -47.68 2.89, -57.22 3.47 M0 0 C-9.54 0.58, -47.68 2.89, -57.22 3.47" stroke="#1e1e1e" stroke-width="2" fill="none"></path></g><g transform="translate(2225.9940657820484 651.1240222489532) rotate(0 -28.608193544250753 1.7356251988817348)"><path d="M-34.28 -6.49 C-40.78 -3.67, -47.27 -0.85, -57.22 3.47 M-34.28 -6.49 C-42.24 -3.03, -50.2 0.42, -57.22 3.47" stroke="#1e1e1e" stroke-width="2" fill="none"></path></g><g transform="translate(2225.9940657820484 651.1240222489532) rotate(0 -28.608193544250753 1.7356251988817348)"><path d="M-33.25 10.58 C-40.04 8.57, -46.82 6.56, -57.22 3.47 M-33.25 10.58 C-41.57 8.12, -49.88 5.65, -57.22 3.47" stroke="#1e1e1e" stroke-width="2" fill="none"></path></g></g><mask></mask><g stroke-linecap="round"><g transform="translate(2170.3725582521724 956.6720243404443) rotate(0 27.910438558446003 0)"><path d="M0 0 C9.3 0, 46.52 0, 55.82 0 M0 0 C9.3 0, 46.52 0, 55.82 0" stroke="#1e1e1e" stroke-width="2" fill="none"></path></g><g transform="translate(2170.3725582521724 956.6720243404443) rotate(0 27.910438558446003 0)"><path d="M32.33 8.55 C38.48 6.31, 44.63 4.07, 55.82 0 M32.33 8.55 C38.97 6.13, 45.61 3.72, 55.82 0" stroke="#1e1e1e" stroke-width="2" fill="none"></path></g><g transform="translate(2170.3725582521724 956.6720243404443) rotate(0 27.910438558446003 0)"><path d="M32.33 -8.55 C38.48 -6.31, 44.63 -4.07, 55.82 0 M32.33 -8.55 C38.97 -6.13, 45.61 -3.72, 55.82 0" stroke="#1e1e1e" stroke-width="2" fill="none"></path></g></g><mask></mask><g stroke-linecap="round"><g transform="translate(2225.9940657820484 986.9950082103705) rotate(0 -28.608193544250753 1.7356251988817348)"><path d="M0 0 C-9.54 0.58, -47.68 2.89, -57.22 3.47 M0 0 C-9.54 0.58, -47.68 2.89, -57.22 3.47" stroke="#1e1e1e" stroke-width="2" fill="none"></path></g><g transform="translate(2225.9940657820484 986.9950082103705) rotate(0 -28.608193544250753 1.7356251988817348)"><path d="M-34.28 -6.49 C-39.54 -4.2, -44.79 -1.92, -57.22 3.47 M-34.28 -6.49 C-39.93 -4.03, -45.58 -1.58, -57.22 3.47" stroke="#1e1e1e" stroke-width="2" fill="none"></path></g><g transform="translate(2225.9940657820484 986.9950082103705) rotate(0 -28.608193544250753 1.7356251988817348)"><path d="M-33.25 10.58 C-38.74 8.95, -44.23 7.32, -57.22 3.47 M-33.25 10.58 C-39.15 8.83, -45.06 7.08, -57.22 3.47" stroke="#1e1e1e" stroke-width="2" fill="none"></path></g></g><mask></mask><g stroke-linecap="round" transform="translate(153.72785457329655 495.1510176123411) rotate(0 34.708266578863004 151.29191893028792)"><path d="M0 0 L69.42 0 L69.42 302.58 L0 302.58" stroke="none" stroke-width="0" fill="#ffffff"></path><path d="M0 0 C23.3 0, 46.59 0, 69.42 0 M0 0 C17.2 0, 34.41 0, 69.42 0 M69.42 0 C69.42 77.01, 69.42 154.02, 69.42 302.58 M69.42 0 C69.42 62.36, 69.42 124.72, 69.42 302.58 M69.42 302.58 C52.45 302.58, 35.48 302.58, 0 302.58 M69.42 302.58 C42.94 302.58, 16.47 302.58, 0 302.58 M0 302.58 C0 201.77, 0 100.96, 0 0 M0 302.58 C0 219.21, 0 135.83, 0 0" stroke="#1e1e1e" stroke-width="2" fill="none"></path></g><g transform="translate(57.63496300081488 624.9770984028219) rotate(89.99999999999994 134.2646484375 16.09999999999991)"><text x="134.2646484375" y="23.660546874999998" font-family="Helvetica, Segoe UI Emoji" font-size="28px" fill="#1e1e1e" text-anchor="middle" style="white-space: pre;" direction="ltr" dominant-baseline="alphabetic">Memory Controller x2</text></g><g stroke-linecap="round" transform="translate(153.72785457329655 159.4199614028803) rotate(0 34.708266578863004 151.29191893028792)"><path d="M0 0 L69.42 0 L69.42 302.58 L0 302.58" stroke="none" stroke-width="0" fill="#ffffff"></path><path d="M0 0 C23.13 0, 46.26 0, 69.42 0 M0 0 C24.14 0, 48.28 0, 69.42 0 M69.42 0 C69.42 70.85, 69.42 141.7, 69.42 302.58 M69.42 0 C69.42 86.26, 69.42 172.52, 69.42 302.58 M69.42 302.58 C44.8 302.58, 20.18 302.58, 0 302.58 M69.42 302.58 C53.58 302.58, 37.75 302.58, 0 302.58 M0 302.58 C0 233.63, 0 164.68, 0 0 M0 302.58 C0 200.01, 0 97.44, 0 0" stroke="#1e1e1e" stroke-width="2" fill="none"></path></g><g transform="translate(57.63496300081488 289.24604219336106) rotate(89.99999999999994 134.2646484375 16.09999999999991)"><text x="134.2646484375" y="23.660546874999998" font-family="Helvetica, Segoe UI Emoji" font-size="28px" fill="#1e1e1e" text-anchor="middle" style="white-space: pre;" direction="ltr" dominant-baseline="alphabetic">Memory Controller x2</text></g><g stroke-linecap="round" transform="translate(153.72785457329655 830.2941670045875) rotate(0 34.708266578863004 151.29191893028792)"><path d="M0 0 L69.42 0 L69.42 302.58 L0 302.58" stroke="none" stroke-width="0" fill="#ffffff"></path><path d="M0 0 C21.86 0, 43.71 0, 69.42 0 M0 0 C17.25 0, 34.51 0, 69.42 0 M69.42 0 C69.42 112.17, 69.42 224.33, 69.42 302.58 M69.42 0 C69.42 62.88, 69.42 125.76, 69.42 302.58 M69.42 302.58 C44.97 302.58, 20.53 302.58, 0 302.58 M69.42 302.58 C42.96 302.58, 16.51 302.58, 0 302.58 M0 302.58 C0 194, 0 85.41, 0 0 M0 302.58 C0 227.45, 0 152.32, 0 0" stroke="#1e1e1e" stroke-width="2" fill="none"></path></g><g transform="translate(57.63496300081488 960.1202477950683) rotate(89.99999999999994 134.2646484375 16.09999999999991)"><text x="134.2646484375" y="23.660546874999998" font-family="Helvetica, Segoe UI Emoji" font-size="28px" fill="#1e1e1e" text-anchor="middle" style="white-space: pre;" direction="ltr" dominant-baseline="alphabetic">Memory Controller x2</text></g><g stroke-linecap="round" transform="translate(10 209.62091774115197) rotate(0 34.708266578863004 98.0805962096806)"><path d="M0 0 L69.42 0 L69.42 196.16 L0 196.16" stroke="none" stroke-width="0" fill="#ffc9c9"></path><path d="M0 0 C19.19 0, 38.37 0, 69.42 0 M0 0 C26.03 0, 52.06 0, 69.42 0 M69.42 0 C69.42 73.36, 69.42 146.71, 69.42 196.16 M69.42 0 C69.42 52.51, 69.42 105.02, 69.42 196.16 M69.42 196.16 C44.64 196.16, 19.85 196.16, 0 196.16 M69.42 196.16 C53.33 196.16, 37.25 196.16, 0 196.16 M0 196.16 C0 153.83, 0 111.49, 0 0 M0 196.16 C0 155.68, 0 115.21, 0 0" stroke="#1e1e1e" stroke-width="2" fill="none"></path></g><g transform="translate(-10.072310743362777 284.68733023588175) rotate(89.99999999999994 57.12438976764679 16.393998908708)"><text x="57.12438976764679" y="24.09260743156439" font-family="Helvetica, Segoe UI Emoji" font-size="28.51130244992712px" fill="#1e1e1e" text-anchor="middle" style="white-space: pre;" direction="ltr" dominant-baseline="alphabetic">HBM2(e)</text></g><g stroke-linecap="round" transform="translate(10 547.1159219027586) rotate(0 34.708266578863004 98.0805962096806)"><path d="M0 0 L69.42 0 L69.42 196.16 L0 196.16" stroke="none" stroke-width="0" fill="#ffc9c9"></path><path d="M0 0 C14.08 0, 28.15 0, 69.42 0 M0 0 C16.94 0, 33.88 0, 69.42 0 M69.42 0 C69.42 42.02, 69.42 84.05, 69.42 196.16 M69.42 0 C69.42 52.26, 69.42 104.53, 69.42 196.16 M69.42 196.16 C47.71 196.16, 26 196.16, 0 196.16 M69.42 196.16 C43.57 196.16, 17.72 196.16, 0 196.16 M0 196.16 C0 153.84, 0 111.52, 0 0 M0 196.16 C0 119.73, 0 43.3, 0 0" stroke="#1e1e1e" stroke-width="2" fill="none"></path></g><g transform="translate(-10.072310743362777 622.1823343974884) rotate(89.99999999999994 57.12438976764679 16.393998908708)"><text x="57.12438976764679" y="24.09260743156439" font-family="Helvetica, Segoe UI Emoji" font-size="28.51130244992712px" fill="#1e1e1e" text-anchor="middle" style="white-space: pre;" direction="ltr" dominant-baseline="alphabetic">HBM2(e)</text></g><g stroke-linecap="round" transform="translate(10 875.2033249865226) rotate(0 34.708266578863004 98.0805962096806)"><path d="M0 0 L69.42 0 L69.42 196.16 L0 196.16" stroke="none" stroke-width="0" fill="#ffc9c9"></path><path d="M0 0 C23.03 0, 46.05 0, 69.42 0 M0 0 C14.2 0, 28.41 0, 69.42 0 M69.42 0 C69.42 71.38, 69.42 142.76, 69.42 196.16 M69.42 0 C69.42 73.93, 69.42 147.86, 69.42 196.16 M69.42 196.16 C45.94 196.16, 22.46 196.16, 0 196.16 M69.42 196.16 C53.39 196.16, 37.36 196.16, 0 196.16 M0 196.16 C0 149.91, 0 103.65, 0 0 M0 196.16 C0 144.09, 0 92.02, 0 0" stroke="#1e1e1e" stroke-width="2" fill="none"></path></g><g transform="translate(-10.072310743362777 950.2697374812524) rotate(89.99999999999994 57.12438976764679 16.393998908708)"><text x="57.12438976764679" y="24.09260743156439" font-family="Helvetica, Segoe UI Emoji" font-size="28.51130244992712px" fill="#1e1e1e" text-anchor="middle" style="white-space: pre;" direction="ltr" dominant-baseline="alphabetic">HBM2(e)</text></g><g stroke-linecap="round"><g transform="translate(87.66399379529162 282.84308211787356) rotate(0 27.910438558446003 0)"><path d="M0 0 C9.3 0, 46.52 0, 55.82 0 M0 0 C9.3 0, 46.52 0, 55.82 0" stroke="#1e1e1e" stroke-width="2" fill="none"></path></g><g transform="translate(87.66399379529162 282.84308211787356) rotate(0 27.910438558446003 0)"><path d="M32.33 8.55 C37.05 6.83, 41.78 5.11, 55.82 0 M32.33 8.55 C39.26 6.03, 46.2 3.5, 55.82 0" stroke="#1e1e1e" stroke-width="2" fill="none"></path></g><g transform="translate(87.66399379529162 282.84308211787356) rotate(0 27.910438558446003 0)"><path d="M32.33 -8.55 C37.05 -6.83, 41.78 -5.11, 55.82 0 M32.33 -8.55 C39.26 -6.03, 46.2 -3.5, 55.82 0" stroke="#1e1e1e" stroke-width="2" fill="none"></path></g></g><mask></mask><g stroke-linecap="round"><g transform="translate(143.28550132516784 313.1660659877998) rotate(0 -28.608193544250753 1.7356251988817348)"><path d="M0 0 C-9.54 0.58, -47.68 2.89, -57.22 3.47 M0 0 C-9.54 0.58, -47.68 2.89, -57.22 3.47" stroke="#1e1e1e" stroke-width="2" fill="none"></path></g><g transform="translate(143.28550132516784 313.1660659877998) rotate(0 -28.608193544250753 1.7356251988817348)"><path d="M-34.28 -6.49 C-40.9 -3.61, -47.51 -0.74, -57.22 3.47 M-34.28 -6.49 C-42.53 -2.91, -50.77 0.67, -57.22 3.47" stroke="#1e1e1e" stroke-width="2" fill="none"></path></g><g transform="translate(143.28550132516784 313.1660659877998) rotate(0 -28.608193544250753 1.7356251988817348)"><path d="M-33.25 10.58 C-40.16 8.53, -47.07 6.48, -57.22 3.47 M-33.25 10.58 C-41.87 8.03, -50.48 5.47, -57.22 3.47" stroke="#1e1e1e" stroke-width="2" fill="none"></path></g></g><mask></mask><g stroke-linecap="round"><g transform="translate(87.66399379529162 620.8997687222527) rotate(0 27.910438558446003 0)"><path d="M0 0 C9.3 0, 46.52 0, 55.82 0 M0 0 C9.3 0, 46.52 0, 55.82 0" stroke="#1e1e1e" stroke-width="2" fill="none"></path></g><g transform="translate(87.66399379529162 620.8997687222527) rotate(0 27.910438558446003 0)"><path d="M32.33 8.55 C40.38 5.62, 48.44 2.69, 55.82 0 M32.33 8.55 C39.08 6.09, 45.84 3.63, 55.82 0" stroke="#1e1e1e" stroke-width="2" fill="none"></path></g><g transform="translate(87.66399379529162 620.8997687222527) rotate(0 27.910438558446003 0)"><path d="M32.33 -8.55 C40.38 -5.62, 48.44 -2.69, 55.82 0 M32.33 -8.55 C39.08 -6.09, 45.84 -3.63, 55.82 0" stroke="#1e1e1e" stroke-width="2" fill="none"></path></g></g><mask></mask><g stroke-linecap="round"><g transform="translate(143.28550132516784 651.222752592179) rotate(0 -28.608193544250753 1.7356251988817348)"><path d="M0 0 C-9.54 0.58, -47.68 2.89, -57.22 3.47 M0 0 C-9.54 0.58, -47.68 2.89, -57.22 3.47" stroke="#1e1e1e" stroke-width="2" fill="none"></path></g><g transform="translate(143.28550132516784 651.222752592179) rotate(0 -28.608193544250753 1.7356251988817348)"><path d="M-34.28 -6.49 C-39.53 -4.21, -44.77 -1.93, -57.22 3.47 M-34.28 -6.49 C-41.52 -3.34, -48.76 -0.2, -57.22 3.47" stroke="#1e1e1e" stroke-width="2" fill="none"></path></g><g transform="translate(143.28550132516784 651.222752592179) rotate(0 -28.608193544250753 1.7356251988817348)"><path d="M-33.25 10.58 C-38.73 8.96, -44.21 7.33, -57.22 3.47 M-33.25 10.58 C-40.81 8.34, -48.38 6.09, -57.22 3.47" stroke="#1e1e1e" stroke-width="2" fill="none"></path></g></g><mask></mask><g stroke-linecap="round"><g transform="translate(87.66399379529162 956.77075468367) rotate(0 27.910438558446003 0)"><path d="M0 0 C9.3 0, 46.52 0, 55.82 0 M0 0 C9.3 0, 46.52 0, 55.82 0" stroke="#1e1e1e" stroke-width="2" fill="none"></path></g><g transform="translate(87.66399379529162 956.77075468367) rotate(0 27.910438558446003 0)"><path d="M32.33 8.55 C40.82 5.46, 49.31 2.37, 55.82 0 M32.33 8.55 C40.31 5.64, 48.3 2.74, 55.82 0" stroke="#1e1e1e" stroke-width="2" fill="none"></path></g><g transform="translate(87.66399379529162 956.77075468367) rotate(0 27.910438558446003 0)"><path d="M32.33 -8.55 C40.82 -5.46, 49.31 -2.37, 55.82 0 M32.33 -8.55 C40.31 -5.64, 48.3 -2.74, 55.82 0" stroke="#1e1e1e" stroke-width="2" fill="none"></path></g></g><mask></mask><g stroke-linecap="round"><g transform="translate(143.28550132516784 987.0937385535963) rotate(0 -28.608193544250753 1.7356251988817348)"><path d="M0 0 C-9.54 0.58, -47.68 2.89, -57.22 3.47 M0 0 C-9.54 0.58, -47.68 2.89, -57.22 3.47" stroke="#1e1e1e" stroke-width="2" fill="none"></path></g><g transform="translate(143.28550132516784 987.0937385535963) rotate(0 -28.608193544250753 1.7356251988817348)"><path d="M-34.28 -6.49 C-40.97 -3.59, -47.65 -0.68, -57.22 3.47 M-34.28 -6.49 C-43.12 -2.65, -51.96 1.19, -57.22 3.47" stroke="#1e1e1e" stroke-width="2" fill="none"></path></g><g transform="translate(143.28550132516784 987.0937385535963) rotate(0 -28.608193544250753 1.7356251988817348)"><path d="M-33.25 10.58 C-40.23 8.51, -47.21 6.44, -57.22 3.47 M-33.25 10.58 C-42.48 7.84, -51.72 5.1, -57.22 3.47" stroke="#1e1e1e" stroke-width="2" fill="none"></path></g></g><mask></mask></svg>