<svg version="1.1" xmlns="http://www.w3.org/2000/svg" viewBox="0 0 1504.7724815361942 618.4137086699207" width="1504.7724815361942" height="618.4137086699207" class="excalidraw-svg">
  <!-- svg-source:excalidraw -->
  
  <defs>
    <style class="style-fonts">
      
    </style>
    
  </defs>
  <rect x="0" y="0" width="1504.7724815361942" height="618.4137086699207" fill="#ffffff"></rect><g stroke-linecap="round" transform="translate(1131.7308285947981 76.7589115059136) rotate(0 181.520826470698 265.8273985820035)"><path d="M0 0 L363.04 0 L363.04 531.65 L0 531.65" stroke="none" stroke-width="0" fill="#a5d8ff"></path><path d="M0 0 C124.07 0, 248.13 0, 363.04 0 M0 0 C121.29 0, 242.58 0, 363.04 0 M363.04 0 C363.04 110.25, 363.04 220.5, 363.04 531.65 M363.04 0 C363.04 211.98, 363.04 423.96, 363.04 531.65 M363.04 531.65 C218.35 531.65, 73.65 531.65, 0 531.65 M363.04 531.65 C264.39 531.65, 165.74 531.65, 0 531.65 M0 531.65 C0 368.57, 0 205.48, 0 0 M0 531.65 C0 395.39, 0 259.12, 0 0" stroke="#1e1e1e" stroke-width="2" fill="none"></path></g><g transform="translate(1258.7760691279962 81.7589115059136) rotate(0 54.4755859375 16.09999999999991)"><text x="54.4755859375" y="23.660546874999998" font-family="Helvetica, Segoe UI Emoji" font-size="28px" fill="#1e1e1e" text-anchor="middle" style="white-space: pre;" direction="ltr" dominant-baseline="alphabetic">Socket 1</text></g><g stroke-linecap="round" transform="translate(10 76.7589115059136) rotate(0 181.52082647069798 265.8273985820035)"><path d="M0 0 L363.04 0 L363.04 531.65 L0 531.65" stroke="none" stroke-width="0" fill="#a5d8ff"></path><path d="M0 0 C115.81 0, 231.62 0, 363.04 0 M0 0 C111.44 0, 222.88 0, 363.04 0 M363.04 0 C363.04 211.33, 363.04 422.66, 363.04 531.65 M363.04 0 C363.04 138.41, 363.04 276.81, 363.04 531.65 M363.04 531.65 C221.21 531.65, 79.38 531.65, 0 531.65 M363.04 531.65 C260.14 531.65, 157.24 531.65, 0 531.65 M0 531.65 C0 342.28, 0 152.9, 0 0 M0 531.65 C0 423.26, 0 314.87, 0 0" stroke="#1e1e1e" stroke-width="2" fill="none"></path></g><g transform="translate(136.983717095698 81.7589115059136) rotate(0 54.537109375 16.09999999999991)"><text x="54.537109375" y="23.660546874999998" font-family="Helvetica, Segoe UI Emoji" font-size="28px" fill="#1e1e1e" text-anchor="middle" style="white-space: pre;" direction="ltr" dominant-baseline="alphabetic">Socket 0</text></g><g stroke-linecap="round"><g transform="translate(371.22571817910085 289.1904280494564) rotate(0 -105.09002326048557 -17.114659636449005)"><path d="M0 0 C-29.86 -11.38, -59.72 -22.77, -89.78 -34.23 M0 0 C-33.21 -12.66, -66.42 -25.32, -89.78 -34.23 M-89.78 -34.23 C-119.72 -25.72, -149.66 -17.21, -210.18 0 M-89.78 -34.23 C-122.75 -24.86, -155.71 -15.48, -210.18 0" stroke="#e03131" stroke-width="4" fill="none"></path></g></g><mask></mask><g stroke-linecap="round"><g transform="translate(514.1481879194396 209.02176839796402) rotate(0 -67.25762325145968 40.6848490906209)"><path d="M0 0 C-39.64 23.98, -79.27 47.95, -134.52 81.37 M0 0 C-31.23 18.89, -62.47 37.79, -134.52 81.37" stroke="#e03131" stroke-width="4" fill="none"></path></g></g><mask></mask><g stroke-linecap="round"><g transform="translate(163.40856983774194 535.8006656896928) rotate(0 57.99530608147853 -24.338539796342957)"><path d="M0 0 C30.54 -12.82, 61.09 -25.64, 115.99 -48.68 M0 0 C26.89 -11.28, 53.77 -22.57, 115.99 -48.68" stroke="#2f9e44" stroke-width="4" fill="none"></path></g></g><mask></mask><g stroke-linecap="round"><g transform="translate(279.6773283772187 487.13443470974244) rotate(0 119.74569587110093 29.90165028945421)"><path d="M0 0 C52.38 13.08, 104.75 26.16, 239.49 59.8 M0 0 C67.84 16.94, 135.68 33.88, 239.49 59.8" stroke="#2f9e44" stroke-width="4" fill="none"></path></g></g><mask></mask><g stroke-linecap="round"><g transform="translate(280.300607977712 422.3646049867789) rotate(0 -58.24123439570539 -7.299987551310096)"><path d="M0 0 C-43.23 -5.42, -86.47 -10.84, -116.48 -14.6 M0 0 C-38.19 -4.79, -76.37 -9.57, -116.48 -14.6" stroke="#f08c00" stroke-width="4" fill="none"></path></g></g><mask></mask><g stroke-linecap="round"><g transform="translate(281.41572556342584 488.3101005072963) rotate(0 0 -145.4571139342288)"><path d="M0 0 C0 -110.85, 0 -221.69, 0 -290.91 M0 0 C0 -107.3, 0 -214.6, 0 -290.91" stroke="#2f9e44" stroke-width="2" fill="none"></path></g></g><mask></mask><g stroke-linecap="round"><g transform="translate(562.2129031685794 169.46830560999888) rotate(0 185.858070582146 185.85807058214596)"><path d="M0 0 C77.71 77.71, 155.41 155.41, 371.72 371.72 M0 0 C84.62 84.62, 169.24 169.24, 371.72 371.72" stroke="#1e1e1e" stroke-width="2" fill="none"></path></g></g><mask></mask><g stroke-linecap="round"><g transform="translate(567.2555212160225 540.4640886951252) rotate(0 188.0192284396045 -188.01922843960438)"><path d="M0 0 C101.71 -101.71, 203.43 -203.43, 376.04 -376.04 M0 0 C85.1 -85.1, 170.21 -170.21, 376.04 -376.04" stroke="#1e1e1e" stroke-width="2" fill="none"></path></g></g><mask></mask><g stroke-linecap="round"><g transform="translate(560.7123265531748 541.2009497993799) rotate(0 193.10368555015208 0)"><path d="M0 0 C113.02 0, 226.04 0, 386.21 0 M0 0 C137.63 0, 275.25 0, 386.21 0" stroke="#1e1e1e" stroke-width="2" fill="none"></path></g></g><mask></mask><g stroke-linecap="round"><g transform="translate(560.7123265531748 168.78669062423796) rotate(0 193.10368555015208 0)"><path d="M0 0 C113.89 0, 227.77 0, 386.21 0 M0 0 C147.95 0, 295.89 0, 386.21 0" stroke="#1e1e1e" stroke-width="2" fill="none"></path></g></g><mask></mask><g stroke-linecap="round"><g transform="translate(564.543749826772 168.7867499231802) rotate(0 0 187.73968110732721)"><path d="M0 0 C0 79.46, 0 158.91, 0 375.48 M0 0 C0 87.89, 0 175.78, 0 375.48" stroke="#1e1e1e" stroke-width="2" fill="none"></path></g></g><mask></mask><g stroke-linecap="round"><g transform="translate(943.8544760160815 168.7867499231802) rotate(0 0 187.73968110732721)"><path d="M0 0 C0 119.8, 0 239.6, 0 375.48 M0 0 C0 84.8, 0 169.59, 0 375.48" stroke="#1e1e1e" stroke-width="2" fill="none"></path></g></g><mask></mask><g stroke-linecap="round" transform="translate(502.4564644170856 108.25179264388862) rotate(0 61.88839643041706 61.88839643041706)"><path d="M0 0 L123.78 0 L123.78 123.78 L0 123.78" stroke="none" stroke-width="0" fill="#ffc9c9"></path><path d="M0 0 C47.59 0, 95.18 0, 123.78 0 M0 0 C48.6 0, 97.2 0, 123.78 0 M123.78 0 C123.78 34.5, 123.78 69, 123.78 123.78 M123.78 0 C123.78 29.35, 123.78 58.7, 123.78 123.78 M123.78 123.78 C77.51 123.78, 31.25 123.78, 0 123.78 M123.78 123.78 C84.33 123.78, 44.87 123.78, 0 123.78 M0 123.78 C0 91.1, 0 58.43, 0 0 M0 123.78 C0 81.59, 0 39.39, 0 0" stroke="#1e1e1e" stroke-width="2" fill="none"></path></g><g transform="translate(525.3390014725027 128.74018907430582) rotate(0 39.005859375 41.40000000000009)"><text x="39.005859375" y="30.420703125" font-family="Helvetica, Segoe UI Emoji" font-size="36px" fill="#1e1e1e" text-anchor="middle" style="white-space: pre;" direction="ltr" dominant-baseline="alphabetic">GPU</text><text x="39.005859375" y="71.820703125" font-family="Helvetica, Segoe UI Emoji" font-size="36px" fill="#1e1e1e" text-anchor="middle" style="white-space: pre;" direction="ltr" dominant-baseline="alphabetic">1</text></g><g stroke-linecap="round" transform="translate(875.7628498317679 109.40301352125198) rotate(0 61.88839643041706 61.88839643041706)"><path d="M0 0 L123.78 0 L123.78 123.78 L0 123.78" stroke="none" stroke-width="0" fill="#ffc9c9"></path><path d="M0 0 C37.42 0, 74.84 0, 123.78 0 M0 0 C36.56 0, 73.12 0, 123.78 0 M123.78 0 C123.78 31.26, 123.78 62.51, 123.78 123.78 M123.78 0 C123.78 35.36, 123.78 70.71, 123.78 123.78 M123.78 123.78 C87.29 123.78, 50.8 123.78, 0 123.78 M123.78 123.78 C93.69 123.78, 63.6 123.78, 0 123.78 M0 123.78 C0 80.78, 0 37.78, 0 0 M0 123.78 C0 95.91, 0 68.04, 0 0" stroke="#1e1e1e" stroke-width="2" fill="none"></path></g><g transform="translate(898.6453868871849 129.89140995166917) rotate(0 39.005859375 41.40000000000009)"><text x="39.005859375" y="30.420703125" font-family="Helvetica, Segoe UI Emoji" font-size="36px" fill="#1e1e1e" text-anchor="middle" style="white-space: pre;" direction="ltr" dominant-baseline="alphabetic">GPU</text><text x="39.005859375" y="71.820703125" font-family="Helvetica, Segoe UI Emoji" font-size="36px" fill="#1e1e1e" text-anchor="middle" style="white-space: pre;" direction="ltr" dominant-baseline="alphabetic">3</text></g><g stroke-linecap="round" transform="translate(876.4883486447318 483.3505674556959) rotate(0 61.88839643041706 61.88839643041683)"><path d="M0 0 L123.78 0 L123.78 123.78 L0 123.78" stroke="none" stroke-width="0" fill="#ffc9c9"></path><path d="M0 0 C34.14 0, 68.27 0, 123.78 0 M0 0 C33.77 0, 67.54 0, 123.78 0 M123.78 0 C123.78 33.47, 123.78 66.94, 123.78 123.78 M123.78 0 C123.78 41.78, 123.78 83.57, 123.78 123.78 M123.78 123.78 C88.05 123.78, 52.32 123.78, 0 123.78 M123.78 123.78 C94.08 123.78, 64.38 123.78, 0 123.78 M0 123.78 C0 84.96, 0 46.15, 0 0 M0 123.78 C0 82.31, 0 40.85, 0 0" stroke="#1e1e1e" stroke-width="2" fill="none"></path></g><g transform="translate(899.3708857001488 503.8389638861131) rotate(0 39.005859375 41.40000000000009)"><text x="39.005859375" y="30.420703125" font-family="Helvetica, Segoe UI Emoji" font-size="36px" fill="#1e1e1e" text-anchor="middle" style="white-space: pre;" direction="ltr" dominant-baseline="alphabetic">GPU</text><text x="39.005859375" y="71.820703125" font-family="Helvetica, Segoe UI Emoji" font-size="36px" fill="#1e1e1e" text-anchor="middle" style="white-space: pre;" direction="ltr" dominant-baseline="alphabetic">2</text></g><g stroke-linecap="round" transform="translate(502.4564644170856 482.4464047521128) rotate(0 61.88839643041706 61.88839643041729)"><path d="M0 0 L123.78 0 L123.78 123.78 L0 123.78" stroke="none" stroke-width="0" fill="#ffc9c9"></path><path d="M0 0 C35.98 0, 71.96 0, 123.78 0 M0 0 C47.64 0, 95.28 0, 123.78 0 M123.78 0 C123.78 30.2, 123.78 60.41, 123.78 123.78 M123.78 0 C123.78 41.58, 123.78 83.17, 123.78 123.78 M123.78 123.78 C87.34 123.78, 50.91 123.78, 0 123.78 M123.78 123.78 C88.84 123.78, 53.9 123.78, 0 123.78 M0 123.78 C0 79.38, 0 34.98, 0 0 M0 123.78 C0 93.82, 0 63.87, 0 0" stroke="#1e1e1e" stroke-width="2" fill="none"></path></g><g transform="translate(525.3390014725027 502.93480118253) rotate(0 39.005859375 41.40000000000009)"><text x="39.005859375" y="30.420703125" font-family="Helvetica, Segoe UI Emoji" font-size="36px" fill="#1e1e1e" text-anchor="middle" style="white-space: pre;" direction="ltr" dominant-baseline="alphabetic">GPU</text><text x="39.005859375" y="71.820703125" font-family="Helvetica, Segoe UI Emoji" font-size="36px" fill="#1e1e1e" text-anchor="middle" style="white-space: pre;" direction="ltr" dominant-baseline="alphabetic">0</text></g><g stroke-linecap="round" transform="translate(34.283131637387555 133.42113466580577) rotate(0 75.89240399950444 42.14225767725952)"><path d="M0 0 L151.78 0 L151.78 84.28 L0 84.28" stroke="none" stroke-width="0" fill="#b2f2bb"></path><path d="M0 0 C53.41 0, 106.82 0, 151.78 0 M0 0 C38.06 0, 76.11 0, 151.78 0 M151.78 0 C151.78 32.2, 151.78 64.4, 151.78 84.28 M151.78 0 C151.78 28.14, 151.78 56.29, 151.78 84.28 M151.78 84.28 C120.1 84.28, 88.42 84.28, 0 84.28 M151.78 84.28 C117.92 84.28, 84.05 84.28, 0 84.28 M0 84.28 C0 57.93, 0 31.57, 0 0 M0 84.28 C0 62.86, 0 41.44, 0 0" stroke="#1e1e1e" stroke-width="2" fill="none"></path></g><g transform="translate(41.55932469939194 154.86339234306524) rotate(0 68.6162109375 20.700000000000045)"><text x="68.6162109375" y="30.420703125" font-family="Helvetica, Segoe UI Emoji" font-size="36px" fill="#1e1e1e" text-anchor="middle" style="white-space: pre;" direction="ltr" dominant-baseline="alphabetic">NUMA 0</text></g><g stroke-linecap="round" transform="translate(34.283131637387555 248.64762284387734) rotate(0 75.89240399950444 42.14225767725952)"><path d="M0 0 L151.78 0 L151.78 84.28 L0 84.28" stroke="none" stroke-width="0" fill="#ffc9c9"></path><path d="M0 0 C50.82 0, 101.63 0, 151.78 0 M0 0 C40.12 0, 80.25 0, 151.78 0 M151.78 0 C151.78 19.78, 151.78 39.55, 151.78 84.28 M151.78 0 C151.78 26.33, 151.78 52.65, 151.78 84.28 M151.78 84.28 C99.79 84.28, 47.79 84.28, 0 84.28 M151.78 84.28 C94.16 84.28, 36.53 84.28, 0 84.28 M0 84.28 C0 55.39, 0 26.5, 0 0 M0 84.28 C0 63.86, 0 43.44, 0 0" stroke="#1e1e1e" stroke-width="2" fill="none"></path></g><g transform="translate(42.16577001189194 270.0898805211368) rotate(0 68.009765625 20.700000000000045)"><text x="68.009765625" y="30.420703125" font-family="Helvetica, Segoe UI Emoji" font-size="36px" fill="#1e1e1e" text-anchor="middle" style="white-space: pre;" direction="ltr" dominant-baseline="alphabetic">NUMA 1</text></g><g stroke-linecap="round" transform="translate(34.283131637387555 368.2307990103377) rotate(0 75.89240399950444 42.142257677259295)"><path d="M0 0 L151.78 0 L151.78 84.28 L0 84.28" stroke="none" stroke-width="0" fill="#ffc9c9"></path><path d="M0 0 C46.36 0, 92.72 0, 151.78 0 M0 0 C54.85 0, 109.7 0, 151.78 0 M151.78 0 C151.78 29.87, 151.78 59.74, 151.78 84.28 M151.78 0 C151.78 29.88, 151.78 59.76, 151.78 84.28 M151.78 84.28 C114.25 84.28, 76.72 84.28, 0 84.28 M151.78 84.28 C95.85 84.28, 39.92 84.28, 0 84.28 M0 84.28 C0 63.49, 0 42.7, 0 0 M0 84.28 C0 63.67, 0 43.05, 0 0" stroke="#1e1e1e" stroke-width="2" fill="none"></path></g><g transform="translate(41.54174657439194 389.6730566875972) rotate(0 68.6337890625 20.699999999999818)"><text x="68.6337890625" y="30.420703125" font-family="Helvetica, Segoe UI Emoji" font-size="36px" fill="#1e1e1e" text-anchor="middle" style="white-space: pre;" direction="ltr" dominant-baseline="alphabetic">NUMA 2</text></g><g stroke-linecap="round" transform="translate(34.61024402995963 485.72120216447775) rotate(0 75.89240399950444 42.14225767725975)"><path d="M0 0 L151.78 0 L151.78 84.28 L0 84.28" stroke="none" stroke-width="0" fill="#b2f2bb"></path><path d="M0 0 C42.18 0, 84.36 0, 151.78 0 M0 0 C51.52 0, 103.03 0, 151.78 0 M151.78 0 C151.78 29.04, 151.78 58.08, 151.78 84.28 M151.78 0 C151.78 20.56, 151.78 41.11, 151.78 84.28 M151.78 84.28 C96.37 84.28, 40.96 84.28, 0 84.28 M151.78 84.28 C104.87 84.28, 57.95 84.28, 0 84.28 M0 84.28 C0 54.31, 0 24.34, 0 0 M0 84.28 C0 61.83, 0 39.37, 0 0" stroke="#1e1e1e" stroke-width="2" fill="none"></path></g><g transform="translate(41.904015216964126 507.1634598417372) rotate(0 68.5986328125 20.699999999999818)"><text x="68.5986328125" y="30.420703125" font-family="Helvetica, Segoe UI Emoji" font-size="36px" fill="#1e1e1e" text-anchor="middle" style="white-space: pre;" direction="ltr" dominant-baseline="alphabetic">NUMA 3</text></g><g transform="translate(599.7875035653008 339.76430955594105) rotate(0 59.326171875 20.699999999999818)"><text x="59.326171875" y="30.420703125" font-family="Helvetica, Segoe UI Emoji" font-size="36px" fill="#1e1e1e" text-anchor="middle" style="white-space: pre;" direction="ltr" dominant-baseline="alphabetic">NVLink</text></g><g stroke-linecap="round" transform="translate(353.7262622935328 273.51927648201627) rotate(0 16.97803336804077 16.97803336804077)"><path d="M0 0 L33.96 0 L33.96 33.96 L0 33.96" stroke="none" stroke-width="0" fill="#ffc9c9"></path><path d="M0 0 C8.34 0, 16.69 0, 33.96 0 M0 0 C10.09 0, 20.18 0, 33.96 0 M33.96 0 C33.96 8.57, 33.96 17.13, 33.96 33.96 M33.96 0 C33.96 10.76, 33.96 21.53, 33.96 33.96 M33.96 33.96 C25.13 33.96, 16.3 33.96, 0 33.96 M33.96 33.96 C26.4 33.96, 18.84 33.96, 0 33.96 M0 33.96 C0 23.27, 0 12.58, 0 0 M0 33.96 C0 25.36, 0 16.76, 0 0" stroke="#e03131" stroke-width="2" fill="none"></path></g><g stroke-linecap="round" transform="translate(353.7262622935328 409.9966263392612) rotate(0 16.97803336804077 16.978033368040997)"><path d="M0 0 L33.96 0 L33.96 33.96 L0 33.96" stroke="none" stroke-width="0" fill="#ffc9c9"></path><path d="M0 0 C7.71 0, 15.42 0, 33.96 0 M0 0 C7.78 0, 15.56 0, 33.96 0 M33.96 0 C33.96 7.14, 33.96 14.29, 33.96 33.96 M33.96 0 C33.96 9.36, 33.96 18.73, 33.96 33.96 M33.96 33.96 C26.61 33.96, 19.26 33.96, 0 33.96 M33.96 33.96 C22.53 33.96, 11.1 33.96, 0 33.96 M0 33.96 C0 24.98, 0 16, 0 0 M0 33.96 C0 21.88, 0 9.8, 0 0" stroke="#e03131" stroke-width="2" fill="none"></path></g><g transform="translate(230.99864803769117 548.9724836431174) rotate(0 60.2099609375 23)"><text x="60.2099609375" y="16.900390625" font-family="Helvetica, Segoe UI Emoji" font-size="20px" fill="#2f9e44" text-anchor="middle" style="white-space: pre;" direction="ltr" dominant-baseline="alphabetic">Infinity Fabric</text><text x="60.2099609375" y="39.900390625" font-family="Helvetica, Segoe UI Emoji" font-size="20px" fill="#2f9e44" text-anchor="middle" style="white-space: pre;" direction="ltr" dominant-baseline="alphabetic">within Socket</text></g><g stroke-linecap="round" transform="translate(1309.488564299204 133.42113466580577) rotate(0 75.89240399950444 42.14225767725952)"><path d="M0 0 L151.78 0 L151.78 84.28 L0 84.28" stroke="none" stroke-width="0" fill="#b2f2bb"></path><path d="M0 0 C35.85 0, 71.7 0, 151.78 0 M0 0 C33.26 0, 66.52 0, 151.78 0 M151.78 0 C151.78 20.67, 151.78 41.33, 151.78 84.28 M151.78 0 C151.78 21.69, 151.78 43.39, 151.78 84.28 M151.78 84.28 C120.59 84.28, 89.39 84.28, 0 84.28 M151.78 84.28 C105.88 84.28, 59.98 84.28, 0 84.28 M0 84.28 C0 61.29, 0 38.3, 0 0 M0 84.28 C0 61.67, 0 39.06, 0 0" stroke="#1e1e1e" stroke-width="2" fill="none"></path></g><g transform="translate(1316.7647573612082 154.86339234306524) rotate(0 68.6162109375 20.700000000000045)"><text x="68.6162109375" y="30.420703125" font-family="Helvetica, Segoe UI Emoji" font-size="36px" fill="#1e1e1e" text-anchor="middle" style="white-space: pre;" direction="ltr" dominant-baseline="alphabetic">NUMA 0</text></g><g stroke-linecap="round" transform="translate(1309.488564299204 247.96152554490345) rotate(0 75.89240399950444 42.14225767725952)"><path d="M0 0 L151.78 0 L151.78 84.28 L0 84.28" stroke="none" stroke-width="0" fill="#ffc9c9"></path><path d="M0 0 C39.64 0, 79.27 0, 151.78 0 M0 0 C43.31 0, 86.62 0, 151.78 0 M151.78 0 C151.78 33.32, 151.78 66.63, 151.78 84.28 M151.78 0 C151.78 25.67, 151.78 51.35, 151.78 84.28 M151.78 84.28 C113.52 84.28, 75.25 84.28, 0 84.28 M151.78 84.28 C102.01 84.28, 52.24 84.28, 0 84.28 M0 84.28 C0 67.16, 0 50.04, 0 0 M0 84.28 C0 59.25, 0 34.21, 0 0" stroke="#1e1e1e" stroke-width="2" fill="none"></path></g><g transform="translate(1317.3712026737082 269.40378322216293) rotate(0 68.009765625 20.700000000000045)"><text x="68.009765625" y="30.420703125" font-family="Helvetica, Segoe UI Emoji" font-size="36px" fill="#1e1e1e" text-anchor="middle" style="white-space: pre;" direction="ltr" dominant-baseline="alphabetic">NUMA 1</text></g><g stroke-linecap="round" transform="translate(1309.488564299204 367.54470171136427) rotate(0 75.89240399950444 42.14225767725975)"><path d="M0 0 L151.78 0 L151.78 84.28 L0 84.28" stroke="none" stroke-width="0" fill="#ffc9c9"></path><path d="M0 0 C38.85 0, 77.71 0, 151.78 0 M0 0 C55.97 0, 111.94 0, 151.78 0 M151.78 0 C151.78 17.4, 151.78 34.81, 151.78 84.28 M151.78 0 C151.78 29.51, 151.78 59.02, 151.78 84.28 M151.78 84.28 C113.81 84.28, 75.83 84.28, 0 84.28 M151.78 84.28 C99.26 84.28, 46.73 84.28, 0 84.28 M0 84.28 C0 54.81, 0 25.34, 0 0 M0 84.28 C0 54.69, 0 25.09, 0 0" stroke="#1e1e1e" stroke-width="2" fill="none"></path></g><g transform="translate(1316.7471792362082 388.98695938862375) rotate(0 68.6337890625 20.699999999999818)"><text x="68.6337890625" y="30.420703125" font-family="Helvetica, Segoe UI Emoji" font-size="36px" fill="#1e1e1e" text-anchor="middle" style="white-space: pre;" direction="ltr" dominant-baseline="alphabetic">NUMA 2</text></g><g stroke-linecap="round" transform="translate(1309.815676691776 486.4073525587387) rotate(0 75.89240399950444 42.142257677259295)"><path d="M0 0 L151.78 0 L151.78 84.28 L0 84.28" stroke="none" stroke-width="0" fill="#b2f2bb"></path><path d="M0 0 C37.78 0, 75.56 0, 151.78 0 M0 0 C34.59 0, 69.18 0, 151.78 0 M151.78 0 C151.78 29.16, 151.78 58.33, 151.78 84.28 M151.78 0 C151.78 24.31, 151.78 48.62, 151.78 84.28 M151.78 84.28 C97.74 84.28, 43.69 84.28, 0 84.28 M151.78 84.28 C100.59 84.28, 49.4 84.28, 0 84.28 M0 84.28 C0 66.79, 0 49.29, 0 0 M0 84.28 C0 63.48, 0 42.67, 0 0" stroke="#1e1e1e" stroke-width="2" fill="none"></path></g><g transform="translate(1317.1094478787804 507.84961023599817) rotate(0 68.5986328125 20.699999999999818)"><text x="68.5986328125" y="30.420703125" font-family="Helvetica, Segoe UI Emoji" font-size="36px" fill="#1e1e1e" text-anchor="middle" style="white-space: pre;" direction="ltr" dominant-baseline="alphabetic">NUMA 3</text></g><g transform="translate(192.21848237192785 290.9467631220368) rotate(0 19.462890625 23)"><text x="19.462890625" y="16.900390625" font-family="Helvetica, Segoe UI Emoji" font-size="20px" fill="#e03131" text-anchor="middle" style="white-space: pre;" direction="ltr" dominant-baseline="alphabetic">fast</text><text x="19.462890625" y="39.900390625" font-family="Helvetica, Segoe UI Emoji" font-size="20px" fill="#e03131" text-anchor="middle" style="white-space: pre;" direction="ltr" dominant-baseline="alphabetic">path</text></g><g stroke-linecap="round" transform="translate(1108.9943305909012 272.85664347248485) rotate(0 16.97803336804074 16.97803336804077)"><path d="M0 0 L33.96 0 L33.96 33.96 L0 33.96" stroke="none" stroke-width="0" fill="#ffc9c9"></path><path d="M0 0 C12.63 0, 25.27 0, 33.96 0 M0 0 C7.19 0, 14.38 0, 33.96 0 M33.96 0 C33.96 8.23, 33.96 16.46, 33.96 33.96 M33.96 0 C33.96 9.72, 33.96 19.44, 33.96 33.96 M33.96 33.96 C23.93 33.96, 13.9 33.96, 0 33.96 M33.96 33.96 C24.62 33.96, 15.28 33.96, 0 33.96 M0 33.96 C0 21.61, 0 9.27, 0 0 M0 33.96 C0 26.12, 0 18.29, 0 0" stroke="#e03131" stroke-width="2" fill="none"></path></g><g stroke-linecap="round" transform="translate(1108.9943305909012 409.33399332972976) rotate(0 16.97803336804074 16.978033368040997)"><path d="M0 0 L33.96 0 L33.96 33.96 L0 33.96" stroke="none" stroke-width="0" fill="#ffc9c9"></path><path d="M0 0 C8.44 0, 16.88 0, 33.96 0 M0 0 C9.46 0, 18.91 0, 33.96 0 M33.96 0 C33.96 13.58, 33.96 27.15, 33.96 33.96 M33.96 0 C33.96 9.76, 33.96 19.52, 33.96 33.96 M33.96 33.96 C24.29 33.96, 14.63 33.96, 0 33.96 M33.96 33.96 C22.86 33.96, 11.75 33.96, 0 33.96 M0 33.96 C0 25.37, 0 16.79, 0 0 M0 33.96 C0 27.03, 0 20.1, 0 0" stroke="#e03131" stroke-width="2" fill="none"></path></g><g stroke-linecap="round"><g transform="translate(1233.0511459855334 487.52945100876923) rotate(0 0 -145.4571139342288)"><path d="M0 0 C0 -96.73, 0 -193.47, 0 -290.91 M0 0 C0 -86.89, 0 -173.79, 0 -290.91" stroke="#2f9e44" stroke-width="2" fill="none"></path></g></g><mask></mask><g stroke-linecap="round" transform="translate(1215.2474084303317 471.36918910670784) rotate(0 16.97803336804077 16.978033368040997)"><path d="M0 0 L33.96 0 L33.96 33.96 L0 33.96" stroke="none" stroke-width="0" fill="#b2f2bb"></path><path d="M0 0 C12.49 0, 24.99 0, 33.96 0 M0 0 C10.46 0, 20.92 0, 33.96 0 M33.96 0 C33.96 11.38, 33.96 22.77, 33.96 33.96 M33.96 0 C33.96 12.44, 33.96 24.87, 33.96 33.96 M33.96 33.96 C22.92 33.96, 11.88 33.96, 0 33.96 M33.96 33.96 C26.68 33.96, 19.41 33.96, 0 33.96 M0 33.96 C0 26.63, 0 19.3, 0 0 M0 33.96 C0 24.42, 0 14.87, 0 0" stroke="#1971c2" stroke-width="2" fill="none"></path></g><g stroke-linecap="round" transform="translate(1215.2474084303317 186.73621810400164) rotate(0 16.97803336804077 16.97803336804077)"><path d="M0 0 L33.96 0 L33.96 33.96 L0 33.96" stroke="none" stroke-width="0" fill="#b2f2bb"></path><path d="M0 0 C9.46 0, 18.93 0, 33.96 0 M0 0 C10.35 0, 20.71 0, 33.96 0 M33.96 0 C33.96 7.82, 33.96 15.64, 33.96 33.96 M33.96 0 C33.96 7.9, 33.96 15.8, 33.96 33.96 M33.96 33.96 C21.54 33.96, 9.13 33.96, 0 33.96 M33.96 33.96 C26.89 33.96, 19.82 33.96, 0 33.96 M0 33.96 C0 23.83, 0 13.7, 0 0 M0 33.96 C0 27.07, 0 20.19, 0 0" stroke="#1971c2" stroke-width="2" fill="none"></path></g><g stroke-linecap="round" transform="translate(1215.2474084303317 405.8979840286497) rotate(0 16.97803336804077 16.978033368040997)"><path d="M0 0 L33.96 0 L33.96 33.96 L0 33.96" stroke="none" stroke-width="0" fill="#b2f2bb"></path><path d="M0 0 C12 0, 24 0, 33.96 0 M0 0 C8.43 0, 16.86 0, 33.96 0 M33.96 0 C33.96 12.87, 33.96 25.74, 33.96 33.96 M33.96 0 C33.96 10.29, 33.96 20.58, 33.96 33.96 M33.96 33.96 C24.2 33.96, 14.44 33.96, 0 33.96 M33.96 33.96 C24.16 33.96, 14.36 33.96, 0 33.96 M0 33.96 C0 21.3, 0 8.64, 0 0 M0 33.96 C0 21.49, 0 9.01, 0 0" stroke="#1971c2" stroke-width="2" fill="none"></path></g><g stroke-linecap="round" transform="translate(1215.2474084303317 275.8254897842289) rotate(0 16.97803336804077 16.97803336804077)"><path d="M0 0 L33.96 0 L33.96 33.96 L0 33.96" stroke="none" stroke-width="0" fill="#b2f2bb"></path><path d="M0 0 C8.97 0, 17.93 0, 33.96 0 M0 0 C8.66 0, 17.32 0, 33.96 0 M33.96 0 C33.96 11.22, 33.96 22.44, 33.96 33.96 M33.96 0 C33.96 11.92, 33.96 23.85, 33.96 33.96 M33.96 33.96 C20.6 33.96, 7.24 33.96, 0 33.96 M33.96 33.96 C22.58 33.96, 11.21 33.96, 0 33.96 M0 33.96 C0 21.6, 0 9.24, 0 0 M0 33.96 C0 26.34, 0 18.73, 0 0" stroke="#1971c2" stroke-width="2" fill="none"></path></g><g stroke-linecap="round"><g transform="translate(1176.0745413562977 349.6997838592165) rotate(0 0 -161.47860985543616)"><path d="M0 0 C0 -83.77, 0 -167.54, 0 -322.96 M0 0 C0 -125.24, 0 -250.49, 0 -322.96" stroke="#f08c00" stroke-width="4" fill="none"></path></g></g><mask></mask><g stroke-linecap="round"><g transform="translate(1175.8516779042352 26.76773894689086) rotate(0 -419.935553225568 0)"><path d="M0 0 C-171.63 0, -343.25 0, -839.87 0 M0 0 C-276.34 0, -552.67 0, -839.87 0" stroke="#f08c00" stroke-width="4" fill="none"></path></g></g><mask></mask><g transform="translate(674.7900343707283 39.268181534951964) rotate(0 67.841796875 23)"><text x="67.841796875" y="16.900390625" font-family="Helvetica, Segoe UI Emoji" font-size="20px" fill="#f08c00" text-anchor="middle" style="white-space: pre;" direction="ltr" dominant-baseline="alphabetic">Infinity Fabric</text><text x="67.841796875" y="39.900390625" font-family="Helvetica, Segoe UI Emoji" font-size="20px" fill="#f08c00" text-anchor="middle" style="white-space: pre;" direction="ltr" dominant-baseline="alphabetic">across Sockets</text></g><g stroke-linecap="round"><g transform="translate(333.4858525557595 360.5826029204841) rotate(0 0 -167.82714932843805)"><path d="M0 0 C0 -99.81, 0 -199.62, 0 -335.65 M0 0 C0 -96.71, 0 -193.41, 0 -335.65" stroke="#f08c00" stroke-width="4" fill="none"></path></g></g><mask></mask><g stroke-linecap="round" transform="translate(1159.4836188923969 333.94301970439983) rotate(0 16.97803336804077 16.978033368040997)"><path d="M0 0 L33.96 0 L33.96 33.96 L0 33.96" stroke="none" stroke-width="0" fill="#ffec99"></path><path d="M0 0 C8.38 0, 16.76 0, 33.96 0 M0 0 C7.35 0, 14.69 0, 33.96 0 M33.96 0 C33.96 11.3, 33.96 22.61, 33.96 33.96 M33.96 0 C33.96 10.31, 33.96 20.62, 33.96 33.96 M33.96 33.96 C20.47 33.96, 6.98 33.96, 0 33.96 M33.96 33.96 C21.38 33.96, 8.81 33.96, 0 33.96 M0 33.96 C0 21.87, 0 9.79, 0 0 M0 33.96 C0 23.73, 0 13.51, 0 0" stroke="#1971c2" stroke-width="2" fill="none"></path></g><g stroke-linecap="round" transform="translate(315.54196088375505 10.39610726555702) rotate(0 16.97803336804077 16.97803336804077)"><path d="M0 0 L33.96 0 L33.96 33.96 L0 33.96" stroke="none" stroke-width="0" fill="#ffec99"></path><path d="M0 0 C9.33 0, 18.65 0, 33.96 0 M0 0 C10.29 0, 20.58 0, 33.96 0 M33.96 0 C33.96 10.68, 33.96 21.37, 33.96 33.96 M33.96 0 C33.96 9.41, 33.96 18.82, 33.96 33.96 M33.96 33.96 C20.54 33.96, 7.12 33.96, 0 33.96 M33.96 33.96 C25.33 33.96, 16.7 33.96, 0 33.96 M0 33.96 C0 22.44, 0 10.93, 0 0 M0 33.96 C0 26.98, 0 19.99, 0 0" stroke="#1971c2" stroke-width="2" fill="none"></path></g><g stroke-linecap="round" transform="translate(1159.2016418832077 10) rotate(0 16.97803336804077 16.97803336804077)"><path d="M0 0 L33.96 0 L33.96 33.96 L0 33.96" stroke="none" stroke-width="0" fill="#ffec99"></path><path d="M0 0 C12.94 0, 25.87 0, 33.96 0 M0 0 C7.94 0, 15.89 0, 33.96 0 M33.96 0 C33.96 11.72, 33.96 23.44, 33.96 33.96 M33.96 0 C33.96 11.96, 33.96 23.92, 33.96 33.96 M33.96 33.96 C23.33 33.96, 12.71 33.96, 0 33.96 M33.96 33.96 C23.08 33.96, 12.19 33.96, 0 33.96 M0 33.96 C0 24.41, 0 14.87, 0 0 M0 33.96 C0 23.49, 0 13.03, 0 0" stroke="#1971c2" stroke-width="2" fill="none"></path></g><g stroke-linecap="round"><g transform="translate(316.4560447217244 377.63425948495706) rotate(0 -9.732077760379411 14.598124325442768)"><path d="M0 0 C-5.67 8.5, -11.33 17, -19.46 29.2 M0 0 C-5.04 7.56, -10.09 15.13, -19.46 29.2" stroke="#f08c00" stroke-width="4" fill="none"></path></g></g><mask></mask><g stroke-linecap="round" transform="translate(263.61198800822405 471.36918910670784) rotate(0 16.97803336804077 16.978033368040997)"><path d="M0 0 L33.96 0 L33.96 33.96 L0 33.96" stroke="none" stroke-width="0" fill="#b2f2bb"></path><path d="M0 0 C9.89 0, 19.78 0, 33.96 0 M0 0 C11.45 0, 22.9 0, 33.96 0 M33.96 0 C33.96 10.99, 33.96 21.98, 33.96 33.96 M33.96 0 C33.96 13.28, 33.96 26.56, 33.96 33.96 M33.96 33.96 C22.65 33.96, 11.34 33.96, 0 33.96 M33.96 33.96 C22.55 33.96, 11.15 33.96, 0 33.96 M0 33.96 C0 22.21, 0 10.47, 0 0 M0 33.96 C0 20.92, 0 7.89, 0 0" stroke="#1971c2" stroke-width="2" fill="none"></path></g><g stroke-linecap="round" transform="translate(263.61198800822405 186.34006485965529) rotate(0 16.97803336804077 16.97803336804077)"><path d="M0 0 L33.96 0 L33.96 33.96 L0 33.96" stroke="none" stroke-width="0" fill="#b2f2bb"></path><path d="M0 0 C12.37 0, 24.73 0, 33.96 0 M0 0 C12.49 0, 24.98 0, 33.96 0 M33.96 0 C33.96 12.1, 33.96 24.2, 33.96 33.96 M33.96 0 C33.96 7.5, 33.96 15.01, 33.96 33.96 M33.96 33.96 C26.63 33.96, 19.31 33.96, 0 33.96 M33.96 33.96 C24.99 33.96, 16.02 33.96, 0 33.96 M0 33.96 C0 24.04, 0 14.13, 0 0 M0 33.96 C0 21.82, 0 9.68, 0 0" stroke="#1971c2" stroke-width="2" fill="none"></path></g><g stroke-linecap="round" transform="translate(263.61198800822405 405.50183078430337) rotate(0 16.97803336804077 16.978033368040997)"><path d="M0 0 L33.96 0 L33.96 33.96 L0 33.96" stroke="none" stroke-width="0" fill="#b2f2bb"></path><path d="M0 0 C10.14 0, 20.28 0, 33.96 0 M0 0 C7.94 0, 15.87 0, 33.96 0 M33.96 0 C33.96 10.19, 33.96 20.38, 33.96 33.96 M33.96 0 C33.96 7.69, 33.96 15.38, 33.96 33.96 M33.96 33.96 C23.26 33.96, 12.57 33.96, 0 33.96 M33.96 33.96 C26.99 33.96, 20.02 33.96, 0 33.96 M0 33.96 C0 25.12, 0 16.29, 0 0 M0 33.96 C0 22.59, 0 11.22, 0 0" stroke="#1971c2" stroke-width="2" fill="none"></path></g><g stroke-linecap="round" transform="translate(263.61198800822405 275.82545913170225) rotate(0 16.97803336804077 16.97803336804077)"><path d="M0 0 L33.96 0 L33.96 33.96 L0 33.96" stroke="none" stroke-width="0" fill="#b2f2bb"></path><path d="M0 0 C12.4 0, 24.79 0, 33.96 0 M0 0 C8.12 0, 16.23 0, 33.96 0 M33.96 0 C33.96 6.87, 33.96 13.74, 33.96 33.96 M33.96 0 C33.96 8.73, 33.96 17.45, 33.96 33.96 M33.96 33.96 C25.09 33.96, 16.22 33.96, 0 33.96 M33.96 33.96 C25.55 33.96, 17.14 33.96, 0 33.96 M0 33.96 C0 24.79, 0 15.61, 0 0 M0 33.96 C0 22.52, 0 11.09, 0 0" stroke="#1971c2" stroke-width="2" fill="none"></path></g><g stroke-linecap="round" transform="translate(315.9498219369775 343.30840468771885) rotate(0 16.97803336804077 16.978033368040997)"><path d="M0 0 L33.96 0 L33.96 33.96 L0 33.96" stroke="none" stroke-width="0" fill="#ffec99"></path><path d="M0 0 C12.36 0, 24.73 0, 33.96 0 M0 0 C9.97 0, 19.94 0, 33.96 0 M33.96 0 C33.96 8.77, 33.96 17.55, 33.96 33.96 M33.96 0 C33.96 7.11, 33.96 14.22, 33.96 33.96 M33.96 33.96 C25.49 33.96, 17.03 33.96, 0 33.96 M33.96 33.96 C20.7 33.96, 7.43 33.96, 0 33.96 M0 33.96 C0 26.07, 0 18.18, 0 0 M0 33.96 C0 26.27, 0 18.59, 0 0" stroke="#1971c2" stroke-width="2" fill="none"></path></g><g stroke-linecap="round"><g transform="translate(975.2799959322826 238.1798063820861) rotate(0 89.60181148005714 56.32062334517741)"><path d="M0 0 C0 32.27, 0 64.55, 0 96.64 M0 0 C0 26.53, 0 53.07, 0 96.64 M0 96.64 C0 107.31, 5.33 112.64, 16 112.64 M0 96.64 C0 107.31, 5.33 112.64, 16 112.64 M16 112.64 C51.43 112.64, 86.85 112.64, 179.2 112.64 M16 112.64 C61.69 112.64, 107.37 112.64, 179.2 112.64" stroke="#f08c00" stroke-width="4" fill="none"></path></g><g transform="translate(975.2799959322826 238.1798063820861) rotate(0 89.60181148005714 56.32062334517741)"><path d="M155.71 121.19 C163.56 118.34, 171.4 115.48, 179.2 112.64 M155.71 121.19 C162.16 118.84, 168.61 116.5, 179.2 112.64" stroke="#f08c00" stroke-width="4" fill="none"></path></g><g transform="translate(975.2799959322826 238.1798063820861) rotate(0 89.60181148005714 56.32062334517741)"><path d="M155.71 104.09 C163.56 106.95, 171.4 109.8, 179.2 112.64 M155.71 104.09 C162.16 106.44, 168.61 108.79, 179.2 112.64" stroke="#f08c00" stroke-width="4" fill="none"></path></g></g><mask></mask></svg>