<svg version="1.1" xmlns="http://www.w3.org/2000/svg" viewBox="0 0 2300.3606712421724 834.887538718759" width="2300.3606712421724" height="834.887538718759" class="excalidraw-svg">
  <!-- svg-source:excalidraw -->
  
  <defs>
    <style class="style-fonts">
      
    </style>
    
  </defs>
  <rect x="0" y="0" width="2300.3606712421724" height="834.887538718759" fill="#ffffff"></rect><g stroke-linecap="round"><g transform="translate(509.81002762381195 543.3357619098553) rotate(0 49.5000321831351 -28.57885690582816)"><path d="M0.41 -0.54 C17.12 -9.98, 83.45 -48.25, 100.03 -57.71 M-0.84 1.79 C15.83 -7.41, 82.89 -46.82, 99.62 -56.47" stroke="#2f9e44" stroke-width="2" fill="none"></path></g></g><mask></mask><g stroke-linecap="round"><g transform="translate(678.49997104704 543.3357619098553) rotate(0 49.50003218313509 -28.57885690582816)"><path d="M1.03 -0.55 C17.6 -10.02, 83.52 -47.78, 99.85 -57.32 M0.11 1.77 C16.56 -7.46, 82.99 -46.1, 99.35 -55.87" stroke="#2f9e44" stroke-width="2" fill="none"></path></g></g><mask></mask><g stroke-linecap="round"><g transform="translate(678.49997104704 717.552202394959) rotate(0 49.50003218313509 -28.57885690582816)"><path d="M0.85 -0.16 C17.18 -9.71, 82.63 -48.4, 98.99 -57.82 M-0.17 -1.3 C15.91 -10.65, 81.63 -47.05, 98.04 -56.63" stroke="#2f9e44" stroke-width="2" fill="none"></path></g></g><mask></mask><g stroke-linecap="round"><g stroke-opacity="0.4" fill-opacity="0.4" transform="translate(510.8627034285373 717.2890436263639) rotate(0 48.05261313422426 -28.44727752153085)"><path d="M-0.01 -0.66 C15.87 -10.04, 79.95 -47.05, 96.12 -56.42" stroke="#2f9e44" stroke-width="2.5" fill="none" stroke-dasharray="8 10"></path></g></g><mask></mask><g stroke-linecap="round"><g stroke-opacity="0.4" fill-opacity="0.4" transform="translate(607.1817656843302 660.7081773387705) rotate(0 85.2660477668689 0)"><path d="M0.01 0.48 C28.59 0.6, 143.14 0.14, 171.42 0.05" stroke="#2f9e44" stroke-width="2.5" fill="none" stroke-dasharray="8 10"></path></g></g><mask></mask><g stroke-linecap="round"><g transform="translate(777.9770607170092 661.4976943749012) rotate(0 1.4210854715202004e-14 -87.37139937631974)"><path d="M0.89 0.05 C0.75 -29.16, -0.58 -145.66, -0.85 -174.79 M-0.1 -0.96 C0.13 -30.02, 1.1 -144.53, 1.42 -173.28" stroke="#2f9e44" stroke-width="2" fill="none"></path></g></g><mask></mask><g stroke-linecap="round"><g transform="translate(777.1875436808785 486.2285577198993) rotate(0 -83.29230608947529 0)"><path d="M-0.85 -0.05 C-28.88 -0.05, -139.65 0.13, -167.31 0 M0.91 -1.12 C-26.81 -0.92, -136.89 1.34, -164.97 1.54" stroke="#2f9e44" stroke-width="2" fill="none"></path></g></g><mask></mask><g stroke-linecap="round"><g stroke-opacity="0.4" fill-opacity="0.4" transform="translate(609.8134348309704 487.0180543908566) rotate(0 0 86.58190270536232)"><path d="M-0.72 0 C-0.61 28.74, -0.3 143.41, -0.17 172.37" stroke="#2f9e44" stroke-width="2.5" fill="none" stroke-dasharray="8 10"></path></g></g><mask></mask><g stroke-linecap="round"><g transform="translate(510.59952429476937 542.8094240074926) rotate(0 83.55547504065663 0)"><path d="M-0.17 -0.8 C27.81 -0.7, 139.21 0.37, 167.14 0.56 M-1.72 1.4 C26.17 1.14, 138.12 -0.73, 166.21 -1.26" stroke="#2f9e44" stroke-width="2" fill="none"></path></g></g><mask></mask><g stroke-linecap="round"><g transform="translate(678.49997104704 718.3416990659163) rotate(0 7.105427357601002e-15 -87.23979962684916)"><path d="M0.03 0.56 C0.12 -28.32, 0.44 -144.97, 0.33 -174.13 M-1.41 -0.19 C-1.44 -29.38, -0.39 -147.27, -0.44 -176.07" stroke="#2f9e44" stroke-width="2" fill="none"></path></g></g><mask></mask><g stroke-linecap="round"><g transform="translate(510.59952429476937 543.5989206784499) rotate(0 0 86.58189252277566)"><path d="M0.33 0.35 C0.22 29.13, -0.47 144.35, -0.65 173.27 M-0.96 -0.51 C-0.68 28.43, 1.26 146.12, 1.72 174.86" stroke="#2f9e44" stroke-width="2" fill="none"></path></g></g><mask></mask><g stroke-linecap="round"><g transform="translate(677.9736331446774 718.0785402973216) rotate(0 -83.55546994936333 0)"><path d="M-0.65 0.1 C-28.68 0.16, -140.17 0.72, -167.86 0.7 M1.21 -0.89 C-26.47 -1.21, -137.44 -1.42, -165.54 -1.06" stroke="#2f9e44" stroke-width="2" fill="none"></path></g></g><mask></mask><g stroke-linecap="round"><g transform="translate(294.56579603706825 298.27141151218325) rotate(0 148.35337579586917 -85.65186145093475)"><path d="M0.1 1.16 C49.45 -27.24, 246.89 -141.48, 296.35 -170.25 M-1.31 0.73 C47.83 -28.01, 245.64 -143.33, 295.22 -171.82" stroke="#1971c2" stroke-width="2" fill="none"></path></g></g><mask></mask><g stroke-linecap="round"><g transform="translate(801.1987429760646 298.27141151218325) rotate(0 148.35337579586917 -85.65186145093475)"><path d="M-0.36 1.05 C49.1 -27.72, 247.51 -142.84, 296.85 -171.46 M1.66 0.56 C50.96 -27.51, 246.58 -141.13, 295.98 -170" stroke="#1971c2" stroke-width="2" fill="none"></path></g></g><mask></mask><g stroke-linecap="round"><g transform="translate(800.1356202558183 820.4043460824959) rotate(0 148.35337579586917 -85.65186145093469)"><path d="M0.15 -0.15 C49.5 -28.77, 246.19 -142.04, 295.73 -170.67 M-1.23 -1.28 C48.51 -29.73, 248.23 -144.18, 297.93 -172.46" stroke="#1971c2" stroke-width="2" fill="none"></path></g></g><mask></mask><g stroke-linecap="round"><g stroke-opacity="0.4" fill-opacity="0.4" transform="translate(297.72070326363075 819.6156497934334) rotate(0 144.01540887692386 -85.25751330640344)"><path d="M-0.98 0.63 C47.11 -27.87, 240.57 -142.6, 288.68 -171.16" stroke="#1971c2" stroke-width="2.5" fill="none" stroke-dasharray="8 10"></path></g></g><mask></mask><g stroke-linecap="round"><g stroke-opacity="0.4" fill-opacity="0.4" transform="translate(586.392395158162 650.0407596567146) rotate(0 255.54541015625 0)"><path d="M0.65 -0.64 C85.93 -0.79, 425.44 -0.47, 510.71 -0.23" stroke="#1971c2" stroke-width="2.5" fill="none" stroke-dasharray="8 10"></path></g></g><mask></mask><g stroke-linecap="round"><g transform="translate(1098.272033830037 652.4069705942146) rotate(0 2.842170943040401e-14 -261.855224609375)"><path d="M-0.38 -0.23 C-0.3 -87.26, 1.17 -435.57, 1.17 -522.88 M1.61 -1.39 C1.59 -88.7, 1.32 -437.63, 0.84 -524.56" stroke="#1971c2" stroke-width="2" fill="none"></path></g></g><mask></mask><g stroke-linecap="round"><g transform="translate(1095.905822892537 127.11906776218325) rotate(0 -249.63003540039062 0)"><path d="M1.17 0.83 C-82.04 0.81, -416.03 -0.29, -499.62 -0.38 M0.32 0.23 C-83.04 0.39, -417.69 1.31, -500.76 0.97" stroke="#1971c2" stroke-width="2" fill="none"></path></g></g><mask></mask><g stroke-linecap="round"><g stroke-opacity="0.4" fill-opacity="0.4" transform="translate(594.279602189412 129.485217664527) rotate(0 0 259.4890747070312)"><path d="M-0.36 -0.38 C-0.74 86.04, -1.24 432.69, -1.13 519.32" stroke="#1971c2" stroke-width="2.5" fill="none" stroke-dasharray="8 10"></path></g></g><mask></mask><g stroke-linecap="round"><g transform="translate(297.9950686596584 296.693957898902) rotate(0 250.41876220703125 0)"><path d="M-1.13 0.34 C82.45 0.48, 417.58 0.57, 501.12 0.46 M0.48 -0.52 C83.96 -0.72, 416.63 -1.65, 500.33 -1.42" stroke="#1971c2" stroke-width="2" fill="none"></path></g></g><mask></mask><g stroke-linecap="round"><g transform="translate(801.1987429760646 822.7704959848396) rotate(0 1.4210854715202004e-14 -261.4608154296875)"><path d="M0.29 0.46 C0.36 -86.81, -0.62 -436.1, -0.71 -523.26 M-1.02 -0.35 C-0.46 -87.47, 1.66 -434.53, 1.63 -521.89" stroke="#1971c2" stroke-width="2" fill="none"></path></g></g><mask></mask><g stroke-linecap="round"><g transform="translate(296.931945939412 299.06010780124575) rotate(0 0 259.48904418945307)"><path d="M-0.71 -0.33 C-0.8 86.16, -0.51 432.84, -0.26 519.44 M1.12 -1.56 C0.82 84.54, -1.22 430.51, -1.35 517.56" stroke="#1971c2" stroke-width="2" fill="none"></path></g></g><mask></mask><g stroke-linecap="round"><g transform="translate(798.558166642537 821.9817996957771) rotate(0 -250.4187469482422 0)"><path d="M-0.26 0.46 C-83.49 0.57, -416.52 0.49, -500.09 0.3 M1.8 -0.34 C-81.46 -0.58, -417.14 -1.78, -500.65 -1.67" stroke="#1971c2" stroke-width="2" fill="none"></path></g></g><mask></mask><g stroke-linecap="round"><g transform="translate(1485.8060989471473 299.8277701183695) rotate(0 148.35337579586917 -85.65186145093475)"><path d="M-0.94 0.12 C48.49 -28.34, 247.73 -142.38, 297.31 -170.8 M0.77 -0.86 C50.03 -29.69, 247.53 -144.09, 296.68 -172.65" stroke="#2f9e44" stroke-width="2" fill="none"></path></g></g><mask></mask><g stroke-linecap="round"><g transform="translate(1991.3759231658973 299.8277701183695) rotate(0 148.35337579586917 -85.65186145093475)"><path d="M0.6 0.51 C50.18 -27.91, 247.34 -141.71, 296.53 -170.4 M-0.54 -0.27 C48.95 -29.03, 245.71 -143.68, 295.49 -172.05" stroke="#2f9e44" stroke-width="2" fill="none"></path></g></g><mask></mask><g stroke-linecap="round"><g transform="translate(1991.3759231658973 821.9607046886821) rotate(0 148.35337579586917 -85.65186145093469)"><path d="M-0.18 0.9 C49.01 -27.79, 246.25 -142.99, 295.72 -171.64 M-1.73 0.33 C47.77 -28.23, 248.31 -141.97, 297.91 -170.28" stroke="#2f9e44" stroke-width="2" fill="none"></path></g></g><mask></mask><g stroke-linecap="round"><g stroke-opacity="0.4" fill-opacity="0.4" transform="translate(1488.9610061737098 821.1720083996196) rotate(0 144.01540887692386 -85.25751330640344)"><path d="M-0.99 -0.34 C47.03 -28.86, 239.95 -141.86, 287.96 -170.22" stroke="#2f9e44" stroke-width="2.5" fill="none" stroke-dasharray="8 10"></path></g></g><mask></mask><g stroke-linecap="round"><g stroke-opacity="0.4" fill-opacity="0.4" transform="translate(1777.632698068241 651.5971182629008) rotate(0 255.54541015625 0)"><path d="M-0.07 0.29 C85.13 0.35, 424.83 -0.12, 510.16 0.02" stroke="#2f9e44" stroke-width="2.5" fill="none" stroke-dasharray="8 10"></path></g></g><mask></mask><g stroke-linecap="round"><g transform="translate(2289.512336740116 653.9633292004008) rotate(0 0 -261.855224609375)"><path d="M-0.93 0.02 C-0.78 -87.12, 0.55 -435.21, 0.85 -522.56 M0.78 -1.02 C0.86 -88.49, 0.38 -437.09, 0.35 -524.07" stroke="#2f9e44" stroke-width="2" fill="none"></path></g></g><mask></mask><g stroke-linecap="round"><g transform="translate(2287.146125802616 128.67542636836947) rotate(0 -249.63003540039062 0)"><path d="M0.85 1.15 C-82.06 1.09, -414.9 0.03, -498.38 -0.35 M-0.17 0.72 C-83.07 0.83, -415.97 1.19, -498.87 1.01" stroke="#2f9e44" stroke-width="2" fill="none"></path></g></g><mask></mask><g stroke-linecap="round"><g stroke-opacity="0.4" fill-opacity="0.4" transform="translate(1785.519905099491 131.04157627071322) rotate(0 0 259.4890747070312)"><path d="M0.88 -0.35 C0.6 85.77, -0.71 431.21, -0.81 517.86" stroke="#2f9e44" stroke-width="2.5" fill="none" stroke-dasharray="8 10"></path></g></g><mask></mask><g stroke-linecap="round"><g transform="translate(1488.172248849491 298.2503165050882) rotate(0 250.41876220703125 0)"><path d="M-0.81 -1.12 C82.57 -0.97, 417.53 0.48, 501.14 0.56 M0.97 0.9 C84.14 0.73, 417.16 -1.18, 500.34 -1.27" stroke="#2f9e44" stroke-width="2" fill="none"></path></g></g><mask></mask><g stroke-linecap="round"><g transform="translate(1991.3759231658973 824.3268545910258) rotate(0 0 -261.4608154296875)"><path d="M0.3 0.56 C0.43 -86.51, 0.07 -436.35, -0.02 -523.55 M-1.01 -0.19 C-0.96 -87.02, -0.96 -435.51, -0.97 -522.35" stroke="#2f9e44" stroke-width="2" fill="none"></path></g></g><mask></mask><g stroke-linecap="round"><g transform="translate(1488.172248849491 300.616466407432) rotate(0 0 259.48904418945307)"><path d="M-0.02 -0.63 C-0.1 85.81, -0.39 432.46, -0.22 519.24 M-1.48 1.65 C-1.77 87.66, -1.65 431.15, -1.28 517.25" stroke="#2f9e44" stroke-width="2" fill="none"></path></g></g><mask></mask><g stroke-linecap="round"><g transform="translate(1989.798469552616 823.5381583019633) rotate(0 -250.4187469482422 0)"><path d="M-0.22 0.26 C-83.52 0.54, -416.39 1.06, -499.83 1.05 M-1.79 -0.65 C-85.16 -0.63, -416.94 -0.9, -500.25 -0.52" stroke="#2f9e44" stroke-width="2" fill="none"></path></g></g><mask></mask><g stroke-linecap="round"><g transform="translate(428.6272643423315 585.2593435896475) rotate(0 38.79751297130229 -22.3997545578693)"><path d="M-0.75 0.7 C12.35 -6.79, 65.02 -37.44, 77.93 -44.84 M1.06 0.02 C14.09 -7.28, 64.14 -35.75, 77.15 -43.32" stroke="#e03131" stroke-width="4" fill="none"></path></g><g transform="translate(428.6272643423315 585.2593435896475) rotate(0 38.79751297130229 -22.3997545578693)"><path d="M61.04 -24.2 C66.14 -28.24, 68.88 -34.95, 77.15 -43.32 M61.04 -24.2 C67.75 -31.76, 73.08 -39.95, 77.15 -43.32" stroke="#e03131" stroke-width="4" fill="none"></path></g><g transform="translate(428.6272643423315 585.2593435896475) rotate(0 38.79751297130229 -22.3997545578693)"><path d="M52.52 -39.03 C59.73 -39.38, 64.56 -42.44, 77.15 -43.32 M52.52 -39.03 C62.57 -40.8, 71.26 -43.14, 77.15 -43.32" stroke="#e03131" stroke-width="4" fill="none"></path></g></g><mask></mask><g stroke-linecap="round"><g transform="translate(429.08979772034286 304.11048635848806) rotate(0 0 141.24631831254004)"><path d="M0.33 -0.04 C0.31 47.12, -0.79 236.39, -0.87 283.63 M-0.95 -1.1 C-0.53 45.69, 1.39 235, 1.38 282.1" stroke="#e03131" stroke-width="4" fill="none"></path></g><g transform="translate(429.08979772034286 304.11048635848806) rotate(0 0 141.24631831254004)"><path d="M-7.3 258.66 C-5.16 262.75, -1.15 269.49, 1.38 282.1 M-7.3 258.66 C-4.69 266.84, -0.59 275.9, 1.38 282.1" stroke="#e03131" stroke-width="4" fill="none"></path></g><g transform="translate(429.08979772034286 304.11048635848806) rotate(0 0 141.24631831254004)"><path d="M9.8 258.56 C7.87 262.73, 7.82 269.48, 1.38 282.1 M9.8 258.56 C6.03 266.8, 3.75 275.9, 1.38 282.1" stroke="#e03131" stroke-width="4" fill="none"></path></g></g><mask></mask><g stroke-linecap="round"><g transform="translate(298.8764449040831 297.6625959298816) rotate(0 63.804809453546 0)"><path d="M-0.87 1.13 C20.31 1.29, 105.95 1.04, 127.43 0.87 M0.87 0.68 C21.85 0.51, 105.29 -0.93, 126.39 -0.79" stroke="#e03131" stroke-width="4" fill="none"></path></g><g transform="translate(298.8764449040831 297.6625959298816) rotate(0 63.804809453546 0)"><path d="M102.95 7.92 C112.52 4.94, 119.77 3.03, 126.39 -0.79 M102.95 7.92 C110.45 5.12, 118.09 3.36, 126.39 -0.79" stroke="#e03131" stroke-width="4" fill="none"></path></g><g transform="translate(298.8764449040831 297.6625959298816) rotate(0 63.804809453546 0)"><path d="M102.83 -9.18 C112.44 -6.56, 119.72 -2.87, 126.39 -0.79 M102.83 -9.18 C110.25 -6.67, 117.92 -3.12, 126.39 -0.79" stroke="#e03131" stroke-width="4" fill="none"></path></g></g><mask></mask><g transform="translate(441.41825045595033 301.6809852843668) rotate(0 80.7978515625 20.69999999999999)"><text x="0" y="30.420703125" font-family="Helvetica, Segoe UI Emoji" font-size="36px" fill="#e03131" text-anchor="start" style="white-space: pre;" direction="ltr" dominant-baseline="alphabetic">blockIdx.x</text></g><g stroke-linecap="round"><g transform="translate(272.5544518846036 816.7954184620761) rotate(0 -41.18401420318355 -258.0573537052843)"><path d="M-0.36 0.38 C-14.3 -43.65, -82.93 -177.39, -83 -263.55 C-83.06 -349.71, -14.2 -474.51, -0.73 -516.59 M1.65 -0.47 C-11.95 -44.41, -80.18 -176.53, -80.61 -262.37 C-81.05 -348.21, -14.04 -473.44, -0.96 -515.52" stroke="#1e1e1e" stroke-width="4" fill="none"></path></g></g><mask></mask><g transform="translate(10 541.590911484819) rotate(0 76.3330078125 20.700000000000045)"><text x="0" y="30.420703125" font-family="Helvetica, Segoe UI Emoji" font-size="36px" fill="#1e1e1e" text-anchor="start" style="white-space: pre;" direction="ltr" dominant-baseline="alphabetic">gridDim.y</text></g><g stroke-linecap="round"><g transform="translate(296.21337890896234 278.7743096973014) rotate(0 131.00022585088874 -77.54863367025769)"><path d="M1.02 -0.47 C20.48 -21.66, 72.62 -102, 116.1 -127.81 C159.59 -153.62, 237.48 -150.83, 261.93 -155.34 M0.1 -1.77 C19.41 -22.68, 71.42 -100.82, 114.92 -126.21 C158.43 -151.61, 236.37 -149.58, 261.12 -154.15" stroke="#1e1e1e" stroke-width="4" fill="none"></path></g></g><mask></mask><g transform="translate(244.33997525404743 76.91813855372811) rotate(0 76.0078125 20.69999999999999)"><text x="0" y="30.420703125" font-family="Helvetica, Segoe UI Emoji" font-size="36px" fill="#1e1e1e" text-anchor="start" style="white-space: pre;" direction="ltr" dominant-baseline="alphabetic">gridDim.z</text></g><g stroke-linecap="round"><g transform="translate(607.3184539149615 104.36009809215932) rotate(0 236.58910072088628 -10.515069259564996)"><path d="M0.14 1.18 C40.02 -3.26, 159.5 -26.23, 238.2 -25.5 C316.91 -24.76, 433.05 0.44, 472.35 5.58 M-1.25 0.76 C38.56 -3.51, 157.84 -28.25, 237.18 -27.2 C316.53 -26.15, 435.23 1.45, 474.81 7.07" stroke="#1e1e1e" stroke-width="4" fill="none"></path></g></g><mask></mask><g transform="translate(786.297740152724 10) rotate(0 76.271484375 20.69999999999999)"><text x="0" y="30.420703125" font-family="Helvetica, Segoe UI Emoji" font-size="36px" fill="#1e1e1e" text-anchor="start" style="white-space: pre;" direction="ltr" dominant-baseline="alphabetic">gridDim.x</text></g><g stroke-linecap="round"><g stroke-opacity="0.4" fill-opacity="0.4" transform="translate(511.4956338848199 537.0699729819027) rotate(0 7.105427357601002e-15 -147.2606287229596)"><path d="M0.39 0.13 C0.28 -49.21, -0.81 -246.02, -0.84 -295.18" stroke="#e03131" stroke-width="4.5" fill="none" stroke-dasharray="1.5 10"></path></g></g><mask></mask><g stroke-linecap="round"><g stroke-opacity="0.4" fill-opacity="0.4" transform="translate(427.1554615024588 292.7512114299933) rotate(0 43.857862093292376 -25.321348485643853)"><path d="M-0.84 -0.66 C13.74 -9.16, 73.04 -42.73, 87.91 -50.92" stroke="#e03131" stroke-width="4.5" fill="none" stroke-dasharray="1.5 10"></path></g></g><mask></mask><g stroke-linecap="round"><g stroke-opacity="0.4" fill-opacity="0.4" transform="translate(512.1649797771644 244.55680501195593) rotate(0 -61.24701391132868 0)"><path d="M0.19 -0.27 C-19.98 -0.02, -101.57 0.89, -121.88 0.86" stroke="#e03131" stroke-width="4.5" fill="none" stroke-dasharray="1.5 10"></path></g></g><mask></mask><g stroke-linecap="round"><g stroke-opacity="0.4" fill-opacity="0.4" transform="translate(298.6371134529446 294.0899550136214) rotate(0 45.68221805354764 -26.374640890394858)"><path d="M0.62 0.86 C15.95 -7.96, 77.23 -44.17, 92.18 -53.19" stroke="#e03131" stroke-width="4.5" fill="none" stroke-dasharray="1.5 10"></path></g></g><mask></mask><g stroke-linecap="round"><g stroke-opacity="0.4" fill-opacity="0.4" transform="translate(297.96771576166094 299.44487754919464) rotate(0 0 142.57502618026132)"><path d="M0.82 -0.44 C0.55 46.86, -0.69 236.97, -1.02 284.64" stroke="#e03131" stroke-width="4.5" fill="none" stroke-dasharray="1.5 10"></path></g></g><mask></mask><g stroke-linecap="round"><g stroke-opacity="0.4" fill-opacity="0.4" transform="translate(299.97580523763355 583.9255840173729) rotate(0 65.26324466221294 0)"><path d="M-1.02 -0.51 C20.41 -0.36, 107.54 0.24, 129.4 0.44" stroke="#e03131" stroke-width="4.5" fill="none" stroke-dasharray="1.5 10"></path></g></g><mask></mask><g stroke-linecap="round"><g stroke-opacity="0.4" fill-opacity="0.4" transform="translate(302.6532924048897 582.5869440316229) rotate(0 43.85786209329237 -25.321348485643853)"><path d="M-1.13 0.44 C13.59 -7.8, 72.33 -41.56, 87.28 -49.95" stroke="#e03131" stroke-width="4.5" fill="none" stroke-dasharray="1.5 10"></path></g></g><mask></mask><g stroke-linecap="round"><g stroke-opacity="0.4" fill-opacity="0.4" transform="translate(393.01778501410774 537.0699729819027) rotate(0 58.56955264354201 0)"><path d="M-0.44 0.7 C19.42 0.75, 98.37 0.72, 117.99 0.75" stroke="#e03131" stroke-width="4.5" fill="none" stroke-dasharray="1.5 10"></path></g></g><mask></mask><g stroke-linecap="round"><g stroke-opacity="0.4" fill-opacity="0.4" transform="translate(391.67904143047963 533.723139922302) rotate(0 1.4210854715202004e-14 -143.91379566335894)"><path d="M0.85 0.75 C0.96 -47.18, 0.26 -238.84, 0.18 -286.92" stroke="#e03131" stroke-width="4.5" fill="none" stroke-dasharray="1.5 10"></path></g></g><mask></mask><g transform="translate(327.6259782284669 605.5733442178044) rotate(0 80.859375 20.700000000000045)"><text x="0" y="30.420703125" font-family="Helvetica, Segoe UI Emoji" font-size="36px" fill="#e03131" text-anchor="start" style="white-space: pre;" direction="ltr" dominant-baseline="alphabetic">blockIdx.y</text></g><g transform="translate(513.0404882911923 543.3223114679591) rotate(0 80.40234375 20.700000000000045)"><text x="0" y="30.420703125" font-family="Helvetica, Segoe UI Emoji" font-size="36px" fill="#e03131" text-anchor="start" style="white-space: pre;" direction="ltr" dominant-baseline="alphabetic">blockIdx.z</text></g><g stroke-opacity="0.4" fill-opacity="0.4" stroke-linecap="round" transform="translate(413.71832577015084 284.3305213731402) rotate(0 13.94335839110687 13.94335839110687)"><path d="M11.56 0.12 C14.42 -0.45, 18.57 0.58, 21.14 2.12 C23.72 3.66, 25.96 6.66, 27.01 9.36 C28.06 12.07, 28.44 15.54, 27.46 18.35 C26.49 21.16, 23.79 24.68, 21.15 26.21 C18.5 27.73, 14.63 28.02, 11.59 27.5 C8.54 26.97, 4.78 25.28, 2.88 23.06 C0.97 20.84, 0.17 17.23, 0.16 14.18 C0.15 11.12, 0.85 7.1, 2.8 4.72 C4.74 2.34, 10.25 0.58, 11.83 -0.12 C13.42 -0.83, 12.33 0.24, 12.31 0.48 M11.72 0.27 C14.49 -0.48, 19.35 0.14, 21.89 1.71 C24.42 3.29, 26.02 6.82, 26.95 9.73 C27.89 12.63, 28.68 16.49, 27.5 19.15 C26.33 21.81, 22.56 24.34, 19.9 25.69 C17.24 27.05, 14.43 27.8, 11.54 27.3 C8.65 26.8, 4.39 24.92, 2.57 22.71 C0.76 20.49, 0.45 17.12, 0.65 14.01 C0.86 10.91, 1.9 6.45, 3.82 4.09 C5.73 1.74, 10.88 0.61, 12.15 -0.13 C13.43 -0.87, 11.34 -0.53, 11.44 -0.33" stroke="none" stroke-width="0" fill="#e03131"></path><path d="M16.65 0.67 C19.42 1.01, 23.13 2.84, 25.07 5.17 C27.01 7.51, 28.46 11.63, 28.28 14.68 C28.1 17.73, 26.03 21.24, 23.98 23.49 C21.92 25.74, 18.82 27.88, 15.96 28.19 C13.1 28.49, 9.47 27.09, 6.83 25.31 C4.19 23.54, 1.12 20.27, 0.12 17.54 C-0.88 14.81, -0.51 11.6, 0.81 8.93 C2.13 6.26, 5.29 2.99, 8.07 1.51 C10.84 0.04, 15.73 0.25, 17.48 0.09 C19.23 -0.06, 18.59 0.23, 18.57 0.57 M11.81 -0.41 C14.64 -1.1, 18.5 0.19, 21.14 1.72 C23.78 3.24, 26.76 5.77, 27.62 8.74 C28.48 11.72, 27.46 16.74, 26.3 19.58 C25.13 22.42, 23.22 24.39, 20.63 25.78 C18.05 27.17, 13.83 28.51, 10.79 27.91 C7.76 27.3, 4.15 24.57, 2.42 22.15 C0.69 19.73, 0.19 16.21, 0.4 13.38 C0.61 10.55, 1.68 7.4, 3.69 5.18 C5.69 2.95, 11.13 0.82, 12.44 0.06 C13.76 -0.71, 11.68 0.36, 11.59 0.57" stroke="#e03131" stroke-width="4" fill="none"></path></g><g stroke-opacity="0.4" fill-opacity="0.4" stroke-linecap="round" transform="translate(495.8456498925974 528.5654393143883) rotate(0 13.94335839110687 13.943358391106813)"><path d="M11.16 0.7 C13.86 -0.03, 17.62 0.6, 20.28 1.86 C22.94 3.12, 25.95 5.54, 27.13 8.27 C28.31 11.01, 28.31 15.42, 27.37 18.27 C26.42 21.13, 24.05 23.83, 21.45 25.42 C18.85 27.01, 14.69 28.13, 11.77 27.81 C8.85 27.5, 5.94 25.78, 3.92 23.53 C1.9 21.28, -0.12 17.34, -0.33 14.3 C-0.55 11.27, 0.77 7.62, 2.61 5.31 C4.45 3, 9.32 1.27, 10.72 0.44 C12.12 -0.39, 10.95 0.08, 11.02 0.35 M17.57 -0.08 C20.38 0.36, 22.97 3.13, 24.79 5.58 C26.62 8.02, 28.71 11.7, 28.52 14.58 C28.32 17.46, 25.66 20.69, 23.61 22.85 C21.56 25, 19.15 27, 16.21 27.5 C13.28 28.01, 8.51 27.34, 6.02 25.87 C3.53 24.39, 2.05 21.62, 1.26 18.65 C0.48 15.68, 0.23 10.94, 1.3 8.04 C2.37 5.14, 5.17 2.68, 7.69 1.27 C10.21 -0.13, 14.77 -0.2, 16.41 -0.39 C18.04 -0.57, 17.4 -0.11, 17.52 0.16" stroke="none" stroke-width="0" fill="#e03131"></path><path d="M16.89 -0.06 C19.85 0.32, 23.58 2.98, 25.38 5.42 C27.18 7.85, 27.84 11.48, 27.71 14.53 C27.58 17.58, 26.48 21.57, 24.58 23.72 C22.68 25.88, 19.39 27.18, 16.3 27.44 C13.2 27.69, 8.67 26.72, 6.01 25.25 C3.36 23.79, 1.12 21.39, 0.37 18.63 C-0.39 15.86, 0.35 11.56, 1.49 8.66 C2.64 5.75, 4.47 2.6, 7.24 1.18 C10.01 -0.24, 16.23 0.11, 18.1 0.14 C19.97 0.16, 18.64 1.07, 18.46 1.32 M14.63 -0.24 C17.55 -0.3, 21.82 0.88, 23.89 3.06 C25.97 5.24, 26.82 9.82, 27.1 12.83 C27.38 15.84, 27.17 18.67, 25.58 21.12 C24 23.57, 20.53 26.68, 17.58 27.53 C14.62 28.37, 10.47 27.47, 7.87 26.21 C5.26 24.96, 3.17 22.49, 1.96 20 C0.75 17.5, -0.08 14.12, 0.63 11.24 C1.33 8.37, 3.9 4.59, 6.2 2.74 C8.49 0.89, 13.01 0.58, 14.41 0.13 C15.8 -0.31, 14.55 -0.21, 14.55 0.07" stroke="#e03131" stroke-width="4" fill="none"></path></g><g stroke-opacity="0.4" fill-opacity="0.4" stroke-linecap="round" transform="translate(414.2550893766738 575.8020490055877) rotate(0 13.94335839110687 13.943358391106926)"><path d="M13.14 0.38 C15.96 -0.06, 20.21 0.78, 22.61 2.55 C25.02 4.32, 26.97 8.08, 27.59 10.99 C28.21 13.89, 27.74 17.35, 26.31 19.98 C24.87 22.61, 21.69 25.53, 18.99 26.77 C16.29 28, 12.96 28.29, 10.12 27.37 C7.28 26.44, 3.65 23.77, 1.95 21.23 C0.25 18.68, -0.43 14.96, -0.09 12.08 C0.25 9.21, 1.77 6, 3.97 3.96 C6.16 1.93, 11.46 0.4, 13.08 -0.15 C14.71 -0.69, 13.56 0.49, 13.72 0.71 M14.33 0.07 C17.2 0.08, 21.9 1.72, 24.05 3.64 C26.2 5.56, 26.86 8.66, 27.22 11.59 C27.58 14.52, 27.8 18.56, 26.22 21.2 C24.64 23.85, 20.57 26.43, 17.73 27.47 C14.9 28.5, 11.87 28.68, 9.21 27.41 C6.54 26.14, 3.22 22.65, 1.76 19.85 C0.3 17.05, -0.07 13.57, 0.45 10.62 C0.96 7.66, 2.4 3.96, 4.85 2.11 C7.3 0.27, 13.44 -0.06, 15.13 -0.44 C16.82 -0.83, 14.96 -0.4, 14.98 -0.19" stroke="none" stroke-width="0" fill="#e03131"></path><path d="M16.56 0.18 C19.36 0.53, 22.38 2.53, 24.32 4.85 C26.26 7.17, 28.05 11.2, 28.2 14.13 C28.36 17.06, 27.26 20.24, 25.24 22.41 C23.22 24.58, 19.15 26.46, 16.09 27.15 C13.03 27.84, 9.32 27.93, 6.86 26.56 C4.41 25.19, 2.42 21.85, 1.37 18.91 C0.32 15.98, -0.41 11.85, 0.55 8.96 C1.51 6.07, 4.49 3, 7.14 1.59 C9.79 0.18, 14.91 0.71, 16.44 0.5 C17.98 0.29, 16.4 0.14, 16.37 0.33 M11.74 -0.37 C14.37 -0.94, 17.47 0.91, 19.99 2.39 C22.5 3.88, 25.74 5.84, 26.84 8.56 C27.95 11.28, 27.68 15.92, 26.62 18.71 C25.56 21.5, 22.86 23.83, 20.46 25.27 C18.06 26.72, 15 27.67, 12.21 27.37 C9.43 27.07, 5.66 25.69, 3.74 23.48 C1.82 21.27, 0.86 17.14, 0.72 14.12 C0.58 11.09, 1.15 7.67, 2.89 5.32 C4.64 2.98, 9.83 0.78, 11.21 0.05 C12.59 -0.68, 11.22 0.74, 11.17 0.95" stroke="#e03131" stroke-width="4" fill="none"></path></g><g stroke-linecap="round"><g transform="translate(1797.5674372938229 104.36009809215932) rotate(0 236.58910072088634 -10.515069259564996)"><path d="M-0.71 0.76 C39 -3.8, 158.95 -27.21, 237.94 -26.63 C316.93 -26.05, 434.14 -1.13, 473.22 4.23 M1.12 0.12 C40.67 -4.34, 158.22 -26.08, 236.78 -25.27 C315.34 -24.45, 433.23 -0.34, 472.47 5.01" stroke="#1e1e1e" stroke-width="4" fill="none"></path></g></g><mask></mask><g transform="translate(1976.5467235315855 10) rotate(0 88.7783203125 20.69999999999999)"><text x="0" y="30.420703125" font-family="Helvetica, Segoe UI Emoji" font-size="36px" fill="#1e1e1e" text-anchor="start" style="white-space: pre;" direction="ltr" dominant-baseline="alphabetic">blockDim.x</text></g><g stroke-linecap="round"><g transform="translate(1466.2545759714699 816.7954184620761) rotate(0 -41.18401420318355 -258.0573537052843)"><path d="M-0.34 0.18 C-14.3 -43.63, -82.76 -177.56, -83.12 -263.68 C-83.48 -349.8, -15.89 -474.42, -2.51 -516.54 M1.68 -0.78 C-11.95 -44.37, -80.52 -176.79, -80.8 -262.57 C-81.08 -348.34, -12.95 -473.3, -0.02 -515.44" stroke="#1e1e1e" stroke-width="4" fill="none"></path></g></g><mask></mask><g transform="translate(1175.1616364950512 574.206416016456) rotate(0 88.83984375 20.700000000000045)"><text x="0" y="30.420703125" font-family="Helvetica, Segoe UI Emoji" font-size="36px" fill="#1e1e1e" text-anchor="start" style="white-space: pre;" direction="ltr" dominant-baseline="alphabetic">blockDim.y</text></g><g stroke-linecap="round"><g transform="translate(1489.9135029958286 278.7743096973014) rotate(0 131.00022585088874 -77.54863367025769)"><path d="M-1.07 -0.02 C18.38 -21.58, 73.58 -102.84, 117.57 -128.65 C161.56 -154.45, 238.85 -150.3, 262.88 -154.83 M0.57 -1.08 C19.87 -22.56, 73.49 -102.1, 117.16 -127.48 C160.83 -152.86, 238.46 -148.76, 262.57 -153.37" stroke="#1e1e1e" stroke-width="4" fill="none"></path></g></g><mask></mask><g transform="translate(1438.0400993409137 76.91813855372811) rotate(0 88.3828125 20.69999999999999)"><text x="0" y="30.420703125" font-family="Helvetica, Segoe UI Emoji" font-size="36px" fill="#1e1e1e" text-anchor="start" style="white-space: pre;" direction="ltr" dominant-baseline="alphabetic">blockDim.z</text></g><g stroke-linecap="round"><g transform="translate(1718.4588632750592 543.3357619098553) rotate(0 49.50003218313509 -28.57885690582816)"><path d="M-1.12 -0.37 C15.57 -9.62, 82.68 -46.8, 99.49 -56.37 M0.5 -1.61 C17.12 -11.12, 82.33 -48.88, 98.79 -58.07" stroke="#f08c00" stroke-width="2" fill="none"></path></g></g><mask></mask><g stroke-linecap="round"><g transform="translate(1887.1488066982874 543.3357619098553) rotate(0 49.50003218313509 -28.57885690582816)"><path d="M0.49 0.79 C17.29 -8.78, 83.22 -48.17, 99.69 -57.78 M-0.72 0.16 C16.08 -9.23, 82.53 -47.3, 99.1 -56.57" stroke="#f08c00" stroke-width="2" fill="none"></path></g></g><mask></mask><g stroke-linecap="round"><g transform="translate(1887.1488066982874 717.552202394959) rotate(0 49.50003218313509 -28.57885690582816)"><path d="M0.69 -0.62 C17.16 -10.23, 82.77 -47.3, 99.32 -56.88 M-0.41 1.67 C15.89 -8.4, 81.85 -49.03, 98.54 -58.86" stroke="#f08c00" stroke-width="2" fill="none"></path></g></g><mask></mask><g stroke-linecap="round"><g stroke-opacity="0.4" fill-opacity="0.4" transform="translate(1719.5115390797846 717.2890436263639) rotate(0 48.0526131342242 -28.44727752153085)"><path d="M0.32 0.28 C16.38 -9.26, 81.07 -48.2, 97.05 -57.85" stroke="#f08c00" stroke-width="2.5" fill="none" stroke-dasharray="8 10"></path></g></g><mask></mask><g stroke-linecap="round"><g stroke-opacity="0.4" fill-opacity="0.4" transform="translate(1815.8306013355777 660.7081773387705) rotate(0 85.26604776686884 0)"><path d="M0.95 -0.96 C29.34 -1.12, 142.43 -0.88, 170.68 -0.72" stroke="#f08c00" stroke-width="2.5" fill="none" stroke-dasharray="8 10"></path></g></g><mask></mask><g stroke-linecap="round"><g transform="translate(1986.6258963682567 661.4976943749012) rotate(0 0 -87.37139937631974)"><path d="M0.15 -0.72 C-0.03 -29.68, 0.02 -145.9, -0.1 -174.73 M-1.23 1.52 C-1.66 -27.15, -1.04 -143.68, -1.1 -173.19" stroke="#f08c00" stroke-width="2" fill="none"></path></g></g><mask></mask><g stroke-linecap="round"><g transform="translate(1985.836379332126 486.2285577198993) rotate(0 -83.29230608947523 0)"><path d="M-0.1 0.01 C-27.98 0.3, -139.21 1.04, -167.13 1.01 M-1.61 -1.03 C-29.71 -1, -141.09 -0.93, -168.37 -0.59" stroke="#f08c00" stroke-width="2" fill="none"></path></g></g><mask></mask><g stroke-linecap="round"><g stroke-opacity="0.4" fill-opacity="0.4" transform="translate(1818.4622704822182 487.0180543908566) rotate(0 0 86.58190270536232)"><path d="M-0.55 1.01 C-0.71 29.83, -1.06 144.36, -1.05 172.95" stroke="#f08c00" stroke-width="2.5" fill="none" stroke-dasharray="8 10"></path></g></g><mask></mask><g stroke-linecap="round"><g transform="translate(1719.248359946017 542.8094240074926) rotate(0 83.55547504065669 0)"><path d="M-1.05 -0.21 C26.8 -0.49, 138.64 -0.74, 166.59 -0.64 M0.6 -1.37 C28.3 -0.97, 137.87 0.63, 165.36 0.57" stroke="#f08c00" stroke-width="2" fill="none"></path></g></g><mask></mask><g stroke-linecap="round"><g transform="translate(1887.1488066982874 718.3416990659163) rotate(0 0 -87.23979962684916)"><path d="M-0.52 -0.64 C-0.43 -29.61, -0.54 -145, -0.51 -174.08 M1.4 1.64 C1.38 -27.69, -1.28 -146.7, -1.73 -175.99" stroke="#f08c00" stroke-width="2" fill="none"></path></g></g><mask></mask><g stroke-linecap="round"><g transform="translate(1719.248359946017 543.5989206784499) rotate(0 0 86.58189252277566)"><path d="M-0.51 0.4 C-0.48 29.27, -0.31 143.76, -0.34 172.55 M1.42 -0.43 C1.31 28.64, -1.54 144.62, -1.47 173.77" stroke="#f08c00" stroke-width="2" fill="none"></path></g></g><mask></mask><g stroke-linecap="round"><g transform="translate(1886.6224687959248 718.0785402973216) rotate(0 -83.55546994936333 0)"><path d="M-0.34 -0.61 C-28.23 -0.68, -139.82 0.02, -167.82 -0.01 M1.68 1.68 C-25.77 1.78, -137.52 1.78, -165.47 1.53" stroke="#f08c00" stroke-width="2" fill="none"></path></g></g><mask></mask><g stroke-linecap="round"><g transform="translate(1637.276099993579 585.2593435896475) rotate(0 38.79751297130224 -22.3997545578693)"><path d="M-0.04 -0.63 C12.89 -8, 64.12 -38.09, 77.21 -45.38 M-1.52 1.65 C11.25 -5.46, 62.77 -36.12, 76.06 -44.14" stroke="#e03131" stroke-width="4" fill="none"></path></g><g transform="translate(1637.276099993579 585.2593435896475) rotate(0 38.79751297130224 -22.3997545578693)"><path d="M60.29 -24.74 C63.66 -30.59, 67.99 -33.65, 76.06 -44.14 M60.29 -24.74 C66.43 -31.71, 69.99 -38.01, 76.06 -44.14" stroke="#e03131" stroke-width="4" fill="none"></path></g><g transform="translate(1637.276099993579 585.2593435896475) rotate(0 38.79751297130224 -22.3997545578693)"><path d="M51.51 -39.42 C57.1 -41.32, 63.79 -40.44, 76.06 -44.14 M51.51 -39.42 C60.55 -41.46, 67.06 -42.83, 76.06 -44.14" stroke="#e03131" stroke-width="4" fill="none"></path></g></g><mask></mask><g stroke-linecap="round"><g transform="translate(1637.7386333715904 304.11048635848806) rotate(0 0 141.24631831254004)"><path d="M-0.38 -0.58 C-0.23 46.68, 0.91 235.74, 0.9 282.93 M1.61 1.74 C1.7 48.68, 0.94 234, 0.43 281.03" stroke="#e03131" stroke-width="4" fill="none"></path></g><g transform="translate(1637.7386333715904 304.11048635848806) rotate(0 0 141.24631831254004)"><path d="M-7.96 257.48 C-6.55 266, -2.38 270.76, 0.43 281.03 M-7.96 257.48 C-6.19 264.49, -3.42 271.48, 0.43 281.03" stroke="#e03131" stroke-width="4" fill="none"></path></g><g transform="translate(1637.7386333715904 304.11048635848806) rotate(0 0 141.24631831254004)"><path d="M9.14 257.6 C5.47 266.03, 4.57 270.75, 0.43 281.03 M9.14 257.6 C5.69 264.5, 3.23 271.45, 0.43 281.03" stroke="#e03131" stroke-width="4" fill="none"></path></g></g><mask></mask><g stroke-linecap="round"><g transform="translate(1507.5252805553305 297.6625959298816) rotate(0 63.804809453546 0)"><path d="M0.9 0.43 C22.17 0.54, 105.91 0.23, 127.18 0.07 M-0.08 -0.38 C21.02 -0.02, 104.61 1.49, 126 1.64" stroke="#e03131" stroke-width="4" fill="none"></path></g><g transform="translate(1507.5252805553305 297.6625959298816) rotate(0 63.804809453546 0)"><path d="M102.4 9.88 C109.48 6.77, 115.2 6.82, 126 1.64 M102.4 9.88 C107.75 7.39, 115.14 6.51, 126 1.64" stroke="#e03131" stroke-width="4" fill="none"></path></g><g transform="translate(1507.5252805553305 297.6625959298816) rotate(0 63.804809453546 0)"><path d="M102.62 -7.22 C109.57 -5.75, 115.22 -1.12, 126 1.64 M102.62 -7.22 C107.75 -5.33, 115.08 -1.83, 126 1.64" stroke="#e03131" stroke-width="4" fill="none"></path></g></g><mask></mask><g transform="translate(1650.0670861071976 301.6809852843668) rotate(0 89.05078125 20.69999999999999)"><text x="0" y="30.420703125" font-family="Helvetica, Segoe UI Emoji" font-size="36px" fill="#e03131" text-anchor="start" style="white-space: pre;" direction="ltr" dominant-baseline="alphabetic">threadIdx.z</text></g><g stroke-linecap="round"><g stroke-opacity="0.4" fill-opacity="0.4" transform="translate(1720.1444695360674 537.0699729819027) rotate(0 0 -147.2606287229596)"><path d="M0.92 -0.53 C0.8 -49.67, -0.86 -245.7, -1.17 -294.79" stroke="#e03131" stroke-width="4.5" fill="none" stroke-dasharray="1.5 10"></path></g></g><mask></mask><g stroke-linecap="round"><g stroke-opacity="0.4" fill-opacity="0.4" transform="translate(1635.804297153706 292.7512114299933) rotate(0 43.8578620932924 -25.321348485643853)"><path d="M-1.17 -0.27 C13.14 -8.7, 71.86 -42.92, 86.79 -51.16" stroke="#e03131" stroke-width="4.5" fill="none" stroke-dasharray="1.5 10"></path></g></g><mask></mask><g stroke-linecap="round"><g stroke-opacity="0.4" fill-opacity="0.4" transform="translate(1720.813815428412 244.55680501195593) rotate(0 -61.24701391132868 0)"><path d="M-0.93 -0.51 C-21.03 -0.31, -101.57 0.81, -121.81 0.97" stroke="#e03131" stroke-width="4.5" fill="none" stroke-dasharray="1.5 10"></path></g></g><mask></mask><g stroke-linecap="round"><g stroke-opacity="0.4" fill-opacity="0.4" transform="translate(1507.2859491041922 294.0899550136214) rotate(0 45.68221805354767 -26.374640890394858)"><path d="M0.68 0.97 C16.09 -7.67, 76.54 -43.2, 91.5 -52.3" stroke="#e03131" stroke-width="4.5" fill="none" stroke-dasharray="1.5 10"></path></g></g><mask></mask><g stroke-linecap="round"><g stroke-opacity="0.4" fill-opacity="0.4" transform="translate(1506.6165514129084 299.44487754919464) rotate(0 0 142.57502618026132)"><path d="M0.14 0.45 C-0.12 47.66, -0.7 236.69, -0.89 284.23" stroke="#e03131" stroke-width="4.5" fill="none" stroke-dasharray="1.5 10"></path></g></g><mask></mask><g stroke-linecap="round"><g stroke-opacity="0.4" fill-opacity="0.4" transform="translate(1508.624640888881 583.9255840173729) rotate(0 65.26324466221297 0)"><path d="M-0.89 -0.92 C20.68 -0.91, 107.77 0.33, 129.55 0.52" stroke="#e03131" stroke-width="4.5" fill="none" stroke-dasharray="1.5 10"></path></g></g><mask></mask><g stroke-linecap="round"><g stroke-opacity="0.4" fill-opacity="0.4" transform="translate(1511.3021280561372 582.5869440316229) rotate(0 43.8578620932924 -25.321348485643853)"><path d="M-0.98 0.52 C13.66 -7.74, 71.96 -41.89, 86.94 -50.47" stroke="#e03131" stroke-width="4.5" fill="none" stroke-dasharray="1.5 10"></path></g></g><mask></mask><g stroke-linecap="round"><g stroke-opacity="0.4" fill-opacity="0.4" transform="translate(1601.6666206653554 537.0699729819027) rotate(0 58.56955264354201 0)"><path d="M-0.78 0.17 C19.1 0.02, 98.75 -0.46, 118.27 -0.37" stroke="#e03131" stroke-width="4.5" fill="none" stroke-dasharray="1.5 10"></path></g></g><mask></mask><g stroke-linecap="round"><g stroke-opacity="0.4" fill-opacity="0.4" transform="translate(1600.327877081727 533.723139922302) rotate(0 0 -143.91379566335894)"><path d="M1.14 -0.37 C1.14 -48.25, -0.51 -239.32, -0.76 -287.11" stroke="#e03131" stroke-width="4.5" fill="none" stroke-dasharray="1.5 10"></path></g></g><mask></mask><g transform="translate(1536.2748138797144 605.5733442178044) rotate(0 89.05078124999994 20.700000000000045)"><text x="0" y="30.420703125" font-family="Helvetica, Segoe UI Emoji" font-size="36px" fill="#e03131" text-anchor="start" style="white-space: pre;" direction="ltr" dominant-baseline="alphabetic">threadIdx.y</text></g><g transform="translate(1720.7108071349203 542.3437189355667) rotate(0 89.05078125 20.700000000000045)"><text x="0" y="30.420703125" font-family="Helvetica, Segoe UI Emoji" font-size="36px" fill="#e03131" text-anchor="start" style="white-space: pre;" direction="ltr" dominant-baseline="alphabetic">threadIdx.z</text></g><g stroke-opacity="0.4" fill-opacity="0.4" stroke-linecap="round" transform="translate(1622.3671614213986 284.3305213731402) rotate(0 13.943358391106926 13.94335839110687)"><path d="M12.11 0.23 C14.86 -0.37, 19.17 0.16, 21.64 1.7 C24.11 3.23, 26.04 6.59, 26.93 9.45 C27.82 12.32, 27.99 16.13, 26.98 18.89 C25.97 21.65, 23.5 24.62, 20.85 26.01 C18.19 27.41, 13.99 27.89, 11.06 27.27 C8.12 26.66, 4.99 24.69, 3.23 22.32 C1.47 19.95, 0.41 15.98, 0.51 13.04 C0.61 10.1, 1.91 6.76, 3.83 4.65 C5.76 2.55, 10.58 1.16, 12.06 0.44 C13.54 -0.28, 12.71 0.19, 12.71 0.34 M12.58 0.55 C15.33 0.06, 18.97 0.82, 21.45 2.47 C23.94 4.11, 26.6 7.7, 27.49 10.42 C28.38 13.15, 28.04 16.06, 26.79 18.8 C25.54 21.53, 22.62 25.3, 20 26.84 C17.38 28.37, 13.99 28.8, 11.06 28 C8.13 27.19, 4.38 24.52, 2.42 22.03 C0.46 19.53, -0.8 16.06, -0.69 13.02 C-0.58 9.99, 0.89 5.86, 3.08 3.82 C5.26 1.79, 11.02 1.49, 12.42 0.8 C13.82 0.12, 11.47 -0.33, 11.48 -0.29" stroke="none" stroke-width="0" fill="#e03131"></path><path d="M10.37 0.65 C13.07 -0.19, 17.79 0.31, 20.48 1.56 C23.18 2.8, 25.34 5.38, 26.53 8.13 C27.72 10.89, 28.48 15.12, 27.62 18.08 C26.76 21.04, 23.88 24.29, 21.37 25.9 C18.86 27.5, 15.48 28.16, 12.56 27.68 C9.64 27.21, 5.89 25.28, 3.83 23.06 C1.77 20.84, 0.3 17.22, 0.2 14.35 C0.1 11.49, 1.37 8.17, 3.22 5.88 C5.07 3.59, 9.82 1.61, 11.29 0.63 C12.75 -0.36, 11.98 -0.22, 12.01 -0.01 M16.57 0.94 C19.34 1.29, 22.66 3.05, 24.48 5.47 C26.31 7.89, 27.55 12.46, 27.54 15.47 C27.54 18.47, 26.33 21.49, 24.44 23.49 C22.55 25.49, 19.32 27.07, 16.19 27.45 C13.06 27.83, 8.14 27.29, 5.66 25.77 C3.17 24.24, 1.91 21.24, 1.27 18.32 C0.64 15.39, 0.91 11, 1.87 8.23 C2.83 5.46, 4.41 2.95, 7.03 1.7 C9.65 0.45, 15.99 0.83, 17.6 0.71 C19.21 0.6, 16.93 0.84, 16.71 0.99" stroke="#e03131" stroke-width="4" fill="none"></path></g><g stroke-opacity="0.4" fill-opacity="0.4" stroke-linecap="round" transform="translate(1704.4944855438448 528.5654393143883) rotate(0 13.943358391106813 13.943358391106813)"><path d="M13.23 -0.44 C16 -0.88, 19.47 0.63, 21.87 2.41 C24.27 4.19, 26.79 7.34, 27.63 10.24 C28.47 13.14, 28.23 17.11, 26.9 19.8 C25.58 22.5, 22.44 25.17, 19.69 26.41 C16.94 27.64, 13.2 28.04, 10.4 27.21 C7.59 26.37, 4.55 23.83, 2.86 21.39 C1.17 18.95, 0.08 15.42, 0.26 12.56 C0.45 9.7, 1.74 6.33, 3.97 4.23 C6.21 2.14, 12.05 0.68, 13.69 0 C15.33 -0.68, 13.87 -0.11, 13.82 0.16 M13.54 0.32 C16.33 0.1, 20.48 1.97, 22.81 3.69 C25.14 5.41, 27.03 7.74, 27.53 10.64 C28.04 13.53, 27.2 18.28, 25.82 21.06 C24.43 23.84, 22.01 26.36, 19.23 27.31 C16.44 28.26, 12.09 27.81, 9.12 26.75 C6.15 25.69, 2.99 23.53, 1.4 20.95 C-0.19 18.36, -1.01 14.02, -0.41 11.24 C0.19 8.45, 2.77 6.23, 4.98 4.24 C7.19 2.25, 11.4 0.05, 12.85 -0.69 C14.31 -1.43, 13.51 -0.49, 13.71 -0.19" stroke="none" stroke-width="0" fill="#e03131"></path><path d="M15.67 0.11 C18.54 0.13, 21.68 1.76, 23.77 3.92 C25.86 6.09, 28 10, 28.21 13.09 C28.42 16.17, 26.81 20.06, 25.04 22.45 C23.27 24.84, 20.45 26.8, 17.58 27.4 C14.72 28, 10.56 27.43, 7.86 26.07 C5.15 24.71, 2.5 21.87, 1.35 19.25 C0.2 16.63, 0.17 13.12, 0.95 10.37 C1.74 7.62, 3.56 4.51, 6.04 2.74 C8.52 0.97, 14.16 0.07, 15.84 -0.26 C17.52 -0.59, 16.07 0.53, 16.13 0.78 M16.27 0.11 C19.14 0.56, 22.7 3.68, 24.7 6.08 C26.7 8.47, 28.26 11.65, 28.3 14.47 C28.34 17.3, 27.12 20.77, 24.94 23.02 C22.76 25.28, 18.17 27.47, 15.21 28 C12.25 28.52, 9.47 27.83, 7.16 26.17 C4.84 24.51, 2.47 20.91, 1.33 18.02 C0.19 15.14, -0.77 11.55, 0.32 8.86 C1.41 6.17, 5.16 3.25, 7.86 1.88 C10.55 0.52, 15.09 0.89, 16.49 0.66 C17.9 0.42, 16.24 0.41, 16.27 0.47" stroke="#e03131" stroke-width="4" fill="none"></path></g><g stroke-opacity="0.4" fill-opacity="0.4" stroke-linecap="round" transform="translate(1622.903925027921 575.8020490055877) rotate(0 13.943358391106813 13.943358391106926)"><path d="M14.42 -0.26 C17.25 -0.26, 21.34 1.37, 23.64 3.41 C25.94 5.46, 27.89 9.03, 28.24 12.01 C28.58 14.99, 27.37 18.77, 25.72 21.29 C24.06 23.82, 21.1 26.31, 18.3 27.16 C15.51 28.02, 11.71 27.58, 8.94 26.44 C6.17 25.3, 3.16 22.9, 1.68 20.34 C0.2 17.78, -0.6 14.03, 0.06 11.1 C0.72 8.17, 3.19 4.63, 5.64 2.77 C8.09 0.91, 13.14 0.3, 14.77 -0.06 C16.4 -0.43, 15.38 0.28, 15.42 0.59 M16.15 0.86 C18.97 0.96, 22.37 1.99, 24.26 4.19 C26.14 6.38, 27.33 10.88, 27.45 14.01 C27.58 17.14, 26.86 20.77, 25.01 22.96 C23.16 25.15, 19.4 26.65, 16.34 27.14 C13.29 27.63, 9.33 27.34, 6.69 25.89 C4.04 24.44, 1.41 21.02, 0.46 18.42 C-0.48 15.83, 0.12 13.14, 1.04 10.3 C1.95 7.47, 3.42 3.19, 5.93 1.42 C8.44 -0.36, 14.36 -0.12, 16.11 -0.34 C17.86 -0.57, 16.51 -0.28, 16.41 0.09" stroke="none" stroke-width="0" fill="#e03131"></path><path d="M15.79 -0.24 C18.65 0.02, 22.78 2.42, 24.77 4.77 C26.76 7.12, 27.68 10.9, 27.75 13.87 C27.82 16.83, 27.01 20.34, 25.18 22.57 C23.35 24.8, 19.74 26.7, 16.78 27.25 C13.82 27.81, 10 27.21, 7.43 25.89 C4.85 24.58, 2.48 22.03, 1.34 19.36 C0.2 16.69, -0.31 12.83, 0.56 9.87 C1.43 6.92, 3.99 3.19, 6.58 1.62 C9.16 0.05, 14.33 0.72, 16.07 0.48 C17.8 0.24, 16.93 0.08, 17 0.19 M16.12 0.84 C19.13 1.19, 23.01 2.8, 25.09 4.94 C27.17 7.08, 28.79 10.62, 28.61 13.66 C28.44 16.7, 25.97 20.77, 24.04 23.19 C22.11 25.6, 19.76 27.71, 17.02 28.16 C14.28 28.61, 10.43 27.43, 7.6 25.88 C4.78 24.34, 1.14 21.66, 0.07 18.91 C-0.99 16.17, 0.13 12.22, 1.21 9.43 C2.29 6.63, 4.12 3.72, 6.55 2.16 C8.98 0.6, 14.14 0.48, 15.78 0.08 C17.42 -0.31, 16.39 -0.55, 16.39 -0.19" stroke="#e03131" stroke-width="4" fill="none"></path></g></svg>