<svg version="1.1" xmlns="http://www.w3.org/2000/svg" viewBox="0 0 2299.512336740116 834.3268545910258" width="2299.512336740116" height="834.3268545910258" class="excalidraw-svg">
  <!-- svg-source:excalidraw -->
  
  <defs>
    <style class="style-fonts">
      
    </style>
    
  </defs>
  <rect x="0" y="0" width="2299.512336740116" height="834.3268545910258" fill="#ffffff"></rect><g stroke-linecap="round"><g transform="translate(509.81002762381195 543.3357619098553) rotate(0 49.5000321831351 -28.57885690582816)"><path d="M0 0 C28.55 -16.48, 57.1 -32.96, 99 -57.16 M0 0 C39.17 -22.61, 78.34 -45.23, 99 -57.16" stroke="#2f9e44" stroke-width="2" fill="none"></path></g></g><mask></mask><g stroke-linecap="round"><g transform="translate(678.49997104704 543.3357619098553) rotate(0 49.50003218313509 -28.57885690582816)"><path d="M0 0 C27.94 -16.13, 55.89 -32.27, 99 -57.16 M0 0 C38.55 -22.26, 77.1 -44.51, 99 -57.16" stroke="#2f9e44" stroke-width="2" fill="none"></path></g></g><mask></mask><g stroke-linecap="round"><g transform="translate(678.49997104704 717.552202394959) rotate(0 49.50003218313509 -28.57885690582816)"><path d="M0 0 C34.47 -19.9, 68.95 -39.81, 99 -57.16 M0 0 C37.6 -21.71, 75.2 -43.42, 99 -57.16" stroke="#2f9e44" stroke-width="2" fill="none"></path></g></g><mask></mask><g stroke-linecap="round"><g stroke-opacity="0.4" fill-opacity="0.4" transform="translate(510.8627034285373 717.2890436263639) rotate(0 48.05261313422426 -28.44727752153085)"><path d="M0 0 C33.13 -19.61, 66.27 -39.23, 96.11 -56.89" stroke="#2f9e44" stroke-width="2.5" fill="none" stroke-dasharray="8 10"></path></g></g><mask></mask><g stroke-linecap="round"><g stroke-opacity="0.4" fill-opacity="0.4" transform="translate(607.1817656843302 660.7081773387705) rotate(0 85.2660477668689 0)"><path d="M0 0 C67.49 0, 134.98 0, 170.53 0" stroke="#2f9e44" stroke-width="2.5" fill="none" stroke-dasharray="8 10"></path></g></g><mask></mask><g stroke-linecap="round"><g transform="translate(777.9770607170092 661.4976943749012) rotate(0 1.4210854715202004e-14 -87.37139937631974)"><path d="M0 0 C0 -69.36, 0 -138.71, 0 -174.74 M0 0 C0 -55.03, 0 -110.07, 0 -174.74" stroke="#2f9e44" stroke-width="2" fill="none"></path></g></g><mask></mask><g stroke-linecap="round"><g transform="translate(777.1875436808785 486.2285577198993) rotate(0 -83.29230608947529 0)"><path d="M0 0 C-53.59 0, -107.17 0, -166.58 0 M0 0 C-56.53 0, -113.05 0, -166.58 0" stroke="#2f9e44" stroke-width="2" fill="none"></path></g></g><mask></mask><g stroke-linecap="round"><g stroke-opacity="0.4" fill-opacity="0.4" transform="translate(609.8134348309704 487.0180543908566) rotate(0 0 86.58190270536232)"><path d="M0 0 C0 56.77, 0 113.53, 0 173.16" stroke="#2f9e44" stroke-width="2.5" fill="none" stroke-dasharray="8 10"></path></g></g><mask></mask><g stroke-linecap="round"><g transform="translate(510.59952429476937 542.8094240074926) rotate(0 83.55547504065663 0)"><path d="M0 0 C44.03 0, 88.06 0, 167.11 0 M0 0 C51.79 0, 103.59 0, 167.11 0" stroke="#2f9e44" stroke-width="2" fill="none"></path></g></g><mask></mask><g stroke-linecap="round"><g transform="translate(678.49997104704 718.3416990659163) rotate(0 7.105427357601002e-15 -87.23979962684916)"><path d="M0 0 C0 -65.17, 0 -130.33, 0 -174.48 M0 0 C0 -40.97, 0 -81.95, 0 -174.48" stroke="#2f9e44" stroke-width="2" fill="none"></path></g></g><mask></mask><g stroke-linecap="round"><g transform="translate(510.59952429476937 543.5989206784499) rotate(0 0 86.58189252277566)"><path d="M0 0 C0 35.61, 0 71.21, 0 173.16 M0 0 C0 59.41, 0 118.83, 0 173.16" stroke="#2f9e44" stroke-width="2" fill="none"></path></g></g><mask></mask><g stroke-linecap="round"><g transform="translate(677.9736331446774 718.0785402973216) rotate(0 -83.55546994936333 0)"><path d="M0 0 C-52.94 0, -105.88 0, -167.11 0 M0 0 C-62.07 0, -124.14 0, -167.11 0" stroke="#2f9e44" stroke-width="2" fill="none"></path></g></g><mask></mask><g stroke-linecap="round"><g transform="translate(294.56579603706825 298.27141151218325) rotate(0 148.35337579586917 -85.65186145093475)"><path d="M0 0 C112.56 -64.99, 225.13 -129.98, 296.71 -171.3 M0 0 C102.15 -58.97, 204.29 -117.95, 296.71 -171.3" stroke="#1971c2" stroke-width="2" fill="none"></path></g></g><mask></mask><g stroke-linecap="round"><g transform="translate(801.1987429760646 298.27141151218325) rotate(0 148.35337579586917 -85.65186145093475)"><path d="M0 0 C85.28 -49.24, 170.57 -98.48, 296.71 -171.3 M0 0 C109.02 -62.94, 218.04 -125.88, 296.71 -171.3" stroke="#1971c2" stroke-width="2" fill="none"></path></g></g><mask></mask><g stroke-linecap="round"><g transform="translate(800.1356202558183 820.4043460824959) rotate(0 148.35337579586917 -85.65186145093469)"><path d="M0 0 C78.02 -45.04, 156.03 -90.09, 296.71 -171.3 M0 0 C65.86 -38.02, 131.72 -76.05, 296.71 -171.3" stroke="#1971c2" stroke-width="2" fill="none"></path></g></g><mask></mask><g stroke-linecap="round"><g stroke-opacity="0.4" fill-opacity="0.4" transform="translate(297.72070326363075 819.6156497934334) rotate(0 144.01540887692386 -85.25751330640344)"><path d="M0 0 C104.28 -61.74, 208.57 -123.47, 288.03 -170.52" stroke="#1971c2" stroke-width="2.5" fill="none" stroke-dasharray="8 10"></path></g></g><mask></mask><g stroke-linecap="round"><g stroke-opacity="0.4" fill-opacity="0.4" transform="translate(586.392395158162 650.0407596567146) rotate(0 255.54541015625 0)"><path d="M0 0 C194.91 0, 389.82 0, 511.09 0" stroke="#1971c2" stroke-width="2.5" fill="none" stroke-dasharray="8 10"></path></g></g><mask></mask><g stroke-linecap="round"><g transform="translate(1098.272033830037 652.4069705942146) rotate(0 2.842170943040401e-14 -261.855224609375)"><path d="M0 0 C0 -190.7, 0 -381.39, 0 -523.71 M0 0 C0 -199.58, 0 -399.15, 0 -523.71" stroke="#1971c2" stroke-width="2" fill="none"></path></g></g><mask></mask><g stroke-linecap="round"><g transform="translate(1095.905822892537 127.11906776218325) rotate(0 -249.63003540039062 0)"><path d="M0 0 C-153.05 0, -306.09 0, -499.26 0 M0 0 C-128.21 0, -256.43 0, -499.26 0" stroke="#1971c2" stroke-width="2" fill="none"></path></g></g><mask></mask><g stroke-linecap="round"><g stroke-opacity="0.4" fill-opacity="0.4" transform="translate(594.279602189412 129.485217664527) rotate(0 0 259.4890747070312)"><path d="M0 0 C0 137.01, 0 274.03, 0 518.98" stroke="#1971c2" stroke-width="2.5" fill="none" stroke-dasharray="8 10"></path></g></g><mask></mask><g stroke-linecap="round"><g transform="translate(297.9950686596584 296.693957898902) rotate(0 250.41876220703125 0)"><path d="M0 0 C128.87 0, 257.74 0, 500.84 0 M0 0 C123.53 0, 247.06 0, 500.84 0" stroke="#1971c2" stroke-width="2" fill="none"></path></g></g><mask></mask><g stroke-linecap="round"><g transform="translate(801.1987429760646 822.7704959848396) rotate(0 1.4210854715202004e-14 -261.4608154296875)"><path d="M0 0 C0 -198.16, 0 -396.31, 0 -522.92 M0 0 C0 -206.11, 0 -412.22, 0 -522.92" stroke="#1971c2" stroke-width="2" fill="none"></path></g></g><mask></mask><g stroke-linecap="round"><g transform="translate(296.931945939412 299.06010780124575) rotate(0 0 259.48904418945307)"><path d="M0 0 C0 155.34, 0 310.68, 0 518.98 M0 0 C0 196.41, 0 392.82, 0 518.98" stroke="#1971c2" stroke-width="2" fill="none"></path></g></g><mask></mask><g stroke-linecap="round"><g transform="translate(798.558166642537 821.9817996957771) rotate(0 -250.4187469482422 0)"><path d="M0 0 C-186.83 0, -373.66 0, -500.84 0 M0 0 C-188.38 0, -376.76 0, -500.84 0" stroke="#1971c2" stroke-width="2" fill="none"></path></g></g><mask></mask><g stroke-linecap="round"><g transform="translate(1485.8060989471473 299.8277701183695) rotate(0 148.35337579586917 -85.65186145093475)"><path d="M0 0 C102.4 -59.12, 204.8 -118.24, 296.71 -171.3 M0 0 C111.68 -64.48, 223.36 -128.96, 296.71 -171.3" stroke="#2f9e44" stroke-width="2" fill="none"></path></g></g><mask></mask><g stroke-linecap="round"><g transform="translate(1991.3759231658973 299.8277701183695) rotate(0 148.35337579586917 -85.65186145093475)"><path d="M0 0 C76.34 -44.07, 152.67 -88.15, 296.71 -171.3 M0 0 C111.26 -64.24, 222.53 -128.48, 296.71 -171.3" stroke="#2f9e44" stroke-width="2" fill="none"></path></g></g><mask></mask><g stroke-linecap="round"><g transform="translate(1991.3759231658973 821.9607046886821) rotate(0 148.35337579586917 -85.65186145093469)"><path d="M0 0 C105.08 -60.67, 210.15 -121.33, 296.71 -171.3 M0 0 C109.13 -63, 218.25 -126.01, 296.71 -171.3" stroke="#2f9e44" stroke-width="2" fill="none"></path></g></g><mask></mask><g stroke-linecap="round"><g stroke-opacity="0.4" fill-opacity="0.4" transform="translate(1488.9610061737098 821.1720083996196) rotate(0 144.01540887692386 -85.25751330640344)"><path d="M0 0 C112.2 -66.42, 224.4 -132.84, 288.03 -170.52" stroke="#2f9e44" stroke-width="2.5" fill="none" stroke-dasharray="8 10"></path></g></g><mask></mask><g stroke-linecap="round"><g stroke-opacity="0.4" fill-opacity="0.4" transform="translate(1777.632698068241 651.5971182629008) rotate(0 255.54541015625 0)"><path d="M0 0 C170.03 0, 340.07 0, 511.09 0" stroke="#2f9e44" stroke-width="2.5" fill="none" stroke-dasharray="8 10"></path></g></g><mask></mask><g stroke-linecap="round"><g transform="translate(2289.512336740116 653.9633292004008) rotate(0 0 -261.855224609375)"><path d="M0 0 C0 -143.78, 0 -287.55, 0 -523.71 M0 0 C0 -179.1, 0 -358.2, 0 -523.71" stroke="#2f9e44" stroke-width="2" fill="none"></path></g></g><mask></mask><g stroke-linecap="round"><g transform="translate(2287.146125802616 128.67542636836947) rotate(0 -249.63003540039062 0)"><path d="M0 0 C-166.71 0, -333.43 0, -499.26 0 M0 0 C-127.64 0, -255.28 0, -499.26 0" stroke="#2f9e44" stroke-width="2" fill="none"></path></g></g><mask></mask><g stroke-linecap="round"><g stroke-opacity="0.4" fill-opacity="0.4" transform="translate(1785.519905099491 131.04157627071322) rotate(0 0 259.4890747070312)"><path d="M0 0 C0 188.85, 0 377.7, 0 518.98" stroke="#2f9e44" stroke-width="2.5" fill="none" stroke-dasharray="8 10"></path></g></g><mask></mask><g stroke-linecap="round"><g transform="translate(1488.172248849491 298.2503165050882) rotate(0 250.41876220703125 0)"><path d="M0 0 C129.16 0, 258.33 0, 500.84 0 M0 0 C111.37 0, 222.73 0, 500.84 0" stroke="#2f9e44" stroke-width="2" fill="none"></path></g></g><mask></mask><g stroke-linecap="round"><g transform="translate(1991.3759231658973 824.3268545910258) rotate(0 0 -261.4608154296875)"><path d="M0 0 C0 -133.91, 0 -267.83, 0 -522.92 M0 0 C0 -190.06, 0 -380.12, 0 -522.92" stroke="#2f9e44" stroke-width="2" fill="none"></path></g></g><mask></mask><g stroke-linecap="round"><g transform="translate(1488.172248849491 300.616466407432) rotate(0 0 259.48904418945307)"><path d="M0 0 C0 130.54, 0 261.08, 0 518.98 M0 0 C0 167.59, 0 335.18, 0 518.98" stroke="#2f9e44" stroke-width="2" fill="none"></path></g></g><mask></mask><g stroke-linecap="round"><g transform="translate(1989.798469552616 823.5381583019633) rotate(0 -250.4187469482422 0)"><path d="M0 0 C-148.49 0, -296.99 0, -500.84 0 M0 0 C-108.76 0, -217.53 0, -500.84 0" stroke="#2f9e44" stroke-width="2" fill="none"></path></g></g><mask></mask><g stroke-linecap="round"><g transform="translate(428.6272643423315 585.2593435896475) rotate(0 38.79751297130229 -22.3997545578693)"><path d="M0 0 C23.95 -13.83, 47.9 -27.65, 77.6 -44.8 M0 0 C23.3 -13.45, 46.6 -26.9, 77.6 -44.8" stroke="#e03131" stroke-width="4" fill="none"></path></g><g transform="translate(428.6272643423315 585.2593435896475) rotate(0 38.79751297130229 -22.3997545578693)"><path d="M61.53 -25.65 C66.49 -31.56, 71.44 -37.47, 77.6 -44.8 M61.53 -25.65 C66.35 -31.4, 71.18 -37.15, 77.6 -44.8" stroke="#e03131" stroke-width="4" fill="none"></path></g><g transform="translate(428.6272643423315 585.2593435896475) rotate(0 38.79751297130229 -22.3997545578693)"><path d="M52.97 -40.46 C60.57 -41.8, 68.17 -43.14, 77.6 -44.8 M52.97 -40.46 C60.37 -41.76, 67.76 -43.07, 77.6 -44.8" stroke="#e03131" stroke-width="4" fill="none"></path></g></g><mask></mask><g stroke-linecap="round"><g transform="translate(429.08979772034286 304.11048635848806) rotate(0 0 141.24631831254004)"><path d="M0 0 C0 106.6, 0 213.19, 0 282.49 M0 0 C0 101.07, 0 202.14, 0 282.49" stroke="#e03131" stroke-width="4" fill="none"></path></g><g transform="translate(429.08979772034286 304.11048635848806) rotate(0 0 141.24631831254004)"><path d="M-8.55 259 C-5.32 267.86, -2.1 276.73, 0 282.49 M-8.55 259 C-5.49 267.41, -2.43 275.81, 0 282.49" stroke="#e03131" stroke-width="4" fill="none"></path></g><g transform="translate(429.08979772034286 304.11048635848806) rotate(0 0 141.24631831254004)"><path d="M8.55 259 C5.32 267.86, 2.1 276.73, 0 282.49 M8.55 259 C5.49 267.41, 2.43 275.81, 0 282.49" stroke="#e03131" stroke-width="4" fill="none"></path></g></g><mask></mask><g stroke-linecap="round"><g transform="translate(298.8764449040831 297.6625959298816) rotate(0 63.804809453546 0)"><path d="M0 0 C34.44 0, 68.88 0, 127.61 0 M0 0 C38.34 0, 76.68 0, 127.61 0" stroke="#e03131" stroke-width="4" fill="none"></path></g><g transform="translate(298.8764449040831 297.6625959298816) rotate(0 63.804809453546 0)"><path d="M104.12 8.55 C110.46 6.24, 116.8 3.94, 127.61 0 M104.12 8.55 C111.18 5.98, 118.23 3.41, 127.61 0" stroke="#e03131" stroke-width="4" fill="none"></path></g><g transform="translate(298.8764449040831 297.6625959298816) rotate(0 63.804809453546 0)"><path d="M104.12 -8.55 C110.46 -6.24, 116.8 -3.94, 127.61 0 M104.12 -8.55 C111.18 -5.98, 118.23 -3.41, 127.61 0" stroke="#e03131" stroke-width="4" fill="none"></path></g></g><mask></mask><g transform="translate(441.41825045595033 301.6809852843668) rotate(0 80.7978515625 20.69999999999999)"><text x="0" y="30.420703125" font-family="Helvetica, Segoe UI Emoji" font-size="36px" fill="#e03131" text-anchor="start" style="white-space: pre;" direction="ltr" dominant-baseline="alphabetic">blockIdx.x</text></g><g stroke-linecap="round"><g transform="translate(272.5544518846036 816.7954184620761) rotate(0 -41.18401420318355 -258.0573537052843)"><path d="M0 0 C-18.35 -58.57, -36.7 -117.14, -82.37 -262.88 M0 0 C-22.46 -71.67, -44.91 -143.33, -82.37 -262.88 M-82.37 -262.88 C-58.37 -338.27, -34.37 -413.66, -1.75 -516.11 M-82.37 -262.88 C-65.01 -317.39, -47.66 -371.9, -1.75 -516.11" stroke="#1e1e1e" stroke-width="4" fill="none"></path></g></g><mask></mask><g transform="translate(10 541.590911484819) rotate(0 76.3330078125 20.700000000000045)"><text x="0" y="30.420703125" font-family="Helvetica, Segoe UI Emoji" font-size="36px" fill="#1e1e1e" text-anchor="start" style="white-space: pre;" direction="ltr" dominant-baseline="alphabetic">gridDim.y</text></g><g stroke-linecap="round"><g transform="translate(296.21337890896234 278.7743096973014) rotate(0 131.00022585088874 -77.54863367025769)"><path d="M0 0 C35.18 -38.62, 70.36 -77.23, 116.54 -127.93 M0 0 C43.01 -47.22, 86.03 -94.44, 116.54 -127.93 M116.54 -127.93 C172.28 -138.34, 228.01 -148.75, 262 -155.1 M116.54 -127.93 C161.85 -136.4, 207.16 -144.86, 262 -155.1" stroke="#1e1e1e" stroke-width="4" fill="none"></path></g></g><mask></mask><g transform="translate(244.33997525404743 76.91813855372811) rotate(0 76.0078125 20.69999999999999)"><text x="0" y="30.420703125" font-family="Helvetica, Segoe UI Emoji" font-size="36px" fill="#1e1e1e" text-anchor="start" style="white-space: pre;" direction="ltr" dominant-baseline="alphabetic">gridDim.z</text></g><g stroke-linecap="round"><g transform="translate(607.3184539149615 104.36009809215932) rotate(0 236.58910072088628 -10.515069259564996)"><path d="M0 0 C68.71 -7.58, 137.42 -15.16, 238.34 -26.29 M0 0 C82.29 -9.08, 164.58 -18.15, 238.34 -26.29 M238.34 -26.29 C301.09 -17.86, 363.84 -9.43, 473.18 5.26 M238.34 -26.29 C301.4 -17.82, 364.47 -9.35, 473.18 5.26" stroke="#1e1e1e" stroke-width="4" fill="none"></path></g></g><mask></mask><g transform="translate(786.297740152724 10) rotate(0 76.271484375 20.69999999999999)"><text x="0" y="30.420703125" font-family="Helvetica, Segoe UI Emoji" font-size="36px" fill="#1e1e1e" text-anchor="start" style="white-space: pre;" direction="ltr" dominant-baseline="alphabetic">gridDim.x</text></g><g stroke-linecap="round"><g stroke-opacity="0.4" fill-opacity="0.4" transform="translate(511.4956338848199 537.0699729819027) rotate(0 7.105427357601002e-15 -147.2606287229596)"><path d="M0 0 C0 -61.94, 0 -123.89, 0 -294.52" stroke="#e03131" stroke-width="4.5" fill="none" stroke-dasharray="1.5 10"></path></g></g><mask></mask><g stroke-linecap="round"><g stroke-opacity="0.4" fill-opacity="0.4" transform="translate(427.1554615024588 292.7512114299933) rotate(0 43.857862093292376 -25.321348485643853)"><path d="M0 0 C26.11 -15.08, 52.23 -30.15, 87.72 -50.64" stroke="#e03131" stroke-width="4.5" fill="none" stroke-dasharray="1.5 10"></path></g></g><mask></mask><g stroke-linecap="round"><g stroke-opacity="0.4" fill-opacity="0.4" transform="translate(512.1649797771644 244.55680501195593) rotate(0 -61.24701391132868 0)"><path d="M0 0 C-42.01 0, -84.03 0, -122.49 0" stroke="#e03131" stroke-width="4.5" fill="none" stroke-dasharray="1.5 10"></path></g></g><mask></mask><g stroke-linecap="round"><g stroke-opacity="0.4" fill-opacity="0.4" transform="translate(298.6371134529446 294.0899550136214) rotate(0 45.68221805354764 -26.374640890394858)"><path d="M0 0 C35.01 -20.21, 70.01 -40.42, 91.36 -52.75" stroke="#e03131" stroke-width="4.5" fill="none" stroke-dasharray="1.5 10"></path></g></g><mask></mask><g stroke-linecap="round"><g stroke-opacity="0.4" fill-opacity="0.4" transform="translate(297.96771576166094 299.44487754919464) rotate(0 0 142.57502618026132)"><path d="M0 0 C0 59.37, 0 118.73, 0 285.15" stroke="#e03131" stroke-width="4.5" fill="none" stroke-dasharray="1.5 10"></path></g></g><mask></mask><g stroke-linecap="round"><g stroke-opacity="0.4" fill-opacity="0.4" transform="translate(299.97580523763355 583.9255840173729) rotate(0 65.26324466221294 0)"><path d="M0 0 C34.88 0, 69.76 0, 130.53 0" stroke="#e03131" stroke-width="4.5" fill="none" stroke-dasharray="1.5 10"></path></g></g><mask></mask><g stroke-linecap="round"><g stroke-opacity="0.4" fill-opacity="0.4" transform="translate(302.6532924048897 582.5869440316229) rotate(0 43.85786209329237 -25.321348485643853)"><path d="M0 0 C32.87 -18.98, 65.75 -37.96, 87.72 -50.64" stroke="#e03131" stroke-width="4.5" fill="none" stroke-dasharray="1.5 10"></path></g></g><mask></mask><g stroke-linecap="round"><g stroke-opacity="0.4" fill-opacity="0.4" transform="translate(393.01778501410774 537.0699729819027) rotate(0 58.56955264354201 0)"><path d="M0 0 C25.43 0, 50.86 0, 117.14 0" stroke="#e03131" stroke-width="4.5" fill="none" stroke-dasharray="1.5 10"></path></g></g><mask></mask><g stroke-linecap="round"><g stroke-opacity="0.4" fill-opacity="0.4" transform="translate(391.67904143047963 533.723139922302) rotate(0 1.4210854715202004e-14 -143.91379566335894)"><path d="M0 0 C0 -74.36, 0 -148.73, 0 -287.83" stroke="#e03131" stroke-width="4.5" fill="none" stroke-dasharray="1.5 10"></path></g></g><mask></mask><g transform="translate(327.6259782284669 605.5733442178044) rotate(0 80.859375 20.700000000000045)"><text x="0" y="30.420703125" font-family="Helvetica, Segoe UI Emoji" font-size="36px" fill="#e03131" text-anchor="start" style="white-space: pre;" direction="ltr" dominant-baseline="alphabetic">blockIdx.y</text></g><g transform="translate(513.0404882911923 543.3223114679591) rotate(0 80.40234375 20.700000000000045)"><text x="0" y="30.420703125" font-family="Helvetica, Segoe UI Emoji" font-size="36px" fill="#e03131" text-anchor="start" style="white-space: pre;" direction="ltr" dominant-baseline="alphabetic">blockIdx.z</text></g><g stroke-opacity="0.4" fill-opacity="0.4" stroke-linecap="round" transform="translate(413.71832577015084 284.3305213731402) rotate(0 13.94335839110687 13.94335839110687)"><path d="M27.89 13.94 C27.89 14.75, 27.82 15.57, 27.67 16.36 C27.53 17.16, 27.32 17.95, 27.05 18.71 C26.77 19.47, 26.42 20.22, 26.02 20.92 C25.62 21.61, 25.14 22.29, 24.62 22.91 C24.11 23.52, 23.52 24.11, 22.91 24.62 C22.29 25.14, 21.61 25.62, 20.92 26.02 C20.22 26.42, 19.47 26.77, 18.71 27.05 C17.95 27.32, 17.16 27.53, 16.36 27.67 C15.57 27.82, 14.75 27.89, 13.94 27.89 C13.14 27.89, 12.32 27.82, 11.52 27.67 C10.73 27.53, 9.93 27.32, 9.17 27.05 C8.42 26.77, 7.67 26.42, 6.97 26.02 C6.27 25.62, 5.6 25.14, 4.98 24.62 C4.36 24.11, 3.78 23.52, 3.26 22.91 C2.74 22.29, 2.27 21.61, 1.87 20.92 C1.46 20.22, 1.12 19.47, 0.84 18.71 C0.56 17.95, 0.35 17.16, 0.21 16.36 C0.07 15.57, 0 14.75, 0 13.94 C0 13.14, 0.07 12.32, 0.21 11.52 C0.35 10.73, 0.56 9.93, 0.84 9.17 C1.12 8.42, 1.46 7.67, 1.87 6.97 C2.27 6.27, 2.74 5.6, 3.26 4.98 C3.78 4.36, 4.36 3.78, 4.98 3.26 C5.6 2.74, 6.27 2.27, 6.97 1.87 C7.67 1.46, 8.42 1.12, 9.17 0.84 C9.93 0.56, 10.73 0.35, 11.52 0.21 C12.32 0.07, 13.14 0, 13.94 0 C14.75 0, 15.57 0.07, 16.36 0.21 C17.16 0.35, 17.95 0.56, 18.71 0.84 C19.47 1.12, 20.22 1.46, 20.92 1.87 C21.61 2.27, 22.29 2.74, 22.91 3.26 C23.52 3.78, 24.11 4.36, 24.62 4.98 C25.14 5.6, 25.62 6.27, 26.02 6.97 C26.42 7.67, 26.77 8.42, 27.05 9.17 C27.32 9.93, 27.53 10.73, 27.67 11.52 C27.82 12.32, 27.85 13.54, 27.89 13.94 C27.92 14.35, 27.92 13.54, 27.89 13.94" stroke="none" stroke-width="0" fill="#e03131"></path><path d="M27.89 13.94 C27.89 14.75, 27.82 15.57, 27.67 16.36 C27.53 17.16, 27.32 17.95, 27.05 18.71 C26.77 19.47, 26.42 20.22, 26.02 20.92 C25.62 21.61, 25.14 22.29, 24.62 22.91 C24.11 23.52, 23.52 24.11, 22.91 24.62 C22.29 25.14, 21.61 25.62, 20.92 26.02 C20.22 26.42, 19.47 26.77, 18.71 27.05 C17.95 27.32, 17.16 27.53, 16.36 27.67 C15.57 27.82, 14.75 27.89, 13.94 27.89 C13.14 27.89, 12.32 27.82, 11.52 27.67 C10.73 27.53, 9.93 27.32, 9.17 27.05 C8.42 26.77, 7.67 26.42, 6.97 26.02 C6.27 25.62, 5.6 25.14, 4.98 24.62 C4.36 24.11, 3.78 23.52, 3.26 22.91 C2.74 22.29, 2.27 21.61, 1.87 20.92 C1.46 20.22, 1.12 19.47, 0.84 18.71 C0.56 17.95, 0.35 17.16, 0.21 16.36 C0.07 15.57, 0 14.75, 0 13.94 C0 13.14, 0.07 12.32, 0.21 11.52 C0.35 10.73, 0.56 9.93, 0.84 9.17 C1.12 8.42, 1.46 7.67, 1.87 6.97 C2.27 6.27, 2.74 5.6, 3.26 4.98 C3.78 4.36, 4.36 3.78, 4.98 3.26 C5.6 2.74, 6.27 2.27, 6.97 1.87 C7.67 1.46, 8.42 1.12, 9.17 0.84 C9.93 0.56, 10.73 0.35, 11.52 0.21 C12.32 0.07, 13.14 0, 13.94 0 C14.75 0, 15.57 0.07, 16.36 0.21 C17.16 0.35, 17.95 0.56, 18.71 0.84 C19.47 1.12, 20.22 1.46, 20.92 1.87 C21.61 2.27, 22.29 2.74, 22.91 3.26 C23.52 3.78, 24.11 4.36, 24.62 4.98 C25.14 5.6, 25.62 6.27, 26.02 6.97 C26.42 7.67, 26.77 8.42, 27.05 9.17 C27.32 9.93, 27.53 10.73, 27.67 11.52 C27.82 12.32, 27.85 13.54, 27.89 13.94 C27.92 14.35, 27.92 13.54, 27.89 13.94" stroke="#e03131" stroke-width="4" fill="none"></path></g><g stroke-opacity="0.4" fill-opacity="0.4" stroke-linecap="round" transform="translate(495.8456498925974 528.5654393143883) rotate(0 13.94335839110687 13.943358391106813)"><path d="M27.89 13.94 C27.89 14.75, 27.82 15.57, 27.67 16.36 C27.53 17.16, 27.32 17.95, 27.05 18.71 C26.77 19.47, 26.42 20.22, 26.02 20.92 C25.62 21.61, 25.14 22.29, 24.62 22.91 C24.11 23.52, 23.52 24.11, 22.91 24.62 C22.29 25.14, 21.61 25.62, 20.92 26.02 C20.22 26.42, 19.47 26.77, 18.71 27.05 C17.95 27.32, 17.16 27.53, 16.36 27.67 C15.57 27.82, 14.75 27.89, 13.94 27.89 C13.14 27.89, 12.32 27.82, 11.52 27.67 C10.73 27.53, 9.93 27.32, 9.17 27.05 C8.42 26.77, 7.67 26.42, 6.97 26.02 C6.27 25.62, 5.6 25.14, 4.98 24.62 C4.36 24.11, 3.78 23.52, 3.26 22.91 C2.74 22.29, 2.27 21.61, 1.87 20.92 C1.46 20.22, 1.12 19.47, 0.84 18.71 C0.56 17.95, 0.35 17.16, 0.21 16.36 C0.07 15.57, 0 14.75, 0 13.94 C0 13.14, 0.07 12.32, 0.21 11.52 C0.35 10.73, 0.56 9.93, 0.84 9.17 C1.12 8.42, 1.46 7.67, 1.87 6.97 C2.27 6.27, 2.74 5.6, 3.26 4.98 C3.78 4.36, 4.36 3.78, 4.98 3.26 C5.6 2.74, 6.27 2.27, 6.97 1.87 C7.67 1.46, 8.42 1.12, 9.17 0.84 C9.93 0.56, 10.73 0.35, 11.52 0.21 C12.32 0.07, 13.14 0, 13.94 0 C14.75 0, 15.57 0.07, 16.36 0.21 C17.16 0.35, 17.95 0.56, 18.71 0.84 C19.47 1.12, 20.22 1.46, 20.92 1.87 C21.61 2.27, 22.29 2.74, 22.91 3.26 C23.52 3.78, 24.11 4.36, 24.62 4.98 C25.14 5.6, 25.62 6.27, 26.02 6.97 C26.42 7.67, 26.77 8.42, 27.05 9.17 C27.32 9.93, 27.53 10.73, 27.67 11.52 C27.82 12.32, 27.85 13.54, 27.89 13.94 C27.92 14.35, 27.92 13.54, 27.89 13.94" stroke="none" stroke-width="0" fill="#e03131"></path><path d="M27.89 13.94 C27.89 14.75, 27.82 15.57, 27.67 16.36 C27.53 17.16, 27.32 17.95, 27.05 18.71 C26.77 19.47, 26.42 20.22, 26.02 20.92 C25.62 21.61, 25.14 22.29, 24.62 22.91 C24.11 23.52, 23.52 24.11, 22.91 24.62 C22.29 25.14, 21.61 25.62, 20.92 26.02 C20.22 26.42, 19.47 26.77, 18.71 27.05 C17.95 27.32, 17.16 27.53, 16.36 27.67 C15.57 27.82, 14.75 27.89, 13.94 27.89 C13.14 27.89, 12.32 27.82, 11.52 27.67 C10.73 27.53, 9.93 27.32, 9.17 27.05 C8.42 26.77, 7.67 26.42, 6.97 26.02 C6.27 25.62, 5.6 25.14, 4.98 24.62 C4.36 24.11, 3.78 23.52, 3.26 22.91 C2.74 22.29, 2.27 21.61, 1.87 20.92 C1.46 20.22, 1.12 19.47, 0.84 18.71 C0.56 17.95, 0.35 17.16, 0.21 16.36 C0.07 15.57, 0 14.75, 0 13.94 C0 13.14, 0.07 12.32, 0.21 11.52 C0.35 10.73, 0.56 9.93, 0.84 9.17 C1.12 8.42, 1.46 7.67, 1.87 6.97 C2.27 6.27, 2.74 5.6, 3.26 4.98 C3.78 4.36, 4.36 3.78, 4.98 3.26 C5.6 2.74, 6.27 2.27, 6.97 1.87 C7.67 1.46, 8.42 1.12, 9.17 0.84 C9.93 0.56, 10.73 0.35, 11.52 0.21 C12.32 0.07, 13.14 0, 13.94 0 C14.75 0, 15.57 0.07, 16.36 0.21 C17.16 0.35, 17.95 0.56, 18.71 0.84 C19.47 1.12, 20.22 1.46, 20.92 1.87 C21.61 2.27, 22.29 2.74, 22.91 3.26 C23.52 3.78, 24.11 4.36, 24.62 4.98 C25.14 5.6, 25.62 6.27, 26.02 6.97 C26.42 7.67, 26.77 8.42, 27.05 9.17 C27.32 9.93, 27.53 10.73, 27.67 11.52 C27.82 12.32, 27.85 13.54, 27.89 13.94 C27.92 14.35, 27.92 13.54, 27.89 13.94" stroke="#e03131" stroke-width="4" fill="none"></path></g><g stroke-opacity="0.4" fill-opacity="0.4" stroke-linecap="round" transform="translate(414.2550893766738 575.8020490055877) rotate(0 13.94335839110687 13.943358391106926)"><path d="M27.89 13.94 C27.89 14.75, 27.82 15.57, 27.67 16.36 C27.53 17.16, 27.32 17.95, 27.05 18.71 C26.77 19.47, 26.42 20.22, 26.02 20.92 C25.62 21.61, 25.14 22.29, 24.62 22.91 C24.11 23.52, 23.52 24.11, 22.91 24.62 C22.29 25.14, 21.61 25.62, 20.92 26.02 C20.22 26.42, 19.47 26.77, 18.71 27.05 C17.95 27.32, 17.16 27.53, 16.36 27.67 C15.57 27.82, 14.75 27.89, 13.94 27.89 C13.14 27.89, 12.32 27.82, 11.52 27.67 C10.73 27.53, 9.93 27.32, 9.17 27.05 C8.42 26.77, 7.67 26.42, 6.97 26.02 C6.27 25.62, 5.6 25.14, 4.98 24.62 C4.36 24.11, 3.78 23.52, 3.26 22.91 C2.74 22.29, 2.27 21.61, 1.87 20.92 C1.46 20.22, 1.12 19.47, 0.84 18.71 C0.56 17.95, 0.35 17.16, 0.21 16.36 C0.07 15.57, 0 14.75, 0 13.94 C0 13.14, 0.07 12.32, 0.21 11.52 C0.35 10.73, 0.56 9.93, 0.84 9.17 C1.12 8.42, 1.46 7.67, 1.87 6.97 C2.27 6.27, 2.74 5.6, 3.26 4.98 C3.78 4.36, 4.36 3.78, 4.98 3.26 C5.6 2.74, 6.27 2.27, 6.97 1.87 C7.67 1.46, 8.42 1.12, 9.17 0.84 C9.93 0.56, 10.73 0.35, 11.52 0.21 C12.32 0.07, 13.14 0, 13.94 0 C14.75 0, 15.57 0.07, 16.36 0.21 C17.16 0.35, 17.95 0.56, 18.71 0.84 C19.47 1.12, 20.22 1.46, 20.92 1.87 C21.61 2.27, 22.29 2.74, 22.91 3.26 C23.52 3.78, 24.11 4.36, 24.62 4.98 C25.14 5.6, 25.62 6.27, 26.02 6.97 C26.42 7.67, 26.77 8.42, 27.05 9.17 C27.32 9.93, 27.53 10.73, 27.67 11.52 C27.82 12.32, 27.85 13.54, 27.89 13.94 C27.92 14.35, 27.92 13.54, 27.89 13.94" stroke="none" stroke-width="0" fill="#e03131"></path><path d="M27.89 13.94 C27.89 14.75, 27.82 15.57, 27.67 16.36 C27.53 17.16, 27.32 17.95, 27.05 18.71 C26.77 19.47, 26.42 20.22, 26.02 20.92 C25.62 21.61, 25.14 22.29, 24.62 22.91 C24.11 23.52, 23.52 24.11, 22.91 24.62 C22.29 25.14, 21.61 25.62, 20.92 26.02 C20.22 26.42, 19.47 26.77, 18.71 27.05 C17.95 27.32, 17.16 27.53, 16.36 27.67 C15.57 27.82, 14.75 27.89, 13.94 27.89 C13.14 27.89, 12.32 27.82, 11.52 27.67 C10.73 27.53, 9.93 27.32, 9.17 27.05 C8.42 26.77, 7.67 26.42, 6.97 26.02 C6.27 25.62, 5.6 25.14, 4.98 24.62 C4.36 24.11, 3.78 23.52, 3.26 22.91 C2.74 22.29, 2.27 21.61, 1.87 20.92 C1.46 20.22, 1.12 19.47, 0.84 18.71 C0.56 17.95, 0.35 17.16, 0.21 16.36 C0.07 15.57, 0 14.75, 0 13.94 C0 13.14, 0.07 12.32, 0.21 11.52 C0.35 10.73, 0.56 9.93, 0.84 9.17 C1.12 8.42, 1.46 7.67, 1.87 6.97 C2.27 6.27, 2.74 5.6, 3.26 4.98 C3.78 4.36, 4.36 3.78, 4.98 3.26 C5.6 2.74, 6.27 2.27, 6.97 1.87 C7.67 1.46, 8.42 1.12, 9.17 0.84 C9.93 0.56, 10.73 0.35, 11.52 0.21 C12.32 0.07, 13.14 0, 13.94 0 C14.75 0, 15.57 0.07, 16.36 0.21 C17.16 0.35, 17.95 0.56, 18.71 0.84 C19.47 1.12, 20.22 1.46, 20.92 1.87 C21.61 2.27, 22.29 2.74, 22.91 3.26 C23.52 3.78, 24.11 4.36, 24.62 4.98 C25.14 5.6, 25.62 6.27, 26.02 6.97 C26.42 7.67, 26.77 8.42, 27.05 9.17 C27.32 9.93, 27.53 10.73, 27.67 11.52 C27.82 12.32, 27.85 13.54, 27.89 13.94 C27.92 14.35, 27.92 13.54, 27.89 13.94" stroke="#e03131" stroke-width="4" fill="none"></path></g><g stroke-linecap="round"><g transform="translate(1797.5674372938229 104.36009809215932) rotate(0 236.58910072088634 -10.515069259564996)"><path d="M0 0 C64.64 -7.13, 129.27 -14.26, 238.34 -26.29 M0 0 C72.93 -8.04, 145.86 -16.09, 238.34 -26.29 M238.34 -26.29 C285.58 -19.94, 332.82 -13.6, 473.18 5.26 M238.34 -26.29 C310.55 -16.59, 382.75 -6.89, 473.18 5.26" stroke="#1e1e1e" stroke-width="4" fill="none"></path></g></g><mask></mask><g transform="translate(1976.5467235315855 10) rotate(0 88.7783203125 20.69999999999999)"><text x="0" y="30.420703125" font-family="Helvetica, Segoe UI Emoji" font-size="36px" fill="#1e1e1e" text-anchor="start" style="white-space: pre;" direction="ltr" dominant-baseline="alphabetic">blockDim.x</text></g><g stroke-linecap="round"><g transform="translate(1466.2545759714699 816.7954184620761) rotate(0 -41.18401420318355 -258.0573537052843)"><path d="M0 0 C-26.12 -83.37, -52.24 -166.74, -82.37 -262.88 M0 0 C-25.46 -81.26, -50.92 -162.52, -82.37 -262.88 M-82.37 -262.88 C-56.31 -344.73, -30.26 -426.57, -1.75 -516.11 M-82.37 -262.88 C-63.15 -323.23, -43.94 -383.59, -1.75 -516.11" stroke="#1e1e1e" stroke-width="4" fill="none"></path></g></g><mask></mask><g transform="translate(1175.1616364950512 574.206416016456) rotate(0 88.83984375 20.700000000000045)"><text x="0" y="30.420703125" font-family="Helvetica, Segoe UI Emoji" font-size="36px" fill="#1e1e1e" text-anchor="start" style="white-space: pre;" direction="ltr" dominant-baseline="alphabetic">blockDim.y</text></g><g stroke-linecap="round"><g transform="translate(1489.9135029958286 278.7743096973014) rotate(0 131.00022585088874 -77.54863367025769)"><path d="M0 0 C30.49 -33.47, 60.98 -66.94, 116.54 -127.93 M0 0 C37.06 -40.68, 74.12 -81.37, 116.54 -127.93 M116.54 -127.93 C163.9 -136.78, 211.26 -145.62, 262 -155.1 M116.54 -127.93 C147.88 -133.79, 179.22 -139.64, 262 -155.1" stroke="#1e1e1e" stroke-width="4" fill="none"></path></g></g><mask></mask><g transform="translate(1438.0400993409137 76.91813855372811) rotate(0 88.3828125 20.69999999999999)"><text x="0" y="30.420703125" font-family="Helvetica, Segoe UI Emoji" font-size="36px" fill="#1e1e1e" text-anchor="start" style="white-space: pre;" direction="ltr" dominant-baseline="alphabetic">blockDim.z</text></g><g stroke-linecap="round"><g transform="translate(1718.4588632750592 543.3357619098553) rotate(0 49.50003218313509 -28.57885690582816)"><path d="M0 0 C19.95 -11.52, 39.9 -23.04, 99 -57.16 M0 0 C31.93 -18.43, 63.85 -36.87, 99 -57.16" stroke="#f08c00" stroke-width="2" fill="none"></path></g></g><mask></mask><g stroke-linecap="round"><g transform="translate(1887.1488066982874 543.3357619098553) rotate(0 49.50003218313509 -28.57885690582816)"><path d="M0 0 C19.92 -11.5, 39.83 -23, 99 -57.16 M0 0 C30.44 -17.57, 60.88 -35.15, 99 -57.16" stroke="#f08c00" stroke-width="2" fill="none"></path></g></g><mask></mask><g stroke-linecap="round"><g transform="translate(1887.1488066982874 717.552202394959) rotate(0 49.50003218313509 -28.57885690582816)"><path d="M0 0 C27.79 -16.04, 55.58 -32.09, 99 -57.16 M0 0 C31.23 -18.03, 62.46 -36.06, 99 -57.16" stroke="#f08c00" stroke-width="2" fill="none"></path></g></g><mask></mask><g stroke-linecap="round"><g stroke-opacity="0.4" fill-opacity="0.4" transform="translate(1719.5115390797846 717.2890436263639) rotate(0 48.0526131342242 -28.44727752153085)"><path d="M0 0 C31.06 -18.39, 62.12 -36.78, 96.11 -56.89" stroke="#f08c00" stroke-width="2.5" fill="none" stroke-dasharray="8 10"></path></g></g><mask></mask><g stroke-linecap="round"><g stroke-opacity="0.4" fill-opacity="0.4" transform="translate(1815.8306013355777 660.7081773387705) rotate(0 85.26604776686884 0)"><path d="M0 0 C49.41 0, 98.83 0, 170.53 0" stroke="#f08c00" stroke-width="2.5" fill="none" stroke-dasharray="8 10"></path></g></g><mask></mask><g stroke-linecap="round"><g transform="translate(1986.6258963682567 661.4976943749012) rotate(0 0 -87.37139937631974)"><path d="M0 0 C0 -56.89, 0 -113.79, 0 -174.74 M0 0 C0 -37.65, 0 -75.29, 0 -174.74" stroke="#f08c00" stroke-width="2" fill="none"></path></g></g><mask></mask><g stroke-linecap="round"><g transform="translate(1985.836379332126 486.2285577198993) rotate(0 -83.29230608947523 0)"><path d="M0 0 C-44.36 0, -88.73 0, -166.58 0 M0 0 C-42.36 0, -84.71 0, -166.58 0" stroke="#f08c00" stroke-width="2" fill="none"></path></g></g><mask></mask><g stroke-linecap="round"><g stroke-opacity="0.4" fill-opacity="0.4" transform="translate(1818.4622704822182 487.0180543908566) rotate(0 0 86.58190270536232)"><path d="M0 0 C0 59.62, 0 119.23, 0 173.16" stroke="#f08c00" stroke-width="2.5" fill="none" stroke-dasharray="8 10"></path></g></g><mask></mask><g stroke-linecap="round"><g transform="translate(1719.248359946017 542.8094240074926) rotate(0 83.55547504065669 0)"><path d="M0 0 C49.26 0, 98.51 0, 167.11 0 M0 0 C33.68 0, 67.35 0, 167.11 0" stroke="#f08c00" stroke-width="2" fill="none"></path></g></g><mask></mask><g stroke-linecap="round"><g transform="translate(1887.1488066982874 718.3416990659163) rotate(0 0 -87.23979962684916)"><path d="M0 0 C0 -45.74, 0 -91.48, 0 -174.48 M0 0 C0 -54.86, 0 -109.73, 0 -174.48" stroke="#f08c00" stroke-width="2" fill="none"></path></g></g><mask></mask><g stroke-linecap="round"><g transform="translate(1719.248359946017 543.5989206784499) rotate(0 0 86.58189252277566)"><path d="M0 0 C0 53.05, 0 106.11, 0 173.16 M0 0 C0 58.91, 0 117.82, 0 173.16" stroke="#f08c00" stroke-width="2" fill="none"></path></g></g><mask></mask><g stroke-linecap="round"><g transform="translate(1886.6224687959248 718.0785402973216) rotate(0 -83.55546994936333 0)"><path d="M0 0 C-51.63 0, -103.26 0, -167.11 0 M0 0 C-66.37 0, -132.74 0, -167.11 0" stroke="#f08c00" stroke-width="2" fill="none"></path></g></g><mask></mask><g stroke-linecap="round"><g transform="translate(1637.276099993579 585.2593435896475) rotate(0 38.79751297130224 -22.3997545578693)"><path d="M0 0 C21.68 -12.52, 43.36 -25.03, 77.6 -44.8 M0 0 C21.64 -12.49, 43.28 -24.99, 77.6 -44.8" stroke="#e03131" stroke-width="4" fill="none"></path></g><g transform="translate(1637.276099993579 585.2593435896475) rotate(0 38.79751297130224 -22.3997545578693)"><path d="M61.53 -25.65 C66.01 -31, 70.5 -36.35, 77.6 -44.8 M61.53 -25.65 C66.01 -30.99, 70.49 -36.33, 77.6 -44.8" stroke="#e03131" stroke-width="4" fill="none"></path></g><g transform="translate(1637.276099993579 585.2593435896475) rotate(0 38.79751297130224 -22.3997545578693)"><path d="M52.97 -40.46 C59.85 -41.67, 66.73 -42.88, 77.6 -44.8 M52.97 -40.46 C59.84 -41.67, 66.71 -42.88, 77.6 -44.8" stroke="#e03131" stroke-width="4" fill="none"></path></g></g><mask></mask><g stroke-linecap="round"><g transform="translate(1637.7386333715904 304.11048635848806) rotate(0 0 141.24631831254004)"><path d="M0 0 C0 73.81, 0 147.62, 0 282.49 M0 0 C0 70.01, 0 140.01, 0 282.49" stroke="#e03131" stroke-width="4" fill="none"></path></g><g transform="translate(1637.7386333715904 304.11048635848806) rotate(0 0 141.24631831254004)"><path d="M-8.55 259 C-6.32 265.14, -4.08 271.28, 0 282.49 M-8.55 259 C-6.43 264.82, -4.31 270.64, 0 282.49" stroke="#e03131" stroke-width="4" fill="none"></path></g><g transform="translate(1637.7386333715904 304.11048635848806) rotate(0 0 141.24631831254004)"><path d="M8.55 259 C6.32 265.14, 4.08 271.28, 0 282.49 M8.55 259 C6.43 264.82, 4.31 270.64, 0 282.49" stroke="#e03131" stroke-width="4" fill="none"></path></g></g><mask></mask><g stroke-linecap="round"><g transform="translate(1507.5252805553305 297.6625959298816) rotate(0 63.804809453546 0)"><path d="M0 0 C30.47 0, 60.94 0, 127.61 0 M0 0 C29.25 0, 58.49 0, 127.61 0" stroke="#e03131" stroke-width="4" fill="none"></path></g><g transform="translate(1507.5252805553305 297.6625959298816) rotate(0 63.804809453546 0)"><path d="M104.12 8.55 C109.73 6.51, 115.34 4.47, 127.61 0 M104.12 8.55 C109.5 6.59, 114.89 4.63, 127.61 0" stroke="#e03131" stroke-width="4" fill="none"></path></g><g transform="translate(1507.5252805553305 297.6625959298816) rotate(0 63.804809453546 0)"><path d="M104.12 -8.55 C109.73 -6.51, 115.34 -4.47, 127.61 0 M104.12 -8.55 C109.5 -6.59, 114.89 -4.63, 127.61 0" stroke="#e03131" stroke-width="4" fill="none"></path></g></g><mask></mask><g transform="translate(1650.0670861071976 301.6809852843668) rotate(0 89.05078125 20.69999999999999)"><text x="0" y="30.420703125" font-family="Helvetica, Segoe UI Emoji" font-size="36px" fill="#e03131" text-anchor="start" style="white-space: pre;" direction="ltr" dominant-baseline="alphabetic">threadIdx.z</text></g><g stroke-linecap="round"><g stroke-opacity="0.4" fill-opacity="0.4" transform="translate(1720.1444695360674 537.0699729819027) rotate(0 0 -147.2606287229596)"><path d="M0 0 C0 -75.55, 0 -151.1, 0 -294.52" stroke="#e03131" stroke-width="4.5" fill="none" stroke-dasharray="1.5 10"></path></g></g><mask></mask><g stroke-linecap="round"><g stroke-opacity="0.4" fill-opacity="0.4" transform="translate(1635.804297153706 292.7512114299933) rotate(0 43.8578620932924 -25.321348485643853)"><path d="M0 0 C28.36 -16.38, 56.73 -32.75, 87.72 -50.64" stroke="#e03131" stroke-width="4.5" fill="none" stroke-dasharray="1.5 10"></path></g></g><mask></mask><g stroke-linecap="round"><g stroke-opacity="0.4" fill-opacity="0.4" transform="translate(1720.813815428412 244.55680501195593) rotate(0 -61.24701391132868 0)"><path d="M0 0 C-30.8 0, -61.59 0, -122.49 0" stroke="#e03131" stroke-width="4.5" fill="none" stroke-dasharray="1.5 10"></path></g></g><mask></mask><g stroke-linecap="round"><g stroke-opacity="0.4" fill-opacity="0.4" transform="translate(1507.2859491041922 294.0899550136214) rotate(0 45.68221805354767 -26.374640890394858)"><path d="M0 0 C29.3 -16.92, 58.6 -33.83, 91.36 -52.75" stroke="#e03131" stroke-width="4.5" fill="none" stroke-dasharray="1.5 10"></path></g></g><mask></mask><g stroke-linecap="round"><g stroke-opacity="0.4" fill-opacity="0.4" transform="translate(1506.6165514129084 299.44487754919464) rotate(0 0 142.57502618026132)"><path d="M0 0 C0 110.95, 0 221.9, 0 285.15" stroke="#e03131" stroke-width="4.5" fill="none" stroke-dasharray="1.5 10"></path></g></g><mask></mask><g stroke-linecap="round"><g stroke-opacity="0.4" fill-opacity="0.4" transform="translate(1508.624640888881 583.9255840173729) rotate(0 65.26324466221297 0)"><path d="M0 0 C52.05 0, 104.09 0, 130.53 0" stroke="#e03131" stroke-width="4.5" fill="none" stroke-dasharray="1.5 10"></path></g></g><mask></mask><g stroke-linecap="round"><g stroke-opacity="0.4" fill-opacity="0.4" transform="translate(1511.3021280561372 582.5869440316229) rotate(0 43.8578620932924 -25.321348485643853)"><path d="M0 0 C24.75 -14.29, 49.5 -28.58, 87.72 -50.64" stroke="#e03131" stroke-width="4.5" fill="none" stroke-dasharray="1.5 10"></path></g></g><mask></mask><g stroke-linecap="round"><g stroke-opacity="0.4" fill-opacity="0.4" transform="translate(1601.6666206653554 537.0699729819027) rotate(0 58.56955264354201 0)"><path d="M0 0 C31.45 0, 62.9 0, 117.14 0" stroke="#e03131" stroke-width="4.5" fill="none" stroke-dasharray="1.5 10"></path></g></g><mask></mask><g stroke-linecap="round"><g stroke-opacity="0.4" fill-opacity="0.4" transform="translate(1600.327877081727 533.723139922302) rotate(0 0 -143.91379566335894)"><path d="M0 0 C0 -112.24, 0 -224.48, 0 -287.83" stroke="#e03131" stroke-width="4.5" fill="none" stroke-dasharray="1.5 10"></path></g></g><mask></mask><g transform="translate(1536.2748138797144 605.5733442178044) rotate(0 89.05078124999994 20.700000000000045)"><text x="0" y="30.420703125" font-family="Helvetica, Segoe UI Emoji" font-size="36px" fill="#e03131" text-anchor="start" style="white-space: pre;" direction="ltr" dominant-baseline="alphabetic">threadIdx.y</text></g><g transform="translate(1720.7108071349203 542.3437189355667) rotate(0 89.05078125 20.700000000000045)"><text x="0" y="30.420703125" font-family="Helvetica, Segoe UI Emoji" font-size="36px" fill="#e03131" text-anchor="start" style="white-space: pre;" direction="ltr" dominant-baseline="alphabetic">threadIdx.z</text></g><g stroke-opacity="0.4" fill-opacity="0.4" stroke-linecap="round" transform="translate(1622.3671614213986 284.3305213731402) rotate(0 13.943358391106926 13.94335839110687)"><path d="M27.89 13.94 C27.89 14.75, 27.82 15.57, 27.67 16.36 C27.53 17.16, 27.32 17.95, 27.05 18.71 C26.77 19.47, 26.42 20.22, 26.02 20.92 C25.62 21.61, 25.14 22.29, 24.62 22.91 C24.11 23.52, 23.52 24.11, 22.91 24.62 C22.29 25.14, 21.61 25.62, 20.92 26.02 C20.22 26.42, 19.47 26.77, 18.71 27.05 C17.95 27.32, 17.16 27.53, 16.36 27.67 C15.57 27.82, 14.75 27.89, 13.94 27.89 C13.14 27.89, 12.32 27.82, 11.52 27.67 C10.73 27.53, 9.93 27.32, 9.17 27.05 C8.42 26.77, 7.67 26.42, 6.97 26.02 C6.27 25.62, 5.6 25.14, 4.98 24.62 C4.36 24.11, 3.78 23.52, 3.26 22.91 C2.74 22.29, 2.27 21.61, 1.87 20.92 C1.46 20.22, 1.12 19.47, 0.84 18.71 C0.56 17.95, 0.35 17.16, 0.21 16.36 C0.07 15.57, 0 14.75, 0 13.94 C0 13.14, 0.07 12.32, 0.21 11.52 C0.35 10.73, 0.56 9.93, 0.84 9.17 C1.12 8.42, 1.46 7.67, 1.87 6.97 C2.27 6.27, 2.74 5.6, 3.26 4.98 C3.78 4.36, 4.36 3.78, 4.98 3.26 C5.6 2.74, 6.27 2.27, 6.97 1.87 C7.67 1.46, 8.42 1.12, 9.17 0.84 C9.93 0.56, 10.73 0.35, 11.52 0.21 C12.32 0.07, 13.14 0, 13.94 0 C14.75 0, 15.57 0.07, 16.36 0.21 C17.16 0.35, 17.95 0.56, 18.71 0.84 C19.47 1.12, 20.22 1.46, 20.92 1.87 C21.61 2.27, 22.29 2.74, 22.91 3.26 C23.52 3.78, 24.11 4.36, 24.62 4.98 C25.14 5.6, 25.62 6.27, 26.02 6.97 C26.42 7.67, 26.77 8.42, 27.05 9.17 C27.32 9.93, 27.53 10.73, 27.67 11.52 C27.82 12.32, 27.85 13.54, 27.89 13.94 C27.92 14.35, 27.92 13.54, 27.89 13.94" stroke="none" stroke-width="0" fill="#e03131"></path><path d="M27.89 13.94 C27.89 14.75, 27.82 15.57, 27.67 16.36 C27.53 17.16, 27.32 17.95, 27.05 18.71 C26.77 19.47, 26.42 20.22, 26.02 20.92 C25.62 21.61, 25.14 22.29, 24.62 22.91 C24.11 23.52, 23.52 24.11, 22.91 24.62 C22.29 25.14, 21.61 25.62, 20.92 26.02 C20.22 26.42, 19.47 26.77, 18.71 27.05 C17.95 27.32, 17.16 27.53, 16.36 27.67 C15.57 27.82, 14.75 27.89, 13.94 27.89 C13.14 27.89, 12.32 27.82, 11.52 27.67 C10.73 27.53, 9.93 27.32, 9.17 27.05 C8.42 26.77, 7.67 26.42, 6.97 26.02 C6.27 25.62, 5.6 25.14, 4.98 24.62 C4.36 24.11, 3.78 23.52, 3.26 22.91 C2.74 22.29, 2.27 21.61, 1.87 20.92 C1.46 20.22, 1.12 19.47, 0.84 18.71 C0.56 17.95, 0.35 17.16, 0.21 16.36 C0.07 15.57, 0 14.75, 0 13.94 C0 13.14, 0.07 12.32, 0.21 11.52 C0.35 10.73, 0.56 9.93, 0.84 9.17 C1.12 8.42, 1.46 7.67, 1.87 6.97 C2.27 6.27, 2.74 5.6, 3.26 4.98 C3.78 4.36, 4.36 3.78, 4.98 3.26 C5.6 2.74, 6.27 2.27, 6.97 1.87 C7.67 1.46, 8.42 1.12, 9.17 0.84 C9.93 0.56, 10.73 0.35, 11.52 0.21 C12.32 0.07, 13.14 0, 13.94 0 C14.75 0, 15.57 0.07, 16.36 0.21 C17.16 0.35, 17.95 0.56, 18.71 0.84 C19.47 1.12, 20.22 1.46, 20.92 1.87 C21.61 2.27, 22.29 2.74, 22.91 3.26 C23.52 3.78, 24.11 4.36, 24.62 4.98 C25.14 5.6, 25.62 6.27, 26.02 6.97 C26.42 7.67, 26.77 8.42, 27.05 9.17 C27.32 9.93, 27.53 10.73, 27.67 11.52 C27.82 12.32, 27.85 13.54, 27.89 13.94 C27.92 14.35, 27.92 13.54, 27.89 13.94" stroke="#e03131" stroke-width="4" fill="none"></path></g><g stroke-opacity="0.4" fill-opacity="0.4" stroke-linecap="round" transform="translate(1704.4944855438448 528.5654393143883) rotate(0 13.943358391106813 13.943358391106813)"><path d="M27.89 13.94 C27.89 14.75, 27.82 15.57, 27.67 16.36 C27.53 17.16, 27.32 17.95, 27.05 18.71 C26.77 19.47, 26.42 20.22, 26.02 20.92 C25.62 21.61, 25.14 22.29, 24.62 22.91 C24.11 23.52, 23.52 24.11, 22.91 24.62 C22.29 25.14, 21.61 25.62, 20.92 26.02 C20.22 26.42, 19.47 26.77, 18.71 27.05 C17.95 27.32, 17.16 27.53, 16.36 27.67 C15.57 27.82, 14.75 27.89, 13.94 27.89 C13.14 27.89, 12.32 27.82, 11.52 27.67 C10.73 27.53, 9.93 27.32, 9.17 27.05 C8.42 26.77, 7.67 26.42, 6.97 26.02 C6.27 25.62, 5.6 25.14, 4.98 24.62 C4.36 24.11, 3.78 23.52, 3.26 22.91 C2.74 22.29, 2.27 21.61, 1.87 20.92 C1.46 20.22, 1.12 19.47, 0.84 18.71 C0.56 17.95, 0.35 17.16, 0.21 16.36 C0.07 15.57, 0 14.75, 0 13.94 C0 13.14, 0.07 12.32, 0.21 11.52 C0.35 10.73, 0.56 9.93, 0.84 9.17 C1.12 8.42, 1.46 7.67, 1.87 6.97 C2.27 6.27, 2.74 5.6, 3.26 4.98 C3.78 4.36, 4.36 3.78, 4.98 3.26 C5.6 2.74, 6.27 2.27, 6.97 1.87 C7.67 1.46, 8.42 1.12, 9.17 0.84 C9.93 0.56, 10.73 0.35, 11.52 0.21 C12.32 0.07, 13.14 0, 13.94 0 C14.75 0, 15.57 0.07, 16.36 0.21 C17.16 0.35, 17.95 0.56, 18.71 0.84 C19.47 1.12, 20.22 1.46, 20.92 1.87 C21.61 2.27, 22.29 2.74, 22.91 3.26 C23.52 3.78, 24.11 4.36, 24.62 4.98 C25.14 5.6, 25.62 6.27, 26.02 6.97 C26.42 7.67, 26.77 8.42, 27.05 9.17 C27.32 9.93, 27.53 10.73, 27.67 11.52 C27.82 12.32, 27.85 13.54, 27.89 13.94 C27.92 14.35, 27.92 13.54, 27.89 13.94" stroke="none" stroke-width="0" fill="#e03131"></path><path d="M27.89 13.94 C27.89 14.75, 27.82 15.57, 27.67 16.36 C27.53 17.16, 27.32 17.95, 27.05 18.71 C26.77 19.47, 26.42 20.22, 26.02 20.92 C25.62 21.61, 25.14 22.29, 24.62 22.91 C24.11 23.52, 23.52 24.11, 22.91 24.62 C22.29 25.14, 21.61 25.62, 20.92 26.02 C20.22 26.42, 19.47 26.77, 18.71 27.05 C17.95 27.32, 17.16 27.53, 16.36 27.67 C15.57 27.82, 14.75 27.89, 13.94 27.89 C13.14 27.89, 12.32 27.82, 11.52 27.67 C10.73 27.53, 9.93 27.32, 9.17 27.05 C8.42 26.77, 7.67 26.42, 6.97 26.02 C6.27 25.62, 5.6 25.14, 4.98 24.62 C4.36 24.11, 3.78 23.52, 3.26 22.91 C2.74 22.29, 2.27 21.61, 1.87 20.92 C1.46 20.22, 1.12 19.47, 0.84 18.71 C0.56 17.95, 0.35 17.16, 0.21 16.36 C0.07 15.57, 0 14.75, 0 13.94 C0 13.14, 0.07 12.32, 0.21 11.52 C0.35 10.73, 0.56 9.93, 0.84 9.17 C1.12 8.42, 1.46 7.67, 1.87 6.97 C2.27 6.27, 2.74 5.6, 3.26 4.98 C3.78 4.36, 4.36 3.78, 4.98 3.26 C5.6 2.74, 6.27 2.27, 6.97 1.87 C7.67 1.46, 8.42 1.12, 9.17 0.84 C9.93 0.56, 10.73 0.35, 11.52 0.21 C12.32 0.07, 13.14 0, 13.94 0 C14.75 0, 15.57 0.07, 16.36 0.21 C17.16 0.35, 17.95 0.56, 18.71 0.84 C19.47 1.12, 20.22 1.46, 20.92 1.87 C21.61 2.27, 22.29 2.74, 22.91 3.26 C23.52 3.78, 24.11 4.36, 24.62 4.98 C25.14 5.6, 25.62 6.27, 26.02 6.97 C26.42 7.67, 26.77 8.42, 27.05 9.17 C27.32 9.93, 27.53 10.73, 27.67 11.52 C27.82 12.32, 27.85 13.54, 27.89 13.94 C27.92 14.35, 27.92 13.54, 27.89 13.94" stroke="#e03131" stroke-width="4" fill="none"></path></g><g stroke-opacity="0.4" fill-opacity="0.4" stroke-linecap="round" transform="translate(1622.903925027921 575.8020490055877) rotate(0 13.943358391106813 13.943358391106926)"><path d="M27.89 13.94 C27.89 14.75, 27.82 15.57, 27.67 16.36 C27.53 17.16, 27.32 17.95, 27.05 18.71 C26.77 19.47, 26.42 20.22, 26.02 20.92 C25.62 21.61, 25.14 22.29, 24.62 22.91 C24.11 23.52, 23.52 24.11, 22.91 24.62 C22.29 25.14, 21.61 25.62, 20.92 26.02 C20.22 26.42, 19.47 26.77, 18.71 27.05 C17.95 27.32, 17.16 27.53, 16.36 27.67 C15.57 27.82, 14.75 27.89, 13.94 27.89 C13.14 27.89, 12.32 27.82, 11.52 27.67 C10.73 27.53, 9.93 27.32, 9.17 27.05 C8.42 26.77, 7.67 26.42, 6.97 26.02 C6.27 25.62, 5.6 25.14, 4.98 24.62 C4.36 24.11, 3.78 23.52, 3.26 22.91 C2.74 22.29, 2.27 21.61, 1.87 20.92 C1.46 20.22, 1.12 19.47, 0.84 18.71 C0.56 17.95, 0.35 17.16, 0.21 16.36 C0.07 15.57, 0 14.75, 0 13.94 C0 13.14, 0.07 12.32, 0.21 11.52 C0.35 10.73, 0.56 9.93, 0.84 9.17 C1.12 8.42, 1.46 7.67, 1.87 6.97 C2.27 6.27, 2.74 5.6, 3.26 4.98 C3.78 4.36, 4.36 3.78, 4.98 3.26 C5.6 2.74, 6.27 2.27, 6.97 1.87 C7.67 1.46, 8.42 1.12, 9.17 0.84 C9.93 0.56, 10.73 0.35, 11.52 0.21 C12.32 0.07, 13.14 0, 13.94 0 C14.75 0, 15.57 0.07, 16.36 0.21 C17.16 0.35, 17.95 0.56, 18.71 0.84 C19.47 1.12, 20.22 1.46, 20.92 1.87 C21.61 2.27, 22.29 2.74, 22.91 3.26 C23.52 3.78, 24.11 4.36, 24.62 4.98 C25.14 5.6, 25.62 6.27, 26.02 6.97 C26.42 7.67, 26.77 8.42, 27.05 9.17 C27.32 9.93, 27.53 10.73, 27.67 11.52 C27.82 12.32, 27.85 13.54, 27.89 13.94 C27.92 14.35, 27.92 13.54, 27.89 13.94" stroke="none" stroke-width="0" fill="#e03131"></path><path d="M27.89 13.94 C27.89 14.75, 27.82 15.57, 27.67 16.36 C27.53 17.16, 27.32 17.95, 27.05 18.71 C26.77 19.47, 26.42 20.22, 26.02 20.92 C25.62 21.61, 25.14 22.29, 24.62 22.91 C24.11 23.52, 23.52 24.11, 22.91 24.62 C22.29 25.14, 21.61 25.62, 20.92 26.02 C20.22 26.42, 19.47 26.77, 18.71 27.05 C17.95 27.32, 17.16 27.53, 16.36 27.67 C15.57 27.82, 14.75 27.89, 13.94 27.89 C13.14 27.89, 12.32 27.82, 11.52 27.67 C10.73 27.53, 9.93 27.32, 9.17 27.05 C8.42 26.77, 7.67 26.42, 6.97 26.02 C6.27 25.62, 5.6 25.14, 4.98 24.62 C4.36 24.11, 3.78 23.52, 3.26 22.91 C2.74 22.29, 2.27 21.61, 1.87 20.92 C1.46 20.22, 1.12 19.47, 0.84 18.71 C0.56 17.95, 0.35 17.16, 0.21 16.36 C0.07 15.57, 0 14.75, 0 13.94 C0 13.14, 0.07 12.32, 0.21 11.52 C0.35 10.73, 0.56 9.93, 0.84 9.17 C1.12 8.42, 1.46 7.67, 1.87 6.97 C2.27 6.27, 2.74 5.6, 3.26 4.98 C3.78 4.36, 4.36 3.78, 4.98 3.26 C5.6 2.74, 6.27 2.27, 6.97 1.87 C7.67 1.46, 8.42 1.12, 9.17 0.84 C9.93 0.56, 10.73 0.35, 11.52 0.21 C12.32 0.07, 13.14 0, 13.94 0 C14.75 0, 15.57 0.07, 16.36 0.21 C17.16 0.35, 17.95 0.56, 18.71 0.84 C19.47 1.12, 20.22 1.46, 20.92 1.87 C21.61 2.27, 22.29 2.74, 22.91 3.26 C23.52 3.78, 24.11 4.36, 24.62 4.98 C25.14 5.6, 25.62 6.27, 26.02 6.97 C26.42 7.67, 26.77 8.42, 27.05 9.17 C27.32 9.93, 27.53 10.73, 27.67 11.52 C27.82 12.32, 27.85 13.54, 27.89 13.94 C27.92 14.35, 27.92 13.54, 27.89 13.94" stroke="#e03131" stroke-width="4" fill="none"></path></g></svg>