<svg version="1.1" xmlns="http://www.w3.org/2000/svg" viewBox="0 0 1956.3159409460259 660.3347500938794" width="1956.3159409460259" height="660.3347500938794" class="excalidraw-svg">
  <!-- svg-source:excalidraw -->
  
  <defs>
    <style class="style-fonts">
      
    </style>
    
  </defs>
  <rect x="0" y="0" width="1956.3159409460259" height="660.3347500938794" fill="#ffffff"></rect><g stroke-linecap="round" transform="translate(203.5945602799975 193.4359856816236) rotate(0 158.72466811926324 33.77876722192241)"><path d="M0 0 L317.45 0 L317.45 67.56 L0 67.56" stroke="none" stroke-width="0" fill="#b2f2bb"></path><path d="M0 0 C66.74 0, 133.49 0, 317.45 0 M0 0 C120.26 0, 240.52 0, 317.45 0 M317.45 0 C317.45 15.99, 317.45 31.97, 317.45 67.56 M317.45 0 C317.45 25.91, 317.45 51.82, 317.45 67.56 M317.45 67.56 C245.7 67.56, 173.96 67.56, 0 67.56 M317.45 67.56 C212.67 67.56, 107.9 67.56, 0 67.56 M0 67.56 C0 48.83, 0 30.11, 0 0 M0 67.56 C0 42.89, 0 18.23, 0 0" stroke="#1e1e1e" stroke-width="2" fill="none"></path></g><g transform="translate(252.85145496176074 206.51475290354597) rotate(0 109.4677734375 20.69999999999999)"><text x="109.4677734375" y="30.420703125" font-family="Helvetica, Segoe UI Emoji" font-size="36px" fill="#1e1e1e" text-anchor="middle" style="white-space: pre;" direction="ltr" dominant-baseline="alphabetic">Memcpy H2D</text></g><g stroke-linecap="round" transform="translate(392.7429045421759 399.2422099349658) rotate(0 217.4902628952566 33.77876722192241)"><path d="M0 0 L434.98 0 L434.98 67.56 L0 67.56" stroke="none" stroke-width="0" fill="#ffec99"></path><path d="M0 0 C169.95 0, 339.89 0, 434.98 0 M0 0 C120.06 0, 240.12 0, 434.98 0 M434.98 0 C434.98 23.35, 434.98 46.7, 434.98 67.56 M434.98 0 C434.98 15.57, 434.98 31.14, 434.98 67.56 M434.98 67.56 C314.44 67.56, 193.89 67.56, 0 67.56 M434.98 67.56 C327.2 67.56, 219.43 67.56, 0 67.56 M0 67.56 C0 49.65, 0 31.74, 0 0 M0 67.56 C0 40.99, 0 14.43, 0 0" stroke="#1e1e1e" stroke-width="2" fill="none"></path></g><g transform="translate(529.8132455624327 412.32097715688815) rotate(0 80.419921875 20.700000000000045)"><text x="80.419921875" y="30.420703125" font-family="Helvetica, Segoe UI Emoji" font-size="36px" fill="#1e1e1e" text-anchor="middle" style="white-space: pre;" direction="ltr" dominant-baseline="alphabetic">Cpu Work</text></g><g stroke-linecap="round" transform="translate(550.7318767263496 194.03904343258773) rotate(0 165.6277449108038 33.77876722192241)"><path d="M0 0 L331.26 0 L331.26 67.56 L0 67.56" stroke="none" stroke-width="0" fill="#a5d8ff"></path><path d="M0 0 C118.27 0, 236.53 0, 331.26 0 M0 0 C71.69 0, 143.37 0, 331.26 0 M331.26 0 C331.26 18.02, 331.26 36.04, 331.26 67.56 M331.26 0 C331.26 25.39, 331.26 50.77, 331.26 67.56 M331.26 67.56 C230.57 67.56, 129.88 67.56, 0 67.56 M331.26 67.56 C204.92 67.56, 78.59 67.56, 0 67.56 M0 67.56 C0 45.27, 0 22.99, 0 0 M0 67.56 C0 52.88, 0 38.2, 0 0" stroke="#1e1e1e" stroke-width="2" fill="none"></path></g><g transform="translate(664.1701685121534 207.1178106545101) rotate(0 52.189453125 20.69999999999999)"><text x="52.189453125" y="30.420703125" font-family="Helvetica, Segoe UI Emoji" font-size="36px" fill="#1e1e1e" text-anchor="middle" style="white-space: pre;" direction="ltr" dominant-baseline="alphabetic">Kernel</text></g><g stroke-linecap="round"><g transform="translate(222.33044313270375 397.9444851591277) rotate(0 -8.838958316782964 -68.47584546117344)"><path d="M0 0 C-3.55 -27.48, -7.09 -54.95, -17.68 -136.95 M0 0 C-4.35 -33.71, -8.7 -67.41, -17.68 -136.95" stroke="#1e1e1e" stroke-width="2" fill="none"></path></g></g><mask></mask><g stroke-linecap="round"><g transform="translate(158.28513788046075 583.6035958528983) rotate(0 840.8135426600488 0)"><path d="M0 0 C280.27 0, 1401.36 0, 1681.63 0 M0 0 C280.27 0, 1401.36 0, 1681.63 0" stroke="#1e1e1e" stroke-width="4" fill="none"></path></g><g transform="translate(158.28513788046075 583.6035958528983) rotate(0 840.8135426600488 0)"><path d="M1658.13 8.55 C1663.69 6.53, 1669.25 4.5, 1681.63 0 M1658.13 8.55 C1667.14 5.27, 1676.15 1.99, 1681.63 0" stroke="#1e1e1e" stroke-width="4" fill="none"></path></g><g transform="translate(158.28513788046075 583.6035958528983) rotate(0 840.8135426600488 0)"><path d="M1658.13 -8.55 C1663.69 -6.53, 1669.25 -4.5, 1681.63 0 M1658.13 -8.55 C1667.14 -5.27, 1676.15 -1.99, 1681.63 0" stroke="#1e1e1e" stroke-width="4" fill="none"></path></g></g><mask></mask><g transform="translate(1825.5315912587248 608.9347500938793) rotate(0 34.0048828125 20.700000000000045)"><text x="34.0048828125" y="30.420703125" font-family="Helvetica, Segoe UI Emoji" font-size="36px" fill="#1e1e1e" text-anchor="middle" style="white-space: pre;" direction="ltr" dominant-baseline="alphabetic">time</text></g><g stroke-linecap="round"><g transform="translate(279.87018565721564 400.08997906367085) rotate(0 135.84072128910907 -68.61816911691801)"><path d="M0 0 C93.91 -47.44, 187.82 -94.87, 271.68 -137.24 M0 0 C62.62 -31.63, 125.24 -63.26, 271.68 -137.24" stroke="#1e1e1e" stroke-width="2" fill="none"></path></g></g><mask></mask><g stroke-linecap="round" transform="translate(910.7526478620662 192.43744277395945) rotate(0 55.344920569379155 33.77876722192241)"><path d="M0 0 L110.69 0 L110.69 67.56 L0 67.56" stroke="none" stroke-width="0" fill="#ffc9c9"></path><path d="M0 0 C26.05 0, 52.09 0, 110.69 0 M0 0 C23.01 0, 46.02 0, 110.69 0 M110.69 0 C110.69 14.62, 110.69 29.24, 110.69 67.56 M110.69 0 C110.69 17.73, 110.69 35.46, 110.69 67.56 M110.69 67.56 C88.24 67.56, 65.78 67.56, 0 67.56 M110.69 67.56 C78.77 67.56, 46.85 67.56, 0 67.56 M0 67.56 C0 40.55, 0 13.55, 0 0 M0 67.56 C0 52.28, 0 37.01, 0 0" stroke="#1e1e1e" stroke-width="2" fill="none"></path></g><g transform="translate(918.9530371814453 205.5162099958818) rotate(0 47.14453125 20.69999999999999)"><text x="47.14453125" y="30.420703125" font-family="Helvetica, Segoe UI Emoji" font-size="36px" fill="#1e1e1e" text-anchor="middle" style="white-space: pre;" direction="ltr" dominant-baseline="alphabetic">Event</text></g><g stroke-linecap="round"><g transform="translate(335.331508482368 401.64049807463675) rotate(0 316.0291171593303 -70.9945575019957)"><path d="M0 0 C227.04 -51, 454.08 -102.01, 632.06 -141.99 M0 0 C178.32 -40.06, 356.64 -80.12, 632.06 -141.99" stroke="#1e1e1e" stroke-width="2" fill="none"></path></g></g><mask></mask><g stroke-linecap="round" transform="translate(205.51644778936816 399.47237106627244) rotate(0 17.27705353149122 33.77876722192241)"><path d="M0 0 L34.55 0 L34.55 67.56 L0 67.56" stroke="none" stroke-width="0" fill="#b2f2bb"></path><path d="M0 0 C7.47 0, 14.95 0, 34.55 0 M0 0 C11.77 0, 23.53 0, 34.55 0 M34.55 0 C34.55 16.75, 34.55 33.5, 34.55 67.56 M34.55 0 C34.55 22.09, 34.55 44.18, 34.55 67.56 M34.55 67.56 C22.88 67.56, 11.2 67.56, 0 67.56 M34.55 67.56 C23.9 67.56, 13.24 67.56, 0 67.56 M0 67.56 C0 46.39, 0 25.22, 0 0 M0 67.56 C0 50.46, 0 33.35, 0 0" stroke="#1e1e1e" stroke-width="2" fill="none"></path></g><g stroke-linecap="round" transform="translate(262.76928391964793 399.47237106627244) rotate(0 17.27705353149122 33.77876722192241)"><path d="M0 0 L34.55 0 L34.55 67.56 L0 67.56" stroke="none" stroke-width="0" fill="#a5d8ff"></path><path d="M0 0 C7.81 0, 15.62 0, 34.55 0 M0 0 C11.4 0, 22.81 0, 34.55 0 M34.55 0 C34.55 18.72, 34.55 37.45, 34.55 67.56 M34.55 0 C34.55 24.67, 34.55 49.33, 34.55 67.56 M34.55 67.56 C25.12 67.56, 15.68 67.56, 0 67.56 M34.55 67.56 C24.16 67.56, 13.76 67.56, 0 67.56 M0 67.56 C0 41.78, 0 16.01, 0 0 M0 67.56 C0 46.27, 0 24.98, 0 0" stroke="#1e1e1e" stroke-width="2" fill="none"></path></g><g stroke-linecap="round" transform="translate(318.94374002303766 400.65500034647175) rotate(0 17.27705353149122 33.77876722192241)"><path d="M0 0 L34.55 0 L34.55 67.56 L0 67.56" stroke="none" stroke-width="0" fill="#ffc9c9"></path><path d="M0 0 C12.46 0, 24.93 0, 34.55 0 M0 0 C10.22 0, 20.43 0, 34.55 0 M34.55 0 C34.55 13.54, 34.55 27.08, 34.55 67.56 M34.55 0 C34.55 22.33, 34.55 44.67, 34.55 67.56 M34.55 67.56 C23.99 67.56, 13.42 67.56, 0 67.56 M34.55 67.56 C21.16 67.56, 7.77 67.56, 0 67.56 M0 67.56 C0 48.31, 0 29.06, 0 0 M0 67.56 C0 43.65, 0 19.74, 0 0" stroke="#1e1e1e" stroke-width="2" fill="none"></path></g><g stroke-linecap="round" transform="translate(1073.1964796811453 194.03904343258773) rotate(0 197.59645282980205 33.77876722192241)"><path d="M0 0 L395.19 0 L395.19 67.56 L0 67.56" stroke="none" stroke-width="0" fill="#a5d8ff"></path><path d="M0 0 C109.52 0, 219.04 0, 395.19 0 M0 0 C97.92 0, 195.84 0, 395.19 0 M395.19 0 C395.19 17.91, 395.19 35.81, 395.19 67.56 M395.19 0 C395.19 26.56, 395.19 53.13, 395.19 67.56 M395.19 67.56 C247.45 67.56, 99.71 67.56, 0 67.56 M395.19 67.56 C238.02 67.56, 80.84 67.56, 0 67.56 M0 67.56 C0 43.76, 0 19.97, 0 0 M0 67.56 C0 43.38, 0 19.2, 0 0" stroke="#1e1e1e" stroke-width="2" fill="none"></path></g><g transform="translate(1203.1259403234471 207.1178106545101) rotate(0 67.6669921875 20.69999999999999)"><text x="67.6669921875" y="30.420703125" font-family="Helvetica, Segoe UI Emoji" font-size="36px" fill="#1e1e1e" text-anchor="middle" style="white-space: pre;" direction="ltr" dominant-baseline="alphabetic">Kernel 2</text></g><g stroke-linecap="round" transform="translate(1509.7026988186371 193.4359856816236) rotate(0 158.72466811926324 33.77876722192241)"><path d="M0 0 L317.45 0 L317.45 67.56 L0 67.56" stroke="none" stroke-width="0" fill="#b2f2bb"></path><path d="M0 0 C96.49 0, 192.98 0, 317.45 0 M0 0 C121.07 0, 242.13 0, 317.45 0 M317.45 0 C317.45 22.29, 317.45 44.57, 317.45 67.56 M317.45 0 C317.45 14.68, 317.45 29.35, 317.45 67.56 M317.45 67.56 C193.61 67.56, 69.78 67.56, 0 67.56 M317.45 67.56 C211.7 67.56, 105.95 67.56, 0 67.56 M0 67.56 C0 53.06, 0 38.56, 0 0 M0 67.56 C0 44.3, 0 21.04, 0 0" stroke="#1e1e1e" stroke-width="2" fill="none"></path></g><g transform="translate(1559.4078356879 206.51475290354597) rotate(0 109.01953125 20.69999999999999)"><text x="109.01953125" y="30.420703125" font-family="Helvetica, Segoe UI Emoji" font-size="36px" fill="#1e1e1e" text-anchor="middle" style="white-space: pre;" direction="ltr" dominant-baseline="alphabetic">Memcpy D2H</text></g><g stroke-linecap="round"><g transform="translate(1026.1615325929602 115.27735359257645) rotate(0 0 198.04554980624175)"><path d="M0 0 C0 98.2, 0 196.4, 0 396.09" stroke="#e03131" stroke-width="4.5" fill="none" stroke-dasharray="8 12"></path></g></g><mask></mask><g transform="translate(895.8491338927006 10) rotate(0 128.07421875 41.39999999999998)"><text x="128.07421875" y="30.420703125" font-family="Helvetica, Segoe UI Emoji" font-size="36px" fill="#1e1e1e" text-anchor="middle" style="white-space: pre;" direction="ltr" dominant-baseline="alphabetic">Synchronization</text><text x="128.07421875" y="71.820703125" font-family="Helvetica, Segoe UI Emoji" font-size="36px" fill="#1e1e1e" text-anchor="middle" style="white-space: pre;" direction="ltr" dominant-baseline="alphabetic">Point</text></g><g stroke-linecap="round"><g transform="translate(1061.514026598491 403.97851092830706) rotate(0 6.837852155045994 -70.15144320614104)"><path d="M0 0 C2.74 -28.12, 5.48 -56.24, 13.68 -140.3 M0 0 C4.52 -46.38, 9.04 -92.77, 13.68 -140.3" stroke="#1e1e1e" stroke-width="2" fill="none"></path></g></g><mask></mask><g stroke-linecap="round" transform="translate(1044.3300169718877 399.47237106627244) rotate(0 17.27705353149122 33.77876722192241)"><path d="M0 0 L34.55 0 L34.55 67.56 L0 67.56" stroke="none" stroke-width="0" fill="#a5d8ff"></path><path d="M0 0 C9.16 0, 18.32 0, 34.55 0 M0 0 C13.59 0, 27.17 0, 34.55 0 M34.55 0 C34.55 25.26, 34.55 50.51, 34.55 67.56 M34.55 0 C34.55 26.87, 34.55 53.74, 34.55 67.56 M34.55 67.56 C22.38 67.56, 10.22 67.56, 0 67.56 M34.55 67.56 C22.19 67.56, 9.82 67.56, 0 67.56 M0 67.56 C0 45.05, 0 22.54, 0 0 M0 67.56 C0 51.61, 0 35.67, 0 0" stroke="#1e1e1e" stroke-width="2" fill="none"></path></g><g stroke-linecap="round" transform="translate(1120.5791822818892 399.2422099349658) rotate(0 84.79810052760422 33.77876722192241)"><path d="M0 0 L169.6 0 L169.6 67.56 L0 67.56" stroke="none" stroke-width="0" fill="#ffec99"></path><path d="M0 0 C34.4 0, 68.81 0, 169.6 0 M0 0 C48.91 0, 97.82 0, 169.6 0 M169.6 0 C169.6 27, 169.6 54.01, 169.6 67.56 M169.6 0 C169.6 15.27, 169.6 30.55, 169.6 67.56 M169.6 67.56 C102.39 67.56, 35.17 67.56, 0 67.56 M169.6 67.56 C121.86 67.56, 74.13 67.56, 0 67.56 M0 67.56 C0 49.56, 0 31.57, 0 0 M0 67.56 C0 52.28, 0 37.01, 0 0" stroke="#1e1e1e" stroke-width="2" fill="none"></path></g><g transform="translate(1124.9573609344934 412.32097715688815) rotate(0 80.419921875 20.700000000000045)"><text x="80.419921875" y="30.420703125" font-family="Helvetica, Segoe UI Emoji" font-size="36px" fill="#1e1e1e" text-anchor="middle" style="white-space: pre;" direction="ltr" dominant-baseline="alphabetic">Cpu Work</text></g><g stroke-linecap="round" transform="translate(1317.853456240236 399.47237106627244) rotate(0 17.27705353149122 33.77876722192241)"><path d="M0 0 L34.55 0 L34.55 67.56 L0 67.56" stroke="none" stroke-width="0" fill="#b2f2bb"></path><path d="M0 0 C8.52 0, 17.04 0, 34.55 0 M0 0 C11.97 0, 23.94 0, 34.55 0 M34.55 0 C34.55 22.71, 34.55 45.42, 34.55 67.56 M34.55 0 C34.55 16.55, 34.55 33.09, 34.55 67.56 M34.55 67.56 C24.57 67.56, 14.59 67.56, 0 67.56 M34.55 67.56 C23.08 67.56, 11.61 67.56, 0 67.56 M0 67.56 C0 43.25, 0 18.94, 0 0 M0 67.56 C0 47.43, 0 27.31, 0 0" stroke="#1e1e1e" stroke-width="2" fill="none"></path></g><g stroke-linecap="round"><g transform="translate(1336.9783970232975 400.11076028638126) rotate(0 88.46144157843491 -69.63054165497783)"><path d="M0 0 C59.8 -47.07, 119.59 -94.13, 176.92 -139.26 M0 0 C54.55 -42.94, 109.11 -85.88, 176.92 -139.26" stroke="#1e1e1e" stroke-width="2" fill="none"></path></g></g><mask></mask><g stroke-linecap="round" transform="translate(1390.7487386419298 400.65500034647175) rotate(0 218.05072264896808 33.77876722192241)"><path d="M0 0 L436.1 0 L436.1 67.56 L0 67.56" stroke="none" stroke-width="0" fill="#ffc9c9"></path><path d="M0 0 C119.12 0, 238.25 0, 436.1 0 M0 0 C131.21 0, 262.42 0, 436.1 0 M436.1 0 C436.1 25.77, 436.1 51.55, 436.1 67.56 M436.1 0 C436.1 21.29, 436.1 42.58, 436.1 67.56 M436.1 67.56 C281.71 67.56, 127.31 67.56, 0 67.56 M436.1 67.56 C326.45 67.56, 216.8 67.56, 0 67.56 M0 67.56 C0 52.22, 0 36.89, 0 0 M0 67.56 C0 46.02, 0 24.49, 0 0" stroke="#1e1e1e" stroke-width="2" fill="none"></path></g><g stroke-linecap="round" transform="translate(849.6796721491992 400.431900953467) rotate(0 86.28542742627565 33.77876722192241)"><path d="M0 0 L172.57 0 L172.57 67.56 L0 67.56" stroke="none" stroke-width="0" fill="#ffc9c9"></path><path d="M0 0 C52.77 0, 105.54 0, 172.57 0 M0 0 C66.89 0, 133.77 0, 172.57 0 M172.57 0 C172.57 19.25, 172.57 38.5, 172.57 67.56 M172.57 0 C172.57 23.91, 172.57 47.82, 172.57 67.56 M172.57 67.56 C132.83 67.56, 93.09 67.56, 0 67.56 M172.57 67.56 C123.85 67.56, 75.13 67.56, 0 67.56 M0 67.56 C0 52.78, 0 38, 0 0 M0 67.56 C0 47.88, 0 28.2, 0 0" stroke="#1e1e1e" stroke-width="2" fill="none"></path></g><g stroke-linecap="round"><g transform="translate(1827.7560304437102 115.27735359257645) rotate(0 0 198.04554980624175)"><path d="M0 0 C0 148.08, 0 296.15, 0 396.09" stroke="#e03131" stroke-width="4.5" fill="none" stroke-dasharray="8 12"></path></g></g><mask></mask><g transform="translate(1690.1675034460259 10) rotate(0 128.07421875 41.39999999999998)"><text x="128.07421875" y="30.420703125" font-family="Helvetica, Segoe UI Emoji" font-size="36px" fill="#1e1e1e" text-anchor="middle" style="white-space: pre;" direction="ltr" dominant-baseline="alphabetic">Synchronization</text><text x="128.07421875" y="71.820703125" font-family="Helvetica, Segoe UI Emoji" font-size="36px" fill="#1e1e1e" text-anchor="middle" style="white-space: pre;" direction="ltr" dominant-baseline="alphabetic">Point</text></g><g transform="translate(10 204.7705200488026) rotate(0 55.6875 20.69999999999999)"><text x="55.6875" y="30.420703125" font-family="Helvetica, Segoe UI Emoji" font-size="36px" fill="#1e1e1e" text-anchor="middle" style="white-space: pre;" direction="ltr" dominant-baseline="alphabetic">Device</text></g><g stroke-linecap="round"><g transform="translate(164.49693305567553 507.91054854555273) rotate(0 18.901647055232388 -17.19816146085691)"><path d="M0 0 C6.3 -5.73, 31.5 -28.66, 37.8 -34.4 M0 0 C6.3 -5.73, 31.5 -28.66, 37.8 -34.4" stroke="#1e1e1e" stroke-width="2" fill="none"></path></g><g transform="translate(164.49693305567553 507.91054854555273) rotate(0 18.901647055232388 -17.19816146085691)"><path d="M26.18 -12.26 C29.82 -19.2, 33.46 -26.13, 37.8 -34.4 M26.18 -12.26 C29.12 -17.86, 32.07 -23.47, 37.8 -34.4" stroke="#1e1e1e" stroke-width="2" fill="none"></path></g><g transform="translate(164.49693305567553 507.91054854555273) rotate(0 18.901647055232388 -17.19816146085691)"><path d="M14.67 -24.91 C21.92 -27.88, 29.17 -30.85, 37.8 -34.4 M14.67 -24.91 C20.53 -27.31, 26.38 -29.71, 37.8 -34.4" stroke="#1e1e1e" stroke-width="2" fill="none"></path></g></g><mask></mask><g transform="translate(37.76104467109144 545.554242727778) rotate(0 150.634765625 11.5)"><text x="150.634765625" y="16.900390625" font-family="Helvetica, Segoe UI Emoji" font-size="20px" fill="#1e1e1e" text-anchor="middle" style="white-space: pre;" direction="ltr" dominant-baseline="alphabetic">kernel1&lt;&lt;&lt; /*...*/, /*...*/ &gt;&gt;&gt;(/*...*/)</text></g><g stroke-linecap="round"><g transform="translate(212.82792678568921 534.2628853581405) rotate(0 32.10896099548654 -27.5748944622851)"><path d="M0 0 C10.7 -9.19, 53.51 -45.96, 64.22 -55.15 M0 0 C10.7 -9.19, 53.51 -45.96, 64.22 -55.15" stroke="#1e1e1e" stroke-width="2" fill="none"></path></g><g transform="translate(212.82792678568921 534.2628853581405) rotate(0 32.10896099548654 -27.5748944622851)"><path d="M51.97 -33.36 C55.46 -39.57, 58.95 -45.78, 64.22 -55.15 M51.97 -33.36 C56.3 -41.07, 60.64 -48.78, 64.22 -55.15" stroke="#1e1e1e" stroke-width="2" fill="none"></path></g><g transform="translate(212.82792678568921 534.2628853581405) rotate(0 32.10896099548654 -27.5748944622851)"><path d="M40.82 -46.33 C47.49 -48.84, 54.16 -51.36, 64.22 -55.15 M40.82 -46.33 C49.1 -49.45, 57.38 -52.57, 64.22 -55.15" stroke="#1e1e1e" stroke-width="2" fill="none"></path></g></g><mask></mask><g transform="translate(217.66739518031136 610.4103592343358) rotate(0 86.15234375 11.5)"><text x="86.15234375" y="16.900390625" font-family="Helvetica, Segoe UI Emoji" font-size="20px" fill="#1e1e1e" text-anchor="middle" style="white-space: pre;" direction="ltr" dominant-baseline="alphabetic">cudaEventRecord()</text></g><g stroke-linecap="round"><g transform="translate(370.9005986835082 606.1336671872571) rotate(0 -17.203114381155046 -62.63358878087536)"><path d="M0 0 C-5.73 -20.88, -28.67 -104.39, -34.41 -125.27 M0 0 C-5.73 -20.88, -28.67 -104.39, -34.41 -125.27" stroke="#1e1e1e" stroke-width="2" fill="none"></path></g><g transform="translate(370.9005986835082 606.1336671872571) rotate(0 -17.203114381155046 -62.63358878087536)"><path d="M-19.94 -104.88 C-25.67 -112.96, -31.41 -121.04, -34.41 -125.27 M-19.94 -104.88 C-24.01 -110.62, -28.08 -116.36, -34.41 -125.27" stroke="#1e1e1e" stroke-width="2" fill="none"></path></g><g transform="translate(370.9005986835082 606.1336671872571) rotate(0 -17.203114381155046 -62.63358878087536)"><path d="M-36.43 -100.35 C-35.63 -110.22, -34.83 -120.1, -34.41 -125.27 M-36.43 -100.35 C-35.86 -107.36, -35.29 -114.38, -34.41 -125.27" stroke="#1e1e1e" stroke-width="2" fill="none"></path></g></g><mask></mask><g transform="translate(824.9936349546824 520.9138567071989) rotate(0 105.78125 11.5)"><text x="105.78125" y="16.900390625" font-family="Helvetica, Segoe UI Emoji" font-size="20px" fill="#1e1e1e" text-anchor="middle" style="white-space: pre;" direction="ltr" dominant-baseline="alphabetic">cudaStreamWaitEvent()</text></g><g stroke-linecap="round"><g transform="translate(930.5268056664922 510.41881334812615) rotate(0 -0.026684066783673188 -16.14457709693272)"><path d="M0 0 C-0.01 -5.38, -0.04 -26.91, -0.05 -32.29 M0 0 C-0.01 -5.38, -0.04 -26.91, -0.05 -32.29" stroke="#1e1e1e" stroke-width="2" fill="none"></path></g><g transform="translate(930.5268056664922 510.41881334812615) rotate(0 -0.026684066783673188 -16.14457709693272)"><path d="M5.49 -17.13 C3.89 -21.51, 2.29 -25.89, -0.05 -32.29 M5.49 -17.13 C3.65 -22.16, 1.81 -27.19, -0.05 -32.29" stroke="#1e1e1e" stroke-width="2" fill="none"></path></g><g transform="translate(930.5268056664922 510.41881334812615) rotate(0 -0.026684066783673188 -16.14457709693272)"><path d="M-5.55 -17.11 C-3.96 -21.49, -2.37 -25.88, -0.05 -32.29 M-5.55 -17.11 C-3.73 -22.15, -1.9 -27.19, -0.05 -32.29" stroke="#1e1e1e" stroke-width="2" fill="none"></path></g></g><mask></mask><g transform="translate(593.9352981579023 520.9138567071989) rotate(0 20.5615234375 11.5)"><text x="20.5615234375" y="16.900390625" font-family="Helvetica, Segoe UI Emoji" font-size="20px" fill="#1e1e1e" text-anchor="middle" style="white-space: pre;" direction="ltr" dominant-baseline="alphabetic">foo()</text></g><g stroke-linecap="round"><g transform="translate(610.3202566118248 514.6761704216628) rotate(0 0 -20.210784309829933)"><path d="M0 0 C0 -6.74, 0 -33.68, 0 -40.42 M0 0 C0 -6.74, 0 -33.68, 0 -40.42" stroke="#1e1e1e" stroke-width="2" fill="none"></path></g><g transform="translate(610.3202566118248 514.6761704216628) rotate(0 0 -20.210784309829933)"><path d="M6.91 -21.43 C4.47 -28.15, 2.02 -34.88, 0 -40.42 M6.91 -21.43 C5.17 -26.2, 3.44 -30.98, 0 -40.42" stroke="#1e1e1e" stroke-width="2" fill="none"></path></g><g transform="translate(610.3202566118248 514.6761704216628) rotate(0 0 -20.210784309829933)"><path d="M-6.91 -21.43 C-4.47 -28.15, -2.02 -34.88, 0 -40.42 M-6.91 -21.43 C-5.17 -26.2, -3.44 -30.98, 0 -40.42" stroke="#1e1e1e" stroke-width="2" fill="none"></path></g></g><mask></mask><g transform="translate(1201.9671698029592 511.0670040833311) rotate(0 14.912109375 11.5)"><text x="14.912109375" y="16.900390625" font-family="Helvetica, Segoe UI Emoji" font-size="20px" fill="#1e1e1e" text-anchor="middle" style="white-space: pre;" direction="ltr" dominant-baseline="alphabetic">bar</text></g><g stroke-linecap="round"><g transform="translate(1217.7462413565654 505.81781155795034) rotate(0 -0.12804246404948572 -15.85496719455682)"><path d="M0 0 C-0.04 -5.28, -0.21 -26.42, -0.26 -31.71 M0 0 C-0.04 -5.28, -0.21 -26.42, -0.26 -31.71" stroke="#1e1e1e" stroke-width="2" fill="none"></path></g><g transform="translate(1217.7462413565654 505.81781155795034) rotate(0 -0.12804246404948572 -15.85496719455682)"><path d="M5.29 -16.85 C3.44 -21.8, 1.59 -26.75, -0.26 -31.71 M5.29 -16.85 C3.98 -20.36, 2.67 -23.87, -0.26 -31.71" stroke="#1e1e1e" stroke-width="2" fill="none"></path></g><g transform="translate(1217.7462413565654 505.81781155795034) rotate(0 -0.12804246404948572 -15.85496719455682)"><path d="M-5.56 -16.77 C-3.79 -21.75, -2.02 -26.73, -0.26 -31.71 M-5.56 -16.77 C-4.31 -20.29, -3.06 -23.82, -0.26 -31.71" stroke="#1e1e1e" stroke-width="2" fill="none"></path></g></g><mask></mask><g transform="translate(1248.6481172353479 545.6051129522177) rotate(0 93.359375 11.5)"><text x="93.359375" y="16.900390625" font-family="Helvetica, Segoe UI Emoji" font-size="20px" fill="#1e1e1e" text-anchor="middle" style="white-space: pre;" direction="ltr" dominant-baseline="alphabetic">cudaMemcpyAsync()</text></g><g stroke-linecap="round"><g transform="translate(1336.1683761041995 536.1064884184925) rotate(0 -0.9451277258360733 -30.81006683069222)"><path d="M0 0 C-0.32 -10.27, -1.58 -51.35, -1.89 -61.62 M0 0 C-0.32 -10.27, -1.58 -51.35, -1.89 -61.62" stroke="#1e1e1e" stroke-width="2" fill="none"></path></g><g transform="translate(1336.1683761041995 536.1064884184925) rotate(0 -0.9451277258360733 -30.81006683069222)"><path d="M7.38 -38.4 C4.43 -45.78, 1.49 -53.16, -1.89 -61.62 M7.38 -38.4 C4.3 -46.11, 1.23 -53.81, -1.89 -61.62" stroke="#1e1e1e" stroke-width="2" fill="none"></path></g><g transform="translate(1336.1683761041995 536.1064884184925) rotate(0 -0.9451277258360733 -30.81006683069222)"><path d="M-9.72 -37.88 C-7.23 -45.42, -4.74 -52.97, -1.89 -61.62 M-9.72 -37.88 C-7.12 -45.75, -4.52 -53.63, -1.89 -61.62" stroke="#1e1e1e" stroke-width="2" fill="none"></path></g></g><mask></mask><g transform="translate(1530.8288562996204 546.8869202710298) rotate(0 115.60546875 11.5)"><text x="115.60546875" y="16.900390625" font-family="Helvetica, Segoe UI Emoji" font-size="20px" fill="#1e1e1e" text-anchor="middle" style="white-space: pre;" direction="ltr" dominant-baseline="alphabetic">cudaStreamSynchronize()</text></g><g stroke-linecap="round"><g transform="translate(1636.3737178592282 540.0320541147162) rotate(0 0 -32.04493499054979)"><path d="M0 0 C0 -10.68, 0 -53.41, 0 -64.09 M0 0 C0 -10.68, 0 -53.41, 0 -64.09" stroke="#1e1e1e" stroke-width="2" fill="none"></path></g><g transform="translate(1636.3737178592282 540.0320541147162) rotate(0 0 -32.04493499054979)"><path d="M8.55 -40.6 C5.81 -48.12, 3.08 -55.64, 0 -64.09 M8.55 -40.6 C6.03 -47.51, 3.52 -54.43, 0 -64.09" stroke="#1e1e1e" stroke-width="2" fill="none"></path></g><g transform="translate(1636.3737178592282 540.0320541147162) rotate(0 0 -32.04493499054979)"><path d="M-8.55 -40.6 C-5.81 -48.12, -3.08 -55.64, 0 -64.09 M-8.55 -40.6 C-6.03 -47.51, -3.52 -54.43, 0 -64.09" stroke="#1e1e1e" stroke-width="2" fill="none"></path></g></g><mask></mask><g transform="translate(27.68359375 405.0684310637598) rotate(0 38.00390625 20.700000000000045)"><text x="38.00390625" y="30.420703125" font-family="Helvetica, Segoe UI Emoji" font-size="36px" fill="#1e1e1e" text-anchor="middle" style="white-space: pre;" direction="ltr" dominant-baseline="alphabetic">Host</text></g></svg>