<svg version="1.1" xmlns="http://www.w3.org/2000/svg" viewBox="0 0 1927.3468060504329 511.9058295207692" width="1927.3468060504329" height="511.9058295207692" class="excalidraw-svg">
  <!-- svg-source:excalidraw -->
  
  <defs>
    <style class="style-fonts">
      
    </style>
    
  </defs>
  <rect x="0" y="0" width="1927.3468060504329" height="511.9058295207692" fill="#ffffff"></rect><g stroke-linecap="round" transform="translate(227.3162399674975 45.00706510851319) rotate(0 158.72466811926324 33.77876722192241)"><path d="M0 0 L317.45 0 L317.45 67.56 L0 67.56" stroke="none" stroke-width="0" fill="#b2f2bb"></path><path d="M0 0 C96.39 0, 192.78 0, 317.45 0 M0 0 C121.84 0, 243.68 0, 317.45 0 M317.45 0 C317.45 22.52, 317.45 45.04, 317.45 67.56 M317.45 0 C317.45 20.5, 317.45 41, 317.45 67.56 M317.45 67.56 C235.26 67.56, 153.07 67.56, 0 67.56 M317.45 67.56 C196.64 67.56, 75.82 67.56, 0 67.56 M0 67.56 C0 46.8, 0 26.04, 0 0 M0 67.56 C0 41.64, 0 15.73, 0 0" stroke="#1e1e1e" stroke-width="2" fill="none"></path></g><g transform="translate(276.57313464926074 58.08583233043555) rotate(0 109.4677734375 20.700000000000045)"><text x="109.4677734375" y="30.420703125" font-family="Helvetica, Segoe UI Emoji" font-size="36px" fill="#1e1e1e" text-anchor="middle" style="white-space: pre;" direction="ltr" dominant-baseline="alphabetic">Memcpy H2D</text></g><g stroke-linecap="round" transform="translate(705.0327494378012 250.81328936185537) rotate(0 217.4902628952566 33.77876722192241)"><path d="M0 0 L434.98 0 L434.98 67.56 L0 67.56" stroke="none" stroke-width="0" fill="#ffec99"></path><path d="M0 0 C97.31 0, 194.62 0, 434.98 0 M0 0 C164 0, 327.99 0, 434.98 0 M434.98 0 C434.98 15.33, 434.98 30.66, 434.98 67.56 M434.98 0 C434.98 26.13, 434.98 52.25, 434.98 67.56 M434.98 67.56 C301.12 67.56, 167.26 67.56, 0 67.56 M434.98 67.56 C347.73 67.56, 260.49 67.56, 0 67.56 M0 67.56 C0 53.6, 0 39.65, 0 0 M0 67.56 C0 53.51, 0 39.47, 0 0" stroke="#1e1e1e" stroke-width="2" fill="none"></path></g><g transform="translate(842.103090458058 263.89205658377773) rotate(0 80.419921875 20.700000000000045)"><text x="80.419921875" y="30.420703125" font-family="Helvetica, Segoe UI Emoji" font-size="36px" fill="#1e1e1e" text-anchor="middle" style="white-space: pre;" direction="ltr" dominant-baseline="alphabetic">Cpu Work</text></g><g stroke-linecap="round" transform="translate(574.4535564138496 45.610122859477315) rotate(0 165.6277449108038 33.77876722192241)"><path d="M0 0 L331.26 0 L331.26 67.56 L0 67.56" stroke="none" stroke-width="0" fill="#a5d8ff"></path><path d="M0 0 C104.8 0, 209.6 0, 331.26 0 M0 0 C119.3 0, 238.6 0, 331.26 0 M331.26 0 C331.26 13.92, 331.26 27.84, 331.26 67.56 M331.26 0 C331.26 19.79, 331.26 39.58, 331.26 67.56 M331.26 67.56 C227.1 67.56, 122.94 67.56, 0 67.56 M331.26 67.56 C263.05 67.56, 194.85 67.56, 0 67.56 M0 67.56 C0 49.14, 0 30.73, 0 0 M0 67.56 C0 44.06, 0 20.56, 0 0" stroke="#1e1e1e" stroke-width="2" fill="none"></path></g><g transform="translate(687.8918481996534 58.68889008139968) rotate(0 52.189453125 20.700000000000045)"><text x="52.189453125" y="30.420703125" font-family="Helvetica, Segoe UI Emoji" font-size="36px" fill="#1e1e1e" text-anchor="middle" style="white-space: pre;" direction="ltr" dominant-baseline="alphabetic">Kernel</text></g><g stroke-linecap="round"><g transform="translate(374.38284037583844 253.08028886067905) rotate(0 -73.00431709460031 -70.25820759850433)"><path d="M0 0 C-56.53 -54.4, -113.05 -108.8, -146.01 -140.52 M0 0 C-39.98 -38.47, -79.95 -76.95, -146.01 -140.52" stroke="#1e1e1e" stroke-width="2" fill="none"></path></g></g><mask></mask><g stroke-linecap="round"><g transform="translate(182.00681756796075 435.17467527978806) rotate(0 840.8135426600488 0)"><path d="M0 0 C280.27 0, 1401.36 0, 1681.63 0 M0 0 C280.27 0, 1401.36 0, 1681.63 0" stroke="#1e1e1e" stroke-width="4" fill="none"></path></g><g transform="translate(182.00681756796075 435.17467527978806) rotate(0 840.8135426600488 0)"><path d="M1658.13 8.55 C1666.26 5.59, 1674.39 2.63, 1681.63 0 M1658.13 8.55 C1665.21 5.98, 1672.28 3.4, 1681.63 0" stroke="#1e1e1e" stroke-width="4" fill="none"></path></g><g transform="translate(182.00681756796075 435.17467527978806) rotate(0 840.8135426600488 0)"><path d="M1658.13 -8.55 C1666.26 -5.59, 1674.39 -2.63, 1681.63 0 M1658.13 -8.55 C1665.21 -5.98, 1672.28 -3.4, 1681.63 0" stroke="#1e1e1e" stroke-width="4" fill="none"></path></g></g><mask></mask><g transform="translate(1849.2532709462248 460.5058295207691) rotate(0 34.0048828125 20.700000000000045)"><text x="34.0048828125" y="30.420703125" font-family="Helvetica, Segoe UI Emoji" font-size="36px" fill="#1e1e1e" text-anchor="middle" style="white-space: pre;" direction="ltr" dominant-baseline="alphabetic">time</text></g><g stroke-linecap="round"><g transform="translate(591.9888219377963 250.17822847024036) rotate(0 -8.357757007431246 -67.87675410675797)"><path d="M0 0 C-3.47 -28.16, -6.93 -56.31, -16.72 -135.75 M0 0 C-4.25 -34.55, -8.51 -69.09, -16.72 -135.75" stroke="#1e1e1e" stroke-width="2" fill="none"></path></g></g><mask></mask><g stroke-linecap="round" transform="translate(934.4743275495662 44.00852220084903) rotate(0 55.344920569379155 33.77876722192241)"><path d="M0 0 L110.69 0 L110.69 67.56 L0 67.56" stroke="none" stroke-width="0" fill="#ffc9c9"></path><path d="M0 0 C23.45 0, 46.9 0, 110.69 0 M0 0 C27.18 0, 54.37 0, 110.69 0 M110.69 0 C110.69 20.89, 110.69 41.77, 110.69 67.56 M110.69 0 C110.69 25.86, 110.69 51.72, 110.69 67.56 M110.69 67.56 C73.34 67.56, 35.98 67.56, 0 67.56 M110.69 67.56 C70.85 67.56, 31 67.56, 0 67.56 M0 67.56 C0 50.88, 0 34.19, 0 0 M0 67.56 C0 45.2, 0 22.85, 0 0" stroke="#1e1e1e" stroke-width="2" fill="none"></path></g><g transform="translate(942.6747168689453 57.08728942277139) rotate(0 47.14453125 20.700000000000045)"><text x="47.14453125" y="30.420703125" font-family="Helvetica, Segoe UI Emoji" font-size="36px" fill="#1e1e1e" text-anchor="middle" style="white-space: pre;" direction="ltr" dominant-baseline="alphabetic">Event</text></g><g stroke-linecap="round"><g transform="translate(646.2496808235119 254.50521571260424) rotate(0 172.4308708325084 -71.64137660753465)"><path d="M0 0 C94.78 -39.38, 189.57 -78.76, 344.86 -143.28 M0 0 C92.25 -38.33, 184.49 -76.65, 344.86 -143.28" stroke="#1e1e1e" stroke-width="2" fill="none"></path></g></g><mask></mask><g stroke-linecap="round" transform="translate(229.23812747686816 250.5576603742902) rotate(0 155.73146673891642 33.77876722192241)"><path d="M0 0 L311.46 0 L311.46 67.56 L0 67.56" stroke="none" stroke-width="0" fill="#b2f2bb"></path><path d="M0 0 C95.85 0, 191.69 0, 311.46 0 M0 0 C96.96 0, 193.92 0, 311.46 0 M311.46 0 C311.46 23.3, 311.46 46.6, 311.46 67.56 M311.46 0 C311.46 13.82, 311.46 27.64, 311.46 67.56 M311.46 67.56 C196.21 67.56, 80.96 67.56, 0 67.56 M311.46 67.56 C194.38 67.56, 77.3 67.56, 0 67.56 M0 67.56 C0 53.72, 0 39.89, 0 0 M0 67.56 C0 51.78, 0 36, 0 0" stroke="#1e1e1e" stroke-width="2" fill="none"></path></g><g transform="translate(277.6199848407846 263.63642759621257) rotate(0 107.349609375 20.700000000000045)"><text x="107.349609375" y="30.420703125" font-family="Helvetica, Segoe UI Emoji" font-size="36px" fill="#1e1e1e" text-anchor="middle" style="white-space: pre;" direction="ltr" dominant-baseline="alphabetic">cudaMemcpy</text></g><g stroke-linecap="round" transform="translate(575.0591288152732 250.30209285474325) rotate(0 17.27705353149122 33.77876722192241)"><path d="M0 0 L34.55 0 L34.55 67.56 L0 67.56" stroke="none" stroke-width="0" fill="#a5d8ff"></path><path d="M0 0 C13.28 0, 26.56 0, 34.55 0 M0 0 C13.48 0, 26.97 0, 34.55 0 M34.55 0 C34.55 20.44, 34.55 40.89, 34.55 67.56 M34.55 0 C34.55 18.22, 34.55 36.43, 34.55 67.56 M34.55 67.56 C22.6 67.56, 10.64 67.56, 0 67.56 M34.55 67.56 C20.86 67.56, 7.16 67.56, 0 67.56 M0 67.56 C0 52.45, 0 37.34, 0 0 M0 67.56 C0 47.89, 0 28.23, 0 0" stroke="#1e1e1e" stroke-width="2" fill="none"></path></g><g stroke-linecap="round" transform="translate(631.2335849186629 252.22607977336133) rotate(0 17.27705353149122 33.77876722192241)"><path d="M0 0 L34.55 0 L34.55 67.56 L0 67.56" stroke="none" stroke-width="0" fill="#ffc9c9"></path><path d="M0 0 C7.72 0, 15.44 0, 34.55 0 M0 0 C10.85 0, 21.7 0, 34.55 0 M34.55 0 C34.55 24.14, 34.55 48.27, 34.55 67.56 M34.55 0 C34.55 13.89, 34.55 27.79, 34.55 67.56 M34.55 67.56 C23.64 67.56, 12.72 67.56, 0 67.56 M34.55 67.56 C25.46 67.56, 16.36 67.56, 0 67.56 M0 67.56 C0 50.57, 0 33.59, 0 0 M0 67.56 C0 45.24, 0 22.91, 0 0" stroke="#1e1e1e" stroke-width="2" fill="none"></path></g><g stroke-linecap="round" transform="translate(1163.7218865836671 251.04345049316203) rotate(0 17.27705353149122 33.77876722192241)"><path d="M0 0 L34.55 0 L34.55 67.56 L0 67.56" stroke="none" stroke-width="0" fill="#a5d8ff"></path><path d="M0 0 C11.47 0, 22.94 0, 34.55 0 M0 0 C11.82 0, 23.63 0, 34.55 0 M34.55 0 C34.55 22.97, 34.55 45.95, 34.55 67.56 M34.55 0 C34.55 14.09, 34.55 28.18, 34.55 67.56 M34.55 67.56 C24.63 67.56, 14.71 67.56, 0 67.56 M34.55 67.56 C24.12 67.56, 13.68 67.56, 0 67.56 M0 67.56 C0 42.23, 0 16.9, 0 0 M0 67.56 C0 52.96, 0 38.37, 0 0" stroke="#1e1e1e" stroke-width="2" fill="none"></path></g><g stroke-linecap="round" transform="translate(1227.586344548322 250.81328936185537) rotate(0 85.5 33.77876722192241)"><path d="M0 0 L171 0 L171 67.56 L0 67.56" stroke="none" stroke-width="0" fill="#ffec99"></path><path d="M0 0 C57.52 0, 115.04 0, 171 0 M0 0 C58.21 0, 116.42 0, 171 0 M171 0 C171 14.28, 171 28.55, 171 67.56 M171 0 C171 15.56, 171 31.12, 171 67.56 M171 67.56 C130.94 67.56, 90.87 67.56, 0 67.56 M171 67.56 C116.75 67.56, 62.49 67.56, 0 67.56 M0 67.56 C0 49.11, 0 30.66, 0 0 M0 67.56 C0 50.26, 0 32.96, 0 0" stroke="#1e1e1e" stroke-width="2" fill="none"></path></g><g transform="translate(1232.666422673322 263.89205658377773) rotate(0 80.419921875 20.700000000000045)"><text x="80.419921875" y="30.420703125" font-family="Helvetica, Segoe UI Emoji" font-size="36px" fill="#1e1e1e" text-anchor="middle" style="white-space: pre;" direction="ltr" dominant-baseline="alphabetic">Cpu Work</text></g><g transform="translate(10 10) rotate(0 79.4091796875 62.10000000000002)"><text x="79.4091796875" y="30.420703125" font-family="Helvetica, Segoe UI Emoji" font-size="36px" fill="#1e1e1e" text-anchor="middle" style="white-space: pre;" direction="ltr" dominant-baseline="alphabetic">Device</text><text x="79.4091796875" y="71.820703125" font-family="Helvetica, Segoe UI Emoji" font-size="36px" fill="#1e1e1e" text-anchor="middle" style="white-space: pre;" direction="ltr" dominant-baseline="alphabetic">Stream</text><text x="79.4091796875" y="113.220703125" font-family="Helvetica, Segoe UI Emoji" font-size="36px" fill="#1e1e1e" text-anchor="middle" style="white-space: pre;" direction="ltr" dominant-baseline="alphabetic">Execution</text></g><g transform="translate(51.4052734375 256.6395104906494) rotate(0 38.00390625 20.700000000000045)"><text x="38.00390625" y="30.420703125" font-family="Helvetica, Segoe UI Emoji" font-size="36px" fill="#1e1e1e" text-anchor="middle" style="white-space: pre;" direction="ltr" dominant-baseline="alphabetic">Host</text></g><g stroke-linecap="round"><g transform="translate(1181.0973140628857 248.88725043731756) rotate(0 -7.282888087071342 -68.89215579002598)"><path d="M0 0 C-5.5 -52.04, -11 -104.08, -14.57 -137.78 M0 0 C-5.06 -47.9, -10.13 -95.81, -14.57 -137.78" stroke="#1e1e1e" stroke-width="2" fill="none"></path></g></g><mask></mask><g stroke-linecap="round" transform="translate(1164.4925113757522 45.610122859477315) rotate(0 197.59645282980205 33.77876722192241)"><path d="M0 0 L395.19 0 L395.19 67.56 L0 67.56" stroke="none" stroke-width="0" fill="#a5d8ff"></path><path d="M0 0 C119.05 0, 238.1 0, 395.19 0 M0 0 C119.94 0, 239.88 0, 395.19 0 M395.19 0 C395.19 26.6, 395.19 53.2, 395.19 67.56 M395.19 0 C395.19 14.82, 395.19 29.65, 395.19 67.56 M395.19 67.56 C279.14 67.56, 163.09 67.56, 0 67.56 M395.19 67.56 C297.61 67.56, 200.03 67.56, 0 67.56 M0 67.56 C0 50.89, 0 34.23, 0 0 M0 67.56 C0 51.64, 0 35.72, 0 0" stroke="#1e1e1e" stroke-width="2" fill="none"></path></g><g transform="translate(1294.421972018054 58.68889008139968) rotate(0 67.6669921875 20.700000000000045)"><text x="67.6669921875" y="30.420703125" font-family="Helvetica, Segoe UI Emoji" font-size="36px" fill="#1e1e1e" text-anchor="middle" style="white-space: pre;" direction="ltr" dominant-baseline="alphabetic">Kernel 2</text></g><g stroke-linecap="round"><g transform="translate(1444.256197798969 251.7953146902671) rotate(0 78.0986429331142 -69.30964588010261)"><path d="M0 0 C55.12 -48.92, 110.24 -97.83, 156.2 -138.62 M0 0 C46.54 -41.31, 93.09 -82.61, 156.2 -138.62" stroke="#1e1e1e" stroke-width="2" fill="none"></path></g></g><mask></mask><g stroke-linecap="round" transform="translate(1599.8974698119064 45.86749172269333) rotate(0 158.72466811926324 33.77876722192241)"><path d="M0 0 L317.45 0 L317.45 67.56 L0 67.56" stroke="none" stroke-width="0" fill="#b2f2bb"></path><path d="M0 0 C114.3 0, 228.6 0, 317.45 0 M0 0 C120.7 0, 241.39 0, 317.45 0 M317.45 0 C317.45 21.27, 317.45 42.53, 317.45 67.56 M317.45 0 C317.45 14.15, 317.45 28.3, 317.45 67.56 M317.45 67.56 C201.12 67.56, 84.78 67.56, 0 67.56 M317.45 67.56 C212.83 67.56, 108.22 67.56, 0 67.56 M0 67.56 C0 45.73, 0 23.9, 0 0 M0 67.56 C0 52.18, 0 36.79, 0 0" stroke="#1e1e1e" stroke-width="2" fill="none"></path></g><g transform="translate(1649.6026066811692 58.94625894461569) rotate(0 109.01953125 20.700000000000045)"><text x="109.01953125" y="30.420703125" font-family="Helvetica, Segoe UI Emoji" font-size="36px" fill="#1e1e1e" text-anchor="middle" style="white-space: pre;" direction="ltr" dominant-baseline="alphabetic">Memcpy D2H</text></g><g stroke-linecap="round" transform="translate(1428.5524817976484 249.32397321514873) rotate(0 243.816405222487 33.77876722192241)"><path d="M0 0 L487.63 0 L487.63 67.56 L0 67.56" stroke="none" stroke-width="0" fill="#b2f2bb"></path><path d="M0 0 C107.99 0, 215.98 0, 487.63 0 M0 0 C156.89 0, 313.79 0, 487.63 0 M487.63 0 C487.63 17.75, 487.63 35.5, 487.63 67.56 M487.63 0 C487.63 18.23, 487.63 36.47, 487.63 67.56 M487.63 67.56 C357.99 67.56, 228.35 67.56, 0 67.56 M487.63 67.56 C351.16 67.56, 214.68 67.56, 0 67.56 M0 67.56 C0 41.07, 0 14.58, 0 0 M0 67.56 C0 51.63, 0 35.7, 0 0" stroke="#1e1e1e" stroke-width="2" fill="none"></path></g><g transform="translate(1565.0192776451358 262.4027404370711) rotate(0 107.349609375 20.700000000000045)"><text x="107.349609375" y="30.420703125" font-family="Helvetica, Segoe UI Emoji" font-size="36px" fill="#1e1e1e" text-anchor="middle" style="white-space: pre;" direction="ltr" dominant-baseline="alphabetic">cudaMemcpy</text></g></svg>