<svg version="1.1" xmlns="http://www.w3.org/2000/svg" viewBox="0 0 680.7105206294444 539.9896760499141" width="680.7105206294444" height="539.9896760499141" class="excalidraw-svg">
  <!-- svg-source:excalidraw -->
  
  <defs>
    <style class="style-fonts">
      
    </style>
    
  </defs>
  <rect x="0" y="0" width="680.7105206294444" height="539.9896760499141" fill="#ffffff"></rect><g stroke-linecap="round" transform="translate(19.357536772542176 57.63735647724843) rotate(0 318.5213334108847 111.28505005415946)"><path d="M0 0 L637.04 0 L637.04 222.57 L0 222.57" stroke="none" stroke-width="0" fill="#ffec99"></path><path d="M0 0 C165.21 0, 330.41 0, 637.04 0 M0 0 C194.02 0, 388.04 0, 637.04 0 M637.04 0 C637.04 75.25, 637.04 150.51, 637.04 222.57 M637.04 0 C637.04 68.79, 637.04 137.59, 637.04 222.57 M637.04 222.57 C502.06 222.57, 367.08 222.57, 0 222.57 M637.04 222.57 C442.5 222.57, 247.96 222.57, 0 222.57 M0 222.57 C0 156.66, 0 90.74, 0 0 M0 222.57 C0 169.55, 0 116.53, 0 0" stroke="#1e1e1e" stroke-width="2" fill="none"></path></g><g transform="translate(24.357536772542176 62.63735647724843) rotate(0 42.02734375 16.09999999999991)"><text x="0" y="23.660546874999998" font-family="Helvetica, Segoe UI Emoji" font-size="28px" fill="#1e1e1e" text-anchor="start" style="white-space: pre;" direction="ltr" dominant-baseline="alphabetic">CCD 0</text></g><g stroke-linecap="round" transform="translate(30.450836360170115 99.66352042595372) rotate(0 145.94624212686415 84.15349109795943)"><path d="M0 0 L291.89 0 L291.89 168.31 L0 168.31" stroke="none" stroke-width="0" fill="#b2f2bb"></path><path d="M0 0 C79.91 0, 159.81 0, 291.89 0 M0 0 C97.88 0, 195.77 0, 291.89 0 M291.89 0 C291.89 43.08, 291.89 86.17, 291.89 168.31 M291.89 0 C291.89 60.92, 291.89 121.84, 291.89 168.31 M291.89 168.31 C202.44 168.31, 112.98 168.31, 0 168.31 M291.89 168.31 C191.37 168.31, 90.86 168.31, 0 168.31 M0 168.31 C0 131.41, 0 94.52, 0 0 M0 168.31 C0 119.06, 0 69.81, 0 0" stroke="#1e1e1e" stroke-width="2" fill="none"></path></g><g transform="translate(35.450836360170115 104.66352042595372) rotate(0 41.2548828125 16.09999999999991)"><text x="0" y="23.660546874999998" font-family="Helvetica, Segoe UI Emoji" font-size="28px" fill="#1e1e1e" text-anchor="start" style="white-space: pre;" direction="ltr" dominant-baseline="alphabetic">CCX 0</text></g><g stroke-linecap="round"><g transform="translate(69.79552655240514 174.8246357943317) rotate(0 0 29.852841310551412)"><path d="M0 0 C0 22.4, 0 44.8, 0 59.71 M0 0 C0 23.85, 0 47.7, 0 59.71" stroke="#1e1e1e" stroke-width="2" fill="none"></path></g></g><mask></mask><g stroke-linecap="round"><g transform="translate(142.80518611401038 174.8246357943317) rotate(0 0 29.852841310551412)"><path d="M0 0 C0 20.75, 0 41.5, 0 59.71 M0 0 C0 17.75, 0 35.5, 0 59.71" stroke="#1e1e1e" stroke-width="2" fill="none"></path></g></g><mask></mask><g stroke-linecap="round"><g transform="translate(214.19243334892462 174.8246357943317) rotate(0 0 29.852841310551412)"><path d="M0 0 C0 16.39, 0 32.78, 0 59.71 M0 0 C0 14.79, 0 29.58, 0 59.71" stroke="#1e1e1e" stroke-width="2" fill="none"></path></g></g><mask></mask><g stroke-linecap="round"><g transform="translate(287.2020929105298 174.8246357943317) rotate(0 0 29.852841310551412)"><path d="M0 0 C0 20.19, 0 40.37, 0 59.71 M0 0 C0 18.45, 0 36.91, 0 59.71" stroke="#1e1e1e" stroke-width="2" fill="none"></path></g></g><mask></mask><g stroke-linecap="round" transform="translate(40.736605190438695 145.08957191687296) rotate(0 29.765763632943106 29.765763632943163)"><path d="M0 0 L59.53 0 L59.53 59.53 L0 59.53" stroke="none" stroke-width="0" fill="#a5d8ff"></path><path d="M0 0 C13.67 0, 27.35 0, 59.53 0 M0 0 C19.87 0, 39.75 0, 59.53 0 M59.53 0 C59.53 20.22, 59.53 40.45, 59.53 59.53 M59.53 0 C59.53 18.92, 59.53 37.84, 59.53 59.53 M59.53 59.53 C36.73 59.53, 13.92 59.53, 0 59.53 M59.53 59.53 C36.94 59.53, 14.35 59.53, 0 59.53 M0 59.53 C0 39.33, 0 19.14, 0 0 M0 59.53 C0 43.19, 0 26.85, 0 0" stroke="#1e1e1e" stroke-width="2" fill="none"></path></g><g transform="translate(62.716236010881744 158.75533554981575) rotate(0 7.7861328125 16.09999999999991)"><text x="7.7861328125" y="23.660546874999998" font-family="Helvetica, Segoe UI Emoji" font-size="28px" fill="#1e1e1e" text-anchor="middle" style="white-space: pre;" direction="ltr" dominant-baseline="alphabetic">0</text></g><g stroke-linecap="round" transform="translate(111.57909499575777 145.08957191687296) rotate(0 29.765763632943106 29.765763632943163)"><path d="M0 0 L59.53 0 L59.53 59.53 L0 59.53" stroke="none" stroke-width="0" fill="#a5d8ff"></path><path d="M0 0 C14.61 0, 29.22 0, 59.53 0 M0 0 C12.79 0, 25.59 0, 59.53 0 M59.53 0 C59.53 21.87, 59.53 43.74, 59.53 59.53 M59.53 0 C59.53 17.95, 59.53 35.9, 59.53 59.53 M59.53 59.53 C42.1 59.53, 24.67 59.53, 0 59.53 M59.53 59.53 C42.68 59.53, 25.83 59.53, 0 59.53 M0 59.53 C0 42.88, 0 26.22, 0 0 M0 59.53 C0 42.85, 0 26.16, 0 0" stroke="#1e1e1e" stroke-width="2" fill="none"></path></g><g transform="translate(133.55872581620088 158.75533554981575) rotate(0 7.7861328125 16.09999999999991)"><text x="7.7861328125" y="23.660546874999998" font-family="Helvetica, Segoe UI Emoji" font-size="28px" fill="#1e1e1e" text-anchor="middle" style="white-space: pre;" direction="ltr" dominant-baseline="alphabetic">1</text></g><g stroke-linecap="round" transform="translate(182.7880874329585 145.08957191687296) rotate(0 29.765763632943106 29.765763632943163)"><path d="M0 0 L59.53 0 L59.53 59.53 L0 59.53" stroke="none" stroke-width="0" fill="#a5d8ff"></path><path d="M0 0 C16.27 0, 32.54 0, 59.53 0 M0 0 C20.9 0, 41.79 0, 59.53 0 M59.53 0 C59.53 21.25, 59.53 42.51, 59.53 59.53 M59.53 0 C59.53 19.37, 59.53 38.73, 59.53 59.53 M59.53 59.53 C36.4 59.53, 13.27 59.53, 0 59.53 M59.53 59.53 C38.7 59.53, 17.88 59.53, 0 59.53 M0 59.53 C0 42.9, 0 26.26, 0 0 M0 59.53 C0 39.54, 0 19.54, 0 0" stroke="#1e1e1e" stroke-width="2" fill="none"></path></g><g transform="translate(204.7677182534016 158.75533554981575) rotate(0 7.7861328125 16.09999999999991)"><text x="7.7861328125" y="23.660546874999998" font-family="Helvetica, Segoe UI Emoji" font-size="28px" fill="#1e1e1e" text-anchor="middle" style="white-space: pre;" direction="ltr" dominant-baseline="alphabetic">2</text></g><g stroke-linecap="round" transform="translate(251.4781380021144 145.08957191687296) rotate(0 29.765763632943106 29.765763632943163)"><path d="M0 0 L59.53 0 L59.53 59.53 L0 59.53" stroke="none" stroke-width="0" fill="#a5d8ff"></path><path d="M0 0 C12.61 0, 25.23 0, 59.53 0 M0 0 C18.18 0, 36.36 0, 59.53 0 M59.53 0 C59.53 17.63, 59.53 35.26, 59.53 59.53 M59.53 0 C59.53 14.18, 59.53 28.36, 59.53 59.53 M59.53 59.53 C35.91 59.53, 12.29 59.53, 0 59.53 M59.53 59.53 C43.75 59.53, 27.97 59.53, 0 59.53 M0 59.53 C0 44.42, 0 29.3, 0 0 M0 59.53 C0 40.94, 0 22.34, 0 0" stroke="#1e1e1e" stroke-width="2" fill="none"></path></g><g transform="translate(273.4577688225575 158.75533554981575) rotate(0 7.7861328125 16.09999999999991)"><text x="7.7861328125" y="23.660546874999998" font-family="Helvetica, Segoe UI Emoji" font-size="28px" fill="#1e1e1e" text-anchor="middle" style="white-space: pre;" direction="ltr" dominant-baseline="alphabetic">3</text></g><g stroke-linecap="round" transform="translate(40.428885914177044 214.80296565724984) rotate(0 135.26556396484375 21.09999999999991)"><path d="M0 0 L270.53 0 L270.53 42.2 L0 42.2" stroke="none" stroke-width="0" fill="#ffc9c9"></path><path d="M0 0 C82.91 0, 165.82 0, 270.53 0 M0 0 C93.16 0, 186.32 0, 270.53 0 M270.53 0 C270.53 9.25, 270.53 18.5, 270.53 42.2 M270.53 0 C270.53 12.35, 270.53 24.7, 270.53 42.2 M270.53 42.2 C164.72 42.2, 58.92 42.2, 0 42.2 M270.53 42.2 C211.85 42.2, 153.17 42.2, 0 42.2 M0 42.2 C0 26.76, 0 11.33, 0 0 M0 42.2 C0 30.22, 0 18.24, 0 0" stroke="#1e1e1e" stroke-width="2" fill="none"></path></g><g transform="translate(115.0391764415208 219.80296565724984) rotate(0 60.6552734375 16.09999999999991)"><text x="60.6552734375" y="23.660546874999998" font-family="Helvetica, Segoe UI Emoji" font-size="28px" fill="#1e1e1e" text-anchor="middle" style="white-space: pre;" direction="ltr" dominant-baseline="alphabetic">16 MB L3</text></g><g stroke-linecap="round" transform="translate(351.2500969308153 99.66352042595372) rotate(0 145.94624212686415 84.15349109795943)"><path d="M0 0 L291.89 0 L291.89 168.31 L0 168.31" stroke="none" stroke-width="0" fill="#b2f2bb"></path><path d="M0 0 C101.96 0, 203.92 0, 291.89 0 M0 0 C69.31 0, 138.62 0, 291.89 0 M291.89 0 C291.89 34.92, 291.89 69.84, 291.89 168.31 M291.89 0 C291.89 57.88, 291.89 115.77, 291.89 168.31 M291.89 168.31 C177.52 168.31, 63.15 168.31, 0 168.31 M291.89 168.31 C205.28 168.31, 118.67 168.31, 0 168.31 M0 168.31 C0 130.53, 0 92.75, 0 0 M0 168.31 C0 113.14, 0 57.98, 0 0" stroke="#1e1e1e" stroke-width="2" fill="none"></path></g><g transform="translate(356.2500969308153 104.66352042595372) rotate(0 41.234375 16.09999999999991)"><text x="0" y="23.660546874999998" font-family="Helvetica, Segoe UI Emoji" font-size="28px" fill="#1e1e1e" text-anchor="start" style="white-space: pre;" direction="ltr" dominant-baseline="alphabetic">CCX 1</text></g><g stroke-linecap="round"><g transform="translate(390.5947871230503 174.8246357943317) rotate(0 0 29.852841310551412)"><path d="M0 0 C0 16.69, 0 33.38, 0 59.71 M0 0 C0 15.36, 0 30.72, 0 59.71" stroke="#1e1e1e" stroke-width="2" fill="none"></path></g></g><mask></mask><g stroke-linecap="round"><g transform="translate(463.60444668465556 174.8246357943317) rotate(0 0 29.852841310551412)"><path d="M0 0 C0 17.68, 0 35.36, 0 59.71 M0 0 C0 14.22, 0 28.45, 0 59.71" stroke="#1e1e1e" stroke-width="2" fill="none"></path></g></g><mask></mask><g stroke-linecap="round"><g transform="translate(534.9916939195698 174.8246357943317) rotate(0 0 29.852841310551412)"><path d="M0 0 C0 22.87, 0 45.74, 0 59.71 M0 0 C0 22.66, 0 45.32, 0 59.71" stroke="#1e1e1e" stroke-width="2" fill="none"></path></g></g><mask></mask><g stroke-linecap="round"><g transform="translate(608.001353481175 174.8246357943317) rotate(0 0 29.852841310551412)"><path d="M0 0 C0 13.09, 0 26.18, 0 59.71 M0 0 C0 17.47, 0 34.94, 0 59.71" stroke="#1e1e1e" stroke-width="2" fill="none"></path></g></g><mask></mask><g stroke-linecap="round" transform="translate(361.5358657610839 145.08957191687296) rotate(0 29.765763632943106 29.765763632943163)"><path d="M0 0 L59.53 0 L59.53 59.53 L0 59.53" stroke="none" stroke-width="0" fill="#a5d8ff"></path><path d="M0 0 C17.43 0, 34.86 0, 59.53 0 M0 0 C16.85 0, 33.7 0, 59.53 0 M59.53 0 C59.53 16.65, 59.53 33.31, 59.53 59.53 M59.53 0 C59.53 16.69, 59.53 33.37, 59.53 59.53 M59.53 59.53 C45.29 59.53, 31.05 59.53, 0 59.53 M59.53 59.53 C37.83 59.53, 16.14 59.53, 0 59.53 M0 59.53 C0 42.93, 0 26.34, 0 0 M0 59.53 C0 40.89, 0 22.24, 0 0" stroke="#1e1e1e" stroke-width="2" fill="none"></path></g><g transform="translate(383.51549658152703 158.75533554981575) rotate(0 7.7861328125 16.09999999999991)"><text x="7.7861328125" y="23.660546874999998" font-family="Helvetica, Segoe UI Emoji" font-size="28px" fill="#1e1e1e" text-anchor="middle" style="white-space: pre;" direction="ltr" dominant-baseline="alphabetic">4</text></g><g stroke-linecap="round" transform="translate(432.37835556640294 145.08957191687296) rotate(0 29.765763632943106 29.765763632943163)"><path d="M0 0 L59.53 0 L59.53 59.53 L0 59.53" stroke="none" stroke-width="0" fill="#a5d8ff"></path><path d="M0 0 C23.13 0, 46.26 0, 59.53 0 M0 0 C20.83 0, 41.66 0, 59.53 0 M59.53 0 C59.53 16.63, 59.53 33.27, 59.53 59.53 M59.53 0 C59.53 20, 59.53 39.99, 59.53 59.53 M59.53 59.53 C47.23 59.53, 34.92 59.53, 0 59.53 M59.53 59.53 C39.75 59.53, 19.97 59.53, 0 59.53 M0 59.53 C0 38.31, 0 17.09, 0 0 M0 59.53 C0 42.75, 0 25.97, 0 0" stroke="#1e1e1e" stroke-width="2" fill="none"></path></g><g transform="translate(454.35798638684605 158.75533554981575) rotate(0 7.7861328125 16.09999999999991)"><text x="7.7861328125" y="23.660546874999998" font-family="Helvetica, Segoe UI Emoji" font-size="28px" fill="#1e1e1e" text-anchor="middle" style="white-space: pre;" direction="ltr" dominant-baseline="alphabetic">5</text></g><g stroke-linecap="round" transform="translate(503.58734800360367 145.08957191687296) rotate(0 29.765763632943106 29.765763632943163)"><path d="M0 0 L59.53 0 L59.53 59.53 L0 59.53" stroke="none" stroke-width="0" fill="#a5d8ff"></path><path d="M0 0 C23.62 0, 47.24 0, 59.53 0 M0 0 C15.78 0, 31.56 0, 59.53 0 M59.53 0 C59.53 15.11, 59.53 30.23, 59.53 59.53 M59.53 0 C59.53 18.6, 59.53 37.19, 59.53 59.53 M59.53 59.53 C42.54 59.53, 25.54 59.53, 0 59.53 M59.53 59.53 C45.74 59.53, 31.94 59.53, 0 59.53 M0 59.53 C0 39.81, 0 20.09, 0 0 M0 59.53 C0 38.33, 0 17.12, 0 0" stroke="#1e1e1e" stroke-width="2" fill="none"></path></g><g transform="translate(525.5669788240468 158.75533554981575) rotate(0 7.7861328125 16.09999999999991)"><text x="7.7861328125" y="23.660546874999998" font-family="Helvetica, Segoe UI Emoji" font-size="28px" fill="#1e1e1e" text-anchor="middle" style="white-space: pre;" direction="ltr" dominant-baseline="alphabetic">6</text></g><g stroke-linecap="round" transform="translate(572.2773985727596 145.08957191687296) rotate(0 29.765763632943106 29.765763632943163)"><path d="M0 0 L59.53 0 L59.53 59.53 L0 59.53" stroke="none" stroke-width="0" fill="#a5d8ff"></path><path d="M0 0 C23.28 0, 46.57 0, 59.53 0 M0 0 C12.91 0, 25.83 0, 59.53 0 M59.53 0 C59.53 21.78, 59.53 43.55, 59.53 59.53 M59.53 0 C59.53 16.9, 59.53 33.8, 59.53 59.53 M59.53 59.53 C37.07 59.53, 14.62 59.53, 0 59.53 M59.53 59.53 C37.33 59.53, 15.13 59.53, 0 59.53 M0 59.53 C0 42.05, 0 24.56, 0 0 M0 59.53 C0 45.7, 0 31.87, 0 0" stroke="#1e1e1e" stroke-width="2" fill="none"></path></g><g transform="translate(594.2091778307026 158.75533554981575) rotate(0 7.833984375 16.09999999999991)"><text x="7.833984375" y="23.660546874999998" font-family="Helvetica, Segoe UI Emoji" font-size="28px" fill="#1e1e1e" text-anchor="middle" style="white-space: pre;" direction="ltr" dominant-baseline="alphabetic">7</text></g><g stroke-linecap="round" transform="translate(361.22814648482216 214.80296565724984) rotate(0 135.26556396484375 21.09999999999991)"><path d="M0 0 L270.53 0 L270.53 42.2 L0 42.2" stroke="none" stroke-width="0" fill="#ffc9c9"></path><path d="M0 0 C106 0, 212.01 0, 270.53 0 M0 0 C80.27 0, 160.54 0, 270.53 0 M270.53 0 C270.53 9.47, 270.53 18.95, 270.53 42.2 M270.53 0 C270.53 13.83, 270.53 27.66, 270.53 42.2 M270.53 42.2 C181.14 42.2, 91.74 42.2, 0 42.2 M270.53 42.2 C170.68 42.2, 70.82 42.2, 0 42.2 M0 42.2 C0 26.1, 0 10.01, 0 0 M0 42.2 C0 33.37, 0 24.53, 0 0" stroke="#1e1e1e" stroke-width="2" fill="none"></path></g><g transform="translate(435.8384370121659 219.80296565724984) rotate(0 60.6552734375 16.09999999999991)"><text x="60.6552734375" y="23.660546874999998" font-family="Helvetica, Segoe UI Emoji" font-size="28px" fill="#1e1e1e" text-anchor="middle" style="white-space: pre;" direction="ltr" dominant-baseline="alphabetic">16 MB L3</text></g><g stroke-linecap="round" transform="translate(20.152820192505146 293.82551651854646) rotate(0 318.5213334108847 111.28505005415946)"><path d="M0 0 L637.04 0 L637.04 222.57 L0 222.57" stroke="none" stroke-width="0" fill="#ffec99"></path><path d="M0 0 C171.71 0, 343.41 0, 637.04 0 M0 0 C246.6 0, 493.2 0, 637.04 0 M637.04 0 C637.04 64.27, 637.04 128.54, 637.04 222.57 M637.04 0 C637.04 54.85, 637.04 109.7, 637.04 222.57 M637.04 222.57 C401.26 222.57, 165.48 222.57, 0 222.57 M637.04 222.57 C458.7 222.57, 280.36 222.57, 0 222.57 M0 222.57 C0 164.07, 0 105.56, 0 0 M0 222.57 C0 154.02, 0 85.48, 0 0" stroke="#1e1e1e" stroke-width="2" fill="none"></path></g><g transform="translate(25.152820192505146 298.82551651854646) rotate(0 42.0068359375 16.09999999999991)"><text x="0" y="23.660546874999998" font-family="Helvetica, Segoe UI Emoji" font-size="28px" fill="#1e1e1e" text-anchor="start" style="white-space: pre;" direction="ltr" dominant-baseline="alphabetic">CCD 1</text></g><g stroke-linecap="round" transform="translate(30.450836360170115 335.05645858744356) rotate(0 145.94624212686415 84.15349109795943)"><path d="M0 0 L291.89 0 L291.89 168.31 L0 168.31" stroke="none" stroke-width="0" fill="#b2f2bb"></path><path d="M0 0 C61.64 0, 123.27 0, 291.89 0 M0 0 C75.93 0, 151.85 0, 291.89 0 M291.89 0 C291.89 47.7, 291.89 95.41, 291.89 168.31 M291.89 0 C291.89 36.73, 291.89 73.47, 291.89 168.31 M291.89 168.31 C180.58 168.31, 69.27 168.31, 0 168.31 M291.89 168.31 C199.22 168.31, 106.56 168.31, 0 168.31 M0 168.31 C0 102.75, 0 37.2, 0 0 M0 168.31 C0 103.29, 0 38.27, 0 0" stroke="#1e1e1e" stroke-width="2" fill="none"></path></g><g transform="translate(35.450836360170115 340.05645858744356) rotate(0 41.2685546875 16.09999999999991)"><text x="0" y="23.660546874999998" font-family="Helvetica, Segoe UI Emoji" font-size="28px" fill="#1e1e1e" text-anchor="start" style="white-space: pre;" direction="ltr" dominant-baseline="alphabetic">CCX 2</text></g><g stroke-linecap="round"><g transform="translate(69.79552655240514 410.21757395582154) rotate(0 0 29.852841310551412)"><path d="M0 0 C0 19.18, 0 38.35, 0 59.71 M0 0 C0 19.37, 0 38.74, 0 59.71" stroke="#1e1e1e" stroke-width="2" fill="none"></path></g></g><mask></mask><g stroke-linecap="round"><g transform="translate(142.80518611401038 410.21757395582154) rotate(0 0 29.852841310551412)"><path d="M0 0 C0 14.54, 0 29.09, 0 59.71 M0 0 C0 13.2, 0 26.4, 0 59.71" stroke="#1e1e1e" stroke-width="2" fill="none"></path></g></g><mask></mask><g stroke-linecap="round"><g transform="translate(214.19243334892462 410.21757395582154) rotate(0 0 29.852841310551412)"><path d="M0 0 C0 22.11, 0 44.22, 0 59.71 M0 0 C0 17.69, 0 35.38, 0 59.71" stroke="#1e1e1e" stroke-width="2" fill="none"></path></g></g><mask></mask><g stroke-linecap="round"><g transform="translate(287.2020929105298 410.21757395582154) rotate(0 0 29.852841310551412)"><path d="M0 0 C0 13.85, 0 27.69, 0 59.71 M0 0 C0 23.84, 0 47.67, 0 59.71" stroke="#1e1e1e" stroke-width="2" fill="none"></path></g></g><mask></mask><g stroke-linecap="round" transform="translate(40.736605190438695 380.4825100783628) rotate(0 29.765763632943106 29.765763632943163)"><path d="M0 0 L59.53 0 L59.53 59.53 L0 59.53" stroke="none" stroke-width="0" fill="#a5d8ff"></path><path d="M0 0 C14.32 0, 28.64 0, 59.53 0 M0 0 C20.51 0, 41.02 0, 59.53 0 M59.53 0 C59.53 14.88, 59.53 29.76, 59.53 59.53 M59.53 0 C59.53 23.56, 59.53 47.13, 59.53 59.53 M59.53 59.53 C43.73 59.53, 27.93 59.53, 0 59.53 M59.53 59.53 C45.08 59.53, 30.63 59.53, 0 59.53 M0 59.53 C0 36.18, 0 12.82, 0 0 M0 59.53 C0 43.94, 0 28.35, 0 0" stroke="#1e1e1e" stroke-width="2" fill="none"></path></g><g transform="translate(62.716236010881744 394.1482737113056) rotate(0 7.7861328125 16.09999999999991)"><text x="7.7861328125" y="23.660546874999998" font-family="Helvetica, Segoe UI Emoji" font-size="28px" fill="#1e1e1e" text-anchor="middle" style="white-space: pre;" direction="ltr" dominant-baseline="alphabetic">8</text></g><g stroke-linecap="round" transform="translate(111.57909499575777 380.4825100783628) rotate(0 29.765763632943106 29.765763632943163)"><path d="M0 0 L59.53 0 L59.53 59.53 L0 59.53" stroke="none" stroke-width="0" fill="#a5d8ff"></path><path d="M0 0 C18.87 0, 37.73 0, 59.53 0 M0 0 C16.95 0, 33.9 0, 59.53 0 M59.53 0 C59.53 12.05, 59.53 24.11, 59.53 59.53 M59.53 0 C59.53 23.1, 59.53 46.2, 59.53 59.53 M59.53 59.53 C45.79 59.53, 32.05 59.53, 0 59.53 M59.53 59.53 C47.41 59.53, 35.3 59.53, 0 59.53 M0 59.53 C0 41.83, 0 24.12, 0 0 M0 59.53 C0 37.27, 0 15.02, 0 0" stroke="#1e1e1e" stroke-width="2" fill="none"></path></g><g transform="translate(133.55872581620088 394.1482737113056) rotate(0 7.7861328125 16.09999999999991)"><text x="7.7861328125" y="23.660546874999998" font-family="Helvetica, Segoe UI Emoji" font-size="28px" fill="#1e1e1e" text-anchor="middle" style="white-space: pre;" direction="ltr" dominant-baseline="alphabetic">9</text></g><g stroke-linecap="round" transform="translate(182.7880874329585 380.0294084755451) rotate(0 29.765763632943106 29.765763632943163)"><path d="M0 0 L59.53 0 L59.53 59.53 L0 59.53" stroke="none" stroke-width="0" fill="#a5d8ff"></path><path d="M0 0 C17.13 0, 34.26 0, 59.53 0 M0 0 C22.59 0, 45.19 0, 59.53 0 M59.53 0 C59.53 15.35, 59.53 30.7, 59.53 59.53 M59.53 0 C59.53 21.45, 59.53 42.91, 59.53 59.53 M59.53 59.53 C35.98 59.53, 12.42 59.53, 0 59.53 M59.53 59.53 C43.5 59.53, 27.47 59.53, 0 59.53 M0 59.53 C0 46.91, 0 34.28, 0 0 M0 59.53 C0 36.33, 0 13.12, 0 0" stroke="#1e1e1e" stroke-width="2" fill="none"></path></g><g transform="translate(196.2364682534016 393.6951721084879) rotate(0 16.3173828125 16.09999999999991)"><text x="16.3173828125" y="23.660546874999998" font-family="Helvetica, Segoe UI Emoji" font-size="28px" fill="#1e1e1e" text-anchor="middle" style="white-space: pre;" direction="ltr" dominant-baseline="alphabetic">10</text></g><g stroke-linecap="round" transform="translate(251.4781380021144 380.4825100783628) rotate(0 29.765763632943106 29.765763632943163)"><path d="M0 0 L59.53 0 L59.53 59.53 L0 59.53" stroke="none" stroke-width="0" fill="#a5d8ff"></path><path d="M0 0 C20.5 0, 41.01 0, 59.53 0 M0 0 C20.14 0, 40.29 0, 59.53 0 M59.53 0 C59.53 23.42, 59.53 46.84, 59.53 59.53 M59.53 0 C59.53 15.56, 59.53 31.12, 59.53 59.53 M59.53 59.53 C43.26 59.53, 26.98 59.53, 0 59.53 M59.53 59.53 C43.02 59.53, 26.5 59.53, 0 59.53 M0 59.53 C0 39.56, 0 19.6, 0 0 M0 59.53 C0 42.49, 0 25.45, 0 0" stroke="#1e1e1e" stroke-width="2" fill="none"></path></g><g transform="translate(266.7038625725575 394.1482737113056) rotate(0 14.5400390625 16.09999999999991)"><text x="14.5400390625" y="23.660546874999998" font-family="Helvetica, Segoe UI Emoji" font-size="28px" fill="#1e1e1e" text-anchor="middle" style="white-space: pre;" direction="ltr" dominant-baseline="alphabetic">11</text></g><g stroke-linecap="round" transform="translate(40.428885914177044 450.1959038187397) rotate(0 135.26556396484375 21.09999999999991)"><path d="M0 0 L270.53 0 L270.53 42.2 L0 42.2" stroke="none" stroke-width="0" fill="#ffc9c9"></path><path d="M0 0 C103.17 0, 206.33 0, 270.53 0 M0 0 C85.89 0, 171.77 0, 270.53 0 M270.53 0 C270.53 16.44, 270.53 32.87, 270.53 42.2 M270.53 0 C270.53 16.3, 270.53 32.6, 270.53 42.2 M270.53 42.2 C194.72 42.2, 118.91 42.2, 0 42.2 M270.53 42.2 C185.98 42.2, 101.44 42.2, 0 42.2 M0 42.2 C0 30.82, 0 19.43, 0 0 M0 42.2 C0 25.88, 0 9.56, 0 0" stroke="#1e1e1e" stroke-width="2" fill="none"></path></g><g transform="translate(115.0391764415208 455.1959038187397) rotate(0 60.6552734375 16.09999999999991)"><text x="60.6552734375" y="23.660546874999998" font-family="Helvetica, Segoe UI Emoji" font-size="28px" fill="#1e1e1e" text-anchor="middle" style="white-space: pre;" direction="ltr" dominant-baseline="alphabetic">16 MB L3</text></g><g stroke-linecap="round" transform="translate(351.2500969308153 335.05645858744356) rotate(0 145.94624212686415 84.15349109795943)"><path d="M0 0 L291.89 0 L291.89 168.31 L0 168.31" stroke="none" stroke-width="0" fill="#b2f2bb"></path><path d="M0 0 C83.04 0, 166.07 0, 291.89 0 M0 0 C97.96 0, 195.91 0, 291.89 0 M291.89 0 C291.89 43.53, 291.89 87.06, 291.89 168.31 M291.89 0 C291.89 56.97, 291.89 113.94, 291.89 168.31 M291.89 168.31 C218.64 168.31, 145.39 168.31, 0 168.31 M291.89 168.31 C223.83 168.31, 155.76 168.31, 0 168.31 M0 168.31 C0 102.28, 0 36.25, 0 0 M0 168.31 C0 132.73, 0 97.16, 0 0" stroke="#1e1e1e" stroke-width="2" fill="none"></path></g><g transform="translate(356.2500969308153 340.05645858744356) rotate(0 41.2685546875 16.09999999999991)"><text x="0" y="23.660546874999998" font-family="Helvetica, Segoe UI Emoji" font-size="28px" fill="#1e1e1e" text-anchor="start" style="white-space: pre;" direction="ltr" dominant-baseline="alphabetic">CCX 2</text></g><g stroke-linecap="round"><g transform="translate(390.5947871230503 410.21757395582154) rotate(0 0 29.852841310551412)"><path d="M0 0 C0 19.83, 0 39.65, 0 59.71 M0 0 C0 13.11, 0 26.22, 0 59.71" stroke="#1e1e1e" stroke-width="2" fill="none"></path></g></g><mask></mask><g stroke-linecap="round"><g transform="translate(463.60444668465556 410.21757395582154) rotate(0 0 29.852841310551412)"><path d="M0 0 C0 15.03, 0 30.06, 0 59.71 M0 0 C0 18.6, 0 37.19, 0 59.71" stroke="#1e1e1e" stroke-width="2" fill="none"></path></g></g><mask></mask><g stroke-linecap="round"><g transform="translate(534.9916939195698 410.21757395582154) rotate(0 0 29.852841310551412)"><path d="M0 0 C0 12.69, 0 25.38, 0 59.71 M0 0 C0 17.64, 0 35.27, 0 59.71" stroke="#1e1e1e" stroke-width="2" fill="none"></path></g></g><mask></mask><g stroke-linecap="round"><g transform="translate(608.001353481175 410.21757395582154) rotate(0 0 29.852841310551412)"><path d="M0 0 C0 19.23, 0 38.47, 0 59.71 M0 0 C0 17.3, 0 34.6, 0 59.71" stroke="#1e1e1e" stroke-width="2" fill="none"></path></g></g><mask></mask><g stroke-linecap="round" transform="translate(361.5358657610839 380.4825100783628) rotate(0 29.765763632943106 29.765763632943163)"><path d="M0 0 L59.53 0 L59.53 59.53 L0 59.53" stroke="none" stroke-width="0" fill="#a5d8ff"></path><path d="M0 0 C15.38 0, 30.77 0, 59.53 0 M0 0 C23.43 0, 46.86 0, 59.53 0 M59.53 0 C59.53 14.19, 59.53 28.38, 59.53 59.53 M59.53 0 C59.53 19.04, 59.53 38.09, 59.53 59.53 M59.53 59.53 C41.38 59.53, 23.24 59.53, 0 59.53 M59.53 59.53 C35.82 59.53, 12.12 59.53, 0 59.53 M0 59.53 C0 42.17, 0 24.81, 0 0 M0 59.53 C0 38.03, 0 16.52, 0 0" stroke="#1e1e1e" stroke-width="2" fill="none"></path></g><g transform="translate(374.97057470652703 394.1482737113056) rotate(0 16.3310546875 16.09999999999991)"><text x="16.3310546875" y="23.660546874999998" font-family="Helvetica, Segoe UI Emoji" font-size="28px" fill="#1e1e1e" text-anchor="middle" style="white-space: pre;" direction="ltr" dominant-baseline="alphabetic">12</text></g><g stroke-linecap="round" transform="translate(432.37835556640294 380.4825100783628) rotate(0 29.765763632943106 29.765763632943163)"><path d="M0 0 L59.53 0 L59.53 59.53 L0 59.53" stroke="none" stroke-width="0" fill="#a5d8ff"></path><path d="M0 0 C18.66 0, 37.32 0, 59.53 0 M0 0 C14.26 0, 28.53 0, 59.53 0 M59.53 0 C59.53 22, 59.53 44.01, 59.53 59.53 M59.53 0 C59.53 23.68, 59.53 47.36, 59.53 59.53 M59.53 59.53 C39 59.53, 18.46 59.53, 0 59.53 M59.53 59.53 C45.47 59.53, 31.4 59.53, 0 59.53 M0 59.53 C0 44.04, 0 28.55, 0 0 M0 59.53 C0 46.48, 0 33.43, 0 0" stroke="#1e1e1e" stroke-width="2" fill="none"></path></g><g transform="translate(445.84040826184605 394.1482737113056) rotate(0 16.3037109375 16.09999999999991)"><text x="16.3037109375" y="23.660546874999998" font-family="Helvetica, Segoe UI Emoji" font-size="28px" fill="#1e1e1e" text-anchor="middle" style="white-space: pre;" direction="ltr" dominant-baseline="alphabetic">13</text></g><g stroke-linecap="round" transform="translate(503.58734800360367 380.4825100783628) rotate(0 29.765763632943106 29.765763632943163)"><path d="M0 0 L59.53 0 L59.53 59.53 L0 59.53" stroke="none" stroke-width="0" fill="#a5d8ff"></path><path d="M0 0 C20.61 0, 41.22 0, 59.53 0 M0 0 C15.88 0, 31.76 0, 59.53 0 M59.53 0 C59.53 14.43, 59.53 28.86, 59.53 59.53 M59.53 0 C59.53 22.38, 59.53 44.75, 59.53 59.53 M59.53 59.53 C41.42 59.53, 23.3 59.53, 0 59.53 M59.53 59.53 C43.53 59.53, 27.54 59.53, 0 59.53 M0 59.53 C0 40.12, 0 20.72, 0 0 M0 59.53 C0 40.81, 0 22.09, 0 0" stroke="#1e1e1e" stroke-width="2" fill="none"></path></g><g transform="translate(516.9058460115468 394.1482737113056) rotate(0 16.447265625 16.09999999999991)"><text x="16.447265625" y="23.660546874999998" font-family="Helvetica, Segoe UI Emoji" font-size="28px" fill="#1e1e1e" text-anchor="middle" style="white-space: pre;" direction="ltr" dominant-baseline="alphabetic">14</text></g><g stroke-linecap="round" transform="translate(572.2773985727596 380.4825100783628) rotate(0 29.765763632943106 29.765763632943163)"><path d="M0 0 L59.53 0 L59.53 59.53 L0 59.53" stroke="none" stroke-width="0" fill="#a5d8ff"></path><path d="M0 0 C17.83 0, 35.65 0, 59.53 0 M0 0 C18.39 0, 36.78 0, 59.53 0 M59.53 0 C59.53 19.22, 59.53 38.44, 59.53 59.53 M59.53 0 C59.53 16.03, 59.53 32.07, 59.53 59.53 M59.53 59.53 C44.03 59.53, 28.53 59.53, 0 59.53 M59.53 59.53 C43.84 59.53, 28.14 59.53, 0 59.53 M0 59.53 C0 37.09, 0 14.65, 0 0 M0 59.53 C0 42.07, 0 24.62, 0 0" stroke="#1e1e1e" stroke-width="2" fill="none"></path></g><g transform="translate(585.7257793932026 394.1482737113056) rotate(0 16.3173828125 16.09999999999991)"><text x="16.3173828125" y="23.660546874999998" font-family="Helvetica, Segoe UI Emoji" font-size="28px" fill="#1e1e1e" text-anchor="middle" style="white-space: pre;" direction="ltr" dominant-baseline="alphabetic">15</text></g><g stroke-linecap="round" transform="translate(361.22814648482216 450.1959038187397) rotate(0 135.26556396484375 21.09999999999991)"><path d="M0 0 L270.53 0 L270.53 42.2 L0 42.2" stroke="none" stroke-width="0" fill="#ffc9c9"></path><path d="M0 0 C97.82 0, 195.65 0, 270.53 0 M0 0 C102.74 0, 205.48 0, 270.53 0 M270.53 0 C270.53 12.9, 270.53 25.8, 270.53 42.2 M270.53 0 C270.53 14.09, 270.53 28.18, 270.53 42.2 M270.53 42.2 C182.26 42.2, 93.99 42.2, 0 42.2 M270.53 42.2 C171.03 42.2, 71.53 42.2, 0 42.2 M0 42.2 C0 32.04, 0 21.89, 0 0 M0 42.2 C0 29.84, 0 17.48, 0 0" stroke="#1e1e1e" stroke-width="2" fill="none"></path></g><g transform="translate(435.8384370121659 455.1959038187397) rotate(0 60.6552734375 16.09999999999991)"><text x="60.6552734375" y="23.660546874999998" font-family="Helvetica, Segoe UI Emoji" font-size="28px" fill="#1e1e1e" text-anchor="middle" style="white-space: pre;" direction="ltr" dominant-baseline="alphabetic">16 MB L3</text></g><g stroke-linecap="round" transform="translate(10 10) rotate(0 330.3552603147222 259.99483802495706)"><path d="M0 0 C218.12 0, 436.25 0, 660.71 0 M0 0 C184.01 0, 368.03 0, 660.71 0 M660.71 0 C660.71 201.44, 660.71 402.88, 660.71 519.99 M660.71 0 C660.71 182, 660.71 364, 660.71 519.99 M660.71 519.99 C472.17 519.99, 283.62 519.99, 0 519.99 M660.71 519.99 C414.15 519.99, 167.59 519.99, 0 519.99 M0 519.99 C0 326.88, 0 133.76, 0 0 M0 519.99 C0 384.41, 0 248.83, 0 0" stroke="#1e1e1e" stroke-width="2" fill="none"></path></g><g transform="translate(286.9870962522222 15) rotate(0 53.3681640625 16.09999999999991)"><text x="53.3681640625" y="23.660546874999998" font-family="Helvetica, Segoe UI Emoji" font-size="28px" fill="#1e1e1e" text-anchor="middle" style="white-space: pre;" direction="ltr" dominant-baseline="alphabetic">NUMA 0</text></g></svg>