<svg version="1.1" xmlns="http://www.w3.org/2000/svg" viewBox="0 0 680.7105206294444 539.9896760499141" width="680.7105206294444" height="539.9896760499141" class="excalidraw-svg">
  <!-- svg-source:excalidraw -->
  
  <defs>
    <style class="style-fonts">
      
    </style>
    
  </defs>
  <rect x="0" y="0" width="680.7105206294444" height="539.9896760499141" fill="#ffffff"></rect><g stroke-linecap="round" transform="translate(10 10) rotate(0 330.3552603147222 259.99483802495706)"><path d="M0 0 C156.66 0, 313.31 0, 660.71 0 M0 0 C241.29 0, 482.58 0, 660.71 0 M660.71 0 C660.71 158.98, 660.71 317.96, 660.71 519.99 M660.71 0 C660.71 107.32, 660.71 214.64, 660.71 519.99 M660.71 519.99 C519.46 519.99, 378.21 519.99, 0 519.99 M660.71 519.99 C468.68 519.99, 276.65 519.99, 0 519.99 M0 519.99 C0 335.88, 0 151.77, 0 0 M0 519.99 C0 339.09, 0 158.19, 0 0" stroke="#1e1e1e" stroke-width="2" fill="none"></path></g><g transform="translate(286.9870962522222 15) rotate(0 53.3681640625 16.09999999999991)"><text x="53.3681640625" y="23.660546874999998" font-family="Helvetica, Segoe UI Emoji" font-size="28px" fill="#1e1e1e" text-anchor="middle" style="white-space: pre;" direction="ltr" dominant-baseline="alphabetic">NUMA 0</text></g><g stroke-linecap="round" transform="translate(19.357536772542176 57.63735647724843) rotate(0 318.5213334108847 111.28505005415946)"><path d="M0 0 L637.04 0 L637.04 222.57 L0 222.57" stroke="none" stroke-width="0" fill="#ffec99"></path><path d="M0 0 C155.26 0, 310.52 0, 637.04 0 M0 0 C142.1 0, 284.2 0, 637.04 0 M637.04 0 C637.04 86.35, 637.04 172.7, 637.04 222.57 M637.04 0 C637.04 78.22, 637.04 156.44, 637.04 222.57 M637.04 222.57 C493.37 222.57, 349.69 222.57, 0 222.57 M637.04 222.57 C453.5 222.57, 269.95 222.57, 0 222.57 M0 222.57 C0 154.76, 0 86.95, 0 0 M0 222.57 C0 151.33, 0 80.08, 0 0" stroke="#1e1e1e" stroke-width="2" fill="none"></path></g><g transform="translate(24.357536772542176 62.63735647724843) rotate(0 42.02734375 16.09999999999991)"><text x="0" y="23.660546874999998" font-family="Helvetica, Segoe UI Emoji" font-size="28px" fill="#1e1e1e" text-anchor="start" style="white-space: pre;" direction="ltr" dominant-baseline="alphabetic">CCD 0</text></g><g stroke-linecap="round" transform="translate(30.450836360170115 99.66352042595372) rotate(0 145.94624212686415 84.15349109795943)"><path d="M0 0 L291.89 0 L291.89 168.31 L0 168.31" stroke="none" stroke-width="0" fill="#b2f2bb"></path><path d="M0 0 C89.46 0, 178.92 0, 291.89 0 M0 0 C109.88 0, 219.76 0, 291.89 0 M291.89 0 C291.89 61.37, 291.89 122.75, 291.89 168.31 M291.89 0 C291.89 62.99, 291.89 125.98, 291.89 168.31 M291.89 168.31 C190.1 168.31, 88.3 168.31, 0 168.31 M291.89 168.31 C223.28 168.31, 154.67 168.31, 0 168.31 M0 168.31 C0 120.25, 0 72.19, 0 0 M0 168.31 C0 132.78, 0 97.26, 0 0" stroke="#1e1e1e" stroke-width="2" fill="none"></path></g><g transform="translate(35.450836360170115 104.66352042595372) rotate(0 41.2548828125 16.09999999999991)"><text x="0" y="23.660546874999998" font-family="Helvetica, Segoe UI Emoji" font-size="28px" fill="#1e1e1e" text-anchor="start" style="white-space: pre;" direction="ltr" dominant-baseline="alphabetic">CCX 0</text></g><g stroke-linecap="round"><g transform="translate(69.79552655240514 174.8246357943317) rotate(0 0 29.852841310551412)"><path d="M0 0 C0 16.94, 0 33.89, 0 59.71 M0 0 C0 14.63, 0 29.26, 0 59.71" stroke="#1e1e1e" stroke-width="2" fill="none"></path></g></g><mask></mask><g stroke-linecap="round"><g transform="translate(142.80518611401038 174.8246357943317) rotate(0 0 29.852841310551412)"><path d="M0 0 C0 21.49, 0 42.98, 0 59.71 M0 0 C0 21.36, 0 42.72, 0 59.71" stroke="#1e1e1e" stroke-width="2" fill="none"></path></g></g><mask></mask><g stroke-linecap="round"><g transform="translate(214.19243334892462 174.8246357943317) rotate(0 0 29.852841310551412)"><path d="M0 0 C0 19.35, 0 38.7, 0 59.71 M0 0 C0 20.42, 0 40.84, 0 59.71" stroke="#1e1e1e" stroke-width="2" fill="none"></path></g></g><mask></mask><g stroke-linecap="round"><g transform="translate(287.2020929105298 174.8246357943317) rotate(0 0 29.852841310551412)"><path d="M0 0 C0 23.16, 0 46.33, 0 59.71 M0 0 C0 20.98, 0 41.97, 0 59.71" stroke="#1e1e1e" stroke-width="2" fill="none"></path></g></g><mask></mask><g stroke-linecap="round" transform="translate(40.736605190438695 145.08957191687296) rotate(0 29.765763632943106 29.765763632943163)"><path d="M0 0 L59.53 0 L59.53 59.53 L0 59.53" stroke="none" stroke-width="0" fill="#a5d8ff"></path><path d="M0 0 C19.21 0, 38.42 0, 59.53 0 M0 0 C16.89 0, 33.78 0, 59.53 0 M59.53 0 C59.53 19.5, 59.53 38.99, 59.53 59.53 M59.53 0 C59.53 23.43, 59.53 46.86, 59.53 59.53 M59.53 59.53 C47.54 59.53, 35.55 59.53, 0 59.53 M59.53 59.53 C38.1 59.53, 16.66 59.53, 0 59.53 M0 59.53 C0 44.24, 0 28.95, 0 0 M0 59.53 C0 42.79, 0 26.05, 0 0" stroke="#1e1e1e" stroke-width="2" fill="none"></path></g><g transform="translate(62.7162360108818 158.75533554981575) rotate(0 7.7861328125 16.09999999999991)"><text x="7.7861328125" y="23.660546874999998" font-family="Helvetica, Segoe UI Emoji" font-size="28px" fill="#1e1e1e" text-anchor="middle" style="white-space: pre;" direction="ltr" dominant-baseline="alphabetic">0</text></g><g stroke-linecap="round" transform="translate(111.57909499575777 145.08957191687296) rotate(0 29.765763632943106 29.765763632943163)"><path d="M0 0 L59.53 0 L59.53 59.53 L0 59.53" stroke="none" stroke-width="0" fill="#a5d8ff"></path><path d="M0 0 C19.17 0, 38.33 0, 59.53 0 M0 0 C23.2 0, 46.41 0, 59.53 0 M59.53 0 C59.53 16.32, 59.53 32.64, 59.53 59.53 M59.53 0 C59.53 19.32, 59.53 38.64, 59.53 59.53 M59.53 59.53 C40.19 59.53, 20.84 59.53, 0 59.53 M59.53 59.53 C46.2 59.53, 32.87 59.53, 0 59.53 M0 59.53 C0 37.79, 0 16.04, 0 0 M0 59.53 C0 44.6, 0 29.66, 0 0" stroke="#1e1e1e" stroke-width="2" fill="none"></path></g><g transform="translate(133.55872581620088 158.75533554981575) rotate(0 7.7861328125 16.09999999999991)"><text x="7.7861328125" y="23.660546874999998" font-family="Helvetica, Segoe UI Emoji" font-size="28px" fill="#1e1e1e" text-anchor="middle" style="white-space: pre;" direction="ltr" dominant-baseline="alphabetic">1</text></g><g stroke-linecap="round" transform="translate(182.7880874329585 145.08957191687296) rotate(0 29.765763632943106 29.765763632943163)"><path d="M0 0 L59.53 0 L59.53 59.53 L0 59.53" stroke="none" stroke-width="0" fill="#a5d8ff"></path><path d="M0 0 C18.51 0, 37.02 0, 59.53 0 M0 0 C16.83 0, 33.65 0, 59.53 0 M59.53 0 C59.53 23.31, 59.53 46.61, 59.53 59.53 M59.53 0 C59.53 17.63, 59.53 35.27, 59.53 59.53 M59.53 59.53 C43.19 59.53, 26.85 59.53, 0 59.53 M59.53 59.53 C40.46 59.53, 21.39 59.53, 0 59.53 M0 59.53 C0 47.38, 0 35.22, 0 0 M0 59.53 C0 47.12, 0 34.71, 0 0" stroke="#1e1e1e" stroke-width="2" fill="none"></path></g><g transform="translate(204.7677182534016 158.75533554981575) rotate(0 7.7861328125 16.09999999999991)"><text x="7.7861328125" y="23.660546874999998" font-family="Helvetica, Segoe UI Emoji" font-size="28px" fill="#1e1e1e" text-anchor="middle" style="white-space: pre;" direction="ltr" dominant-baseline="alphabetic">2</text></g><g stroke-linecap="round" transform="translate(251.4781380021144 145.08957191687296) rotate(0 29.765763632943106 29.765763632943163)"><path d="M0 0 L59.53 0 L59.53 59.53 L0 59.53" stroke="none" stroke-width="0" fill="#a5d8ff"></path><path d="M0 0 C13.43 0, 26.85 0, 59.53 0 M0 0 C17.15 0, 34.3 0, 59.53 0 M59.53 0 C59.53 18.14, 59.53 36.28, 59.53 59.53 M59.53 0 C59.53 19.06, 59.53 38.11, 59.53 59.53 M59.53 59.53 C46.78 59.53, 34.04 59.53, 0 59.53 M59.53 59.53 C41.85 59.53, 24.17 59.53, 0 59.53 M0 59.53 C0 40.08, 0 20.63, 0 0 M0 59.53 C0 36.46, 0 13.39, 0 0" stroke="#1e1e1e" stroke-width="2" fill="none"></path></g><g transform="translate(273.4577688225575 158.75533554981575) rotate(0 7.7861328125 16.09999999999991)"><text x="7.7861328125" y="23.660546874999998" font-family="Helvetica, Segoe UI Emoji" font-size="28px" fill="#1e1e1e" text-anchor="middle" style="white-space: pre;" direction="ltr" dominant-baseline="alphabetic">3</text></g><g stroke-linecap="round" transform="translate(40.428885914177044 214.80296565724984) rotate(0 135.26556396484375 21.09999999999991)"><path d="M0 0 L270.53 0 L270.53 42.2 L0 42.2" stroke="none" stroke-width="0" fill="#ffc9c9"></path><path d="M0 0 C94.34 0, 188.69 0, 270.53 0 M0 0 C63.59 0, 127.18 0, 270.53 0 M270.53 0 C270.53 12.05, 270.53 24.1, 270.53 42.2 M270.53 0 C270.53 8.91, 270.53 17.81, 270.53 42.2 M270.53 42.2 C201.59 42.2, 132.65 42.2, 0 42.2 M270.53 42.2 C188.11 42.2, 105.7 42.2, 0 42.2 M0 42.2 C0 28.15, 0 14.1, 0 0 M0 42.2 C0 32.72, 0 23.24, 0 0" stroke="#1e1e1e" stroke-width="2" fill="none"></path></g><g transform="translate(115.0391764415208 219.80296565724984) rotate(0 60.6552734375 16.09999999999991)"><text x="60.6552734375" y="23.660546874999998" font-family="Helvetica, Segoe UI Emoji" font-size="28px" fill="#1e1e1e" text-anchor="middle" style="white-space: pre;" direction="ltr" dominant-baseline="alphabetic">16 MB L3</text></g><g stroke-linecap="round" transform="translate(351.2500969308153 99.66352042595372) rotate(0 145.94624212686415 84.15349109795943)"><path d="M0 0 L291.89 0 L291.89 168.31 L0 168.31" stroke="none" stroke-width="0" fill="#b2f2bb"></path><path d="M0 0 C90.55 0, 181.11 0, 291.89 0 M0 0 C74.56 0, 149.12 0, 291.89 0 M291.89 0 C291.89 42.57, 291.89 85.14, 291.89 168.31 M291.89 0 C291.89 65.14, 291.89 130.27, 291.89 168.31 M291.89 168.31 C217.61 168.31, 143.33 168.31, 0 168.31 M291.89 168.31 C175.98 168.31, 60.07 168.31, 0 168.31 M0 168.31 C0 122.9, 0 77.49, 0 0 M0 168.31 C0 107.75, 0 47.2, 0 0" stroke="#1e1e1e" stroke-width="2" fill="none"></path></g><g transform="translate(356.2500969308153 104.66352042595372) rotate(0 41.234375 16.09999999999991)"><text x="0" y="23.660546874999998" font-family="Helvetica, Segoe UI Emoji" font-size="28px" fill="#1e1e1e" text-anchor="start" style="white-space: pre;" direction="ltr" dominant-baseline="alphabetic">CCX 1</text></g><g stroke-linecap="round"><g transform="translate(390.5947871230503 174.8246357943317) rotate(0 0 29.852841310551412)"><path d="M0 0 C0 17.11, 0 34.23, 0 59.71 M0 0 C0 22.95, 0 45.9, 0 59.71" stroke="#1e1e1e" stroke-width="2" fill="none"></path></g></g><mask></mask><g stroke-linecap="round"><g transform="translate(463.60444668465556 174.8246357943317) rotate(0 0 29.852841310551412)"><path d="M0 0 C0 18.19, 0 36.38, 0 59.71 M0 0 C0 19.11, 0 38.22, 0 59.71" stroke="#1e1e1e" stroke-width="2" fill="none"></path></g></g><mask></mask><g stroke-linecap="round"><g transform="translate(534.9916939195698 174.8246357943317) rotate(0 0 29.852841310551412)"><path d="M0 0 C0 12.03, 0 24.05, 0 59.71 M0 0 C0 21.5, 0 42.99, 0 59.71" stroke="#1e1e1e" stroke-width="2" fill="none"></path></g></g><mask></mask><g stroke-linecap="round"><g transform="translate(608.001353481175 174.8246357943317) rotate(0 0 29.852841310551412)"><path d="M0 0 C0 17.05, 0 34.1, 0 59.71 M0 0 C0 12.6, 0 25.2, 0 59.71" stroke="#1e1e1e" stroke-width="2" fill="none"></path></g></g><mask></mask><g stroke-linecap="round" transform="translate(361.5358657610839 145.08957191687296) rotate(0 29.765763632943106 29.765763632943163)"><path d="M0 0 L59.53 0 L59.53 59.53 L0 59.53" stroke="none" stroke-width="0" fill="#a5d8ff"></path><path d="M0 0 C19.35 0, 38.69 0, 59.53 0 M0 0 C13.33 0, 26.66 0, 59.53 0 M59.53 0 C59.53 21.75, 59.53 43.49, 59.53 59.53 M59.53 0 C59.53 14.93, 59.53 29.87, 59.53 59.53 M59.53 59.53 C36.38 59.53, 13.23 59.53, 0 59.53 M59.53 59.53 C43.53 59.53, 27.53 59.53, 0 59.53 M0 59.53 C0 45.47, 0 31.4, 0 0 M0 59.53 C0 35.87, 0 12.2, 0 0" stroke="#1e1e1e" stroke-width="2" fill="none"></path></g><g transform="translate(383.51549658152703 158.75533554981575) rotate(0 7.7861328125 16.09999999999991)"><text x="7.7861328125" y="23.660546874999998" font-family="Helvetica, Segoe UI Emoji" font-size="28px" fill="#1e1e1e" text-anchor="middle" style="white-space: pre;" direction="ltr" dominant-baseline="alphabetic">4</text></g><g stroke-linecap="round" transform="translate(432.37835556640294 145.08957191687296) rotate(0 29.765763632943106 29.765763632943163)"><path d="M0 0 L59.53 0 L59.53 59.53 L0 59.53" stroke="none" stroke-width="0" fill="#a5d8ff"></path><path d="M0 0 C16.34 0, 32.68 0, 59.53 0 M0 0 C19.07 0, 38.14 0, 59.53 0 M59.53 0 C59.53 12.16, 59.53 24.31, 59.53 59.53 M59.53 0 C59.53 12.41, 59.53 24.82, 59.53 59.53 M59.53 59.53 C39.26 59.53, 19 59.53, 0 59.53 M59.53 59.53 C41.58 59.53, 23.62 59.53, 0 59.53 M0 59.53 C0 41.54, 0 23.55, 0 0 M0 59.53 C0 36.63, 0 13.72, 0 0" stroke="#1e1e1e" stroke-width="2" fill="none"></path></g><g transform="translate(454.35798638684605 158.75533554981575) rotate(0 7.7861328125 16.09999999999991)"><text x="7.7861328125" y="23.660546874999998" font-family="Helvetica, Segoe UI Emoji" font-size="28px" fill="#1e1e1e" text-anchor="middle" style="white-space: pre;" direction="ltr" dominant-baseline="alphabetic">5</text></g><g stroke-linecap="round" transform="translate(503.58734800360367 145.08957191687296) rotate(0 29.765763632943106 29.765763632943163)"><path d="M0 0 L59.53 0 L59.53 59.53 L0 59.53" stroke="none" stroke-width="0" fill="#a5d8ff"></path><path d="M0 0 C12.75 0, 25.49 0, 59.53 0 M0 0 C17.68 0, 35.36 0, 59.53 0 M59.53 0 C59.53 19.45, 59.53 38.9, 59.53 59.53 M59.53 0 C59.53 23.07, 59.53 46.14, 59.53 59.53 M59.53 59.53 C39.09 59.53, 18.65 59.53, 0 59.53 M59.53 59.53 C45.52 59.53, 31.51 59.53, 0 59.53 M0 59.53 C0 45.45, 0 31.37, 0 0 M0 59.53 C0 40.73, 0 21.93, 0 0" stroke="#1e1e1e" stroke-width="2" fill="none"></path></g><g transform="translate(525.5669788240468 158.75533554981575) rotate(0 7.7861328125 16.09999999999991)"><text x="7.7861328125" y="23.660546874999998" font-family="Helvetica, Segoe UI Emoji" font-size="28px" fill="#1e1e1e" text-anchor="middle" style="white-space: pre;" direction="ltr" dominant-baseline="alphabetic">6</text></g><g stroke-linecap="round" transform="translate(572.2773985727596 145.08957191687296) rotate(0 29.765763632943106 29.765763632943163)"><path d="M0 0 L59.53 0 L59.53 59.53 L0 59.53" stroke="none" stroke-width="0" fill="#a5d8ff"></path><path d="M0 0 C15.17 0, 30.34 0, 59.53 0 M0 0 C18.14 0, 36.27 0, 59.53 0 M59.53 0 C59.53 19.82, 59.53 39.64, 59.53 59.53 M59.53 0 C59.53 13.38, 59.53 26.75, 59.53 59.53 M59.53 59.53 C39.48 59.53, 19.43 59.53, 0 59.53 M59.53 59.53 C39.13 59.53, 18.73 59.53, 0 59.53 M0 59.53 C0 37.66, 0 15.79, 0 0 M0 59.53 C0 44.7, 0 29.87, 0 0" stroke="#1e1e1e" stroke-width="2" fill="none"></path></g><g transform="translate(594.2091778307026 158.75533554981575) rotate(0 7.833984375 16.09999999999991)"><text x="7.833984375" y="23.660546874999998" font-family="Helvetica, Segoe UI Emoji" font-size="28px" fill="#1e1e1e" text-anchor="middle" style="white-space: pre;" direction="ltr" dominant-baseline="alphabetic">7</text></g><g stroke-linecap="round" transform="translate(361.22814648482216 214.80296565724984) rotate(0 135.26556396484375 21.09999999999991)"><path d="M0 0 L270.53 0 L270.53 42.2 L0 42.2" stroke="none" stroke-width="0" fill="#ffc9c9"></path><path d="M0 0 C68.85 0, 137.69 0, 270.53 0 M0 0 C107.43 0, 214.86 0, 270.53 0 M270.53 0 C270.53 11.39, 270.53 22.77, 270.53 42.2 M270.53 0 C270.53 15.18, 270.53 30.37, 270.53 42.2 M270.53 42.2 C214.6 42.2, 158.68 42.2, 0 42.2 M270.53 42.2 C162.49 42.2, 54.46 42.2, 0 42.2 M0 42.2 C0 30.81, 0 19.43, 0 0 M0 42.2 C0 31.8, 0 21.39, 0 0" stroke="#1e1e1e" stroke-width="2" fill="none"></path></g><g transform="translate(435.8384370121659 219.80296565724984) rotate(0 60.6552734375 16.09999999999991)"><text x="60.6552734375" y="23.660546874999998" font-family="Helvetica, Segoe UI Emoji" font-size="28px" fill="#1e1e1e" text-anchor="middle" style="white-space: pre;" direction="ltr" dominant-baseline="alphabetic">16 MB L3</text></g><g stroke-linecap="round" transform="translate(20.152820192505146 293.82551651854646) rotate(0 318.5213334108847 111.28505005415946)"><path d="M0 0 L637.04 0 L637.04 222.57 L0 222.57" stroke="none" stroke-width="0" fill="#ffec99"></path><path d="M0 0 C138.77 0, 277.54 0, 637.04 0 M0 0 C211.08 0, 422.17 0, 637.04 0 M637.04 0 C637.04 51.42, 637.04 102.84, 637.04 222.57 M637.04 0 C637.04 52.47, 637.04 104.94, 637.04 222.57 M637.04 222.57 C391.16 222.57, 145.28 222.57, 0 222.57 M637.04 222.57 C456 222.57, 274.96 222.57, 0 222.57 M0 222.57 C0 141.17, 0 59.77, 0 0 M0 222.57 C0 139.63, 0 56.69, 0 0" stroke="#1e1e1e" stroke-width="2" fill="none"></path></g><g transform="translate(25.152820192505146 298.82551651854646) rotate(0 42.0068359375 16.09999999999991)"><text x="0" y="23.660546874999998" font-family="Helvetica, Segoe UI Emoji" font-size="28px" fill="#1e1e1e" text-anchor="start" style="white-space: pre;" direction="ltr" dominant-baseline="alphabetic">CCD 1</text></g><g stroke-linecap="round" transform="translate(30.450836360170115 335.05645858744356) rotate(0 145.94624212686415 84.15349109795943)"><path d="M0 0 L291.89 0 L291.89 168.31 L0 168.31" stroke="none" stroke-width="0" fill="#b2f2bb"></path><path d="M0 0 C86.54 0, 173.08 0, 291.89 0 M0 0 C107.27 0, 214.54 0, 291.89 0 M291.89 0 C291.89 60.14, 291.89 120.28, 291.89 168.31 M291.89 0 C291.89 50.26, 291.89 100.51, 291.89 168.31 M291.89 168.31 C217.67 168.31, 143.44 168.31, 0 168.31 M291.89 168.31 C181.21 168.31, 70.53 168.31, 0 168.31 M0 168.31 C0 113.79, 0 59.27, 0 0 M0 168.31 C0 118.58, 0 68.85, 0 0" stroke="#1e1e1e" stroke-width="2" fill="none"></path></g><g transform="translate(35.450836360170115 340.05645858744356) rotate(0 41.2685546875 16.09999999999991)"><text x="0" y="23.660546874999998" font-family="Helvetica, Segoe UI Emoji" font-size="28px" fill="#1e1e1e" text-anchor="start" style="white-space: pre;" direction="ltr" dominant-baseline="alphabetic">CCX 2</text></g><g stroke-linecap="round"><g transform="translate(69.79552655240514 410.21757395582154) rotate(0 0 29.852841310551412)"><path d="M0 0 C0 23.22, 0 46.44, 0 59.71 M0 0 C0 16.05, 0 32.1, 0 59.71" stroke="#1e1e1e" stroke-width="2" fill="none"></path></g></g><mask></mask><g stroke-linecap="round"><g transform="translate(142.80518611401038 410.21757395582154) rotate(0 0 29.852841310551412)"><path d="M0 0 C0 16.11, 0 32.22, 0 59.71 M0 0 C0 21.48, 0 42.96, 0 59.71" stroke="#1e1e1e" stroke-width="2" fill="none"></path></g></g><mask></mask><g stroke-linecap="round"><g transform="translate(214.19243334892462 410.21757395582154) rotate(0 0 29.852841310551412)"><path d="M0 0 C0 20.33, 0 40.65, 0 59.71 M0 0 C0 18.01, 0 36.01, 0 59.71" stroke="#1e1e1e" stroke-width="2" fill="none"></path></g></g><mask></mask><g stroke-linecap="round"><g transform="translate(287.2020929105298 410.21757395582154) rotate(0 0 29.852841310551412)"><path d="M0 0 C0 13.79, 0 27.59, 0 59.71 M0 0 C0 14.08, 0 28.15, 0 59.71" stroke="#1e1e1e" stroke-width="2" fill="none"></path></g></g><mask></mask><g stroke-linecap="round" transform="translate(40.736605190438695 380.4825100783628) rotate(0 29.765763632943106 29.765763632943163)"><path d="M0 0 L59.53 0 L59.53 59.53 L0 59.53" stroke="none" stroke-width="0" fill="#a5d8ff"></path><path d="M0 0 C20.44 0, 40.89 0, 59.53 0 M0 0 C14.01 0, 28.02 0, 59.53 0 M59.53 0 C59.53 14.08, 59.53 28.17, 59.53 59.53 M59.53 0 C59.53 18.8, 59.53 37.6, 59.53 59.53 M59.53 59.53 C36.07 59.53, 12.6 59.53, 0 59.53 M59.53 59.53 C42.16 59.53, 24.79 59.53, 0 59.53 M0 59.53 C0 37.9, 0 16.27, 0 0 M0 59.53 C0 37.49, 0 15.44, 0 0" stroke="#1e1e1e" stroke-width="2" fill="none"></path></g><g transform="translate(62.7162360108818 394.1482737113056) rotate(0 7.7861328125 16.09999999999991)"><text x="7.7861328125" y="23.660546874999998" font-family="Helvetica, Segoe UI Emoji" font-size="28px" fill="#1e1e1e" text-anchor="middle" style="white-space: pre;" direction="ltr" dominant-baseline="alphabetic">8</text></g><g stroke-linecap="round" transform="translate(111.57909499575777 380.4825100783628) rotate(0 29.765763632943106 29.765763632943163)"><path d="M0 0 L59.53 0 L59.53 59.53 L0 59.53" stroke="none" stroke-width="0" fill="#a5d8ff"></path><path d="M0 0 C20.05 0, 40.1 0, 59.53 0 M0 0 C20.4 0, 40.8 0, 59.53 0 M59.53 0 C59.53 21.87, 59.53 43.74, 59.53 59.53 M59.53 0 C59.53 14.83, 59.53 29.67, 59.53 59.53 M59.53 59.53 C38.48 59.53, 17.42 59.53, 0 59.53 M59.53 59.53 C41.09 59.53, 22.65 59.53, 0 59.53 M0 59.53 C0 35.94, 0 12.36, 0 0 M0 59.53 C0 46.34, 0 33.14, 0 0" stroke="#1e1e1e" stroke-width="2" fill="none"></path></g><g transform="translate(133.55872581620088 394.1482737113056) rotate(0 7.7861328125 16.09999999999991)"><text x="7.7861328125" y="23.660546874999998" font-family="Helvetica, Segoe UI Emoji" font-size="28px" fill="#1e1e1e" text-anchor="middle" style="white-space: pre;" direction="ltr" dominant-baseline="alphabetic">9</text></g><g stroke-linecap="round" transform="translate(182.7880874329585 380.0294084755451) rotate(0 29.765763632943106 29.765763632943163)"><path d="M0 0 L59.53 0 L59.53 59.53 L0 59.53" stroke="none" stroke-width="0" fill="#a5d8ff"></path><path d="M0 0 C12.31 0, 24.61 0, 59.53 0 M0 0 C23.77 0, 47.55 0, 59.53 0 M59.53 0 C59.53 16.06, 59.53 32.12, 59.53 59.53 M59.53 0 C59.53 14.67, 59.53 29.35, 59.53 59.53 M59.53 59.53 C41.43 59.53, 23.33 59.53, 0 59.53 M59.53 59.53 C36.04 59.53, 12.54 59.53, 0 59.53 M0 59.53 C0 39.38, 0 19.23, 0 0 M0 59.53 C0 44.28, 0 29.03, 0 0" stroke="#1e1e1e" stroke-width="2" fill="none"></path></g><g transform="translate(196.2364682534016 393.6951721084879) rotate(0 16.3173828125 16.09999999999991)"><text x="16.3173828125" y="23.660546874999998" font-family="Helvetica, Segoe UI Emoji" font-size="28px" fill="#1e1e1e" text-anchor="middle" style="white-space: pre;" direction="ltr" dominant-baseline="alphabetic">10</text></g><g stroke-linecap="round" transform="translate(251.4781380021144 380.4825100783628) rotate(0 29.765763632943106 29.765763632943163)"><path d="M0 0 L59.53 0 L59.53 59.53 L0 59.53" stroke="none" stroke-width="0" fill="#a5d8ff"></path><path d="M0 0 C22.98 0, 45.96 0, 59.53 0 M0 0 C16.92 0, 33.84 0, 59.53 0 M59.53 0 C59.53 21.77, 59.53 43.54, 59.53 59.53 M59.53 0 C59.53 22.18, 59.53 44.37, 59.53 59.53 M59.53 59.53 C41.3 59.53, 23.07 59.53, 0 59.53 M59.53 59.53 C38.86 59.53, 18.19 59.53, 0 59.53 M0 59.53 C0 39.28, 0 19.03, 0 0 M0 59.53 C0 38.07, 0 16.6, 0 0" stroke="#1e1e1e" stroke-width="2" fill="none"></path></g><g transform="translate(266.7038625725575 394.1482737113056) rotate(0 14.5400390625 16.09999999999991)"><text x="14.5400390625" y="23.660546874999998" font-family="Helvetica, Segoe UI Emoji" font-size="28px" fill="#1e1e1e" text-anchor="middle" style="white-space: pre;" direction="ltr" dominant-baseline="alphabetic">11</text></g><g stroke-linecap="round" transform="translate(40.428885914177044 450.1959038187397) rotate(0 135.26556396484375 21.09999999999991)"><path d="M0 0 L270.53 0 L270.53 42.2 L0 42.2" stroke="none" stroke-width="0" fill="#ffc9c9"></path><path d="M0 0 C68.79 0, 137.59 0, 270.53 0 M0 0 C102.58 0, 205.17 0, 270.53 0 M270.53 0 C270.53 13.67, 270.53 27.34, 270.53 42.2 M270.53 0 C270.53 12.47, 270.53 24.94, 270.53 42.2 M270.53 42.2 C170.92 42.2, 71.32 42.2, 0 42.2 M270.53 42.2 C197.13 42.2, 123.72 42.2, 0 42.2 M0 42.2 C0 25.39, 0 8.58, 0 0 M0 42.2 C0 32.72, 0 23.24, 0 0" stroke="#1e1e1e" stroke-width="2" fill="none"></path></g><g transform="translate(115.0391764415208 455.1959038187397) rotate(0 60.6552734375 16.09999999999991)"><text x="60.6552734375" y="23.660546874999998" font-family="Helvetica, Segoe UI Emoji" font-size="28px" fill="#1e1e1e" text-anchor="middle" style="white-space: pre;" direction="ltr" dominant-baseline="alphabetic">16 MB L3</text></g><g stroke-linecap="round" transform="translate(351.2500969308153 335.05645858744356) rotate(0 145.94624212686415 84.15349109795943)"><path d="M0 0 L291.89 0 L291.89 168.31 L0 168.31" stroke="none" stroke-width="0" fill="#b2f2bb"></path><path d="M0 0 C98.75 0, 197.49 0, 291.89 0 M0 0 C107.84 0, 215.68 0, 291.89 0 M291.89 0 C291.89 43.77, 291.89 87.54, 291.89 168.31 M291.89 0 C291.89 48.15, 291.89 96.29, 291.89 168.31 M291.89 168.31 C220.49 168.31, 149.09 168.31, 0 168.31 M291.89 168.31 C182.74 168.31, 73.58 168.31, 0 168.31 M0 168.31 C0 108.29, 0 48.27, 0 0 M0 168.31 C0 110.88, 0 53.46, 0 0" stroke="#1e1e1e" stroke-width="2" fill="none"></path></g><g transform="translate(356.2500969308153 340.05645858744356) rotate(0 41.2412109375 16.09999999999991)"><text x="0" y="23.660546874999998" font-family="Helvetica, Segoe UI Emoji" font-size="28px" fill="#1e1e1e" text-anchor="start" style="white-space: pre;" direction="ltr" dominant-baseline="alphabetic">CCX 3</text></g><g stroke-linecap="round"><g transform="translate(390.5947871230503 410.21757395582154) rotate(0 0 29.852841310551412)"><path d="M0 0 C0 18.6, 0 37.19, 0 59.71 M0 0 C0 14.52, 0 29.04, 0 59.71" stroke="#1e1e1e" stroke-width="2" fill="none"></path></g></g><mask></mask><g stroke-linecap="round"><g transform="translate(463.60444668465556 410.21757395582154) rotate(0 0 29.852841310551412)"><path d="M0 0 C0 21.84, 0 43.67, 0 59.71 M0 0 C0 22.25, 0 44.5, 0 59.71" stroke="#1e1e1e" stroke-width="2" fill="none"></path></g></g><mask></mask><g stroke-linecap="round"><g transform="translate(534.9916939195698 410.21757395582154) rotate(0 0 29.852841310551412)"><path d="M0 0 C0 23.53, 0 47.07, 0 59.71 M0 0 C0 17.42, 0 34.85, 0 59.71" stroke="#1e1e1e" stroke-width="2" fill="none"></path></g></g><mask></mask><g stroke-linecap="round"><g transform="translate(608.001353481175 410.21757395582154) rotate(0 0 29.852841310551412)"><path d="M0 0 C0 19.34, 0 38.68, 0 59.71 M0 0 C0 17.64, 0 35.28, 0 59.71" stroke="#1e1e1e" stroke-width="2" fill="none"></path></g></g><mask></mask><g stroke-linecap="round" transform="translate(361.5358657610839 380.4825100783628) rotate(0 29.765763632943106 29.765763632943163)"><path d="M0 0 L59.53 0 L59.53 59.53 L0 59.53" stroke="none" stroke-width="0" fill="#a5d8ff"></path><path d="M0 0 C21.05 0, 42.11 0, 59.53 0 M0 0 C18.44 0, 36.88 0, 59.53 0 M59.53 0 C59.53 23.59, 59.53 47.17, 59.53 59.53 M59.53 0 C59.53 13.2, 59.53 26.39, 59.53 59.53 M59.53 59.53 C41.01 59.53, 22.49 59.53, 0 59.53 M59.53 59.53 C37.53 59.53, 15.52 59.53, 0 59.53 M0 59.53 C0 37.29, 0 15.04, 0 0 M0 59.53 C0 36.76, 0 14, 0 0" stroke="#1e1e1e" stroke-width="2" fill="none"></path></g><g transform="translate(374.97057470652703 394.1482737113056) rotate(0 16.3310546875 16.09999999999991)"><text x="16.3310546875" y="23.660546874999998" font-family="Helvetica, Segoe UI Emoji" font-size="28px" fill="#1e1e1e" text-anchor="middle" style="white-space: pre;" direction="ltr" dominant-baseline="alphabetic">12</text></g><g stroke-linecap="round" transform="translate(432.37835556640294 380.4825100783628) rotate(0 29.765763632943106 29.765763632943163)"><path d="M0 0 L59.53 0 L59.53 59.53 L0 59.53" stroke="none" stroke-width="0" fill="#a5d8ff"></path><path d="M0 0 C18.1 0, 36.2 0, 59.53 0 M0 0 C23.49 0, 46.99 0, 59.53 0 M59.53 0 C59.53 20.15, 59.53 40.3, 59.53 59.53 M59.53 0 C59.53 15.25, 59.53 30.5, 59.53 59.53 M59.53 59.53 C39.87 59.53, 20.21 59.53, 0 59.53 M59.53 59.53 C40.56 59.53, 21.6 59.53, 0 59.53 M0 59.53 C0 41.19, 0 22.84, 0 0 M0 59.53 C0 41.61, 0 23.7, 0 0" stroke="#1e1e1e" stroke-width="2" fill="none"></path></g><g transform="translate(445.84040826184605 394.1482737113056) rotate(0 16.3037109375 16.09999999999991)"><text x="16.3037109375" y="23.660546874999998" font-family="Helvetica, Segoe UI Emoji" font-size="28px" fill="#1e1e1e" text-anchor="middle" style="white-space: pre;" direction="ltr" dominant-baseline="alphabetic">13</text></g><g stroke-linecap="round" transform="translate(503.58734800360367 380.4825100783628) rotate(0 29.765763632943106 29.765763632943163)"><path d="M0 0 L59.53 0 L59.53 59.53 L0 59.53" stroke="none" stroke-width="0" fill="#a5d8ff"></path><path d="M0 0 C18.23 0, 36.46 0, 59.53 0 M0 0 C20.67 0, 41.34 0, 59.53 0 M59.53 0 C59.53 20.25, 59.53 40.51, 59.53 59.53 M59.53 0 C59.53 21.47, 59.53 42.93, 59.53 59.53 M59.53 59.53 C39.25 59.53, 18.97 59.53, 0 59.53 M59.53 59.53 C45.96 59.53, 32.39 59.53, 0 59.53 M0 59.53 C0 43.76, 0 27.98, 0 0 M0 59.53 C0 36.7, 0 13.86, 0 0" stroke="#1e1e1e" stroke-width="2" fill="none"></path></g><g transform="translate(516.9058460115468 394.1482737113056) rotate(0 16.447265625 16.09999999999991)"><text x="16.447265625" y="23.660546874999998" font-family="Helvetica, Segoe UI Emoji" font-size="28px" fill="#1e1e1e" text-anchor="middle" style="white-space: pre;" direction="ltr" dominant-baseline="alphabetic">14</text></g><g stroke-linecap="round" transform="translate(572.2773985727596 380.4825100783628) rotate(0 29.765763632943106 29.765763632943163)"><path d="M0 0 L59.53 0 L59.53 59.53 L0 59.53" stroke="none" stroke-width="0" fill="#a5d8ff"></path><path d="M0 0 C21.92 0, 43.84 0, 59.53 0 M0 0 C16.15 0, 32.31 0, 59.53 0 M59.53 0 C59.53 23.71, 59.53 47.42, 59.53 59.53 M59.53 0 C59.53 13.37, 59.53 26.74, 59.53 59.53 M59.53 59.53 C37.01 59.53, 14.48 59.53, 0 59.53 M59.53 59.53 C40.29 59.53, 21.04 59.53, 0 59.53 M0 59.53 C0 37.56, 0 15.58, 0 0 M0 59.53 C0 39.18, 0 18.83, 0 0" stroke="#1e1e1e" stroke-width="2" fill="none"></path></g><g transform="translate(585.7257793932026 394.1482737113056) rotate(0 16.3173828125 16.09999999999991)"><text x="16.3173828125" y="23.660546874999998" font-family="Helvetica, Segoe UI Emoji" font-size="28px" fill="#1e1e1e" text-anchor="middle" style="white-space: pre;" direction="ltr" dominant-baseline="alphabetic">15</text></g><g stroke-linecap="round" transform="translate(361.22814648482216 450.1959038187397) rotate(0 135.26556396484375 21.09999999999991)"><path d="M0 0 L270.53 0 L270.53 42.2 L0 42.2" stroke="none" stroke-width="0" fill="#ffc9c9"></path><path d="M0 0 C66.17 0, 132.35 0, 270.53 0 M0 0 C101.17 0, 202.33 0, 270.53 0 M270.53 0 C270.53 15.05, 270.53 30.1, 270.53 42.2 M270.53 0 C270.53 14.4, 270.53 28.8, 270.53 42.2 M270.53 42.2 C209.35 42.2, 148.17 42.2, 0 42.2 M270.53 42.2 C180.3 42.2, 90.07 42.2, 0 42.2 M0 42.2 C0 25.63, 0 9.07, 0 0 M0 42.2 C0 29.93, 0 17.67, 0 0" stroke="#1e1e1e" stroke-width="2" fill="none"></path></g><g transform="translate(435.8384370121659 455.1959038187397) rotate(0 60.6552734375 16.09999999999991)"><text x="60.6552734375" y="23.660546874999998" font-family="Helvetica, Segoe UI Emoji" font-size="28px" fill="#1e1e1e" text-anchor="middle" style="white-space: pre;" direction="ltr" dominant-baseline="alphabetic">16 MB L3</text></g></svg>