<svg version="1.1" xmlns="http://www.w3.org/2000/svg" viewBox="0 0 1138.3709014000606 469.0224694787894" width="1138.3709014000606" height="469.0224694787894" class="excalidraw-svg">
  <!-- svg-source:excalidraw -->
  
  <defs>
    <style class="style-fonts">
      
    </style>
    
  </defs>
  <rect x="0" y="0" width="1138.3709014000606" height="469.0224694787894" fill="#ffffff"></rect><g stroke-linecap="round" transform="translate(10 10) rotate(0 178.37429615630845 224.5112347393947)"><path d="M0 0 L356.75 0 L356.75 449.02 L0 449.02" stroke="none" stroke-width="0" fill="#b2f2bb"></path><path d="M0 0 C104.34 0, 208.68 0, 356.75 0 M0 0 C103.38 0, 206.77 0, 356.75 0 M356.75 0 C356.75 93.13, 356.75 186.25, 356.75 449.02 M356.75 0 C356.75 163.28, 356.75 326.55, 356.75 449.02 M356.75 449.02 C281.4 449.02, 206.06 449.02, 0 449.02 M356.75 449.02 C262.57 449.02, 168.38 449.02, 0 449.02 M0 449.02 C0 297.98, 0 146.94, 0 0 M0 449.02 C0 334.07, 0 219.13, 0 0" stroke="#1e1e1e" stroke-width="2" fill="none"></path></g><g transform="translate(167.37429615630845 15) rotate(0 21 16.09999999999991)"><text x="21" y="23.660546874999998" font-family="Helvetica, Segoe UI Emoji" font-size="28px" fill="#1e1e1e" text-anchor="middle" style="white-space: pre;" direction="ltr" dominant-baseline="alphabetic">SM</text></g><g stroke-linecap="round" transform="translate(23.328707063924412 48.217577970268394) rotate(0 163.29290207676686 27.253783803435454)"><path d="M0 0 L326.59 0 L326.59 54.51 L0 54.51" stroke="none" stroke-width="0" fill="#ffffff"></path><path d="M0 0 C125.74 0, 251.47 0, 326.59 0 M0 0 C101.55 0, 203.11 0, 326.59 0 M326.59 0 C326.59 17.97, 326.59 35.95, 326.59 54.51 M326.59 0 C326.59 20.02, 326.59 40.04, 326.59 54.51 M326.59 54.51 C234.74 54.51, 142.89 54.51, 0 54.51 M326.59 54.51 C244.02 54.51, 161.46 54.51, 0 54.51 M0 54.51 C0 34.39, 0 14.28, 0 0 M0 54.51 C0 34.16, 0 13.81, 0 0" stroke="#1e1e1e" stroke-width="2" fill="none"></path></g><g transform="translate(57.75735132819125 59.37136177370394) rotate(0 128.8642578125 16.09999999999991)"><text x="128.8642578125" y="23.660546874999998" font-family="Helvetica, Segoe UI Emoji" font-size="28px" fill="#1e1e1e" text-anchor="middle" style="white-space: pre;" direction="ltr" dominant-baseline="alphabetic">L1 Instruction Cache</text></g><g stroke-linecap="round" transform="translate(24.153192023180736 110.51198264098548) rotate(0 78.64666597292938 49.05685302691518)"><path d="M0 0 L157.29 0 L157.29 98.11 L0 98.11" stroke="none" stroke-width="0" fill="#ffffff"></path><path d="M0 0 C58.62 0, 117.24 0, 157.29 0 M0 0 C49.36 0, 98.71 0, 157.29 0 M157.29 0 C157.29 31.48, 157.29 62.96, 157.29 98.11 M157.29 0 C157.29 26.76, 157.29 53.52, 157.29 98.11 M157.29 98.11 C95.1 98.11, 32.92 98.11, 0 98.11 M157.29 98.11 C108.78 98.11, 60.27 98.11, 0 98.11 M0 98.11 C0 74.26, 0 50.41, 0 0 M0 98.11 C0 60.72, 0 23.33, 0 0" stroke="#1e1e1e" stroke-width="2" fill="none"></path></g><g transform="translate(33.29888143361012 127.36883566790038) rotate(0 69.5009765625 32.19999999999982)"><text x="69.5009765625" y="23.660546874999998" font-family="Helvetica, Segoe UI Emoji" font-size="28px" fill="#1e1e1e" text-anchor="middle" style="white-space: pre;" direction="ltr" dominant-baseline="alphabetic">Processing</text><text x="69.5009765625" y="55.860546875" font-family="Helvetica, Segoe UI Emoji" font-size="28px" fill="#1e1e1e" text-anchor="middle" style="white-space: pre;" direction="ltr" dominant-baseline="alphabetic">Block</text></g><g stroke-linecap="round" transform="translate(193.31698022454373 110.51198264098548) rotate(0 78.64666597292937 49.05685302691518)"><path d="M0 0 L157.29 0 L157.29 98.11 L0 98.11" stroke="none" stroke-width="0" fill="#a5d8ff"></path><path d="M0 0 C48.89 0, 97.77 0, 157.29 0 M0 0 C61.43 0, 122.86 0, 157.29 0 M157.29 0 C157.29 29.47, 157.29 58.93, 157.29 98.11 M157.29 0 C157.29 36.13, 157.29 72.26, 157.29 98.11 M157.29 98.11 C123.14 98.11, 88.98 98.11, 0 98.11 M157.29 98.11 C107.7 98.11, 58.11 98.11, 0 98.11 M0 98.11 C0 71.21, 0 44.31, 0 0 M0 98.11 C0 71.66, 0 45.21, 0 0" stroke="#1e1e1e" stroke-width="2" fill="none"></path></g><g transform="translate(202.4626696349731 127.36883566790038) rotate(0 69.5009765625 32.19999999999982)"><text x="69.5009765625" y="23.660546874999998" font-family="Helvetica, Segoe UI Emoji" font-size="28px" fill="#1e1e1e" text-anchor="middle" style="white-space: pre;" direction="ltr" dominant-baseline="alphabetic">Processing</text><text x="69.5009765625" y="55.860546875" font-family="Helvetica, Segoe UI Emoji" font-size="28px" fill="#1e1e1e" text-anchor="middle" style="white-space: pre;" direction="ltr" dominant-baseline="alphabetic">Block</text></g><g stroke-linecap="round" transform="translate(23.59423096491122 217.39029263673729) rotate(0 78.64666597292936 49.05685302691518)"><path d="M0 0 L157.29 0 L157.29 98.11 L0 98.11" stroke="none" stroke-width="0" fill="#ffffff"></path><path d="M0 0 C41.05 0, 82.1 0, 157.29 0 M0 0 C34.47 0, 68.94 0, 157.29 0 M157.29 0 C157.29 24.63, 157.29 49.26, 157.29 98.11 M157.29 0 C157.29 30.08, 157.29 60.17, 157.29 98.11 M157.29 98.11 C112.36 98.11, 67.43 98.11, 0 98.11 M157.29 98.11 C125.22 98.11, 93.14 98.11, 0 98.11 M0 98.11 C0 76.44, 0 54.76, 0 0 M0 98.11 C0 66.29, 0 34.46, 0 0" stroke="#1e1e1e" stroke-width="2" fill="none"></path></g><g transform="translate(32.7399203753406 234.2471456636522) rotate(0 69.5009765625 32.19999999999982)"><text x="69.5009765625" y="23.660546874999998" font-family="Helvetica, Segoe UI Emoji" font-size="28px" fill="#1e1e1e" text-anchor="middle" style="white-space: pre;" direction="ltr" dominant-baseline="alphabetic">Processing</text><text x="69.5009765625" y="55.860546875" font-family="Helvetica, Segoe UI Emoji" font-size="28px" fill="#1e1e1e" text-anchor="middle" style="white-space: pre;" direction="ltr" dominant-baseline="alphabetic">Block</text></g><g stroke-linecap="round" transform="translate(193.31698022454373 217.39029263673729) rotate(0 78.64666597292937 49.05685302691518)"><path d="M0 0 L157.29 0 L157.29 98.11 L0 98.11" stroke="none" stroke-width="0" fill="#ffffff"></path><path d="M0 0 C57.77 0, 115.54 0, 157.29 0 M0 0 C59.91 0, 119.83 0, 157.29 0 M157.29 0 C157.29 24.63, 157.29 49.26, 157.29 98.11 M157.29 0 C157.29 31.19, 157.29 62.38, 157.29 98.11 M157.29 98.11 C119.92 98.11, 82.55 98.11, 0 98.11 M157.29 98.11 C104.06 98.11, 50.84 98.11, 0 98.11 M0 98.11 C0 61.21, 0 24.31, 0 0 M0 98.11 C0 62.52, 0 26.92, 0 0" stroke="#1e1e1e" stroke-width="2" fill="none"></path></g><g transform="translate(202.4626696349731 234.2471456636522) rotate(0 69.5009765625 32.19999999999982)"><text x="69.5009765625" y="23.660546874999998" font-family="Helvetica, Segoe UI Emoji" font-size="28px" fill="#1e1e1e" text-anchor="middle" style="white-space: pre;" direction="ltr" dominant-baseline="alphabetic">Processing</text><text x="69.5009765625" y="55.860546875" font-family="Helvetica, Segoe UI Emoji" font-size="28px" fill="#1e1e1e" text-anchor="middle" style="white-space: pre;" direction="ltr" dominant-baseline="alphabetic">Block</text></g><g stroke-linecap="round" transform="translate(22.342245866589394 326.1012038090994) rotate(0 164.5754355770884 27.253783803435454)"><path d="M0 0 L329.15 0 L329.15 54.51 L0 54.51" stroke="none" stroke-width="0" fill="#ffffff"></path><path d="M0 0 C94.37 0, 188.74 0, 329.15 0 M0 0 C124.56 0, 249.12 0, 329.15 0 M329.15 0 C329.15 15.45, 329.15 30.91, 329.15 54.51 M329.15 0 C329.15 20.43, 329.15 40.87, 329.15 54.51 M329.15 54.51 C205.03 54.51, 80.91 54.51, 0 54.51 M329.15 54.51 C243.27 54.51, 157.4 54.51, 0 54.51 M0 54.51 C0 34.14, 0 13.77, 0 0 M0 54.51 C0 41.07, 0 27.64, 0 0" stroke="#1e1e1e" stroke-width="2" fill="none"></path></g><g transform="translate(80.3317439436778 337.25498761253493) rotate(0 106.5859375 16.09999999999991)"><text x="106.5859375" y="23.660546874999998" font-family="Helvetica, Segoe UI Emoji" font-size="28px" fill="#1e1e1e" text-anchor="middle" style="white-space: pre;" direction="ltr" dominant-baseline="alphabetic">192KB L1 Cache</text></g><g stroke-linecap="round" transform="translate(22.769746005654838 389.39190448975023) rotate(0 164.59734967507202 27.253783803435454)"><path d="M0 0 L329.19 0 L329.19 54.51 L0 54.51" stroke="none" stroke-width="0" fill="#ffffff"></path><path d="M0 0 C96.07 0, 192.15 0, 329.19 0 M0 0 C128.6 0, 257.21 0, 329.19 0 M329.19 0 C329.19 17.35, 329.19 34.71, 329.19 54.51 M329.19 0 C329.19 12.98, 329.19 25.95, 329.19 54.51 M329.19 54.51 C246.72 54.51, 164.25 54.51, 0 54.51 M329.19 54.51 C246.63 54.51, 164.06 54.51, 0 54.51 M0 54.51 C0 37.51, 0 20.51, 0 0 M0 54.51 C0 33.38, 0 12.25, 0 0" stroke="#1e1e1e" stroke-width="2" fill="none"></path></g><g transform="translate(93.96768161822683 400.5456882931858) rotate(0 93.3994140625 16.09999999999991)"><text x="93.3994140625" y="23.660546874999998" font-family="Helvetica, Segoe UI Emoji" font-size="28px" fill="#1e1e1e" text-anchor="middle" style="white-space: pre;" direction="ltr" dominant-baseline="alphabetic">4x Texture Unit</text></g><g stroke-linecap="round" transform="translate(394.279517175262 10) rotate(0 178.37429615630845 224.5112347393947)"><path d="M0 0 L356.75 0 L356.75 449.02 L0 449.02" stroke="none" stroke-width="0" fill="#a5d8ff"></path><path d="M0 0 C122.83 0, 245.66 0, 356.75 0 M0 0 C131.72 0, 263.43 0, 356.75 0 M356.75 0 C356.75 99.25, 356.75 198.5, 356.75 449.02 M356.75 0 C356.75 98.6, 356.75 197.2, 356.75 449.02 M356.75 449.02 C238.27 449.02, 119.79 449.02, 0 449.02 M356.75 449.02 C222.24 449.02, 87.73 449.02, 0 449.02 M0 449.02 C0 272.82, 0 96.62, 0 0 M0 449.02 C0 356.76, 0 264.51, 0 0" stroke="#1e1e1e" stroke-width="2" fill="none"></path></g><g transform="translate(464.13330551907046 15) rotate(0 108.5205078125 16.09999999999991)"><text x="108.5205078125" y="23.660546874999998" font-family="Helvetica, Segoe UI Emoji" font-size="28px" fill="#1e1e1e" text-anchor="middle" style="white-space: pre;" direction="ltr" dominant-baseline="alphabetic">Processing Block</text></g><g stroke-linecap="round" transform="translate(411.25962030903213 48.217577970268394) rotate(0 163.29290207676686 27.253783803435454)"><path d="M0 0 L326.59 0 L326.59 54.51 L0 54.51" stroke="none" stroke-width="0" fill="#ffffff"></path><path d="M0 0 C85.96 0, 171.91 0, 326.59 0 M0 0 C100.08 0, 200.16 0, 326.59 0 M326.59 0 C326.59 15.31, 326.59 30.62, 326.59 54.51 M326.59 0 C326.59 12.39, 326.59 24.79, 326.59 54.51 M326.59 54.51 C200.1 54.51, 73.61 54.51, 0 54.51 M326.59 54.51 C214.83 54.51, 103.08 54.51, 0 54.51 M0 54.51 C0 36.96, 0 19.42, 0 0 M0 54.51 C0 33.22, 0 11.93, 0 0" stroke="#1e1e1e" stroke-width="2" fill="none"></path></g><g transform="translate(490.35428019829897 59.37136177370394) rotate(0 84.1982421875 16.09999999999991)"><text x="84.1982421875" y="23.660546874999998" font-family="Helvetica, Segoe UI Emoji" font-size="28px" fill="#1e1e1e" text-anchor="middle" style="white-space: pre;" direction="ltr" dominant-baseline="alphabetic">L0 Instruction</text></g><g stroke-linecap="round" transform="translate(411.25962030903213 113.05905053054266) rotate(0 163.29290207676686 27.253783803435454)"><path d="M0 0 L326.59 0 L326.59 54.51 L0 54.51" stroke="none" stroke-width="0" fill="#ffffff"></path><path d="M0 0 C89.19 0, 178.38 0, 326.59 0 M0 0 C81.46 0, 162.92 0, 326.59 0 M326.59 0 C326.59 15.39, 326.59 30.78, 326.59 54.51 M326.59 0 C326.59 11.26, 326.59 22.53, 326.59 54.51 M326.59 54.51 C225.87 54.51, 125.15 54.51, 0 54.51 M326.59 54.51 C249.84 54.51, 173.09 54.51, 0 54.51 M0 54.51 C0 34.22, 0 13.93, 0 0 M0 54.51 C0 36.36, 0 18.21, 0 0" stroke="#1e1e1e" stroke-width="2" fill="none"></path></g><g transform="translate(474.59744426079897 124.21283433397821) rotate(0 99.955078125 16.09999999999991)"><text x="99.955078125" y="23.660546874999998" font-family="Helvetica, Segoe UI Emoji" font-size="28px" fill="#1e1e1e" text-anchor="middle" style="white-space: pre;" direction="ltr" dominant-baseline="alphabetic">Warp Scheduler</text></g><g stroke-linecap="round" transform="translate(411.25962030903213 176.78255771773456) rotate(0 163.29290207676686 27.253783803435454)"><path d="M0 0 L326.59 0 L326.59 54.51 L0 54.51" stroke="none" stroke-width="0" fill="#ffffff"></path><path d="M0 0 C71.36 0, 142.72 0, 326.59 0 M0 0 C87.59 0, 175.18 0, 326.59 0 M326.59 0 C326.59 18.06, 326.59 36.12, 326.59 54.51 M326.59 0 C326.59 19.93, 326.59 39.85, 326.59 54.51 M326.59 54.51 C242.25 54.51, 157.92 54.51, 0 54.51 M326.59 54.51 C237 54.51, 147.42 54.51, 0 54.51 M0 54.51 C0 42.59, 0 30.68, 0 0 M0 54.51 C0 39.64, 0 24.77, 0 0" stroke="#1e1e1e" stroke-width="2" fill="none"></path></g><g transform="translate(490.49783488579897 187.9363415211701) rotate(0 84.0546875 16.09999999999991)"><text x="84.0546875" y="23.660546874999998" font-family="Helvetica, Segoe UI Emoji" font-size="28px" fill="#1e1e1e" text-anchor="middle" style="white-space: pre;" direction="ltr" dominant-baseline="alphabetic">Dispatch Unit</text></g><g stroke-linecap="round" transform="translate(411.25962030903213 242.74199565109302) rotate(0 163.29290207676686 26.694801116893814)"><path d="M0 0 L326.59 0 L326.59 53.39 L0 53.39" stroke="none" stroke-width="0" fill="#ffffff"></path><path d="M0 0 C93.27 0, 186.54 0, 326.59 0 M0 0 C85.97 0, 171.94 0, 326.59 0 M326.59 0 C326.59 11.01, 326.59 22.02, 326.59 53.39 M326.59 0 C326.59 12.98, 326.59 25.95, 326.59 53.39 M326.59 53.39 C258.32 53.39, 190.06 53.39, 0 53.39 M326.59 53.39 C226.24 53.39, 125.9 53.39, 0 53.39 M0 53.39 C0 37.09, 0 20.78, 0 0 M0 53.39 C0 38.46, 0 23.54, 0 0" stroke="#1e1e1e" stroke-width="2" fill="none"></path></g><g transform="translate(495.35135051079897 253.33679676798693) rotate(0 79.201171875 16.09999999999991)"><text x="79.201171875" y="23.660546874999998" font-family="Helvetica, Segoe UI Emoji" font-size="28px" fill="#1e1e1e" text-anchor="middle" style="white-space: pre;" direction="ltr" dominant-baseline="alphabetic">Register File</text></g><g stroke-linecap="round" transform="translate(413.4954645421102 389.37320937829463) rotate(0 92.96687618589273 27.253783803435454)"><path d="M0 0 L185.93 0 L185.93 54.51 L0 54.51" stroke="none" stroke-width="0" fill="#ffffff"></path><path d="M0 0 C51.42 0, 102.84 0, 185.93 0 M0 0 C38.12 0, 76.24 0, 185.93 0 M185.93 0 C185.93 21.04, 185.93 42.08, 185.93 54.51 M185.93 0 C185.93 15.31, 185.93 30.62, 185.93 54.51 M185.93 54.51 C124.65 54.51, 63.36 54.51, 0 54.51 M185.93 54.51 C126.61 54.51, 67.29 54.51, 0 54.51 M0 54.51 C0 34.13, 0 13.76, 0 0 M0 54.51 C0 35.56, 0 16.6, 0 0" stroke="#1e1e1e" stroke-width="2" fill="none"></path></g><g transform="translate(419.2904657280029 400.5269931817302) rotate(0 87.171875 16.09999999999991)"><text x="87.171875" y="23.660546874999998" font-family="Helvetica, Segoe UI Emoji" font-size="28px" fill="#1e1e1e" text-anchor="middle" style="white-space: pre;" direction="ltr" dominant-baseline="alphabetic">8x Load/Store</text></g><g stroke-linecap="round" transform="translate(611.7329602947652 388.61190776643343) rotate(0 60.852295727587176 27.253783803435454)"><path d="M0 0 L121.7 0 L121.7 54.51 L0 54.51" stroke="none" stroke-width="0" fill="#ffffff"></path><path d="M0 0 C32.67 0, 65.35 0, 121.7 0 M0 0 C34.43 0, 68.87 0, 121.7 0 M121.7 0 C121.7 13.23, 121.7 26.46, 121.7 54.51 M121.7 0 C121.7 13.12, 121.7 26.23, 121.7 54.51 M121.7 54.51 C83.55 54.51, 45.4 54.51, 0 54.51 M121.7 54.51 C79.16 54.51, 36.62 54.51, 0 54.51 M0 54.51 C0 39.08, 0 23.65, 0 0 M0 54.51 C0 38.91, 0 23.32, 0 0" stroke="#1e1e1e" stroke-width="2" fill="none"></path></g><g transform="translate(625.9094747723524 399.765691569869) rotate(0 46.67578125 16.09999999999991)"><text x="46.67578125" y="23.660546874999998" font-family="Helvetica, Segoe UI Emoji" font-size="28px" fill="#1e1e1e" text-anchor="middle" style="white-space: pre;" direction="ltr" dominant-baseline="alphabetic">4x SFU</text></g><g stroke-linecap="round" transform="translate(411.25962030903213 307.02450715309715) rotate(0 163.29290207676686 32.284584725764034)"><path d="M0 0 L326.59 0 L326.59 64.57 L0 64.57" stroke="none" stroke-width="0" fill="#ffc9c9"></path><path d="M0 0 C85.84 0, 171.68 0, 326.59 0 M0 0 C73.25 0, 146.51 0, 326.59 0 M326.59 0 C326.59 13.51, 326.59 27.02, 326.59 64.57 M326.59 0 C326.59 24.41, 326.59 48.82, 326.59 64.57 M326.59 64.57 C231.84 64.57, 137.09 64.57, 0 64.57 M326.59 64.57 C259.41 64.57, 192.23 64.57, 0 64.57 M0 64.57 C0 48.16, 0 31.76, 0 0 M0 64.57 C0 42.55, 0 20.53, 0 0" stroke="#1e1e1e" stroke-width="2" fill="none"></path></g><g transform="translate(480.30545207329897 323.2090918788608) rotate(0 94.2470703125 16.09999999999991)"><text x="94.2470703125" y="23.660546874999998" font-family="Helvetica, Segoe UI Emoji" font-size="28px" fill="#1e1e1e" text-anchor="middle" style="white-space: pre;" direction="ltr" dominant-baseline="alphabetic">Functional Unit</text></g><g stroke-linecap="round" transform="translate(771.6223090874435 10) rotate(0 178.37429615630847 224.5112347393947)"><path d="M0 0 L356.75 0 L356.75 449.02 L0 449.02" stroke="none" stroke-width="0" fill="#ffc9c9"></path><path d="M0 0 C117.78 0, 235.55 0, 356.75 0 M0 0 C99.36 0, 198.72 0, 356.75 0 M356.75 0 C356.75 173.95, 356.75 347.89, 356.75 449.02 M356.75 0 C356.75 157.16, 356.75 314.33, 356.75 449.02 M356.75 449.02 C254.95 449.02, 153.14 449.02, 0 449.02 M356.75 449.02 C223.62 449.02, 90.49 449.02, 0 449.02 M0 449.02 C0 282.27, 0 115.51, 0 0 M0 449.02 C0 331.95, 0 214.87, 0 0" stroke="#1e1e1e" stroke-width="2" fill="none"></path></g><g transform="translate(855.7495349312519 15) rotate(0 94.24707031250003 16.09999999999991)"><text x="94.2470703125" y="23.660546874999998" font-family="Helvetica, Segoe UI Emoji" font-size="28px" fill="#1e1e1e" text-anchor="middle" style="white-space: pre;" direction="ltr" dominant-baseline="alphabetic">Functional Unit</text></g><g stroke-linecap="round" transform="translate(785.5195451827325 48.217577970268394) rotate(0 163.29290207676684 27.253783803435454)"><path d="M0 0 L326.59 0 L326.59 54.51 L0 54.51" stroke="none" stroke-width="0" fill="#ffffff"></path><path d="M0 0 C122.98 0, 245.96 0, 326.59 0 M0 0 C90.09 0, 180.18 0, 326.59 0 M326.59 0 C326.59 19.79, 326.59 39.57, 326.59 54.51 M326.59 0 C326.59 16.39, 326.59 32.77, 326.59 54.51 M326.59 54.51 C198.31 54.51, 70.03 54.51, 0 54.51 M326.59 54.51 C201.95 54.51, 77.32 54.51, 0 54.51 M0 54.51 C0 39.46, 0 24.41, 0 0 M0 54.51 C0 37.98, 0 21.45, 0 0" stroke="#1e1e1e" stroke-width="2" fill="none"></path></g><g transform="translate(800.7186972594993 59.37136177370394) rotate(0 148.09375 16.09999999999991)"><text x="148.09375" y="23.660546874999998" font-family="Helvetica, Segoe UI Emoji" font-size="28px" fill="#1e1e1e" text-anchor="middle" style="white-space: pre;" direction="ltr" dominant-baseline="alphabetic">16x Int32 Compute Unit</text></g><g stroke-linecap="round" transform="translate(785.5195451827325 114.80749645875221) rotate(0 163.29290207676684 27.253783803435454)"><path d="M0 0 L326.59 0 L326.59 54.51 L0 54.51" stroke="none" stroke-width="0" fill="#ffffff"></path><path d="M0 0 C86.19 0, 172.38 0, 326.59 0 M0 0 C100.86 0, 201.72 0, 326.59 0 M326.59 0 C326.59 12.13, 326.59 24.26, 326.59 54.51 M326.59 0 C326.59 18.24, 326.59 36.49, 326.59 54.51 M326.59 54.51 C249.62 54.51, 172.65 54.51, 0 54.51 M326.59 54.51 C231.32 54.51, 136.06 54.51, 0 54.51 M0 54.51 C0 37.44, 0 20.37, 0 0 M0 54.51 C0 39.74, 0 24.97, 0 0" stroke="#1e1e1e" stroke-width="2" fill="none"></path></g><g transform="translate(798.3944785094993 125.96128026218776) rotate(0 150.41796875 16.09999999999991)"><text x="150.41796875" y="23.660546874999998" font-family="Helvetica, Segoe UI Emoji" font-size="28px" fill="#1e1e1e" text-anchor="middle" style="white-space: pre;" direction="ltr" dominant-baseline="alphabetic">16x FP32 Compute Unit</text></g><g stroke-linecap="round" transform="translate(785.5195451827325 180.78086062495458) rotate(0 163.29290207676684 27.253783803435454)"><path d="M0 0 L326.59 0 L326.59 54.51 L0 54.51" stroke="none" stroke-width="0" fill="#ffffff"></path><path d="M0 0 C127.98 0, 255.96 0, 326.59 0 M0 0 C105.42 0, 210.84 0, 326.59 0 M326.59 0 C326.59 13.52, 326.59 27.03, 326.59 54.51 M326.59 0 C326.59 20.43, 326.59 40.86, 326.59 54.51 M326.59 54.51 C239.74 54.51, 152.88 54.51, 0 54.51 M326.59 54.51 C210.23 54.51, 93.87 54.51, 0 54.51 M0 54.51 C0 33.96, 0 13.42, 0 0 M0 54.51 C0 41.07, 0 27.63, 0 0" stroke="#1e1e1e" stroke-width="2" fill="none"></path></g><g transform="translate(807.0692831969993 191.93464442839013) rotate(0 141.7431640625 16.09999999999991)"><text x="141.7431640625" y="23.660546874999998" font-family="Helvetica, Segoe UI Emoji" font-size="28px" fill="#1e1e1e" text-anchor="middle" style="white-space: pre;" direction="ltr" dominant-baseline="alphabetic">8x FP64 Compute Unit</text></g><g stroke-linecap="round" transform="translate(785.5195451827325 247.3707791134384) rotate(0 163.29290207676684 95.38513581115967)"><path d="M0 0 L326.59 0 L326.59 190.77 L0 190.77" stroke="none" stroke-width="0" fill="#ffffff"></path><path d="M0 0 C114.1 0, 228.19 0, 326.59 0 M0 0 C82.81 0, 165.61 0, 326.59 0 M326.59 0 C326.59 50.2, 326.59 100.39, 326.59 190.77 M326.59 0 C326.59 46.12, 326.59 92.24, 326.59 190.77 M326.59 190.77 C235.32 190.77, 144.05 190.77, 0 190.77 M326.59 190.77 C259.45 190.77, 192.31 190.77, 0 190.77 M0 190.77 C0 120.46, 0 50.16, 0 0 M0 190.77 C0 141.15, 0 91.54, 0 0" stroke="#1e1e1e" stroke-width="2" fill="none"></path></g><g transform="translate(872.5575644469993 326.6559149245977) rotate(0 76.2548828125 16.09999999999991)"><text x="76.2548828125" y="23.660546874999998" font-family="Helvetica, Segoe UI Emoji" font-size="28px" fill="#1e1e1e" text-anchor="middle" style="white-space: pre;" direction="ltr" dominant-baseline="alphabetic">Tensor Core</text></g></svg>